<svg xmlns="http://www.w3.org/2000/svg" width="17" height="17" viewBox="0 0 17 17" fill="none">
    <path fill-rule="evenodd" clip-rule="evenodd" d="M7.23286 2.31452C6.06933 2.31452 4.95346 2.77673 4.13072 3.59947C3.30798 4.42221 2.84577 5.53808 2.84577 6.70161C2.84577 7.27773 2.95924 7.84822 3.17971 8.38048C3.40019 8.91275 3.72334 9.39638 4.13072 9.80376C4.5381 10.2111 5.02173 10.5343 5.55399 10.7548C6.08626 10.9752 6.65674 11.0887 7.23286 11.0887C7.80898 11.0887 8.37947 10.9752 8.91173 10.7548C9.444 10.5343 9.92763 10.2111 10.335 9.80376C10.7424 9.39638 11.0655 8.91275 11.286 8.38048C11.5065 7.84822 11.62 7.27773 11.62 6.70161C11.62 5.53808 11.1577 4.42221 10.335 3.59947C9.51227 2.77673 8.39639 2.31452 7.23286 2.31452ZM2.67088 2.13963C3.8808 0.929721 5.52179 0.25 7.23286 0.25C8.94394 0.25 10.5849 0.929722 11.7948 2.13963C13.0048 3.34955 13.6845 4.99054 13.6845 6.70161C13.6845 7.54885 13.5176 8.38779 13.1934 9.17054C13.0018 9.6331 12.7574 10.0707 12.466 10.4749L16.4789 14.4878C16.882 14.8909 16.882 15.5445 16.4789 15.9477C16.0758 16.3508 15.4222 16.3508 15.0191 15.9477L11.0062 11.9347C10.6019 12.2262 10.1643 12.4705 9.70179 12.6621C8.91904 12.9864 8.0801 13.1532 7.23286 13.1532C6.38563 13.1532 5.54668 12.9864 4.76394 12.6621C3.98119 12.3379 3.26997 11.8627 2.67088 11.2636C2.0718 10.6645 1.59657 9.95328 1.27235 9.17054C0.948126 8.38779 0.78125 7.54885 0.78125 6.70161C0.78125 4.99054 1.46097 3.34955 2.67088 2.13963Z" fill="#000"/>
</svg>