<svg width="24" height="24" viewBox="0 0 24 24" fill="none" xmlns="http://www.w3.org/2000/svg">
<g clip-path="url(#clip0_4711_24234)">
<path d="M9.25 16.125C10.295 16.125 11.245 15.76 12 15.155C12.755 15.76 13.705 16.125 14.75 16.125C17.165 16.125 19.125 14.165 19.125 11.75C19.125 9.335 17.165 7.375 14.75 7.375C13.705 7.375 12.755 7.74 12 8.345C11.245 7.74 10.295 7.375 9.25 7.375C6.835 7.375 4.875 9.335 4.875 11.75C4.875 14.165 6.835 16.125 9.25 16.125ZM14.75 8.125C16.75 8.125 18.375 9.75 18.375 11.75C18.375 13.75 16.75 15.375 14.75 15.375C13.92 15.375 13.16 15.095 12.55 14.625C13.22 13.855 13.625 12.85 13.625 11.75C13.625 10.65 13.22 9.645 12.55 8.875C13.16 8.405 13.92 8.125 14.75 8.125ZM12.875 11.75C12.875 12.65 12.545 13.47 12 14.105C11.455 13.47 11.125 12.65 11.125 11.75C11.125 10.85 11.455 10.03 12 9.395C12.545 10.03 12.875 10.85 12.875 11.75ZM9.25 8.125C10.08 8.125 10.84 8.405 11.45 8.875C10.78 9.645 10.375 10.65 10.375 11.75C10.375 12.85 10.78 13.855 11.45 14.625C10.84 15.095 10.08 15.375 9.25 15.375C7.25 15.375 5.625 13.75 5.625 11.75C5.625 9.75 7.25 8.125 9.25 8.125Z" fill="black"/>
<path d="M1.25 4V19.5H22.75V4H1.25ZM21.75 18.5H2.25V5H21.75V18.5Z" fill="black"/>
</g>
<defs>
<clipPath id="clip0_4711_24234">
<rect width="24" height="24" fill="white"/>
</clipPath>
</defs>
</svg>
