<svg width="24" height="24" viewBox="0 0 24 24" fill="none" xmlns="http://www.w3.org/2000/svg">
<g clip-path="url(#clip0_4711_22949)">
<path d="M12 1C5.935 1 1 5.935 1 12C1 18.065 5.935 23 12 23C18.065 23 23 18.065 23 12C23 5.935 18.065 1 12 1ZM12 21.5C6.76 21.5 2.5 17.24 2.5 12C2.5 6.76 6.76 2.5 12 2.5C17.24 2.5 21.5 6.76 21.5 12C21.5 17.24 17.24 21.5 12 21.5Z" fill="black"/>
<path d="M12 12C13.38 12 14.5 10.88 14.5 9.5C14.5 8.12 13.38 7 12 7C10.62 7 9.5 8.12 9.5 9.5C9.5 10.88 10.62 12 12 12ZM12 8.5C12.55 8.5 13 8.95 13 9.5C13 10.05 12.55 10.5 12 10.5C11.45 10.5 11 10.05 11 9.5C11 8.95 11.45 8.5 12 8.5Z" fill="black"/>
<path d="M8.09 13.6651L7.75 13.8851V17.0001H16.25V13.8851L15.91 13.6651C13.535 12.1051 10.465 12.1051 8.09 13.6651ZM14.75 15.5001H9.25V14.7151C10.96 13.7601 13.04 13.7601 14.75 14.7151V15.5001Z" fill="black"/>
</g>
<defs>
<clipPath id="clip0_4711_22949">
<rect width="24" height="24" fill="white"/>
</clipPath>
</defs>
</svg>
