<svg width="24" height="24" viewBox="0 0 24 24" fill="none" xmlns="http://www.w3.org/2000/svg">
<g clip-path="url(#clip0_4711_21772)">
<path d="M12 18C10.62 18 9.5 19.12 9.5 20.5C9.5 21.88 10.62 23 12 23C13.38 23 14.5 21.88 14.5 20.5C14.5 19.12 13.38 18 12 18ZM12 21.5C11.45 21.5 11 21.05 11 20.5C11 19.95 11.45 19.5 12 19.5C12.55 19.5 13 19.95 13 20.5C13 21.05 12.55 21.5 12 21.5Z" fill="black"/>
<path d="M12 16.5C13.26 16.5 14.525 15.68 14.5 14.05V3.45C14.525 1.815 13.265 1 12 1C10.74 1 9.475 1.82 9.5 3.45V14.045C9.475 15.68 10.735 16.495 12 16.495V16.5ZM11.215 2.785C11.39 2.605 11.685 2.5 12.005 2.5C12.325 2.5 12.615 2.605 12.79 2.78C12.845 2.835 13.01 3 13 3.45C13 3.505 13 14.045 13 14.065C13.005 14.49 12.84 14.655 12.79 14.71C12.615 14.89 12.32 14.995 12 14.995C11.68 14.995 11.385 14.89 11.215 14.715C11.16 14.66 10.995 14.495 11.005 14.045V3.43C11 3.005 11.165 2.84 11.215 2.785Z" fill="black"/>
</g>
<defs>
<clipPath id="clip0_4711_21772">
<rect width="24" height="24" fill="white"/>
</clipPath>
</defs>
</svg>
