<svg width="24" height="24" viewBox="0 0 24 24" fill="none" xmlns="http://www.w3.org/2000/svg">
<g clip-path="url(#clip0_4711_24217)">
<path d="M20.02 15.5451C22.62 11.8901 21.705 6.86512 17.975 4.31512C15.48 2.61012 11.555 1.99512 7.69501 1.99512V3.49512C11.835 3.49512 15.185 4.22512 17.13 5.55012C18.61 6.56012 19.59 8.07012 19.9 9.80512C20.205 11.5151 19.815 13.2451 18.8 14.6701C18.695 14.8151 18.575 14.9501 18.46 15.0851C16.545 11.4801 13.165 8.61512 10.165 6.61512L9.33501 7.86512C12.27 9.82012 15.595 12.6401 17.32 16.1501C16.165 17.0001 14.745 17.4901 13.255 17.4901C11.87 17.4901 10.535 17.0801 9.40001 16.3001C7.79001 15.2001 7.18001 12.7201 6.46501 9.85012C5.98501 7.91012 5.45001 5.75512 4.52001 3.63012C5.58501 3.54012 6.64501 3.49512 7.69501 3.49512V1.99512C6.06001 1.99512 4.44001 2.10512 2.94501 2.29012C2.60001 2.33512 2.39501 2.70512 2.55501 3.01012C5.54501 8.65512 4.95501 15.0901 8.55501 17.5451C9.99001 18.5251 11.63 18.9951 13.26 18.9951C14.89 18.9951 16.535 18.5101 17.92 17.5851C18.29 18.6651 18.505 19.8051 18.505 20.9951H20.005C20.005 19.4251 19.685 17.9451 19.145 16.5651C19.46 16.2501 19.76 15.9151 20.025 15.5451H20.02Z" fill="black"/>
</g>
<defs>
<clipPath id="clip0_4711_24217">
<rect width="24" height="24" fill="white"/>
</clipPath>
</defs>
</svg>
