<svg width="24" height="24" viewBox="0 0 24 24" fill="none" xmlns="http://www.w3.org/2000/svg">
<g clip-path="url(#clip0_4711_22521)">
<path d="M18.895 3.85488C15.095 0.0548828 8.905 0.0548828 5.105 3.85488C1.305 7.65488 1.305 13.8399 5.105 17.6449L6.165 16.5849C2.95 13.3699 2.95 8.13488 6.165 4.91988C9.38 1.70488 14.615 1.70488 17.83 4.91988C21.045 8.13488 21.045 13.3699 17.83 16.5849L18.89 17.6449C22.69 13.8449 22.69 7.65988 18.89 3.85488H18.895Z" fill="black"/>
<path d="M16.775 5.97494C14.145 3.34494 9.86001 3.34494 7.23001 5.97494C4.60001 8.60494 4.60001 12.8899 7.23001 15.5199L8.29001 14.4599C6.24501 12.4149 6.24501 9.07994 8.29001 7.03494C10.335 4.98994 13.67 4.98994 15.715 7.03494C17.76 9.07994 17.76 12.4149 15.715 14.4599L16.775 15.5199C19.405 12.8899 19.405 8.60494 16.775 5.97494Z" fill="black"/>
<path d="M15.75 10.75C15.75 8.68 14.07 7 12 7C9.93 7 8.25 8.68 8.25 10.75C8.25 12.82 9.93 14.5 12 14.5C14.07 14.5 15.75 12.82 15.75 10.75ZM9.75 10.75C9.75 9.51 10.76 8.5 12 8.5C13.24 8.5 14.25 9.51 14.25 10.75C14.25 11.99 13.24 13 12 13C10.76 13 9.75 11.99 9.75 10.75Z" fill="black"/>
<path d="M12 16C9.93 16 8.25 17.68 8.25 19.75V23H15.75V19.75C15.75 17.68 14.07 16 12 16ZM14.25 21.5H9.75V19.75C9.75 18.51 10.76 17.5 12 17.5C13.24 17.5 14.25 18.51 14.25 19.75V21.5Z" fill="black"/>
</g>
<defs>
<clipPath id="clip0_4711_22521">
<rect width="24" height="24" fill="white"/>
</clipPath>
</defs>
</svg>
