<svg width="24" height="24" viewBox="0 0 24 24" fill="none" xmlns="http://www.w3.org/2000/svg">
<g clip-path="url(#clip0_2459_4825)">
<path d="M10.75 15.03C10.75 13.77 9.74 12.75 8.5 12.75C7.26 12.75 6.25 13.775 6.25 15.03V15.5H5.5V19.5H11.5V15.5H10.75V15.03ZM7.75 15.03C7.75 14.6 8.085 14.25 8.5 14.25C8.915 14.25 9.25 14.6 9.25 15.03V15.5H7.75V15.03ZM10 18H7V17H10V18Z" fill="black"/>
<path d="M18.25 6C18.8023 6 19.25 5.55228 19.25 5C19.25 4.44772 18.8023 4 18.25 4C17.6977 4 17.25 4.44772 17.25 5C17.25 5.55228 17.6977 6 18.25 6Z" fill="black"/>
<path d="M15.75 6C16.3023 6 16.75 5.55228 16.75 5C16.75 4.44772 16.3023 4 15.75 4C15.1977 4 14.75 4.44772 14.75 5C14.75 5.55228 15.1977 6 15.75 6Z" fill="black"/>
<path d="M18.25 12.5C18.8023 12.5 19.25 12.0523 19.25 11.5C19.25 10.9477 18.8023 10.5 18.25 10.5C17.6977 10.5 17.25 10.9477 17.25 11.5C17.25 12.0523 17.6977 12.5 18.25 12.5Z" fill="black"/>
<path d="M15.75 12.5C16.3023 12.5 16.75 12.0523 16.75 11.5C16.75 10.9477 16.3023 10.5 15.75 10.5C15.1977 10.5 14.75 10.9477 14.75 11.5C14.75 12.0523 15.1977 12.5 15.75 12.5Z" fill="black"/>
<path d="M18.25 19C18.8023 19 19.25 18.5523 19.25 18C19.25 17.4477 18.8023 17 18.25 17C17.6977 17 17.25 17.4477 17.25 18C17.25 18.5523 17.6977 19 18.25 19Z" fill="black"/>
<path d="M3.75 1V12.075C2.665 13.235 2 14.79 2 16.5C2 20.09 4.91 23 8.5 23C9.79 23 10.99 22.62 12 21.97V22H21.75V1H3.75ZM3.5 16.5C3.5 13.745 5.745 11.5 8.5 11.5C11.255 11.5 13.5 13.745 13.5 16.5C13.5 19.255 11.255 21.5 8.5 21.5C5.745 21.5 3.5 19.255 3.5 16.5ZM20.25 20.5H13.615C14.48 19.395 15 18.01 15 16.5C15 16.16 14.965 15.825 14.915 15.5H20.25V20.5ZM20.25 14H14.5C13.52 11.65 11.205 10 8.5 10C7.315 10 6.205 10.32 5.25 10.875V9H20.25V14ZM5.25 7.5V2.5H20.25V7.5H5.25Z" fill="black"/>
</g>
<defs>
<clipPath id="clip0_2459_4825">
<rect width="24" height="24" fill="white"/>
</clipPath>
</defs>
</svg>
