<svg width="24" height="24" viewBox="0 0 24 24" fill="none" xmlns="http://www.w3.org/2000/svg">
<g clip-path="url(#clip0_2930_8780)">
<path d="M14.75 9C14.75 7.485 13.515 6.25 12 6.25C10.485 6.25 9.24999 7.485 9.24999 9C9.24999 9.875 9.66499 10.655 10.305 11.16L6.17999 22.5H17.82L13.695 11.16C14.335 10.655 14.75 9.875 14.75 9ZM12 7.75C12.69 7.75 13.25 8.31 13.25 9C13.25 9.69 12.69 10.25 12 10.25C11.31 10.25 10.75 9.69 10.75 9C10.75 8.31 11.31 7.75 12 7.75ZM15.68 21H8.31999L11.69 11.73C11.79 11.74 11.895 11.75 12 11.75C12.105 11.75 12.205 11.745 12.31 11.73L15.68 21Z" fill="black"/>
<path d="M7.05 13.95L8.11 12.89C5.965 10.745 5.965 7.25505 8.11 5.11005L7.05 4.05005C4.32 6.78005 4.32 11.22 7.05 13.95Z" fill="black"/>
<path d="M16.95 13.95C19.68 11.22 19.68 6.78005 16.95 4.05005L15.89 5.11005C18.035 7.25505 18.035 10.745 15.89 12.89L16.95 13.95Z" fill="black"/>
<path d="M5.28 2.27997L4.22 1.21997C2.145 3.29497 1 6.05997 1 8.99997C1 11.94 2.145 14.7 4.22 16.78L5.28 15.72C3.485 13.925 2.5 11.54 2.5 8.99997C2.5 6.45997 3.49 4.07497 5.28 2.27997Z" fill="black"/>
<path d="M19.78 1.21997L18.72 2.27997C20.515 4.07497 21.5 6.45997 21.5 8.99997C21.5 11.54 20.51 13.925 18.72 15.72L19.78 16.78C21.86 14.705 23 11.94 23 8.99997C23 6.05997 21.855 3.29997 19.78 1.21997Z" fill="black"/>
</g>
<defs>
<clipPath id="clip0_2930_8780">
<rect width="24" height="24" fill="white"/>
</clipPath>
</defs>
</svg>
