<svg width="24" height="24" viewBox="0 0 24 24" fill="none" xmlns="http://www.w3.org/2000/svg">
<g clip-path="url(#clip0_4711_19203)">
<path d="M19.75 9.25012C18.495 9.25012 17.435 10.1001 17.105 11.2501H12.675C12.55 10.6301 12.27 10.0701 11.88 9.60012L13.935 7.03012C14.275 7.17012 14.635 7.24512 15 7.24512C15.705 7.24512 16.41 6.97512 16.945 6.44012C18.015 5.36512 18.015 3.62512 16.945 2.55012C15.875 1.48012 14.13 1.48012 13.055 2.55012C12.095 3.51012 12 5.01012 12.765 6.08512L10.705 8.66012C10.19 8.39512 9.615 8.24512 9 8.24512C8.655 8.24512 8.32 8.29512 8.005 8.38512L6.805 5.82012C7.385 5.31512 7.755 4.57512 7.755 3.74512C7.755 2.23012 6.52 0.995117 5.005 0.995117C3.49 0.995117 2.255 2.23012 2.255 3.74512C2.255 5.26012 3.49 6.49512 5.005 6.49512C5.155 6.49512 5.305 6.48012 5.445 6.45512L6.67 9.06512C5.81 9.75512 5.255 10.8101 5.255 11.9951C5.255 13.1801 5.775 14.1651 6.585 14.8551L5.34 17.5151C5.23001 17.5001 5.12 17.4951 5.005 17.4951C3.49 17.4951 2.255 18.7301 2.255 20.2451C2.255 21.7601 3.49 22.9951 5.005 22.9951C6.52 22.9951 7.755 21.7601 7.755 20.2451C7.755 19.3801 7.35 18.6051 6.72 18.1001L7.9 15.5801C8.25 15.6851 8.62 15.7451 9 15.7451C9.67 15.7451 10.3 15.5651 10.845 15.2551L12.865 17.7801C12 18.8601 12.05 20.4401 13.05 21.4401C13.585 21.9751 14.29 22.2451 14.995 22.2451C15.7 22.2451 16.405 21.9751 16.94 21.4401C18.01 20.3701 18.01 18.6251 16.94 17.5501C16.17 16.7801 15.055 16.5751 14.09 16.9101L11.975 14.2651C12.31 13.8251 12.555 13.3101 12.67 12.7451H17.1C17.43 13.8951 18.485 14.7451 19.745 14.7451C21.26 14.7451 22.495 13.5101 22.495 11.9951C22.495 10.4801 21.26 9.24512 19.745 9.24512L19.75 9.25012ZM14.115 3.61512C14.36 3.37012 14.68 3.25012 15 3.25012C15.32 3.25012 15.64 3.37012 15.885 3.61512C16.37 4.10012 16.37 4.89512 15.885 5.38512C15.395 5.87012 14.605 5.87012 14.115 5.38512C13.63 4.89512 13.63 4.10512 14.115 3.61512ZM5 5.00012C4.31 5.00012 3.75 4.44012 3.75 3.75012C3.75 3.06012 4.31 2.50012 5 2.50012C5.69 2.50012 6.25 3.06012 6.25 3.75012C6.25 4.44012 5.69 5.00012 5 5.00012ZM5 21.5001C4.31 21.5001 3.75 20.9401 3.75 20.2501C3.75 19.5601 4.31 19.0001 5 19.0001C5.69 19.0001 6.25 19.5601 6.25 20.2501C6.25 20.9401 5.69 21.5001 5 21.5001ZM9 14.2501C7.76 14.2501 6.75 13.2401 6.75 12.0001C6.75 10.7601 7.76 9.75012 9 9.75012C10.24 9.75012 11.25 10.7601 11.25 12.0001C11.25 13.2401 10.24 14.2501 9 14.2501ZM14.115 18.6151C14.6 18.1251 15.395 18.1251 15.885 18.6151C16.37 19.1051 16.37 19.8951 15.885 20.3851C15.4 20.8701 14.605 20.8751 14.115 20.3851C13.63 19.8951 13.63 19.1051 14.115 18.6151ZM19.75 13.2501C19.06 13.2501 18.5 12.6901 18.5 12.0001C18.5 11.3101 19.06 10.7501 19.75 10.7501C20.44 10.7501 21 11.3101 21 12.0001C21 12.6901 20.44 13.2501 19.75 13.2501Z" fill="black"/>
</g>
<defs>
<clipPath id="clip0_4711_19203">
<rect width="24" height="24" fill="white"/>
</clipPath>
</defs>
</svg>
