<svg width="24" height="24" viewBox="0 0 24 24" fill="none" xmlns="http://www.w3.org/2000/svg">
<g clip-path="url(#clip0_2459_6214)">
<path d="M5.75 15.105V1H4.25V15.105C3.1 15.435 2.25 16.49 2.25 17.75C2.25 19.01 3.1 20.065 4.25 20.395V23H5.75V20.395C6.9 20.065 7.75 19.01 7.75 17.75C7.75 16.49 6.9 15.435 5.75 15.105ZM5 19C4.31 19 3.75 18.44 3.75 17.75C3.75 17.06 4.31 16.5 5 16.5C5.69 16.5 6.25 17.06 6.25 17.75C6.25 18.44 5.69 19 5 19Z" fill="black"/>
<path d="M12.75 4.605V1H11.25V4.605C10.1 4.935 9.25 5.99 9.25 7.25C9.25 8.51 10.1 9.565 11.25 9.895V23H12.75V9.895C13.9 9.565 14.75 8.51 14.75 7.25C14.75 5.99 13.9 4.935 12.75 4.605ZM12 8.5C11.31 8.5 10.75 7.94 10.75 7.25C10.75 6.56 11.31 6 12 6C12.69 6 13.25 6.56 13.25 7.25C13.25 7.94 12.69 8.5 12 8.5Z" fill="black"/>
<path d="M22 14.25C22 12.995 21.15 11.935 20 11.605V1H18.5V11.605C17.35 11.935 16.5 12.99 16.5 14.25C16.5 15.51 17.35 16.565 18.5 16.895V23H20V16.895C21.15 16.565 22 15.51 22 14.25ZM19.25 15.5C18.56 15.5 18 14.94 18 14.25C18 13.56 18.56 13 19.25 13C19.94 13 20.5 13.56 20.5 14.25C20.5 14.94 19.94 15.5 19.25 15.5Z" fill="black"/>
</g>
<defs>
<clipPath id="clip0_2459_6214">
<rect width="24" height="24" fill="white"/>
</clipPath>
</defs>
</svg>
