<svg width="24" height="24" viewBox="0 0 24 24" fill="none" xmlns="http://www.w3.org/2000/svg">
<g clip-path="url(#clip0_4711_19150)">
<path d="M12.5 18.25H14.69L12.69 20.25H2V21.75H13.31L15.75 19.31V21.5H17.25V16.75H12.5V18.25Z" fill="black"/>
<path d="M10.47 14.22L11.53 15.28L14.81 12L11.53 8.71997L10.47 9.77997L11.94 11.25H2V12.75H11.94L10.47 14.22Z" fill="black"/>
<path d="M14.69 5.75H12.5V7.25H17.25V2.5H15.75V4.69L13.31 2.25H2V3.75H12.69L14.69 5.75Z" fill="black"/>
<path d="M19.5 8.75C17.71 8.75 16.25 10.21 16.25 12C16.25 13.79 17.71 15.25 19.5 15.25C21.29 15.25 22.75 13.79 22.75 12C22.75 10.21 21.29 8.75 19.5 8.75ZM19.5 13.75C18.535 13.75 17.75 12.965 17.75 12C17.75 11.035 18.535 10.25 19.5 10.25C20.465 10.25 21.25 11.035 21.25 12C21.25 12.965 20.465 13.75 19.5 13.75Z" fill="black"/>
</g>
<defs>
<clipPath id="clip0_4711_19150">
<rect width="24" height="24" fill="white"/>
</clipPath>
</defs>
</svg>
