<svg width="24" height="24" viewBox="0 0 24 24" fill="none" xmlns="http://www.w3.org/2000/svg">
<g clip-path="url(#clip0_4711_22513)">
<path d="M12 6.5C8.965 6.5 6.5 8.965 6.5 12C6.5 15.035 8.965 17.5 12 17.5C15.035 17.5 17.5 15.035 17.5 12C17.5 8.965 15.035 6.5 12 6.5ZM12 16C9.795 16 8 14.205 8 12C8 9.795 9.795 8 12 8C14.205 8 16 9.795 16 12C16 14.205 14.205 16 12 16Z" fill="black"/>
<path d="M12.75 3.5H11.25V5H12.75V3.5Z" fill="black"/>
<path d="M6.52068 5.45936L5.46002 6.52002L6.52068 7.58068L7.58134 6.52002L6.52068 5.45936Z" fill="black"/>
<path d="M5 11.25H3.5V12.75H5V11.25Z" fill="black"/>
<path d="M6.52056 16.4193L5.4599 17.48L6.52056 18.5406L7.58122 17.48L6.52056 16.4193Z" fill="black"/>
<path d="M12.75 19H11.25V20.5H12.75V19Z" fill="black"/>
<path d="M17.4805 16.4193L16.4198 17.48L17.4805 18.5406L18.5411 17.48L17.4805 16.4193Z" fill="black"/>
<path d="M20.5 11.25H19V12.75H20.5V11.25Z" fill="black"/>
<path d="M17.4806 5.45936L16.4199 6.52002L17.4806 7.58068L18.5412 6.52002L17.4806 5.45936Z" fill="black"/>
</g>
<defs>
<clipPath id="clip0_4711_22513">
<rect width="24" height="24" fill="white"/>
</clipPath>
</defs>
</svg>
