<svg width="24" height="24" viewBox="0 0 24 24" fill="none" xmlns="http://www.w3.org/2000/svg">
<g clip-path="url(#clip0_4711_22954)">
<path d="M1.85 12.8799L3.15 13.6199L4 12.1349L4.85 13.6199L6.15 12.8799L5.29 11.3749H7V9.87488H5.29L6.15 8.36988L4.85 7.62988L4 9.11488L3.15 7.62988L1.85 8.36988L2.71 9.87488H1V11.3749H2.71L1.85 12.8799Z" fill="black"/>
<path d="M9.85 12.8799L11.15 13.6199L12 12.1349L12.85 13.6199L14.15 12.8799L13.29 11.3749H15V9.87488H13.29L14.15 8.36988L12.85 7.62988L12 9.11488L11.15 7.62988L9.85 8.36988L10.71 9.87488H9V11.3749H10.71L9.85 12.8799Z" fill="black"/>
<path d="M21.29 9.87488L22.15 8.36988L20.85 7.62988L20 9.11488L19.15 7.62988L17.85 8.36988L18.71 9.87488H17V11.3749H18.71L17.85 12.8799L19.15 13.6199L20 12.1349L20.85 13.6199L22.15 12.8799L21.29 11.3749H23V9.87488H21.29Z" fill="black"/>
<path d="M23 15.5H1V17H23V15.5Z" fill="black"/>
</g>
<defs>
<clipPath id="clip0_4711_22954">
<rect width="24" height="24" fill="white"/>
</clipPath>
</defs>
</svg>
