<svg width="24" height="24" viewBox="0 0 24 24" fill="none" xmlns="http://www.w3.org/2000/svg">
<g clip-path="url(#clip0_2459_6130)">
<path d="M21 4.25H15.75V3C15.75 2.02 14.76 1.25 13.5 1.25H10.5C9.24 1.25 8.25 2.02 8.25 3V4.25H3V5.75H4.295L5.295 22.75H18.71L19.71 5.75H21.005V4.25H21ZM9.745 3.02C9.775 2.945 10.045 2.75 10.5 2.75H13.5C13.95 2.75 14.22 2.945 14.25 3V4.25H9.75V3.02H9.745ZM17.29 21.25H6.705L5.795 5.75H18.205L17.295 21.25H17.29Z" fill="black"/>
<path d="M10.75 9.25H9.25V17.75H10.75V9.25Z" fill="black"/>
<path d="M14.75 9.25H13.25V17.75H14.75V9.25Z" fill="black"/>
</g>
<defs>
<clipPath id="clip0_2459_6130">
<rect width="24" height="24" fill="white"/>
</clipPath>
</defs>
</svg>
