<svg width="24" height="24" viewBox="0 0 24 24" fill="none" xmlns="http://www.w3.org/2000/svg">
<g clip-path="url(#clip0_4711_22922)">
<path d="M5.25 7C6.63 7 7.75 5.88 7.75 4.5C7.75 3.12 6.63 2 5.25 2C3.87 2 2.75 3.12 2.75 4.5C2.75 5.88 3.87 7 5.25 7ZM5.25 3.5C5.8 3.5 6.25 3.95 6.25 4.5C6.25 5.05 5.8 5.5 5.25 5.5C4.7 5.5 4.25 5.05 4.25 4.5C4.25 3.95 4.7 3.5 5.25 3.5Z" fill="black"/>
<path d="M9.5 8.88512L9.16 8.66512C6.785 7.10512 3.715 7.10512 1.34 8.66512L1 8.88512V12.0001H9.5V8.88512ZM8 10.5001H2.5V9.71512C4.21 8.76012 6.29 8.76012 8 9.71512V10.5001Z" fill="black"/>
<path d="M16.25 14.5C16.25 15.88 17.37 17 18.75 17C20.13 17 21.25 15.88 21.25 14.5C21.25 13.12 20.13 12 18.75 12C17.37 12 16.25 13.12 16.25 14.5ZM19.75 14.5C19.75 15.05 19.3 15.5 18.75 15.5C18.2 15.5 17.75 15.05 17.75 14.5C17.75 13.95 18.2 13.5 18.75 13.5C19.3 13.5 19.75 13.95 19.75 14.5Z" fill="black"/>
<path d="M22.66 18.6651C20.285 17.1051 17.215 17.1051 14.84 18.6651L14.5 18.8851V22.0001H23V18.8851L22.66 18.6651ZM21.5 20.5001H16V19.7151C17.71 18.7601 19.79 18.7601 21.5 19.7151V20.5001Z" fill="black"/>
<path d="M14.06 7.49997H16.75C17.44 7.49997 18 8.05997 18 8.74997V9.99997H19.5V8.74997C19.5 7.23497 18.265 5.99997 16.75 5.99997H14.06L15.28 4.77997L14.22 3.71997L11.19 6.74997L14.22 9.77997L15.28 8.71997L14.06 7.49997Z" fill="black"/>
<path d="M8.72 15.03L9.94 16.25H7.25C6.56 16.25 6 15.69 6 15V13.75H4.5V15C4.5 16.515 5.735 17.75 7.25 17.75H9.94L8.72 18.97L9.78 20.03L12.81 17L9.78 13.97L8.72 15.03Z" fill="black"/>
</g>
<defs>
<clipPath id="clip0_4711_22922">
<rect width="24" height="24" fill="white"/>
</clipPath>
</defs>
</svg>
