<svg width="24" height="24" viewBox="0 0 24 24" fill="none" xmlns="http://www.w3.org/2000/svg">
<g clip-path="url(#clip0_4711_22960)">
<path d="M11.435 8.74988L16.5 8.75988V12.9999H18V8.76488H20.25C20.385 8.76488 20.5 8.87988 20.5 9.01988V12.9999H22V9.01988C22 8.05488 21.215 7.26988 20.255 7.26988L11.435 7.25488C11.075 4.98988 9.115 3.25488 6.75 3.25488C4.13 3.25488 2 5.38488 2 8.00488C2 10.6249 4.13 12.7549 6.75 12.7549C9.115 12.7549 11.07 11.0199 11.435 8.75488V8.74988ZM6.75 11.2499C4.96 11.2499 3.5 9.78988 3.5 7.99988C3.5 6.20988 4.96 4.74988 6.75 4.74988C8.54 4.74988 10 6.20988 10 7.99988C10 9.78988 8.54 11.2499 6.75 11.2499Z" fill="black"/>
<path d="M20.25 16.25C19.01 16.25 18 17.26 18 18.5C18 19.74 19.01 20.75 20.25 20.75C21.49 20.75 22.5 19.74 22.5 18.5C22.5 17.26 21.49 16.25 20.25 16.25ZM20.25 19.25C19.835 19.25 19.5 18.915 19.5 18.5C19.5 18.085 19.835 17.75 20.25 17.75C20.665 17.75 21 18.085 21 18.5C21 18.915 20.665 19.25 20.25 19.25Z" fill="black"/>
<path d="M14.75 16.25C13.51 16.25 12.5 17.26 12.5 18.5C12.5 19.74 13.51 20.75 14.75 20.75C15.99 20.75 17 19.74 17 18.5C17 17.26 15.99 16.25 14.75 16.25ZM14.75 19.25C14.335 19.25 14 18.915 14 18.5C14 18.085 14.335 17.75 14.75 17.75C15.165 17.75 15.5 18.085 15.5 18.5C15.5 18.915 15.165 19.25 14.75 19.25Z" fill="black"/>
<path d="M9.25 16.25C8.01 16.25 7 17.26 7 18.5C7 19.74 8.01 20.75 9.25 20.75C10.49 20.75 11.5 19.74 11.5 18.5C11.5 17.26 10.49 16.25 9.25 16.25ZM9.25 19.25C8.835 19.25 8.5 18.915 8.5 18.5C8.5 18.085 8.835 17.75 9.25 17.75C9.665 17.75 10 18.085 10 18.5C10 18.915 9.665 19.25 9.25 19.25Z" fill="black"/>
<path d="M3.75 16.25C2.51 16.25 1.5 17.26 1.5 18.5C1.5 19.74 2.51 20.75 3.75 20.75C4.99 20.75 6 19.74 6 18.5C6 17.26 4.99 16.25 3.75 16.25ZM3.75 19.25C3.335 19.25 3 18.915 3 18.5C3 18.085 3.335 17.75 3.75 17.75C4.165 17.75 4.5 18.085 4.5 18.5C4.5 18.915 4.165 19.25 3.75 19.25Z" fill="black"/>
</g>
<defs>
<clipPath id="clip0_4711_22960">
<rect width="24" height="24" fill="white"/>
</clipPath>
</defs>
</svg>
