<svg width="24" height="24" viewBox="0 0 24 24" fill="none" xmlns="http://www.w3.org/2000/svg">
<g clip-path="url(#clip0_4711_22934)">
<path d="M19.595 11.75L18.16 3.085C18 2.17 17.205 1.5 16.275 1.5H14.725C14.315 1.5 13.905 1.635 13.575 1.885L12.255 2.875C12.11 2.985 11.9 2.985 11.755 2.875L10.435 1.885C10.105 1.64 9.695 1.5 9.285 1.5H7.735C6.80501 1.5 6.01 2.165 5.845 3.09L4.41 11.75H2.005V13.25H22.005V11.75H19.6H19.595ZM7.32 3.345C7.355 3.145 7.53 3 7.73 3H9.28C9.37 3 9.46 3.03 9.53 3.085L10.85 4.075C11.525 4.585 12.475 4.585 13.15 4.075L14.47 3.085C14.54 3.03 14.63 3 14.72 3H16.27C16.475 3 16.645 3.145 16.68 3.335L17.575 8.75H10.25V10.25H17.825L18.075 11.75H5.925L7.315 3.345H7.32Z" fill="black"/>
<path d="M17 14.5C15.145 14.5 13.6 15.86 13.305 17.63H10.695C10.4 15.855 8.855 14.5 7 14.5C4.93 14.5 3.25 16.18 3.25 18.25C3.25 20.32 4.93 22 7 22C8.765 22 10.24 20.775 10.64 19.13H13.36C13.76 20.775 15.235 22 17 22C19.07 22 20.75 20.32 20.75 18.25C20.75 16.18 19.07 14.5 17 14.5ZM7 20.5C5.76 20.5 4.75 19.49 4.75 18.25C4.75 17.01 5.76 16 7 16C8.24 16 9.25 17.01 9.25 18.25C9.25 19.49 8.24 20.5 7 20.5ZM17 20.5C15.76 20.5 14.75 19.49 14.75 18.25C14.75 17.01 15.76 16 17 16C18.24 16 19.25 17.01 19.25 18.25C19.25 19.49 18.24 20.5 17 20.5Z" fill="black"/>
</g>
<defs>
<clipPath id="clip0_4711_22934">
<rect width="24" height="24" fill="white"/>
</clipPath>
</defs>
</svg>
