<svg width="24" height="24" viewBox="0 0 24 24" fill="none" xmlns="http://www.w3.org/2000/svg">
<g clip-path="url(#clip0_4711_19165)">
<path d="M19.9 16.66L20.86 15.7L19.8 14.64L18.84 15.6C18.655 15.495 18.46 15.415 18.25 15.355V14H16.75V15.355C16.545 15.415 16.345 15.495 16.16 15.6L15.2 14.64L14.14 15.7L15.1 16.66C14.995 16.845 14.915 17.04 14.855 17.25H13.5V18.75H14.855C14.915 18.955 14.995 19.155 15.1 19.34L14.14 20.3L15.2 21.36L16.16 20.4C16.345 20.505 16.54 20.585 16.75 20.645V22H18.25V20.645C18.455 20.585 18.655 20.505 18.84 20.4L19.8 21.36L20.86 20.3L19.9 19.34C20.005 19.155 20.085 18.96 20.145 18.75H21.5V17.25H20.145C20.085 17.045 20.005 16.845 19.9 16.66ZM17.5 19.25C16.81 19.25 16.25 18.69 16.25 18C16.25 17.31 16.81 16.75 17.5 16.75C18.19 16.75 18.75 17.31 18.75 18C18.75 18.69 18.19 19.25 17.5 19.25Z" fill="black"/>
<path d="M2 9H11V2H2V9ZM3.5 3.5H9.5V7.5H3.5V3.5Z" fill="black"/>
<path d="M13 2V13H22V2H13ZM20.5 11.5H14.5V3.5H20.5V11.5Z" fill="black"/>
<path d="M2 22H11V11H2V22ZM3.5 12.5H9.5V20.5H3.5V12.5Z" fill="black"/>
</g>
<defs>
<clipPath id="clip0_4711_19165">
<rect width="24" height="24" fill="white"/>
</clipPath>
</defs>
</svg>
