<svg width="24" height="24" viewBox="0 0 24 24" fill="none" xmlns="http://www.w3.org/2000/svg">
<g clip-path="url(#clip0_4711_24211)">
<path d="M14.5 20.25C12.295 20.25 10.225 19.39 8.665 17.835C7.765 16.935 7.13 15.875 6.73 14.75H12.495V13.25H6.355C6.23 12.42 6.23 11.58 6.355 10.75H12.495V9.25H6.73C7.125 8.125 7.765 7.065 8.665 6.165C10.225 4.605 12.295 3.75 14.5 3.75C16.705 3.75 18.775 4.61 20.335 6.165L21.395 5.105C19.555 3.265 17.105 2.25 14.5 2.25C11.895 2.25 9.445 3.265 7.605 5.105C6.41 6.3 5.59 7.73 5.15 9.25H2.5V10.75H4.845C4.74 11.58 4.74 12.42 4.845 13.25H2.5V14.75H5.15C5.595 16.27 6.41 17.7 7.605 18.895C9.445 20.735 11.895 21.75 14.5 21.75C17.105 21.75 19.555 20.735 21.395 18.895L20.335 17.835C18.775 19.395 16.705 20.25 14.5 20.25Z" fill="black"/>
</g>
<defs>
<clipPath id="clip0_4711_24211">
<rect width="24" height="24" fill="white"/>
</clipPath>
</defs>
</svg>
