<svg width="24" height="24" viewBox="0 0 24 24" fill="none" xmlns="http://www.w3.org/2000/svg">
<g clip-path="url(#clip0_2459_7879)">
<path d="M12.75 5.5H11.25V12.5H12.75V5.5Z" fill="black"/>
<path d="M12 15.5C12.4142 15.5 12.75 15.1642 12.75 14.75C12.75 14.3358 12.4142 14 12 14C11.5858 14 11.25 14.3358 11.25 14.75C11.25 15.1642 11.5858 15.5 12 15.5Z" fill="black"/>
<path d="M22 16.4949C22 15.6999 21.685 14.9349 21.12 14.3749L20.8 14.0549C19.485 12.7399 18.75 10.9599 18.75 9.10488V8.25488C18.75 4.52488 15.73 1.50488 12 1.50488C11.89 1.50488 11.785 1.50488 11.675 1.51488C8.045 1.68488 5.25 4.81488 5.25 8.44988V8.92988C5.25 10.9649 4.515 12.7449 3.2 14.0599L2.88 14.3799C2.315 14.9449 2 15.7049 2 16.4999V19.0049H8.77C8.765 19.0899 8.75 19.1699 8.75 19.2549C8.75 21.0449 10.21 22.5049 12 22.5049C13.79 22.5049 15.25 21.0449 15.25 19.2549C15.25 19.1699 15.235 19.0899 15.23 19.0049H22V16.4999V16.4949ZM13.75 19.2499C13.75 20.2149 12.965 20.9999 12 20.9999C11.035 20.9999 10.25 20.2149 10.25 19.2499C10.25 19.1649 10.26 19.0849 10.27 18.9999H13.73C13.74 19.0799 13.75 19.1649 13.75 19.2499ZM20.5 17.4999H3.5V16.4949C3.5 16.0949 3.655 15.7199 3.94 15.4349L4.26 15.1149C5.865 13.5099 6.75 11.3099 6.75 8.92488V8.44488C6.75 5.57988 8.99 3.13988 11.745 3.00988C11.83 3.00988 11.915 3.00488 12 3.00488C14.895 3.00488 17.25 5.35988 17.25 8.25488V9.10488C17.25 11.3749 18.135 13.5099 19.74 15.1149L20.06 15.4349C20.345 15.7199 20.5 16.0949 20.5 16.4949V17.4999Z" fill="black"/>
</g>
<defs>
<clipPath id="clip0_2459_7879">
<rect width="24" height="24" fill="white"/>
</clipPath>
</defs>
</svg>
