<svg width="24" height="24" viewBox="0 0 24 24" fill="none" xmlns="http://www.w3.org/2000/svg">
<g clip-path="url(#clip0_4711_23560)">
<path d="M21 5H19V3C19 2.45 18.55 2 18 2H3C2.45 2 2 2.45 2 3V13.5C2 14.05 2.45 14.5 3 14.5H5V19L9.5 14.5H18C18.55 14.5 19 14.05 19 13.5V6.5H20.5V16H17.5V18.38L15.12 16H10L8.5 17.5H14.5L19 22V17.5H21C21.55 17.5 22 17.05 22 16.5V6C22 5.45 21.55 5 21 5ZM17.5 13H8.88L8.44 13.44L6.5 15.38V13H3.5V3.5H17.5V13Z" fill="black"/>
<path d="M14 9.25C14.5523 9.25 15 8.80228 15 8.25C15 7.69772 14.5523 7.25 14 7.25C13.4477 7.25 13 7.69772 13 8.25C13 8.80228 13.4477 9.25 14 9.25Z" fill="black"/>
<path d="M10.5 9.25C11.0523 9.25 11.5 8.80228 11.5 8.25C11.5 7.69772 11.0523 7.25 10.5 7.25C9.94772 7.25 9.5 7.69772 9.5 8.25C9.5 8.80228 9.94772 9.25 10.5 9.25Z" fill="black"/>
<path d="M7 9.25C7.55228 9.25 8 8.80228 8 8.25C8 7.69772 7.55228 7.25 7 7.25C6.44772 7.25 6 7.69772 6 8.25C6 8.80228 6.44772 9.25 7 9.25Z" fill="black"/>
</g>
<defs>
<clipPath id="clip0_4711_23560">
<rect width="24" height="24" fill="white"/>
</clipPath>
</defs>
</svg>
