<svg width="24" height="24" viewBox="0 0 24 24" fill="none" xmlns="http://www.w3.org/2000/svg">
<g clip-path="url(#clip0_4711_24194)">
<path d="M21.73 12.1799C23.52 9.6899 23.41 6.2549 21.395 3.8849L22.525 2.7849L21.48 1.7099L20.305 2.8549C17.845 1.0049 14.41 1.0499 12.005 2.9999C9.35495 0.849898 5.44495 1.0049 2.97995 3.4699C0.604954 5.8499 0.379954 9.5599 2.28495 12.1999C1.54995 13.0849 1.58995 14.3949 2.41495 15.2199C2.82495 15.6299 3.35495 15.8399 3.88995 15.8649C3.91995 16.4199 4.13995 16.9449 4.53495 17.3399C4.68995 17.4949 4.86495 17.6099 5.04995 17.7149L1.97495 20.7149L3.01995 21.7899L7.68995 17.2399L12.035 21.5849C12.475 22.0249 13.05 22.2449 13.625 22.2449C14.2 22.2449 14.78 22.0249 15.215 21.5849C15.505 21.2949 15.69 20.9449 15.785 20.5749C15.935 20.6049 16.09 20.6249 16.245 20.6249C16.82 20.6249 17.395 20.4049 17.835 19.9649C18.245 19.5549 18.455 19.0249 18.48 18.4899C19.015 18.4599 19.545 18.2499 19.955 17.8449C20.365 17.4349 20.575 16.9049 20.6 16.3699C21.135 16.3399 21.665 16.1299 22.075 15.7249C22.95 14.8499 22.95 13.4199 22.075 12.5449L21.72 12.1899L21.73 12.1799ZM20.655 11.1049L17.365 7.8149L20.325 4.9349C21.775 6.7099 21.885 9.2199 20.66 11.1099L20.655 11.1049ZM19.21 3.9199L15.175 7.8499L14.78 7.8199C14.39 7.7699 14.04 7.5999 13.76 7.3199L13.4 6.9599C12.915 6.4749 12.12 6.4749 11.63 6.9599L10.705 7.8849C10.255 8.3349 9.54995 8.3699 9.05995 7.9899L12.52 4.5299H12.525C14.34 2.7249 17.155 2.5199 19.2 3.9199H19.21ZM4.03995 4.5399C5.90495 2.6749 8.83495 2.5149 10.89 4.0499L7.82495 7.1149C7.33995 7.5999 7.33995 8.3949 7.82495 8.8849L7.88495 8.9449C8.41995 9.4799 9.12495 9.7499 9.82995 9.7499C10.535 9.7499 11.24 9.4799 11.775 8.9449L12.52 8.1999L12.7 8.3799C13.035 8.7149 13.43 8.9549 13.875 9.1199L9.76495 13.1249C9.65996 12.9099 9.51995 12.7149 9.33995 12.5349C8.92995 12.1249 8.39995 11.9149 7.86495 11.8899C7.83495 11.3549 7.62495 10.8249 7.21995 10.4149C6.34495 9.5399 4.91495 9.5349 4.03995 10.4149L3.34995 11.1049C2.02995 9.0699 2.25995 6.3149 4.03995 4.5349V4.5399ZM3.47495 13.0999L5.09495 11.4799C5.23995 11.3349 5.43495 11.2599 5.62495 11.2599C5.81495 11.2599 6.00995 11.3349 6.15495 11.4799C6.44495 11.7699 6.44495 12.2499 6.15495 12.5399L4.53495 14.1599C4.24495 14.4499 3.76495 14.4499 3.47495 14.1599C3.18495 13.8699 3.18495 13.3899 3.47495 13.0999ZM5.59995 16.2799C5.30995 15.9899 5.30995 15.5099 5.59995 15.2199L7.21995 13.5999C7.50995 13.3099 7.98995 13.3099 8.27995 13.5999C8.49995 13.8199 8.55495 14.1399 8.43495 14.4199L6.33995 16.4649C6.07995 16.5399 5.79495 16.4749 5.59995 16.2799ZM21.025 14.6599C20.735 14.9549 20.255 14.9499 19.965 14.6599L17.285 11.9799L16.225 13.0399L18.905 15.7199C19.045 15.8599 19.125 16.0499 19.125 16.2499C19.125 16.4499 19.045 16.6399 18.905 16.7799C18.62 17.0649 18.13 17.0649 17.845 16.7799L15.165 14.0999L14.105 15.1599L16.785 17.8399C16.925 17.9799 17.005 18.1699 17.005 18.3699C17.005 18.5699 16.925 18.7599 16.785 18.8999C16.5 19.1849 16.01 19.1849 15.725 18.8999L15.225 18.3999L14.545 17.7199L13.045 16.2199L11.985 17.2799L13.485 18.7799L14.165 19.4599C14.455 19.7499 14.455 20.2299 14.165 20.5199C13.88 20.8049 13.39 20.8049 13.105 20.5199L8.77495 16.1899L16.295 8.8599L21.03 13.5949C21.32 13.8849 21.32 14.3649 21.03 14.6549L21.025 14.6599Z" fill="black"/>
</g>
<defs>
<clipPath id="clip0_4711_24194">
<rect width="24" height="24" fill="white"/>
</clipPath>
</defs>
</svg>
