<svg width="24" height="24" viewBox="0 0 24 24" fill="none" xmlns="http://www.w3.org/2000/svg">
<g clip-path="url(#clip0_2930_8740)">
<path d="M12 13C14.485 13 16.5 10.985 16.5 8.5C16.5 6.015 14.485 4 12 4C9.515 4 7.5 6.015 7.5 8.5C7.5 10.985 9.515 13 12 13ZM12 5.5C13.655 5.5 15 6.845 15 8.5C15 10.155 13.655 11.5 12 11.5C10.345 11.5 9 10.155 9 8.5C9 6.845 10.345 5.5 12 5.5Z" fill="black"/>
<path d="M17 1.25V2.75H19.75V5.5H21.25V1.25H17Z" fill="black"/>
<path d="M19.75 13.25H17V14.75H21.25V10.5H19.75V13.25Z" fill="black"/>
<path d="M4.25 2.75H7V1.25H2.75V5.5H4.25V2.75Z" fill="black"/>
<path d="M7 13.25H4.25V10.5H2.75V14.75H7V13.25Z" fill="black"/>
<path d="M12 15.75C9.265 15.75 6.635 16.34 4.18 17.51L3.75 17.715V23.005H20.25V17.715L19.82 17.51C17.365 16.345 14.73 15.75 12 15.75ZM18.75 21.5H5.25V18.665C7.38 17.725 9.65 17.25 12 17.25C14.35 17.25 16.62 17.725 18.75 18.665V21.5Z" fill="black"/>
</g>
<defs>
<clipPath id="clip0_2930_8740">
<rect width="24" height="24" fill="white"/>
</clipPath>
</defs>
</svg>
