<svg width="24" height="24" viewBox="0 0 24 24" fill="none" xmlns="http://www.w3.org/2000/svg">
<g clip-path="url(#clip0_2930_8732)">
<path d="M22 9.25V7.75H18.75V5.25H16.25V2H14.75V5.25H12.75V2H11.25V5.25H9.25V2H7.75V5.25H5.25V7.75H2V9.25H5.25V11.25H2V12.75H5.25V14.75H2V16.25H5.25V18.75H7.75V22H9.25V18.75H11.25V22H12.75V18.75H14.75V22H16.25V18.75H18.75V16.25H22V14.75H18.75V12.75H22V11.25H18.75V9.25H22ZM17.25 17.25H6.75V6.75H17.25V17.25Z" fill="black"/>
<path d="M14.75 9.25H9.25V14.75H14.75V9.25ZM13.25 13.25H10.75V10.75H13.25V13.25Z" fill="black"/>
</g>
<defs>
<clipPath id="clip0_2930_8732">
<rect width="24" height="24" fill="white"/>
</clipPath>
</defs>
</svg>
