<svg width="24" height="24" viewBox="0 0 24 24" fill="none" xmlns="http://www.w3.org/2000/svg">
<g clip-path="url(#clip0_4711_19220)">
<path d="M18 6C18.5523 6 19 5.55228 19 5C19 4.44772 18.5523 4 18 4C17.4477 4 17 4.44772 17 5C17 5.55228 17.4477 6 18 6Z" fill="black"/>
<path d="M15 6C15.5523 6 16 5.55228 16 5C16 4.44772 15.5523 4 15 4C14.4477 4 14 4.44772 14 5C14 5.55228 14.4477 6 15 6Z" fill="black"/>
<path d="M18 12.5C18.5523 12.5 19 12.0523 19 11.5C19 10.9477 18.5523 10.5 18 10.5C17.4477 10.5 17 10.9477 17 11.5C17 12.0523 17.4477 12.5 18 12.5Z" fill="black"/>
<path d="M15 12.5C15.5523 12.5 16 12.0523 16 11.5C16 10.9477 15.5523 10.5 15 10.5C14.4477 10.5 14 10.9477 14 11.5C14 12.0523 14.4477 12.5 15 12.5Z" fill="black"/>
<path d="M18 19C18.5523 19 19 18.5523 19 18C19 17.4477 18.5523 17 18 17C17.4477 17 17 17.4477 17 18C17 18.5523 17.4477 19 18 19Z" fill="black"/>
<path d="M15 19C15.5523 19 16 18.5523 16 18C16 17.4477 15.5523 17 15 17C14.4477 17 14 17.4477 14 18C14 18.5523 14.4477 19 15 19Z" fill="black"/>
<path d="M2 1V22H22V1H2ZM20.5 20.5H3.5V15.5H20.5V20.5ZM20.5 14H3.5V9H20.5V14ZM3.5 7.5V2.5H20.5V7.5H3.5Z" fill="black"/>
</g>
<defs>
<clipPath id="clip0_4711_19220">
<rect width="24" height="24" fill="white"/>
</clipPath>
</defs>
</svg>
