<svg width="24" height="24" viewBox="0 0 24 24" fill="none" xmlns="http://www.w3.org/2000/svg">
<g clip-path="url(#clip0_2459_7861)">
<path d="M19.445 7.61512L21.06 6.00012L20 4.94012L18.425 6.51512C16.905 5.11512 14.935 4.21012 12.75 4.03512V2.49512H15V0.995117H9V2.49512H11.25V4.03512C6.355 4.42012 2.5 8.50512 2.5 13.4951C2.5 18.7401 6.755 22.9951 12 22.9951C17.245 22.9951 21.5 18.7401 21.5 13.4951C21.5 11.2701 20.73 9.22512 19.445 7.61012V7.61512ZM12 21.5001C7.59 21.5001 4 17.9101 4 13.5001C4 9.09012 7.59 5.50012 12 5.50012C16.41 5.50012 20 9.09012 20 13.5001C20 17.9101 16.41 21.5001 12 21.5001Z" fill="black"/>
<path d="M12.75 8H11.25V13.5H12.75V8Z" fill="black"/>
</g>
<defs>
<clipPath id="clip0_2459_7861">
<rect width="24" height="24" fill="white"/>
</clipPath>
</defs>
</svg>
