<svg width="24" height="24" viewBox="0 0 24 24" fill="none" xmlns="http://www.w3.org/2000/svg">
<g clip-path="url(#clip0_4711_24176)">
<path d="M12 6C13.38 6 14.5 4.88 14.5 3.5C14.5 2.12 13.38 1 12 1C10.62 1 9.5 2.12 9.5 3.5C9.5 4.88 10.62 6 12 6ZM12 2.5C12.55 2.5 13 2.95 13 3.5C13 4.05 12.55 4.5 12 4.5C11.45 4.5 11 4.05 11 3.5C11 2.95 11.45 2.5 12 2.5Z" fill="black"/>
<path d="M18.17 17.75L13.635 7.875C13.375 7.19 12.735 6.75 12 6.75C11.265 6.75 10.64 7.18 10.375 7.85L5.82996 17.75H9.74996V23H11.25V17.75H12.75V23H14.25V17.75H18.17ZM11.745 8.455L11.765 8.41C11.815 8.275 11.92 8.25 12 8.25C12.08 8.25 12.185 8.28 12.255 8.455L15.835 16.25H8.17496L11.755 8.455H11.745Z" fill="black"/>
</g>
<defs>
<clipPath id="clip0_4711_24176">
<rect width="24" height="24" fill="white"/>
</clipPath>
</defs>
</svg>
