<svg width="24" height="24" viewBox="0 0 24 24" fill="none" xmlns="http://www.w3.org/2000/svg">
<g clip-path="url(#clip0_4711_19908)">
<path d="M12 5C5.925 5 1 12 1 12C1 12 5.925 19 12 19C18.075 19 23 12 23 12C23 12 18.075 5 12 5ZM12 17.5C7.975 17.5 4.36 13.74 2.905 12C4.36 10.26 7.97 6.5 12 6.5C16.03 6.5 19.64 10.26 21.095 12C19.64 13.74 16.03 17.5 12 17.5Z" fill="black"/>
<path d="M12 7.5C9.52 7.5 7.5 9.52 7.5 12C7.5 14.48 9.52 16.5 12 16.5C14.48 16.5 16.5 14.48 16.5 12C16.5 9.52 14.48 7.5 12 7.5ZM12 15C10.345 15 9 13.655 9 12C9 10.345 10.345 9 12 9C13.655 9 15 10.345 15 12C15 13.655 13.655 15 12 15Z" fill="black"/>
</g>
<defs>
<clipPath id="clip0_4711_19908">
<rect width="24" height="24" fill="white"/>
</clipPath>
</defs>
</svg>
