<svg width="24" height="24" viewBox="0 0 24 24" fill="none" xmlns="http://www.w3.org/2000/svg">
<g clip-path="url(#clip0_4711_21762)">
<path d="M18.485 6.575L19.7 5.36L21.44 7.1L22.5 6.04L20.76 4.3L22.03 3.03L20.97 1.97L19.7 3.24L17.96 1.5L16.9 2.56L18.64 4.3L17.315 5.625C15.8 4.6 13.97 4 12 4C6.755 4 2.5 8.255 2.5 13.5C2.5 15.47 3.1 17.3 4.125 18.815L1.97 20.97L3.03 22.03L5.075 19.985C6.81 21.835 9.265 23 12 23C17.245 23 21.5 18.745 21.5 13.5C21.5 10.765 20.335 8.305 18.485 6.575ZM4 13.5C4 9.09 7.59 5.5 12 5.5C13.55 5.5 14.995 5.95 16.22 6.715L5.215 17.72C4.45 16.495 4 15.05 4 13.5ZM12 21.5C9.685 21.5 7.6 20.505 6.135 18.925L17.42 7.64C19 9.1 19.995 11.185 19.995 13.505C19.995 17.915 16.405 21.505 11.995 21.505L12 21.5Z" fill="black"/>
<path d="M6.03707 1.50346L1.50098 6.03955L2.56164 7.10021L7.09773 2.56412L6.03707 1.50346Z" fill="black"/>
</g>
<defs>
<clipPath id="clip0_4711_21762">
<rect width="24" height="24" fill="white"/>
</clipPath>
</defs>
</svg>
