<svg width="24" height="24" viewBox="0 0 24 24" fill="none" xmlns="http://www.w3.org/2000/svg">
<g clip-path="url(#clip0_4711_19866)">
<path d="M18.25 14.775V9.225C19.455 8.415 20.25 7.035 20.25 5.465C20.25 3.225 18.63 1.365 16.5 1V4.46H15V1C13.445 1.265 12.17 2.325 11.59 3.75H9.04V5.785C8.83 5.86 8.625 5.945 8.425 6.04L6.985 4.6L3.855 7.73L5.295 9.17C5.2 9.37 5.115 9.575 5.04 9.785H3.005V14.21H5.04C5.115 14.42 5.2 14.625 5.295 14.825L3.855 16.265L6.985 19.395L8.425 17.955C8.625 18.05 8.83 18.135 9.04 18.21V20.245H11.59C12.17 21.67 13.45 22.73 15 22.995V19.535H16.5V22.995C18.63 22.635 20.25 20.775 20.25 18.53C20.25 16.96 19.455 15.58 18.25 14.77V14.775ZM11.25 18.535C11.25 18.605 11.255 18.68 11.26 18.75H10.535V17.08L9.97501 16.935C9.51501 16.815 9.07 16.635 8.665 16.39L8.165 16.095L6.985 17.275L5.975 16.265L7.155 15.085L6.86 14.585C6.62 14.175 6.435 13.735 6.32 13.275L6.175 12.71H4.505V11.285H6.175L6.32 10.72C6.44 10.26 6.62 9.82 6.86 9.41L7.155 8.91L5.975 7.73L6.985 6.72L8.165 7.9L8.665 7.605C9.075 7.365 9.51501 7.18 9.97501 7.06L10.535 6.915V5.245H11.26C11.26 5.315 11.25 5.385 11.25 5.46C11.25 6.81 11.845 8.025 12.78 8.85C12.32 8.625 11.8 8.495 11.25 8.495C9.32 8.495 7.75 10.065 7.75 11.995C7.75 13.925 9.32 15.495 11.25 15.495C11.8 15.495 12.315 15.365 12.78 15.14C11.845 15.97 11.25 17.18 11.25 18.53V18.535ZM11.25 14C10.145 14 9.25 13.105 9.25 12C9.25 10.895 10.145 10 11.25 10C12.355 10 13.25 10.895 13.25 12C13.25 13.105 12.355 14 11.25 14ZM18 20.54V18.04H13.5V20.54C13.03 20.005 12.75 19.3 12.75 18.535C12.75 17.52 13.25 16.58 14.085 16.02L14.75 15.575V8.425L14.085 7.98C13.25 7.42 12.75 6.48 12.75 5.465C12.75 4.7 13.03 3.995 13.5 3.46V5.96H18V3.46C18.47 3.995 18.75 4.7 18.75 5.465C18.75 6.48 18.25 7.42 17.415 7.98L16.75 8.425V15.575L17.415 16.02C18.25 16.58 18.75 17.52 18.75 18.535C18.75 19.3 18.47 20.005 18 20.54Z" fill="black"/>
</g>
<defs>
<clipPath id="clip0_4711_19866">
<rect width="24" height="24" fill="white"/>
</clipPath>
</defs>
</svg>
