<svg width="24" height="24" viewBox="0 0 24 24" fill="none" xmlns="http://www.w3.org/2000/svg">
<g clip-path="url(#clip0_4711_19154)">
<path d="M20.5 10.25C19.525 10.25 18.7 10.88 18.39 11.75H17.225C16.995 9.34 15.13 7.4 12.75 7.06V5.36C13.62 5.05 14.25 4.225 14.25 3.25C14.25 2.01 13.24 1 12 1C10.76 1 9.75 2.01 9.75 3.25C9.75 4.225 10.38 5.05 11.25 5.36V7.06C8.87 7.4 7.005 9.34 6.775 11.75H5.61C5.3 10.88 4.475 10.25 3.5 10.25C2.26 10.25 1.25 11.26 1.25 12.5C1.25 13.74 2.26 14.75 3.5 14.75C4.475 14.75 5.3 14.12 5.61 13.25H6.86C7.15 14.755 8.03 16.165 8.96 17.3C7 17.71 5.25 18.565 5.25 20C5.25 21.97 8.645 23 12 23C15.355 23 18.75 21.97 18.75 20C18.75 18.56 17 17.705 15.04 17.3C15.97 16.17 16.85 14.755 17.14 13.25H18.39C18.7 14.12 19.525 14.75 20.5 14.75C21.74 14.75 22.75 13.74 22.75 12.5C22.75 11.26 21.74 10.25 20.5 10.25ZM12 2.5C12.415 2.5 12.75 2.835 12.75 3.25C12.75 3.665 12.415 4 12 4C11.585 4 11.25 3.665 11.25 3.25C11.25 2.835 11.585 2.5 12 2.5ZM3.5 13.25C3.085 13.25 2.75 12.915 2.75 12.5C2.75 12.085 3.085 11.75 3.5 11.75C3.915 11.75 4.25 12.085 4.25 12.5C4.25 12.915 3.915 13.25 3.5 13.25ZM17.25 20C17.25 20.435 15.41 21.5 12 21.5C8.59 21.5 6.75 20.435 6.75 20C6.75 19.7 7.78 18.915 10.165 18.615C10.895 19.34 11.475 19.795 11.545 19.845L12.005 20.195L12.465 19.845C12.53 19.795 13.11 19.34 13.845 18.615C16.23 18.915 17.26 19.705 17.26 20H17.25ZM13.265 17.05C12.78 17.57 12.32 17.995 12 18.275C11.68 17.995 11.22 17.57 10.735 17.05C9.575 15.81 8.25 14.01 8.25 12.25C8.25 10.18 9.93 8.5 12 8.5C14.07 8.5 15.75 10.18 15.75 12.25C15.75 14.01 14.43 15.805 13.265 17.05ZM20.5 13.25C20.085 13.25 19.75 12.915 19.75 12.5C19.75 12.085 20.085 11.75 20.5 11.75C20.915 11.75 21.25 12.085 21.25 12.5C21.25 12.915 20.915 13.25 20.5 13.25Z" fill="black"/>
<path d="M12 13.5C12.6904 13.5 13.25 12.9404 13.25 12.25C13.25 11.5596 12.6904 11 12 11C11.3096 11 10.75 11.5596 10.75 12.25C10.75 12.9404 11.3096 13.5 12 13.5Z" fill="black"/>
</g>
<defs>
<clipPath id="clip0_4711_19154">
<rect width="24" height="24" fill="white"/>
</clipPath>
</defs>
</svg>
