<svg width="24" height="24" viewBox="0 0 24 24" fill="none" xmlns="http://www.w3.org/2000/svg">
<g clip-path="url(#clip0_2930_8755)">
<path d="M1 5.25V18.75H23V5.25H1ZM21.5 17.25H2.5V6.75H21.5V17.25Z" fill="black"/>
<path d="M5.25 8.25H3.75V9.75H5.25V8.25Z" fill="black"/>
<path d="M8.25 8.25H6.75V9.75H8.25V8.25Z" fill="black"/>
<path d="M11.25 8.25H9.75V9.75H11.25V8.25Z" fill="black"/>
<path d="M14.25 8.25H12.75V9.75H14.25V8.25Z" fill="black"/>
<path d="M17.25 8.25H15.75V9.75H17.25V8.25Z" fill="black"/>
<path d="M20.25 8.25H18.75V9.75H20.25V8.25Z" fill="black"/>
<path d="M5.25 11.25H3.75V12.75H5.25V11.25Z" fill="black"/>
<path d="M6.5 14.25H3.75V15.75H6.5V14.25Z" fill="black"/>
<path d="M20.25 14.25H17.5V15.75H20.25V14.25Z" fill="black"/>
<path d="M11.25 11.25H9.75V12.75H11.25V11.25Z" fill="black"/>
<path d="M8.25 11.25H6.75V12.75H8.25V11.25Z" fill="black"/>
<path d="M14.25 11.25H12.75V12.75H14.25V11.25Z" fill="black"/>
<path d="M16 14.25H8V15.75H16V14.25Z" fill="black"/>
<path d="M17.25 11.25H15.75V12.75H17.25V11.25Z" fill="black"/>
<path d="M20.25 11.25H18.75V12.75H20.25V11.25Z" fill="black"/>
</g>
<defs>
<clipPath id="clip0_2930_8755">
<rect width="24" height="24" fill="white"/>
</clipPath>
</defs>
</svg>
