<svg width="24" height="24" viewBox="0 0 24 24" fill="none" xmlns="http://www.w3.org/2000/svg">
<g clip-path="url(#clip0_4711_19867)">
<path d="M11 12H9.5V16H11V12Z" fill="black"/>
<path d="M10.25 18.25C10.6642 18.25 11 17.9142 11 17.5C11 17.0858 10.6642 16.75 10.25 16.75C9.83579 16.75 9.5 17.0858 9.5 17.5C9.5 17.9142 9.83579 18.25 10.25 18.25Z" fill="black"/>
<path d="M20.75 14.775V9.225C21.955 8.415 22.75 7.035 22.75 5.465C22.75 3.225 21.13 1.365 19 1V4.46H17.5V1C15.37 1.36 13.75 3.22 13.75 5.465C13.75 7.035 14.545 8.415 15.75 9.225V14.775C15.715 14.8 15.68 14.83 15.645 14.855L10.25 5.5L1.44995 20.75H14.325C14.98 21.92 16.13 22.77 17.495 23V19.54H18.995V23C21.125 22.64 22.745 20.78 22.745 18.535C22.745 16.965 21.95 15.585 20.745 14.775H20.75ZM4.04995 19.25L10.25 8.5L14.555 15.96C14.05 16.69 13.75 17.575 13.75 18.535C13.75 18.78 13.77 19.015 13.81 19.25H4.04995ZM20.5 20.54V18.04H16V20.54C15.53 20.005 15.25 19.3 15.25 18.535C15.25 17.52 15.75 16.58 16.585 16.02L17.25 15.575V8.425L16.585 7.98C15.75 7.42 15.25 6.48 15.25 5.465C15.25 4.7 15.53 3.995 16 3.46V5.96H20.5V3.46C20.9699 3.995 21.25 4.7 21.25 5.465C21.25 6.48 20.75 7.42 19.915 7.98L19.25 8.425V15.575L19.915 16.02C20.75 16.58 21.25 17.52 21.25 18.535C21.25 19.3 20.9699 20.005 20.5 20.54Z" fill="black"/>
</g>
<defs>
<clipPath id="clip0_4711_19867">
<rect width="24" height="24" fill="white"/>
</clipPath>
</defs>
</svg>
