<svg width="24" height="24" viewBox="0 0 24 24" fill="none" xmlns="http://www.w3.org/2000/svg">
<g clip-path="url(#clip0_4711_24180)">
<path d="M18.5 9.775L14.01 9.115L12 5L9.99 9.115L5.5 9.775L8.75 12.98L7.985 17.505L12 15.37L16.015 17.505L15.25 12.98L18.5 9.775ZM13.77 13.23L14.025 14.745L12.7 14.04L11.995 13.665L11.29 14.04L9.965 14.745L10.22 13.23L10.35 12.46L9.795 11.91L8.69 10.82L10.2 10.6L10.985 10.485L11.33 9.775L11.99 8.42L12.65 9.775L12.995 10.485L13.78 10.6L15.29 10.82L14.185 11.91L13.63 12.46L13.76 13.23H13.77Z" fill="black"/>
<path d="M12.75 19H11.25V23H12.75V19Z" fill="black"/>
<path d="M12.75 1H11.25V3H12.75V1Z" fill="black"/>
<path d="M1.76919 7.88941L1.30542 9.31592L3.20743 9.93428L3.6712 8.50778L1.76919 7.88941Z" fill="black"/>
<path d="M6.10147 18.8427L4.9259 20.4607L6.13943 21.3424L7.315 19.7243L6.10147 18.8427Z" fill="black"/>
<path d="M17.8979 18.8388L16.6843 19.7205L17.8599 21.3385L19.0734 20.4568L17.8979 18.8388Z" fill="black"/>
<path d="M22.23 7.88554L20.328 8.50391L20.7918 9.93041L22.6938 9.31204L22.23 7.88554Z" fill="black"/>
<path d="M18.8847 13.4472L18.4211 14.8738L22.2254 16.1098L22.6889 14.6833L18.8847 13.4472Z" fill="black"/>
<path d="M17.8602 2.66261L15.509 5.89868L16.7226 6.78036L19.0737 3.54429L17.8602 2.66261Z" fill="black"/>
<path d="M6.14407 2.66056L4.93054 3.54224L7.28168 6.7783L8.49521 5.89663L6.14407 2.66056Z" fill="black"/>
<path d="M5.10928 13.4473L1.30505 14.6833L1.76858 16.1099L5.57281 14.8739L5.10928 13.4473Z" fill="black"/>
</g>
<defs>
<clipPath id="clip0_4711_24180">
<rect width="24" height="24" fill="white"/>
</clipPath>
</defs>
</svg>
