<svg width="24" height="24" viewBox="0 0 24 24" fill="none" xmlns="http://www.w3.org/2000/svg">
<g clip-path="url(#clip0_2459_4879)">
<path d="M1 3V21H23V3H1ZM21.5 19.5H2.5V4.5H21.5V19.5Z" fill="black"/>
<path d="M4.25 7C4.66421 7 5 6.66421 5 6.25C5 5.83579 4.66421 5.5 4.25 5.5C3.83579 5.5 3.5 5.83579 3.5 6.25C3.5 6.66421 3.83579 7 4.25 7Z" fill="black"/>
<path d="M6.25 7C6.66421 7 7 6.66421 7 6.25C7 5.83579 6.66421 5.5 6.25 5.5C5.83579 5.5 5.5 5.83579 5.5 6.25C5.5 6.66421 5.83579 7 6.25 7Z" fill="black"/>
<path d="M8.25 7C8.66421 7 9 6.66421 9 6.25C9 5.83579 8.66421 5.5 8.25 5.5C7.83579 5.5 7.5 5.83579 7.5 6.25C7.5 6.66421 7.83579 7 8.25 7Z" fill="black"/>
<path d="M15.03 16.28L18.06 13.25L15.03 10.22L13.97 11.28L15.94 13.25L13.97 15.22L15.03 16.28Z" fill="black"/>
<path d="M8.96994 10.22L5.93994 13.25L8.96994 16.28L10.0299 15.22L8.05994 13.25L10.0299 11.28L8.96994 10.22Z" fill="black"/>
<path d="M12.2681 8.83052L10.2672 17.3281L11.7273 17.6719L13.7282 9.17433L12.2681 8.83052Z" fill="black"/>
</g>
<defs>
<clipPath id="clip0_2459_4879">
<rect width="24" height="24" fill="white"/>
</clipPath>
</defs>
</svg>
