<svg width="24" height="24" viewBox="0 0 24 24" fill="none" xmlns="http://www.w3.org/2000/svg">
<g clip-path="url(#clip0_4711_19181)">
<path d="M20.5 11.38V11.35C20.5 9.29 18.83 7.61 16.77 7.6C16.04 4.9 13.6 3 10.75 3C7.305 3 4.5 5.805 4.5 9.25V9.3C2.44 10.03 1 12.02 1 14.25C1 17.145 3.355 19.5 6.25 19.5H18.75C21.095 19.5 23 17.595 23 15.25C23 13.57 22 12.06 20.5 11.38ZM18.75 18H6.25C4.18 18 2.5 16.32 2.5 14.25C2.5 12.5 3.74 10.96 5.445 10.59L6.105 10.445L6.03 9.775C6.01 9.6 6 9.43 6 9.25C6 6.63 8.13 4.5 10.75 4.5C13.08 4.5 15.045 6.17 15.43 8.47L15.535 9.1H16.755C17.995 9.1 19.005 10.11 19.005 11.35C19.005 11.475 18.99 11.605 18.965 11.75L18.845 12.42L19.5 12.605C20.68 12.935 21.505 14.025 21.505 15.25C21.505 16.765 20.27 18 18.755 18H18.75Z" fill="black"/>
<path d="M14.47 9.71997L12 12.19L9.52997 9.71997L8.46997 10.78L10.94 13.25L8.46997 15.72L9.52997 16.78L12 14.31L14.47 16.78L15.53 15.72L13.06 13.25L15.53 10.78L14.47 9.71997Z" fill="black"/>
</g>
<defs>
<clipPath id="clip0_4711_19181">
<rect width="24" height="24" fill="white"/>
</clipPath>
</defs>
</svg>
