<svg width="24" height="24" viewBox="0 0 24 24" fill="none" xmlns="http://www.w3.org/2000/svg">
<g clip-path="url(#clip0_2459_6192)">
<path d="M15.71 7.2251L12 10.9401L8.28998 7.2251L7.22498 8.2901L10.94 12.0001L7.22498 15.7101L8.28998 16.7751L12 13.0601L15.71 16.7751L16.775 15.7101L13.06 12.0001L16.775 8.2901L15.71 7.2251Z" fill="black"/>
<path d="M12 1C5.925 1 1 5.925 1 12C1 18.075 5.925 23 12 23C18.075 23 23 18.075 23 12C23 5.925 18.075 1 12 1ZM12 21.5C6.76 21.5 2.5 17.24 2.5 12C2.5 6.76 6.76 2.5 12 2.5C17.24 2.5 21.5 6.76 21.5 12C21.5 17.24 17.24 21.5 12 21.5Z" fill="black"/>
</g>
<defs>
<clipPath id="clip0_2459_6192">
<rect width="24" height="24" fill="white"/>
</clipPath>
</defs>
</svg>
