<svg width="24" height="24" viewBox="0 0 24 24" fill="none" xmlns="http://www.w3.org/2000/svg">
<g clip-path="url(#clip0_2459_4809)">
<path d="M22.75 8C22.75 5.38 20.62 3.25 18 3.25H14.75V1.25H9.25V6.75H14.75V4.75H18C19.79 4.75 21.25 6.21 21.25 8C21.25 9.68 19.965 11.07 18.325 11.235L20.03 9.53L18.97 8.47L15.44 12L18.97 15.53L20.03 14.47L18.295 12.735C20.775 12.58 22.75 10.52 22.75 8ZM13.25 5.25H10.75V2.75H13.25V5.25Z" fill="black"/>
<path d="M9.25 11.25H6C3.38 11.25 1.25 13.38 1.25 16C1.25 18.62 3.225 20.58 5.705 20.735L3.97 22.47L5.03 23.53L8.56 20L5.03 16.47L3.97 17.53L5.675 19.235C4.035 19.07 2.75 17.685 2.75 16C2.75 14.21 4.21 12.75 6 12.75H9.25V14.75H14.75V9.25H9.25V11.25ZM10.75 10.75H13.25V13.25H10.75V10.75Z" fill="black"/>
<path d="M9.25 22.75H14.75V17.25H9.25V22.75ZM10.75 18.75H13.25V21.25H10.75V18.75Z" fill="black"/>
</g>
<defs>
<clipPath id="clip0_2459_4809">
<rect width="24" height="24" fill="white"/>
</clipPath>
</defs>
</svg>
