<svg width="24" height="24" viewBox="0 0 24 24" fill="none" xmlns="http://www.w3.org/2000/svg">
<g clip-path="url(#clip0_4711_19149)">
<path d="M19.53 15.28L22.81 12L19.53 8.71997L18.47 9.77997L19.94 11.25H7.66C7.435 10.31 6.805 9.52497 5.96 9.09997L9.81 5.24997H19.94L18.47 6.71997L19.53 7.77997L22.81 4.49997L19.53 1.21997L18.47 2.27997L19.94 3.74997H9.19L4.175 8.76497C2.535 8.92997 1.25 10.315 1.25 12C1.25 13.685 2.535 15.07 4.175 15.235L9.19 20.25H19.94L18.47 21.72L19.53 22.78L22.81 19.5L19.53 16.22L18.47 17.28L19.94 18.75H9.81L5.96 14.9C6.805 14.475 7.435 13.69 7.66 12.75H19.94L18.47 14.22L19.53 15.28ZM4.5 13.75C3.535 13.75 2.75 12.965 2.75 12C2.75 11.035 3.535 10.25 4.5 10.25C5.465 10.25 6.25 11.035 6.25 12C6.25 12.965 5.465 13.75 4.5 13.75Z" fill="black"/>
</g>
<defs>
<clipPath id="clip0_4711_19149">
<rect width="24" height="24" fill="white"/>
</clipPath>
</defs>
</svg>
