<svg width="24" height="24" viewBox="0 0 24 24" fill="none" xmlns="http://www.w3.org/2000/svg">
<g clip-path="url(#clip0_2459_4811)">
<path d="M21 16.64V13.5H16.8C16.925 13.03 17 12.53 17 12V10.5H21V7.36C21.87 7.05 22.5 6.225 22.5 5.25C22.5 4.01 21.49 3 20.25 3C19.01 3 18 4.01 18 5.25C18 6.225 18.63 7.05 19.5 7.36V9H17V7.025L12 4.67L7 7.025V9H4.5V7.36C5.37 7.05 6 6.225 6 5.25C6 4.01 4.99 3 3.75 3C2.51 3 1.5 4.01 1.5 5.25C1.5 6.225 2.13 7.05 3 7.36V10.5H7V12C7 12.53 7.075 13.03 7.2 13.5H3V16.64C2.13 16.95 1.5 17.775 1.5 18.75C1.5 19.99 2.51 21 3.75 21C4.99 21 6 19.99 6 18.75C6 17.775 5.37 16.95 4.5 16.64V15H7.83C9.13 17.295 11.515 18.59 11.65 18.665L12 18.85L12.35 18.665C12.49 18.59 14.875 17.295 16.17 15H19.5V16.64C18.63 16.95 18 17.775 18 18.75C18 19.99 19.01 21 20.25 21C21.49 21 22.5 19.99 22.5 18.75C22.5 17.775 21.87 16.95 21 16.64ZM20.25 4.5C20.665 4.5 21 4.835 21 5.25C21 5.665 20.665 6 20.25 6C19.835 6 19.5 5.665 19.5 5.25C19.5 4.835 19.835 4.5 20.25 4.5ZM3.75 4.5C4.165 4.5 4.5 4.835 4.5 5.25C4.5 5.665 4.165 6 3.75 6C3.335 6 3 5.665 3 5.25C3 4.835 3.335 4.5 3.75 4.5ZM3.75 19.5C3.335 19.5 3 19.165 3 18.75C3 18.335 3.335 18 3.75 18C4.165 18 4.5 18.335 4.5 18.75C4.5 19.165 4.165 19.5 3.75 19.5ZM15.5 12C15.5 14.655 12.95 16.525 12 17.125C11.05 16.52 8.5 14.65 8.5 12V7.975L12 6.33L15.5 7.975V12ZM20.25 19.5C19.835 19.5 19.5 19.165 19.5 18.75C19.5 18.335 19.835 18 20.25 18C20.665 18 21 18.335 21 18.75C21 19.165 20.665 19.5 20.25 19.5Z" fill="black"/>
</g>
<defs>
<clipPath id="clip0_2459_4811">
<rect width="24" height="24" fill="white"/>
</clipPath>
</defs>
</svg>
