<svg width="24" height="24" viewBox="0 0 24 24" fill="none" xmlns="http://www.w3.org/2000/svg">
<g clip-path="url(#clip0_4711_22931)">
<path d="M7.75 11.5C10.095 11.5 12 9.595 12 7.25C12 4.905 10.095 3 7.75 3C5.405 3 3.5 4.905 3.5 7.25C3.5 9.595 5.405 11.5 7.75 11.5ZM7.75 4.5C9.265 4.5 10.5 5.735 10.5 7.25C10.5 8.765 9.265 10 7.75 10C6.235 10 5 8.765 5 7.25C5 5.735 6.235 4.5 7.75 4.5Z" fill="black"/>
<path d="M17.25 12.5C19.32 12.5 21 10.82 21 8.75C21 6.68 19.32 5 17.25 5C15.18 5 13.5 6.68 13.5 8.75C13.5 10.82 15.18 12.5 17.25 12.5ZM17.25 6.5C18.49 6.5 19.5 7.51 19.5 8.75C19.5 9.99 18.49 11 17.25 11C16.01 11 15 9.99 15 8.75C15 7.51 16.01 6.5 17.25 6.5Z" fill="black"/>
<path d="M23 15.65L22.72 15.425C19.99 13.23 16.205 12.895 13.145 14.53C9.485 12.295 4.685 12.54 1.28 15.275L1 15.5V20.5H14.5V19H23V15.65ZM13 19H2.5V16.225C5.595 13.935 9.905 13.935 13 16.225V19ZM21.5 17.5H14.5V15.54C16.8 14.595 19.465 14.895 21.5 16.375V17.5Z" fill="black"/>
</g>
<defs>
<clipPath id="clip0_4711_22931">
<rect width="24" height="24" fill="white"/>
</clipPath>
</defs>
</svg>
