<svg width="24" height="24" viewBox="0 0 24 24" fill="none" xmlns="http://www.w3.org/2000/svg">
<g clip-path="url(#clip0_2459_4844)">
<path d="M20.705 14.4251C20.185 14.1251 19.58 14.0451 19 14.2001C18.67 14.2901 18.38 14.4501 18.125 14.6651L16.435 13.6901C16.635 13.1651 16.75 12.5951 16.75 11.9951C16.75 11.3951 16.635 10.8301 16.435 10.3001L18.125 9.32512C18.375 9.54012 18.67 9.70512 19 9.79012C19.195 9.84012 19.39 9.87012 19.585 9.87012C19.975 9.87012 20.36 9.77012 20.705 9.57012C21.78 8.95012 22.15 7.57012 21.53 6.49512C20.91 5.42012 19.53 5.05012 18.455 5.67012C17.935 5.97012 17.56 6.45512 17.405 7.03512C17.315 7.36512 17.31 7.70012 17.375 8.02512L15.685 9.00012C14.965 8.11512 13.93 7.49512 12.75 7.31012V5.35512C13.62 5.04512 14.25 4.22012 14.25 3.24512C14.25 2.00512 13.24 0.995117 12 0.995117C10.76 0.995117 9.75005 2.00512 9.75005 3.24512C9.75005 4.22012 10.38 5.04512 11.25 5.35512V7.31012C10.075 7.50012 9.04005 8.11512 8.31505 9.00012L6.62505 8.02512C6.68505 7.70012 6.68005 7.36512 6.59505 7.03512C6.44005 6.45512 6.06505 5.97012 5.54505 5.67012C4.47005 5.05012 3.09005 5.42012 2.47005 6.49512C1.85005 7.57012 2.22005 8.95012 3.29505 9.57012C3.64005 9.77012 4.02505 9.87012 4.41505 9.87012C4.61005 9.87012 4.80505 9.84512 5.00005 9.79012C5.33005 9.70012 5.62005 9.54012 5.87505 9.32512L7.56505 10.3001C7.36505 10.8251 7.25005 11.3951 7.25005 11.9951C7.25005 12.5951 7.36505 13.1601 7.56505 13.6901L5.87505 14.6651C5.62505 14.4501 5.33005 14.2851 5.00005 14.2001C4.42005 14.0451 3.81505 14.1251 3.29505 14.4251C2.22005 15.0451 1.85005 16.4251 2.47005 17.5001C2.88505 18.2201 3.64505 18.6251 4.42505 18.6251C4.80505 18.6251 5.19505 18.5301 5.54505 18.3251C6.06505 18.0251 6.44005 17.5401 6.59505 16.9601C6.68505 16.6301 6.69005 16.2951 6.62505 15.9701L8.31505 14.9951C9.03505 15.8801 10.07 16.5001 11.25 16.6851V18.6401C10.38 18.9501 9.75005 19.7751 9.75005 20.7501C9.75005 21.9901 10.76 23.0001 12 23.0001C13.24 23.0001 14.25 21.9901 14.25 20.7501C14.25 19.7751 13.62 18.9501 12.75 18.6401V16.6851C13.925 16.4951 14.96 15.8801 15.685 14.9951L17.375 15.9701C17.315 16.2951 17.32 16.6301 17.405 16.9601C17.56 17.5401 17.935 18.0251 18.455 18.3251C18.81 18.5301 19.195 18.6251 19.575 18.6251C20.355 18.6251 21.11 18.2201 21.53 17.5001C22.15 16.4251 21.78 15.0451 20.705 14.4251ZM18.855 7.43012C18.905 7.23512 19.03 7.07512 19.205 6.97512C19.325 6.90512 19.45 6.87512 19.58 6.87512C19.84 6.87512 20.09 7.01012 20.23 7.25012C20.435 7.61012 20.315 8.07012 19.955 8.27512C19.78 8.37512 19.58 8.40012 19.385 8.35012C19.19 8.30012 19.03 8.17512 18.93 8.00012C18.83 7.82512 18.805 7.62512 18.855 7.43012ZM5.07505 8.00012C4.97505 8.17512 4.81505 8.29512 4.62005 8.35012C4.42505 8.40012 4.22505 8.37512 4.05005 8.27512C3.69005 8.07012 3.57005 7.61012 3.77505 7.25012C3.91505 7.01012 4.16505 6.87512 4.42505 6.87512C4.55005 6.87512 4.68005 6.90512 4.80005 6.97512C4.97505 7.07512 5.09505 7.23512 5.15005 7.43012C5.20005 7.62512 5.17505 7.82512 5.07505 8.00012ZM5.15005 16.5701C5.10005 16.7651 4.97505 16.9251 4.80005 17.0251C4.44005 17.2301 3.98005 17.1101 3.77505 16.7501C3.57005 16.3901 3.69005 15.9301 4.05005 15.7251C4.22505 15.6251 4.42505 15.6001 4.62005 15.6501C4.81505 15.7001 4.97505 15.8251 5.07505 16.0001C5.17505 16.1751 5.20005 16.3751 5.15005 16.5701ZM12 2.50012C12.415 2.50012 12.75 2.83512 12.75 3.25012C12.75 3.66512 12.415 4.00012 12 4.00012C11.585 4.00012 11.25 3.66512 11.25 3.25012C11.25 2.83512 11.585 2.50012 12 2.50012ZM12 21.5001C11.585 21.5001 11.25 21.1651 11.25 20.7501C11.25 20.3351 11.585 20.0001 12 20.0001C12.415 20.0001 12.75 20.3351 12.75 20.7501C12.75 21.1651 12.415 21.5001 12 21.5001ZM12 15.2501C10.21 15.2501 8.75005 13.7901 8.75005 12.0001C8.75005 10.2101 10.21 8.75012 12 8.75012C13.79 8.75012 15.25 10.2101 15.25 12.0001C15.25 13.7901 13.79 15.2501 12 15.2501ZM20.23 16.7501C20.02 17.1101 19.565 17.2301 19.205 17.0251C19.03 16.9251 18.91 16.7651 18.855 16.5701C18.805 16.3751 18.83 16.1751 18.93 16.0001C19.03 15.8251 19.19 15.7051 19.385 15.6501C19.575 15.6001 19.78 15.6251 19.955 15.7251C20.315 15.9301 20.435 16.3901 20.23 16.7501Z" fill="black"/>
</g>
<defs>
<clipPath id="clip0_2459_4844">
<rect width="24" height="24" fill="white"/>
</clipPath>
</defs>
</svg>
