<svg width="24" height="24" viewBox="0 0 24 24" fill="none" xmlns="http://www.w3.org/2000/svg">
<g clip-path="url(#clip0_2930_8786)">
<path d="M7.315 6.35989L8.75 7.38489V8.67489L6.75 10.5499V13.4499L8.75 15.3249V16.6149L7.315 17.6399L8.185 18.8599L10.25 17.3849V14.6749L8.25 12.7999V11.1999L10.25 9.32489V6.61489L8.185 5.13989L7.315 6.35989Z" fill="black"/>
<path d="M20.375 9.74999C19.4 9.74999 18.575 10.38 18.265 11.25H13.25V9.74999H17.25V6.60999C18.12 6.29999 18.75 5.47499 18.75 4.49999C18.75 3.25999 17.74 2.24999 16.5 2.24999C15.26 2.24999 14.25 3.25999 14.25 4.49999C14.25 5.47499 14.88 6.29999 15.75 6.60999V8.24999H13.25V4.36999L8.815 1.11499L4.25 3.54999V6.92999L1.75 9.30499V14.7L4.25 17.075V20.455L8.815 22.89L13.25 19.635V15.755H15.75V17.395C14.88 17.705 14.25 18.53 14.25 19.505C14.25 20.745 15.26 21.755 16.5 21.755C17.74 21.755 18.75 20.745 18.75 19.505C18.75 18.53 18.12 17.705 17.25 17.395V14.255H13.25V12.755H18.265C18.575 13.625 19.4 14.255 20.375 14.255C21.615 14.255 22.625 13.245 22.625 12.005C22.625 10.765 21.615 9.75499 20.375 9.75499V9.74999ZM16.5 3.74999C16.915 3.74999 17.25 4.08499 17.25 4.49999C17.25 4.91499 16.915 5.24999 16.5 5.24999C16.085 5.24999 15.75 4.91499 15.75 4.49999C15.75 4.08499 16.085 3.74999 16.5 3.74999ZM16.5 20.25C16.085 20.25 15.75 19.915 15.75 19.5C15.75 19.085 16.085 18.75 16.5 18.75C16.915 18.75 17.25 19.085 17.25 19.5C17.25 19.915 16.915 20.25 16.5 20.25ZM11.75 18.87L8.685 21.115L5.75 19.55V16.53L6.685 15.86L5.815 14.64L4.705 15.435L3.25 14.055V12.75H4.5V11.25H3.25V9.94499L4.705 8.56499L5.815 9.35999L6.685 8.13999L5.75 7.46999V4.44999L8.685 2.88499L11.75 5.12999V11.25H10.5V12.75H11.75V18.87ZM20.375 12.75C19.96 12.75 19.625 12.415 19.625 12C19.625 11.585 19.96 11.25 20.375 11.25C20.79 11.25 21.125 11.585 21.125 12C21.125 12.415 20.79 12.75 20.375 12.75Z" fill="black"/>
</g>
<defs>
<clipPath id="clip0_2930_8786">
<rect width="24" height="24" fill="white"/>
</clipPath>
</defs>
</svg>
