<svg width="24" height="24" viewBox="0 0 24 24" fill="none" xmlns="http://www.w3.org/2000/svg">
<g clip-path="url(#clip0_4711_24247)">
<path d="M22.75 16.3001V11.9401L14.75 9.00509V4.16009C14.765 3.19009 14.31 2.36009 13.505 1.89009C12.605 1.36509 11.4 1.36509 10.5 1.89009C9.695 2.36009 9.24 3.19009 9.255 4.15009V9.00509L1.25 11.9451V16.3051L9.25 14.8401V18.3101L6.75 19.2901V22.5101H17.25V19.2901L14.75 18.3101V14.8401L22.75 16.3051V16.3001ZM15.75 20.3051V21.0001H8.25V20.3051L10.75 19.3251V13.0351L2.75 14.5001V12.9901L10.75 10.0551V4.14009C10.745 3.70509 10.915 3.38509 11.255 3.18509C11.69 2.93509 12.315 2.93009 12.75 3.18509C13.09 3.38509 13.26 3.70509 13.255 4.15009V10.0551L21.255 12.9901V14.5001L13.255 13.0351V19.3251L15.755 20.3051H15.75Z" fill="black"/>
</g>
<defs>
<clipPath id="clip0_4711_24247">
<rect width="24" height="24" fill="white"/>
</clipPath>
</defs>
</svg>
