<svg width="24" height="24" viewBox="0 0 24 24" fill="none" xmlns="http://www.w3.org/2000/svg">
<g clip-path="url(#clip0_4711_24179)">
<path d="M12.25 16.75C15.145 16.75 17.5 14.395 17.5 11.5V11H16V11.5C16 13.57 14.32 15.25 12.25 15.25C10.18 15.25 8.5 13.57 8.5 11.5V11H7V11.5C7 14.395 9.355 16.75 12.25 16.75Z" fill="black"/>
<path d="M17.25 7.5V6.5C17.25 3.605 14.895 1.25 12 1.25C9.105 1.25 6.75 3.605 6.75 6.5V7.5H3V18.25C3 20.87 5.13 23 7.75 23H16.25C18.87 23 21 20.87 21 18.25V7.5H17.25ZM8.25 6.5C8.25 4.43 9.93 2.75 12 2.75C14.07 2.75 15.75 4.43 15.75 6.5V7.5H8.25V6.5ZM19.5 18.25C19.5 20.04 18.04 21.5 16.25 21.5H7.75C5.96 21.5 4.5 20.04 4.5 18.25V9H19.5V18.25Z" fill="black"/>
</g>
<defs>
<clipPath id="clip0_4711_24179">
<rect width="24" height="24" fill="white"/>
</clipPath>
</defs>
</svg>
