<svg width="24" height="24" viewBox="0 0 24 24" fill="none" xmlns="http://www.w3.org/2000/svg">
<g clip-path="url(#clip0_4711_24241)">
<path d="M1.25 4.25V19.75H22.75V4.25H1.25ZM21.25 5.75V10.25H14.12C14.2 10.015 14.25 9.765 14.25 9.5C14.25 8.26 13.305 7.25 12.15 7.25C10.995 7.25 9.965 8.165 9.25 9.05C8.535 8.165 7.52 7.25 6.35 7.25C5.18 7.25 4.25 8.26 4.25 9.5C4.25 9.765 4.3 10.015 4.38 10.25H2.75V5.75H21.25ZM5.75 9.5C5.75 9.095 6.025 8.75 6.35 8.75C6.98 8.75 7.715 9.495 8.275 10.25H6.35C6.025 10.25 5.75 9.905 5.75 9.5ZM10.22 10.25C10.775 9.495 11.515 8.75 12.145 8.75C12.47 8.75 12.745 9.095 12.745 9.5C12.745 9.905 12.47 10.25 12.145 10.25H10.22ZM2.75 18.25V11.75H7.315L5.22 13.845L6.28 14.905L9.31 11.875L12.34 14.905L13.4 13.845L11.305 11.75H21.245V18.25H2.75Z" fill="black"/>
</g>
<defs>
<clipPath id="clip0_4711_24241">
<rect width="24" height="24" fill="white"/>
</clipPath>
</defs>
</svg>
