<svg width="24" height="24" viewBox="0 0 24 24" fill="none" xmlns="http://www.w3.org/2000/svg">
<g clip-path="url(#clip0_4711_19151)">
<path d="M21 17.64V13.5H16.8C16.925 13.03 17 12.53 17 12V10.5H21V6.36C21.87 6.05 22.5 5.225 22.5 4.25C22.5 3.01 21.49 2 20.25 2C19.01 2 18 3.01 18 4.25C18 5.225 18.63 6.05 19.5 6.36V9H17V7.025L12 4.67L7 7.025V9H4.5V6.36C5.37 6.05 6 5.225 6 4.25C6 3.01 4.99 2 3.75 2C2.51 2 1.5 3.01 1.5 4.25C1.5 5.225 2.13 6.05 3 6.36V10.5H7V12C7 12.53 7.075 13.03 7.2 13.5H3V17.64C2.13 17.95 1.5 18.775 1.5 19.75C1.5 20.99 2.51 22 3.75 22C4.99 22 6 20.99 6 19.75C6 18.775 5.37 17.95 4.5 17.64V15H7.83C9.13 17.295 11.515 18.59 11.65 18.665L12 18.85L12.35 18.665C12.49 18.59 14.875 17.295 16.17 15H19.5V17.64C18.63 17.95 18 18.775 18 19.75C18 20.99 19.01 22 20.25 22C21.49 22 22.5 20.99 22.5 19.75C22.5 18.775 21.87 17.95 21 17.64ZM20.25 3.5C20.665 3.5 21 3.835 21 4.25C21 4.665 20.665 5 20.25 5C19.835 5 19.5 4.665 19.5 4.25C19.5 3.835 19.835 3.5 20.25 3.5ZM3.75 3.5C4.165 3.5 4.5 3.835 4.5 4.25C4.5 4.665 4.165 5 3.75 5C3.335 5 3 4.665 3 4.25C3 3.835 3.335 3.5 3.75 3.5ZM3.75 20.5C3.335 20.5 3 20.165 3 19.75C3 19.335 3.335 19 3.75 19C4.165 19 4.5 19.335 4.5 19.75C4.5 20.165 4.165 20.5 3.75 20.5ZM15.5 12C15.5 14.655 12.95 16.525 12 17.125C11.05 16.52 8.5 14.65 8.5 12V7.975L12 6.33L15.5 7.975V12ZM20.25 20.5C19.835 20.5 19.5 20.165 19.5 19.75C19.5 19.335 19.835 19 20.25 19C20.665 19 21 19.335 21 19.75C21 20.165 20.665 20.5 20.25 20.5Z" fill="black"/>
</g>
<defs>
<clipPath id="clip0_4711_19151">
<rect width="24" height="24" fill="white"/>
</clipPath>
</defs>
</svg>
