<svg width="24" height="24" viewBox="0 0 24 24" fill="none" xmlns="http://www.w3.org/2000/svg">
<g clip-path="url(#clip0_2459_4851)">
<path d="M11 1H10.25C5.15 1 1 5.15 1 10.25V11H11V1ZM9.5 9.5H2.535C2.89 5.825 5.825 2.89 9.5 2.535V9.5Z" fill="black"/>
<path d="M13.625 4.25H12.875V12.875H4.25V13.625C4.25 18.795 8.455 23 13.625 23C18.795 23 23 18.795 23 13.625C23 8.455 18.795 4.25 13.625 4.25ZM13.625 21.5C9.535 21.5 6.165 18.365 5.785 14.375H14.375V5.785C18.365 6.165 21.5 9.535 21.5 13.625C21.5 17.965 17.965 21.5 13.625 21.5Z" fill="black"/>
</g>
<defs>
<clipPath id="clip0_2459_4851">
<rect width="24" height="24" fill="white"/>
</clipPath>
</defs>
</svg>
