<svg width="24" height="24" viewBox="0 0 24 24" fill="none" xmlns="http://www.w3.org/2000/svg">
<g clip-path="url(#clip0_4711_23553)">
<path d="M7 8.5H1V10H7V8.5Z" fill="black"/>
<path d="M15 8.5H9V10H15V8.5Z" fill="black"/>
<path d="M23 8.5H17V10H23V8.5Z" fill="black"/>
<path d="M23 19.5H1V21H23V19.5Z" fill="black"/>
<path d="M11 14H1V15.5H11V14Z" fill="black"/>
<path d="M23 14H13V15.5H23V14Z" fill="black"/>
<path d="M2.5 3H1V4.5H2.5V3Z" fill="black"/>
<path d="M7.625 3H6.125V4.5H7.625V3Z" fill="black"/>
<path d="M12.75 3H11.25V4.5H12.75V3Z" fill="black"/>
<path d="M17.875 3H16.375V4.5H17.875V3Z" fill="black"/>
<path d="M23 3H21.5V4.5H23V3Z" fill="black"/>
</g>
<defs>
<clipPath id="clip0_4711_23553">
<rect width="24" height="24" fill="white"/>
</clipPath>
</defs>
</svg>
