<svg width="24" height="24" viewBox="0 0 24 24" fill="none" xmlns="http://www.w3.org/2000/svg">
<g clip-path="url(#clip0_2459_4882)">
<path d="M20.5 9.38V9.35C20.5 7.29 18.83 5.61 16.77 5.6C16.04 2.9 13.6 1 10.75 1C7.305 1 4.5 3.805 4.5 7.25V7.3C2.44 8.03 1 10.02 1 12.25C1 15.145 3.355 17.5 6.25 17.5H7.75V22.5H9.25V17.5H14.75V20.19L13.53 18.97L12.47 20.03L15.5 23.06L18.53 20.03L17.47 18.97L16.25 20.19V17.5H18.75C21.095 17.5 23 15.595 23 13.25C23 11.57 22 10.06 20.5 9.38ZM18.75 16H16.25V10.5H14.75V16H9.25V12.81L10.47 14.03L11.53 12.97L8.5 9.94L5.47 12.97L6.53 14.03L7.75 12.81V16H6.25C4.18 16 2.5 14.32 2.5 12.25C2.5 10.5 3.74 8.96 5.445 8.59L6.105 8.445L6.03 7.775C6.01 7.6 6 7.43 6 7.25C6 4.63 8.13 2.5 10.75 2.5C13.08 2.5 15.045 4.17 15.43 6.47L15.535 7.1H16.755C17.995 7.1 19.005 8.11 19.005 9.35C19.005 9.475 18.99 9.605 18.965 9.75L18.845 10.42L19.5 10.605C20.68 10.935 21.505 12.025 21.505 13.25C21.505 14.765 20.27 16 18.755 16H18.75Z" fill="black"/>
</g>
<defs>
<clipPath id="clip0_2459_4882">
<rect width="24" height="24" fill="white"/>
</clipPath>
</defs>
</svg>
