<svg width="24" height="24" viewBox="0 0 24 24" fill="none" xmlns="http://www.w3.org/2000/svg">
<g clip-path="url(#clip0_4711_22570)">
<path d="M16.5 1H7.5C6.26 1 5.25 2.01 5.25 3.25V20.75C5.25 21.99 6.26 23 7.5 23H16.5C17.74 23 18.75 21.99 18.75 20.75V3.25C18.75 2.01 17.74 1 16.5 1ZM9.5 2.5H14.5V3.75H9.5V2.5ZM17.25 20.75C17.25 21.165 16.915 21.5 16.5 21.5H7.5C7.085 21.5 6.75 21.165 6.75 20.75V3.25C6.75 2.835 7.085 2.5 7.5 2.5H8V4C8 4.69 8.56 5.25 9.25 5.25H14.75C15.44 5.25 16 4.69 16 4V2.5H16.5C16.915 2.5 17.25 2.835 17.25 3.25V20.75Z" fill="black"/>
<path d="M14.4 11.41L15.18 10.63L14.12 9.57L13.34 10.35C13.155 10.245 12.96 10.165 12.75 10.105V9H11.25V10.105C11.045 10.165 10.845 10.245 10.66 10.35L9.88 9.57L8.82 10.63L9.6 11.41C9.495 11.595 9.415 11.79 9.355 12H8.25V13.5H9.355C9.415 13.705 9.495 13.905 9.6 14.09L8.82 14.87L9.88 15.93L10.66 15.15C10.845 15.255 11.04 15.335 11.25 15.395V16.5H12.75V15.395C12.955 15.335 13.155 15.255 13.34 15.15L14.12 15.93L15.18 14.87L14.4 14.09C14.505 13.905 14.585 13.71 14.645 13.5H15.75V12H14.645C14.585 11.795 14.505 11.595 14.4 11.41ZM12 14C11.31 14 10.75 13.44 10.75 12.75C10.75 12.06 11.31 11.5 12 11.5C12.69 11.5 13.25 12.06 13.25 12.75C13.25 13.44 12.69 14 12 14Z" fill="black"/>
</g>
<defs>
<clipPath id="clip0_4711_22570">
<rect width="24" height="24" fill="white"/>
</clipPath>
</defs>
</svg>
