<svg width="24" height="24" viewBox="0 0 24 24" fill="none" xmlns="http://www.w3.org/2000/svg">
<g clip-path="url(#clip0_4711_19861)">
<path d="M14.51 10.5499L18.415 6.64488C18.675 6.75988 18.955 6.81988 19.23 6.81988C19.755 6.81988 20.28 6.61988 20.68 6.21988L22.495 3.67988L20.32 1.50488L17.78 3.31988C17.165 3.93488 17.025 4.83988 17.355 5.58988L13.45 9.49488L11.235 7.28988C11.505 5.89488 11.1 4.38988 10.015 3.30988C9.15 2.43988 8.015 2.00488 6.88 2.00488C5.99 2.00488 5.1 2.27488 4.34 2.80988L6.73 5.20488L5.7 6.23488L3.305 3.84488C2.085 5.56488 2.25 7.96988 3.8 9.51988C4.665 10.3899 5.8 10.8199 6.935 10.8199C7.22 10.8199 7.5 10.7949 7.78 10.7399C7.78 10.7399 8.68 11.6399 9.98499 12.9499L8.965 13.9699L7.495 12.4999L2.08 17.9149C1.3 18.6949 1.3 19.9549 2.08 20.7349L3.26 21.9149C3.65 22.3049 4.16 22.4999 4.67 22.4999C5.18 22.4999 5.69 22.3049 6.08 21.9149L11.495 16.4999L10.025 15.0299L11.045 14.0099C13.47 16.4449 16.66 19.6399 18.445 21.4299C18.82 21.8099 19.315 21.9999 19.81 21.9999C20.305 21.9999 20.8 21.8099 21.175 21.4349L21.93 20.6749C22.685 19.9199 22.685 18.6949 21.93 17.9449L14.51 10.5499ZM18.785 4.43988L20.155 3.45988L20.535 3.83988L19.555 5.20988C19.43 5.29988 19.3 5.31488 19.23 5.31488C19.145 5.31488 18.98 5.29488 18.84 5.15488C18.7 5.01488 18.68 4.84988 18.68 4.76488C18.68 4.68988 18.695 4.56488 18.785 4.43988ZM5.025 20.8549C4.9 20.9799 4.75 20.9999 4.675 20.9999C4.6 20.9999 4.45 20.9799 4.325 20.8549L3.145 19.6749C2.95 19.4799 2.95 19.1699 3.145 18.9749L7.495 14.6249L9.375 16.5049L5.025 20.8549ZM8.845 9.67988L8.27999 9.11488L7.495 9.26488C7.31 9.29988 7.125 9.31988 6.935 9.31988C6.15 9.31988 5.415 9.01488 4.86 8.45488C4.36 7.95488 4.075 7.31988 4.01 6.66488L4.64 7.28988L5.7 8.34988L6.76 7.28988L7.79 6.25988L8.85 5.19988L7.79 4.13988L7.165 3.51488C7.84 3.57988 8.465 3.87488 8.955 4.36988C9.64499 5.05988 9.945 6.03988 9.76 6.99988L9.60999 7.78488L10.175 8.34988L12.385 10.5549L11.045 11.8949C9.74 10.5849 8.84 9.68488 8.84 9.68488L8.845 9.67988ZM20.875 19.6199L20.12 20.3749C20.015 20.4799 19.895 20.4999 19.815 20.4999C19.735 20.4999 19.615 20.4799 19.51 20.3749C17.725 18.5849 14.535 15.3849 12.11 12.9499L13.45 11.6099L20.87 19.0099C20.975 19.1149 20.995 19.2349 20.995 19.3149C20.995 19.3949 20.975 19.5149 20.87 19.6199H20.875Z" fill="black"/>
</g>
<defs>
<clipPath id="clip0_4711_19861">
<rect width="24" height="24" fill="white"/>
</clipPath>
</defs>
</svg>
