<svg width="24" height="24" viewBox="0 0 24 24" fill="none" xmlns="http://www.w3.org/2000/svg">
<g clip-path="url(#clip0_4711_22942)">
<path d="M17.25 10V7C17.25 4.105 14.895 1.75 12 1.75C9.105 1.75 6.75 4.105 6.75 7V10H4.75V22.5H19.25V10H17.25ZM8.25 7C8.25 4.93 9.93 3.25 12 3.25C14.07 3.25 15.75 4.93 15.75 7V10H8.25V7ZM17.75 21H6.25V11.5H17.75V21Z" fill="black"/>
<path d="M11.5 15.5H10V17H11.5V15.5Z" fill="black"/>
<path d="M14 15.5H12.5V17H14V15.5Z" fill="black"/>
<path d="M16.5 15.5H15V17H16.5V15.5Z" fill="black"/>
<path d="M9 15.5H7.5V17H9V15.5Z" fill="black"/>
</g>
<defs>
<clipPath id="clip0_4711_22942">
<rect width="24" height="24" fill="white"/>
</clipPath>
</defs>
</svg>
