<svg width="24" height="24" viewBox="0 0 24 24" fill="none" xmlns="http://www.w3.org/2000/svg">
<g clip-path="url(#clip0_4711_24193)">
<path d="M13.295 14.4699L10.965 14.0549C10.695 14.0049 10.5 13.8249 10.5 13.5999C10.5 13.1299 10.97 12.7499 11.55 12.7499H12.325C12.82 12.7499 13.275 12.9899 13.485 13.3649L14.795 12.6299C14.385 11.8999 13.625 11.4099 12.755 11.2849V10.0049H11.255V11.2849C9.99 11.4249 9.005 12.4049 9.005 13.6249C9.005 14.5599 9.72 15.3649 10.71 15.5399L13.04 15.9549C13.31 16.0049 13.505 16.1849 13.505 16.4099C13.505 16.8799 13.035 17.2599 12.455 17.2599H11.68C11.185 17.2599 10.73 17.0199 10.52 16.6449L9.21 17.3799C9.62 18.1099 10.38 18.5999 11.25 18.7249V20.0049H12.75V18.7249C14.015 18.5849 15 17.6049 15 16.3849C15 15.4499 14.285 14.6449 13.295 14.4699Z" fill="black"/>
<path d="M3 1V23H21V1H3ZM19.5 21.5H4.5V2.5H19.5V21.5Z" fill="black"/>
<path d="M12.5 4.25H7V5.75H12.5V4.25Z" fill="black"/>
<path d="M17 7H7V8.5H17V7Z" fill="black"/>
</g>
<defs>
<clipPath id="clip0_4711_24193">
<rect width="24" height="24" fill="white"/>
</clipPath>
</defs>
</svg>
