<svg width="24" height="24" viewBox="0 0 24 24" fill="none" xmlns="http://www.w3.org/2000/svg">
<g clip-path="url(#clip0_2459_4853)">
<path d="M22 16.5V5.5H19.25V3H9.885L8.635 1.25H2.25V13.75C2.25 15.265 3.485 16.5 5 16.5H11.25V18.39C10.615 18.615 10.115 19.115 9.89 19.75H4V21.25H9.89C10.2 22.12 11.025 22.75 12 22.75C12.975 22.75 13.8 22.12 14.11 21.25H20V19.75H14.11C13.885 19.115 13.385 18.615 12.75 18.39V16.5H22ZM12 21.25C11.585 21.25 11.25 20.915 11.25 20.5C11.25 20.085 11.585 19.75 12 19.75C12.415 19.75 12.75 20.085 12.75 20.5C12.75 20.915 12.415 21.25 12 21.25ZM6.25 13.75C6.25 14.44 5.69 15 5 15C4.31 15 3.75 14.44 3.75 13.75V2.75H7.865L9.115 4.5H17.75V5.5H6.25V13.75ZM7.75 13.75V7H20.5V15H7.45C7.64 14.625 7.75 14.2 7.75 13.75Z" fill="black"/>
</g>
<defs>
<clipPath id="clip0_2459_4853">
<rect width="24" height="24" fill="white"/>
</clipPath>
</defs>
</svg>
