<svg width="24" height="24" viewBox="0 0 24 24" fill="none" xmlns="http://www.w3.org/2000/svg">
<g clip-path="url(#clip0_4711_23564)">
<path d="M12 18.5C12.4142 18.5 12.75 18.1642 12.75 17.75C12.75 17.3358 12.4142 17 12 17C11.5858 17 11.25 17.3358 11.25 17.75C11.25 18.1642 11.5858 18.5 12 18.5Z" fill="black"/>
<path d="M17 3.5V2.35C15.53 1.495 13.825 1 12 1C10.175 1 8.47 1.495 7 2.35V3.5H3V23H21V3.5H17ZM8.5 3.26C9.6 2.76 10.795 2.5 12 2.5C13.205 2.5 14.4 2.76 15.5 3.26V3.5V5H8.505V3.26H8.5ZM19.5 21.5H4.5V5H6.995V6.5H7H17.005V5.18V5H19.505V21.5H19.5Z" fill="black"/>
<path d="M12 9.5C10.485 9.5 9.25 10.735 9.25 12.25H10.75C10.75 11.56 11.31 11 12 11C12.325 11 12.635 11.135 12.875 11.375C13.25 11.75 13.365 12.29 13.125 12.78C12.905 13.235 12.415 13.5 11.91 13.5H11.75C11.475 13.5 11.25 13.725 11.25 14V15.5H12.75V14.895C13.905 14.57 14.75 13.505 14.75 12.25C14.75 11.525 14.46 10.84 13.935 10.315C13.41 9.79 12.725 9.5 12 9.5Z" fill="black"/>
</g>
<defs>
<clipPath id="clip0_4711_23564">
<rect width="24" height="24" fill="white"/>
</clipPath>
</defs>
</svg>
