<svg width="24" height="24" viewBox="0 0 24 24" fill="none" xmlns="http://www.w3.org/2000/svg">
<g clip-path="url(#clip0_2459_4821)">
<path d="M17.5 6C18.0523 6 18.5 5.55228 18.5 5C18.5 4.44772 18.0523 4 17.5 4C16.9477 4 16.5 4.44772 16.5 5C16.5 5.55228 16.9477 6 17.5 6Z" fill="black"/>
<path d="M15 6C15.5523 6 16 5.55228 16 5C16 4.44772 15.5523 4 15 4C14.4477 4 14 4.44772 14 5C14 5.55228 14.4477 6 15 6Z" fill="black"/>
<path d="M17.5 12.5C18.0523 12.5 18.5 12.0523 18.5 11.5C18.5 10.9477 18.0523 10.5 17.5 10.5C16.9477 10.5 16.5 10.9477 16.5 11.5C16.5 12.0523 16.9477 12.5 17.5 12.5Z" fill="black"/>
<path d="M15 12.5C15.5523 12.5 16 12.0523 16 11.5C16 10.9477 15.5523 10.5 15 10.5C14.4477 10.5 14 10.9477 14 11.5C14 12.0523 14.4477 12.5 15 12.5Z" fill="black"/>
<path d="M17.5 19C18.0523 19 18.5 18.5523 18.5 18C18.5 17.4477 18.0523 17 17.5 17C16.9477 17 16.5 17.4477 16.5 18C16.5 18.5523 16.9477 19 17.5 19Z" fill="black"/>
<path d="M15 19C15.5523 19 16 18.5523 16 18C16 17.4477 15.5523 17 15 17C14.4477 17 14 17.4477 14 18C14 18.5523 14.4477 19 15 19Z" fill="black"/>
<path d="M3 1V22H21V1H3ZM19.5 20.5H4.5V15.5H19.5V20.5ZM19.5 14H4.5V9H19.5V14ZM4.5 7.5V2.5H19.5V7.5H4.5Z" fill="black"/>
</g>
<defs>
<clipPath id="clip0_2459_4821">
<rect width="24" height="24" fill="white"/>
</clipPath>
</defs>
</svg>
