<svg width="24" height="24" viewBox="0 0 24 24" fill="none" xmlns="http://www.w3.org/2000/svg">
<g clip-path="url(#clip0_2930_8722)">
<path d="M17.75 12.3049C17.6 12.0399 17.325 11.8749 17.02 11.8649C16.715 11.8549 16.43 11.9999 16.26 12.2499L14.515 14.8399L10.24 7.78987C10.08 7.52487 9.8 7.36987 9.49 7.36987C9.18 7.36987 8.9 7.52987 8.74 7.78987L0.919998 20.7499H22.535L17.75 12.3049ZM9.5 9.44987L13.745 16.4549C13.9 16.7099 14.175 16.8699 14.475 16.8749C14.775 16.8749 15.055 16.7349 15.22 16.4899L16.945 13.9249L19.965 19.2499H3.58L9.5 9.44987Z" fill="black"/>
<path d="M15.795 8.83496C17.31 8.83496 18.545 7.59996 18.545 6.08496C18.545 4.56996 17.31 3.33496 15.795 3.33496C14.28 3.33496 13.045 4.56996 13.045 6.08496C13.045 7.59996 14.28 8.83496 15.795 8.83496ZM15.795 4.83496C16.485 4.83496 17.045 5.39496 17.045 6.08496C17.045 6.77496 16.485 7.33496 15.795 7.33496C15.105 7.33496 14.545 6.77496 14.545 6.08496C14.545 5.39496 15.105 4.83496 15.795 4.83496Z" fill="black"/>
</g>
<defs>
<clipPath id="clip0_2930_8722">
<rect width="24" height="24" fill="white"/>
</clipPath>
</defs>
</svg>
