<svg width="24" height="24" viewBox="0 0 24 24" fill="none" xmlns="http://www.w3.org/2000/svg">
<g clip-path="url(#clip0_4711_22588)">
<path d="M14.105 12.6851C14.08 12.6501 14.04 12.6251 14 12.6251H12.625V9.00007C12.625 8.94007 12.585 8.89007 12.53 8.88007C12.47 8.86507 12.415 8.89507 12.39 8.95007L9.89 14.2001C9.87 14.2401 9.875 14.2851 9.895 14.3201C9.92 14.3551 9.96 14.3801 10 14.3801H11.375V18.0051C11.375 18.0651 11.415 18.1151 11.47 18.1251C11.48 18.1251 11.49 18.1251 11.5 18.1251C11.545 18.1251 11.59 18.1001 11.615 18.0551L14.115 12.8051C14.135 12.7651 14.13 12.7201 14.11 12.6851H14.105Z" fill="black"/>
<path d="M12 2L1 21H23L12 2ZM12 4.995L20.4 19.5H3.6L12 4.995Z" fill="black"/>
</g>
<defs>
<clipPath id="clip0_4711_22588">
<rect width="24" height="24" fill="white"/>
</clipPath>
</defs>
</svg>
