<svg width="24" height="24" viewBox="0 0 24 24" fill="none" xmlns="http://www.w3.org/2000/svg">
<g clip-path="url(#clip0_2930_8767)">
<path d="M16.5 1H7.5C6.26 1 5.25 2.01 5.25 3.25V20.75C5.25 21.99 6.26 23 7.5 23H16.5C17.74 23 18.75 21.99 18.75 20.75V3.25C18.75 2.01 17.74 1 16.5 1ZM9.5 2.5H14.5V3.75H9.5V2.5ZM17.25 20.75C17.25 21.165 16.915 21.5 16.5 21.5H7.5C7.085 21.5 6.75 21.165 6.75 20.75V3.25C6.75 2.835 7.085 2.5 7.5 2.5H8V4C8 4.69 8.56 5.25 9.25 5.25H14.75C15.44 5.25 16 4.69 16 4V2.5H16.5C16.915 2.5 17.25 2.835 17.25 3.25V20.75Z" fill="black"/>
<path d="M12 16.5C12.4142 16.5 12.75 16.1642 12.75 15.75C12.75 15.3358 12.4142 15 12 15C11.5858 15 11.25 15.3358 11.25 15.75C11.25 16.1642 11.5858 16.5 12 16.5Z" fill="black"/>
<path d="M12.595 8.56497C10.82 8.18997 9.25 9.53997 9.25 11.25H10.75C10.75 10.56 11.31 9.99997 12 9.99997C12.735 9.99997 13.32 10.635 13.245 11.38C13.18 12.03 12.58 12.5 11.93 12.5H11.755C11.48 12.5 11.255 12.725 11.255 13V14H12.755V13.895C14.065 13.525 14.985 12.2 14.705 10.72C14.505 9.65497 13.66 8.78497 12.6 8.55997L12.595 8.56497Z" fill="black"/>
</g>
<defs>
<clipPath id="clip0_2930_8767">
<rect width="24" height="24" fill="white"/>
</clipPath>
</defs>
</svg>
