<svg width="24" height="24" viewBox="0 0 24 24" fill="none" xmlns="http://www.w3.org/2000/svg">
<g clip-path="url(#clip0_2930_8798)">
<path d="M9.75 13V14C9.75 14.415 9.415 14.75 9 14.75H5V16.25H9C10.24 16.25 11.25 15.24 11.25 14V13C11.25 11.76 10.24 10.75 9 10.75H6.25V9.25H11V7.75H4.75V12.25H9C9.415 12.25 9.75 12.585 9.75 13Z" fill="black"/>
<path d="M14.5 16.25H17C18.24 16.25 19.25 15.24 19.25 14V11.75H15.5V13.25H17.75V14C17.75 14.415 17.415 14.75 17 14.75H14.5C14.085 14.75 13.75 14.415 13.75 14V10C13.75 9.585 14.085 9.25 14.5 9.25H17C17.415 9.25 17.75 9.585 17.75 10V10.75H19.25V10C19.25 8.76 18.24 7.75 17 7.75H14.5C13.26 7.75 12.25 8.76 12.25 10V14C12.25 15.24 13.26 16.25 14.5 16.25Z" fill="black"/>
<path d="M2 4.75V19.25H22V4.75H2ZM20.5 17.75H3.5V6.25H20.5V17.75Z" fill="black"/>
</g>
<defs>
<clipPath id="clip0_2930_8798">
<rect width="24" height="24" fill="white"/>
</clipPath>
</defs>
</svg>
