<svg width="24" height="24" viewBox="0 0 24 24" fill="none" xmlns="http://www.w3.org/2000/svg">
<g clip-path="url(#clip0_4711_22943)">
<path d="M14.845 13.665L14.42 13.45L14.045 13.67C11.46 15.195 8.20501 14.595 6.31001 12.245C4.56501 10.08 4.56001 6.93497 6.30001 4.76497C7.39001 3.40497 8.94501 2.59997 10.67 2.50497C12.37 2.40497 14.04 3.04997 15.245 4.25497L16.305 3.19497C14.8 1.68997 12.71 0.894974 10.585 1.00997C8.46001 1.12497 6.47001 2.15497 5.12501 3.82997C2.95001 6.54497 2.95501 10.48 5.14001 13.19C5.61501 13.775 6.15501 14.275 6.74501 14.685V23.125L10.995 20.395L15.245 23.125V14.36C15.245 14.075 15.09 13.805 14.84 13.665H14.845ZM13.75 20.375L11 18.605L8.25001 20.375V15.485C9.99001 16.175 11.95 16.195 13.75 15.48V20.375Z" fill="black"/>
<path d="M19 7.75H13.9C13.565 6.46 12.395 5.5 11 5.5C9.345 5.5 8 6.845 8 8.5C8 10.155 9.345 11.5 11 11.5C12.395 11.5 13.565 10.54 13.9 9.25H16.25V11.5H17.75V9.25H18.75V11.5H20.25V9C20.25 8.31 19.69 7.75 19 7.75ZM11 10C10.175 10 9.5 9.325 9.5 8.5C9.5 7.675 10.175 7 11 7C11.825 7 12.5 7.675 12.5 8.5C12.5 9.325 11.825 10 11 10Z" fill="black"/>
</g>
<defs>
<clipPath id="clip0_4711_22943">
<rect width="24" height="24" fill="white"/>
</clipPath>
</defs>
</svg>
