<svg width="24" height="24" viewBox="0 0 24 24" fill="none" xmlns="http://www.w3.org/2000/svg">
<g clip-path="url(#clip0_2930_8751)">
<path d="M12.75 19.25H11.25C10.835 19.25 10.5 19.585 10.5 20C10.5 20.415 10.835 20.75 11.25 20.75H12.75C13.165 20.75 13.5 20.415 13.5 20C13.5 19.585 13.165 19.25 12.75 19.25Z" fill="black"/>
<path d="M19.25 1H4.75C3.785 1 3 1.785 3 2.75V21.25C3 22.215 3.785 23 4.75 23H19.25C20.215 23 21 22.215 21 21.25V2.75C21 1.785 20.215 1 19.25 1ZM19.5 21.25C19.5 21.39 19.39 21.5 19.25 21.5H4.75C4.61 21.5 4.5 21.39 4.5 21.25V2.75C4.5 2.61 4.61 2.5 4.75 2.5H19.25C19.39 2.5 19.5 2.61 19.5 2.75V21.25Z" fill="black"/>
<path d="M12.75 6H11.25V13H12.75V6Z" fill="black"/>
<path d="M12 16C12.4142 16 12.75 15.6642 12.75 15.25C12.75 14.8358 12.4142 14.5 12 14.5C11.5858 14.5 11.25 14.8358 11.25 15.25C11.25 15.6642 11.5858 16 12 16Z" fill="black"/>
</g>
<defs>
<clipPath id="clip0_2930_8751">
<rect width="24" height="24" fill="white"/>
</clipPath>
</defs>
</svg>
