<svg width="24" height="24" viewBox="0 0 24 24" fill="none" xmlns="http://www.w3.org/2000/svg">
<g clip-path="url(#clip0_4711_24243)">
<path d="M21.565 14.33L21.06 12.915L17.38 14.24L13.5 12L17.38 9.76L21.06 11.085L21.565 9.67L19.08 8.78L21.9 7.15L21.15 5.85L18.33 7.48L18.8 4.88L17.325 4.615L16.63 8.46L12.75 10.7V6.225L15.735 3.7L14.765 2.55L12.75 4.26V1H11.25V4.26L9.23498 2.55L8.26498 3.7L11.25 6.225V10.7L7.36998 8.46L6.67498 4.615L5.19998 4.88L5.66998 7.48L2.84998 5.85L2.09998 7.15L4.91998 8.78L2.43498 9.67L2.93998 11.085L6.61998 9.76L10.5 12L6.61998 14.24L2.93998 12.915L2.43498 14.33L4.91998 15.22L2.09998 16.85L2.84998 18.15L5.66998 16.52L5.19998 19.12L6.67498 19.385L7.36998 15.54L11.25 13.3V17.775L8.26498 20.3L9.23498 21.45L11.25 19.74V23H12.75V19.74L14.765 21.45L15.735 20.3L12.75 17.775V13.3L16.63 15.54L17.325 19.385L18.8 19.12L18.33 16.52L21.15 18.15L21.9 16.85L19.08 15.22L21.565 14.33Z" fill="black"/>
</g>
<defs>
<clipPath id="clip0_4711_24243">
<rect width="24" height="24" fill="white"/>
</clipPath>
</defs>
</svg>
