<svg width="24" height="24" viewBox="0 0 24 24" fill="none" xmlns="http://www.w3.org/2000/svg">
<g clip-path="url(#clip0_4711_19879)">
<path d="M12 7.5C13.515 7.5 14.75 6.265 14.75 4.75C14.75 3.235 13.515 2 12 2C10.485 2 9.25 3.235 9.25 4.75C9.25 6.265 10.485 7.5 12 7.5ZM12 3.5C12.69 3.5 13.25 4.06 13.25 4.75C13.25 5.44 12.69 6 12 6C11.31 6 10.75 5.44 10.75 4.75C10.75 4.06 11.31 3.5 12 3.5Z" fill="black"/>
<path d="M12 9.25C10.485 9.25 9.25 10.485 9.25 12C9.25 13.515 10.485 14.75 12 14.75C13.515 14.75 14.75 13.515 14.75 12C14.75 10.485 13.515 9.25 12 9.25ZM12 13.25C11.31 13.25 10.75 12.69 10.75 12C10.75 11.31 11.31 10.75 12 10.75C12.69 10.75 13.25 11.31 13.25 12C13.25 12.69 12.69 13.25 12 13.25Z" fill="black"/>
<path d="M12 16.5C10.485 16.5 9.25 17.735 9.25 19.25C9.25 20.765 10.485 22 12 22C13.515 22 14.75 20.765 14.75 19.25C14.75 17.735 13.515 16.5 12 16.5ZM12 20.5C11.31 20.5 10.75 19.94 10.75 19.25C10.75 18.56 11.31 18 12 18C12.69 18 13.25 18.56 13.25 19.25C13.25 19.94 12.69 20.5 12 20.5Z" fill="black"/>
</g>
<defs>
<clipPath id="clip0_4711_19879">
<rect width="24" height="24" fill="white"/>
</clipPath>
</defs>
</svg>
