<svg width="24" height="24" viewBox="0 0 24 24" fill="none" xmlns="http://www.w3.org/2000/svg">
<g clip-path="url(#clip0_4711_23558)">
<path d="M17 3.5V2.35C15.53 1.495 13.825 1 12 1C10.175 1 8.47 1.495 7 2.35V3.5H3V23H21V3.5H17ZM8.5 3.26C9.6 2.76 10.795 2.5 12 2.5C13.205 2.5 14.4 2.76 15.5 3.26V3.5V5H8.505V3.26H8.5ZM19.5 21.5H4.5V5H6.995V6.5H7H17.005V5.18V5H19.505V21.5H19.5Z" fill="black"/>
<path d="M17 9.5H7V11H17V9.5Z" fill="black"/>
<path d="M17 12.5H7V14H17V12.5Z" fill="black"/>
<path d="M14 15.5H7V17H14V15.5Z" fill="black"/>
</g>
<defs>
<clipPath id="clip0_4711_23558">
<rect width="24" height="24" fill="white"/>
</clipPath>
</defs>
</svg>
