<svg width="24" height="24" viewBox="0 0 24 24" fill="none" xmlns="http://www.w3.org/2000/svg">
<g clip-path="url(#clip0_4711_21497)">
<path d="M22.3 20.27L18.905 14.395L17.61 15.145L19.7 18.77H13.31L14.78 17.3L13.72 16.24L10.44 19.52L13.72 22.8L14.78 21.74L13.31 20.27H22.3Z" fill="black"/>
<path d="M15.25 11.0651L13.245 10.5251L12.855 11.9751L17.335 13.1751L18.54 8.69506L17.09 8.30506L16.55 10.3151L12 2.43506L8.52002 8.46006L9.82002 9.21006L12 5.43506L15.25 11.0651Z" fill="black"/>
<path d="M8.00501 15.29L9.45001 14.905L8.25001 10.425L3.77001 11.625L4.16001 13.075L6.17001 12.535L1.70001 20.27H9.02001V18.77H4.30001L7.46501 13.285L8.00501 15.29Z" fill="black"/>
</g>
<defs>
<clipPath id="clip0_4711_21497">
<rect width="24" height="24" fill="white"/>
</clipPath>
</defs>
</svg>
