<svg width="24" height="24" viewBox="0 0 24 24" fill="none" xmlns="http://www.w3.org/2000/svg">
<g clip-path="url(#clip0_2459_4874)">
<path d="M9.47 17.03L11.19 18.75H8.75C7.51 18.75 6.5 17.74 6.5 16.5V6.645C7.65 6.315 8.5 5.26 8.5 4C8.5 2.485 7.265 1.25 5.75 1.25C4.235 1.25 3 2.485 3 4C3 5.255 3.85 6.315 5 6.645V16.5C5 18.57 6.68 20.25 8.75 20.25H11.19L9.47 21.97L10.53 23.03L14.06 19.5L10.53 15.97L9.47 17.03ZM4.5 4C4.5 3.31 5.06 2.75 5.75 2.75C6.44 2.75 7 3.31 7 4C7 4.69 6.44 5.25 5.75 5.25C5.06 5.25 4.5 4.69 4.5 4Z" fill="black"/>
<path d="M15.78 10.72L14.72 11.78L18.25 15.31L21.78 11.78L20.72 10.72L19 12.44V6.645C20.15 6.315 21 5.26 21 4C21 2.485 19.765 1.25 18.25 1.25C16.735 1.25 15.5 2.485 15.5 4C15.5 5.255 16.35 6.315 17.5 6.645V12.44L15.78 10.72ZM17 4C17 3.31 17.56 2.75 18.25 2.75C18.94 2.75 19.5 3.31 19.5 4C19.5 4.69 18.94 5.25 18.25 5.25C17.56 5.25 17 4.69 17 4Z" fill="black"/>
<path d="M18.25 16.75C16.735 16.75 15.5 17.985 15.5 19.5C15.5 21.015 16.735 22.25 18.25 22.25C19.765 22.25 21 21.015 21 19.5C21 17.985 19.765 16.75 18.25 16.75ZM18.25 20.75C17.56 20.75 17 20.19 17 19.5C17 18.81 17.56 18.25 18.25 18.25C18.94 18.25 19.5 18.81 19.5 19.5C19.5 20.19 18.94 20.75 18.25 20.75Z" fill="black"/>
</g>
<defs>
<clipPath id="clip0_2459_4874">
<rect width="24" height="24" fill="white"/>
</clipPath>
</defs>
</svg>
