<svg width="24" height="24" viewBox="0 0 24 24" fill="none" xmlns="http://www.w3.org/2000/svg">
<g clip-path="url(#clip0_2459_7604)">
<path d="M19.03 7.96994L17.97 9.02994L20.19 11.2499H12.75V3.80994L14.97 6.02994L16.03 4.96994L12 0.939941L7.97 4.96994L9.03 6.02994L11.25 3.80994V11.2499H3.81L6.03 9.02994L4.97 7.96994L0.940002 11.9999L4.97 16.0299L6.03 14.9699L3.81 12.7499H11.25V20.1899L9.03 17.9699L7.97 19.0299L12 23.0599L16.03 19.0299L14.97 17.9699L12.75 20.1899V12.7499H20.19L17.97 14.9699L19.03 16.0299L23.06 11.9999L19.03 7.96994Z" fill="black"/>
</g>
<defs>
<clipPath id="clip0_2459_7604">
<rect width="24" height="24" fill="white"/>
</clipPath>
</defs>
</svg>
