<svg width="24" height="24" viewBox="0 0 24 24" fill="none" xmlns="http://www.w3.org/2000/svg">
<g clip-path="url(#clip0_4711_24244)">
<path d="M21.73 12.1801C26.165 5.70012 18.22 -1.79988 12 3.00512C5.76505 -1.80488 -2.17495 5.73012 2.28505 12.2001C1.09505 13.5601 2.08505 15.8351 3.89005 15.8701C3.90005 16.9651 4.91505 17.9801 6.01005 17.9901C6.02005 19.0851 7.03505 20.1001 8.13005 20.1101C8.17005 22.0351 10.69 22.9751 11.995 21.5451C13.14 22.8151 15.405 22.2351 15.785 20.5701C17.085 20.8851 18.465 19.8001 18.48 18.4851C19.575 18.4751 20.59 17.4601 20.6 16.3651C22.8451 16.1801 23.46 13.5351 21.72 12.1801H21.73ZM19.96 4.54012C21.74 6.32012 21.97 9.07512 20.65 11.1101L17.6101 8.07012L18.585 7.09512L17.525 6.03512L16.2351 7.32512C15.55 8.00512 14.4451 8.00512 13.76 7.32512L13.4 6.96512C12.915 6.48012 12.12 6.48012 11.63 6.96512L10.705 7.89012C10.255 8.34012 9.55005 8.37512 9.06005 7.99512L12.5201 4.53512H12.525C14.57 2.49512 17.9051 2.49512 19.9501 4.54012H19.96ZM3.47505 13.1001L5.09505 11.4801C5.24005 11.3351 5.43505 11.2601 5.62505 11.2601C6.26505 11.2351 6.63005 12.0951 6.15505 12.5401L4.53505 14.1601C3.82505 14.8451 2.79005 13.8101 3.47505 13.1001ZM5.60005 15.2201L7.22005 13.6001C7.36505 13.4551 7.56005 13.3801 7.75005 13.3801C8.39005 13.3551 8.76005 14.2151 8.28005 14.6601L6.66005 16.2801C5.95005 16.9601 4.91505 15.9301 5.60005 15.2201ZM7.72005 17.3401L9.34005 15.7201C9.48505 15.5751 9.68005 15.5001 9.87005 15.5001C10.51 15.4751 10.88 16.3351 10.4 16.7801L8.78005 18.4001C8.07005 19.0851 7.03505 18.0501 7.72005 17.3401ZM9.84005 20.5251C9.55005 20.2351 9.55005 19.7551 9.84005 19.4651L11.46 17.8451C12.17 17.1601 13.2051 18.1951 12.5201 18.9051L10.9 20.5251C10.61 20.8151 10.13 20.8201 9.84005 20.5251ZM14.16 20.5251C13.865 20.8251 13.34 20.8051 13.0601 20.4851C13.375 20.1701 13.8601 19.7401 14.0201 19.3251C14.4001 19.6151 14.52 20.1701 14.16 20.5251ZM21.025 14.6601C20.735 14.9551 20.2551 14.9501 19.965 14.6601L17.285 11.9801L16.225 13.0401L18.9051 15.7201C19.1951 16.0001 19.1951 16.5001 18.9051 16.7801C18.6201 17.0651 18.13 17.0651 17.845 16.7801L15.165 14.1001L14.105 15.1601L16.785 17.8401C17.47 18.5501 16.4351 19.5851 15.725 18.9001C15.1 18.2751 14.17 17.3451 13.545 16.7201L13.535 16.7301C13.135 16.3551 12.63 16.1601 12.12 16.1301C12.11 15.0351 11.095 14.0201 10 14.0101C9.99005 12.9151 8.97505 11.9001 7.88005 11.8901C7.84005 9.99512 5.37505 9.03012 4.05005 10.4151L3.36005 11.1051C0.26005 6.14512 6.13005 0.635117 10.89 4.05012L7.82505 7.11512C7.31005 7.62512 7.35005 8.46512 7.88505 8.94512C8.95505 10.0151 10.7 10.0151 11.775 8.94512L12.5201 8.20012C13.51 9.33012 15.13 9.64012 16.425 9.00012L21.025 13.6001C21.3151 13.8801 21.3151 14.3801 21.025 14.6601Z" fill="black"/>
</g>
<defs>
<clipPath id="clip0_4711_24244">
<rect width="24" height="24" fill="white"/>
</clipPath>
</defs>
</svg>
