<svg width="24" height="24" viewBox="0 0 24 24" fill="none" xmlns="http://www.w3.org/2000/svg">
<g clip-path="url(#clip0_2459_4812)">
<path d="M19.5 17.25C19.155 17.25 18.83 17.335 18.535 17.475L17.09 16.03C17.97 14.92 18.5 13.52 18.5 12C18.5 10.48 17.97 9.08 17.09 7.97L18.535 6.525C18.83 6.665 19.155 6.75 19.5 6.75C20.74 6.75 21.75 5.74 21.75 4.5C21.75 3.26 20.74 2.25 19.5 2.25C18.26 2.25 17.25 3.26 17.25 4.5C17.25 4.845 17.335 5.17 17.475 5.465L16.03 6.91C14.92 6.03 13.52 5.5 12 5.5C10.48 5.5 9.08 6.03 7.97 6.91L6.525 5.465C6.665 5.17 6.75 4.845 6.75 4.5C6.75 3.26 5.74 2.25 4.5 2.25C3.26 2.25 2.25 3.26 2.25 4.5C2.25 5.74 3.26 6.75 4.5 6.75C4.845 6.75 5.17 6.665 5.465 6.525L6.91 7.97C6.03 9.08 5.5 10.48 5.5 12C5.5 13.52 6.03 14.92 6.91 16.03L5.465 17.475C5.17 17.335 4.845 17.25 4.5 17.25C3.26 17.25 2.25 18.26 2.25 19.5C2.25 20.74 3.26 21.75 4.5 21.75C5.74 21.75 6.75 20.74 6.75 19.5C6.75 19.155 6.665 18.83 6.525 18.535L7.97 17.09C9.08 17.97 10.48 18.5 12 18.5C13.52 18.5 14.92 17.97 16.03 17.09L17.475 18.535C17.335 18.83 17.25 19.155 17.25 19.5C17.25 20.74 18.26 21.75 19.5 21.75C20.74 21.75 21.75 20.74 21.75 19.5C21.75 18.26 20.74 17.25 19.5 17.25ZM15.04 15.96C14.73 16.2 14.39 16.405 14.025 16.565C14.44 15.505 14.67 14.135 14.73 12.75H16.935C16.805 13.6 16.465 14.385 15.96 15.04L15.035 15.965L15.04 15.96ZM12.005 17C11.685 16.925 10.895 15.51 10.77 12.75H13.235C13.11 15.51 12.32 16.92 12.01 17H12.005ZM8.04 15.04C7.535 14.385 7.195 13.605 7.065 12.75H9.27C9.33 14.135 9.56 15.51 9.975 16.565C9.61 16.405 9.275 16.2 8.96 15.96L8.035 15.035L8.04 15.04ZM8.965 8.04C9.275 7.8 9.615 7.595 9.98 7.435C9.565 8.495 9.335 9.865 9.275 11.25H7.07C7.2 10.4 7.54 9.615 8.045 8.96L8.97 8.035L8.965 8.04ZM12 7C12.32 7.075 13.11 8.49 13.235 11.25H10.77C10.895 8.49 11.685 7.08 11.995 7H12ZM15.965 8.96C16.47 9.615 16.81 10.395 16.94 11.25H14.735C14.675 9.865 14.445 8.49 14.03 7.435C14.395 7.595 14.73 7.8 15.045 8.04L15.97 8.965L15.965 8.96ZM19.505 3.75C19.92 3.75 20.255 4.085 20.255 4.5C20.255 4.915 19.92 5.25 19.505 5.25C19.09 5.25 18.755 4.915 18.755 4.5C18.755 4.085 19.09 3.75 19.505 3.75ZM3.755 4.5C3.755 4.085 4.09 3.75 4.505 3.75C4.92 3.75 5.255 4.085 5.255 4.5C5.255 4.915 4.92 5.25 4.505 5.25C4.09 5.25 3.755 4.915 3.755 4.5ZM4.505 20.25C4.09 20.25 3.755 19.915 3.755 19.5C3.755 19.085 4.09 18.75 4.505 18.75C4.92 18.75 5.255 19.085 5.255 19.5C5.255 19.915 4.92 20.25 4.505 20.25ZM19.505 20.25C19.09 20.25 18.755 19.915 18.755 19.5C18.755 19.085 19.09 18.75 19.505 18.75C19.92 18.75 20.255 19.085 20.255 19.5C20.255 19.915 19.92 20.25 19.505 20.25Z" fill="black"/>
</g>
<defs>
<clipPath id="clip0_2459_4812">
<rect width="24" height="24" fill="white"/>
</clipPath>
</defs>
</svg>
