<svg width="24" height="24" viewBox="0 0 24 24" fill="none" xmlns="http://www.w3.org/2000/svg">
<g clip-path="url(#clip0_4711_19197)">
<path d="M14.22 16.97L15.28 18.03L16.75 16.56L18.22 18.03L19.28 16.97L17.81 15.5L19.28 14.03L18.22 12.97L16.75 14.44L15.28 12.97L14.22 14.03L15.69 15.5L14.22 16.97Z" fill="black"/>
<path d="M6.24997 9.31497L5.02997 8.09497L3.96997 9.15497L6.24997 11.435L10.53 7.15497L9.46997 6.09497L6.24997 9.31497Z" fill="black"/>
<path d="M13.5 9V4.75C13.5 3.235 12.265 2 10.75 2H1V15H10.5V19.25C10.5 20.765 11.735 22 13.25 22H23V9H13.5ZM2.5 3.5H10.75C11.44 3.5 12 4.06 12 4.75V13.5H2.5V3.5ZM21.5 20.5H13.25C12.56 20.5 12 19.94 12 19.25V15H13.5V10.5H21.5V20.5Z" fill="black"/>
</g>
<defs>
<clipPath id="clip0_4711_19197">
<rect width="24" height="24" fill="white"/>
</clipPath>
</defs>
</svg>
