<svg width="24" height="24" viewBox="0 0 24 24" fill="none" xmlns="http://www.w3.org/2000/svg">
<g clip-path="url(#clip0_4711_19945)">
<path d="M22.99 7.89508C22.9 6.20508 22.08 4.62008 20.745 3.55508C18.675 1.90008 15.72 1.80508 13.555 3.32508C12.93 3.76508 12.405 4.30008 11.995 4.92008C11.585 4.30508 11.06 3.76508 10.435 3.32508C8.27 1.80508 5.315 1.90008 3.245 3.55508C1.8 4.71008 0.98 6.42508 0.995 8.25508L2.495 8.24508C2.485 6.87508 3.1 5.59508 4.185 4.72508C5.735 3.48508 7.95 3.41008 9.575 4.55008C10.36 5.10008 10.935 5.86008 11.245 6.75008C11.36 7.07008 11.66 7.28508 11.995 7.28508C12.335 7.28508 12.635 7.06508 12.745 6.75008C13.055 5.86508 13.63 5.10508 14.415 4.55508C16.035 3.41508 18.255 3.48508 19.805 4.73008C20.82 5.54508 21.42 6.70008 21.49 7.98008C21.55 9.07508 21.2 10.1451 20.51 11.0001H13.545L12.005 13.8851L8.275 6.68008L5.805 11.0001H0.75V12.5001H6.685L8.215 9.82008L11.985 17.1151L14.445 12.5001H19.1L11.995 19.9151L7.505 15.2251L6.42 16.2651L11.995 22.0851L21.235 12.4401C22.44 11.2451 23.075 9.59008 22.985 7.90008L22.99 7.89508Z" fill="black"/>
</g>
<defs>
<clipPath id="clip0_4711_19945">
<rect width="24" height="24" fill="white"/>
</clipPath>
</defs>
</svg>
