<svg width="24" height="24" viewBox="0 0 24 24" fill="none" xmlns="http://www.w3.org/2000/svg">
<g clip-path="url(#clip0_4711_22956)">
<path d="M12 11.75C13.38 11.75 14.5 10.63 14.5 9.25C14.5 7.87 13.38 6.75 12 6.75C10.62 6.75 9.5 7.87 9.5 9.25C9.5 10.63 10.62 11.75 12 11.75ZM12 8.25C12.55 8.25 13 8.7 13 9.25C13 9.8 12.55 10.25 12 10.25C11.45 10.25 11 9.8 11 9.25C11 8.7 11.45 8.25 12 8.25Z" fill="black"/>
<path d="M8.09 13.4151L7.75 13.6351V16.7501H16.25V13.6351L15.91 13.4151C13.535 11.8551 10.465 11.8551 8.09 13.4151ZM14.75 15.2501H9.25V14.4651C10.96 13.5101 13.04 13.5101 14.75 14.4651V15.2501Z" fill="black"/>
<path d="M23 14.75V9.25H20.3C20.165 8.845 20.005 8.455 19.815 8.075L21.725 6.165L17.835 2.275L15.925 4.185C15.545 3.995 15.155 3.835 14.75 3.7V1H9.25V3.7C8.845 3.835 8.455 3.995 8.075 4.185L6.165 2.275L2.275 6.165L4.185 8.075C3.995 8.455 3.83 8.845 3.7 9.25H1V14.75H3.7C3.835 15.155 3.995 15.545 4.185 15.925L2.275 17.835L6.165 21.725L8.075 19.815C8.455 20.005 8.845 20.165 9.25 20.3V23H14.75V20.3C15.155 20.165 15.545 20.005 15.925 19.815L17.835 21.725L21.725 17.835L19.815 15.925C20.005 15.545 20.165 15.155 20.3 14.75H23ZM19.6 17.835L17.83 19.605L16.175 17.95L15.675 18.245C15.095 18.585 14.47 18.845 13.81 19.015L13.25 19.16V21.505H10.75V19.16L10.19 19.015C9.535 18.845 8.905 18.585 8.325 18.245L7.825 17.95L6.17 19.605L4.4 17.835L6.055 16.18L5.76 15.68C5.415 15.1 5.16 14.47 4.99 13.815L4.845 13.25H2.5V10.75H4.845L4.99 10.185C5.16 9.53 5.42 8.9 5.76 8.32L6.055 7.82L4.4 6.165L6.17 4.395L7.825 6.05L8.325 5.755C8.905 5.415 9.53 5.155 10.19 4.985L10.75 4.84V2.495H13.25V4.84L13.81 4.985C14.465 5.155 15.095 5.415 15.675 5.755L16.175 6.05L17.83 4.395L19.6 6.165L17.945 7.82L18.24 8.32C18.585 8.9 18.84 9.525 19.01 10.185L19.155 10.75H21.5V13.25H19.155L19.01 13.815C18.84 14.47 18.58 15.1 18.24 15.68L17.945 16.18L19.6 17.835Z" fill="black"/>
</g>
<defs>
<clipPath id="clip0_4711_22956">
<rect width="24" height="24" fill="white"/>
</clipPath>
</defs>
</svg>
