<svg width="24" height="24" viewBox="0 0 24 24" fill="none" xmlns="http://www.w3.org/2000/svg">
<g clip-path="url(#clip0_4711_22923)">
<path d="M8.5 12.5C10.845 12.5 12.75 10.595 12.75 8.25C12.75 5.905 10.845 4 8.5 4C6.155 4 4.25 5.905 4.25 8.25C4.25 10.595 6.155 12.5 8.5 12.5ZM8.5 5.5C10.015 5.5 11.25 6.735 11.25 8.25C11.25 9.765 10.015 11 8.5 11C6.985 11 5.75 9.765 5.75 8.25C5.75 6.735 6.985 5.5 8.5 5.5Z" fill="black"/>
<path d="M2.03 16.2749L1.75 16.4999V20.9999H15.25V16.4999L14.97 16.2749C11.22 13.2599 5.78 13.2599 2.03 16.2749ZM13.75 19.4999H3.25V17.2249C6.345 14.9349 10.655 14.9349 13.75 17.2249V19.4999Z" fill="black"/>
<path d="M22.5 12V10.5H21.395C21.335 10.295 21.255 10.095 21.15 9.91L21.93 9.13L20.87 8.07L20.09 8.85C19.905 8.745 19.71 8.665 19.5 8.605V7.5H18V8.605C17.795 8.665 17.595 8.745 17.41 8.85L16.63 8.07L15.57 9.13L16.35 9.91C16.245 10.095 16.165 10.29 16.105 10.5H15V12H16.105C16.165 12.205 16.245 12.405 16.35 12.59L15.57 13.37L16.63 14.43L17.41 13.65C17.595 13.755 17.79 13.835 18 13.895V15H19.5V13.895C19.705 13.835 19.905 13.755 20.09 13.65L20.87 14.43L21.93 13.37L21.15 12.59C21.255 12.405 21.335 12.21 21.395 12H22.5ZM18.75 12.5C18.06 12.5 17.5 11.94 17.5 11.25C17.5 10.56 18.06 10 18.75 10C19.44 10 20 10.56 20 11.25C20 11.94 19.44 12.5 18.75 12.5Z" fill="black"/>
</g>
<defs>
<clipPath id="clip0_4711_22923">
<rect width="24" height="24" fill="white"/>
</clipPath>
</defs>
</svg>
