<svg width="24" height="24" viewBox="0 0 24 24" fill="none" xmlns="http://www.w3.org/2000/svg">
<g clip-path="url(#clip0_2459_6163)">
<path d="M22.03 20.97L15.66 14.6C16.81 13.215 17.5 11.44 17.5 9.5C17.5 5.08 13.92 1.5 9.5 1.5C5.08 1.5 1.5 5.08 1.5 9.5C1.5 13.92 5.08 17.5 9.5 17.5C11.44 17.5 13.215 16.81 14.6 15.66L20.97 22.03L22.03 20.97ZM3 9.5C3 5.915 5.915 3 9.5 3C13.085 3 16 5.915 16 9.5C16 13.085 13.085 16 9.5 16C5.915 16 3 13.085 3 9.5Z" fill="black"/>
<path d="M14 8.75H5V10.25H14V8.75Z" fill="black"/>
</g>
<defs>
<clipPath id="clip0_2459_6163">
<rect width="24" height="24" fill="white"/>
</clipPath>
</defs>
</svg>
