<svg width="24" height="24" viewBox="0 0 24 24" fill="none" xmlns="http://www.w3.org/2000/svg">
<g clip-path="url(#clip0_4711_19216)">
<path d="M18 6C18.5523 6 19 5.55228 19 5C19 4.44772 18.5523 4 18 4C17.4477 4 17 4.44772 17 5C17 5.55228 17.4477 6 18 6Z" fill="black"/>
<path d="M15 6C15.5523 6 16 5.55228 16 5C16 4.44772 15.5523 4 15 4C14.4477 4 14 4.44772 14 5C14 5.55228 14.4477 6 15 6Z" fill="black"/>
<path d="M18 12.5C18.5523 12.5 19 12.0523 19 11.5C19 10.9477 18.5523 10.5 18 10.5C17.4477 10.5 17 10.9477 17 11.5C17 12.0523 17.4477 12.5 18 12.5Z" fill="black"/>
<path d="M15 12.5C15.5523 12.5 16 12.0523 16 11.5C16 10.9477 15.5523 10.5 15 10.5C14.4477 10.5 14 10.9477 14 11.5C14 12.0523 14.4477 12.5 15 12.5Z" fill="black"/>
<path d="M2 1V15.5H7.5V18.25H6.36C6.05 17.38 5.225 16.75 4.25 16.75C3.01 16.75 2 17.76 2 19C2 20.24 3.01 21.25 4.25 21.25C5.225 21.25 6.05 20.62 6.36 19.75H9V15.5H11.25V18.64C10.38 18.95 9.75 19.775 9.75 20.75C9.75 21.99 10.76 23 12 23C13.24 23 14.25 21.99 14.25 20.75C14.25 19.775 13.62 18.95 12.75 18.64V15.5H15V19.75H17.64C17.95 20.62 18.775 21.25 19.75 21.25C20.99 21.25 22 20.24 22 19C22 17.76 20.99 16.75 19.75 16.75C18.775 16.75 17.95 17.38 17.64 18.25H16.5V15.5H22V1H2ZM4.25 19.75C3.835 19.75 3.5 19.415 3.5 19C3.5 18.585 3.835 18.25 4.25 18.25C4.665 18.25 5 18.585 5 19C5 19.415 4.665 19.75 4.25 19.75ZM12 21.5C11.585 21.5 11.25 21.165 11.25 20.75C11.25 20.335 11.585 20 12 20C12.415 20 12.75 20.335 12.75 20.75C12.75 21.165 12.415 21.5 12 21.5ZM19.75 18.25C20.165 18.25 20.5 18.585 20.5 19C20.5 19.415 20.165 19.75 19.75 19.75C19.335 19.75 19 19.415 19 19C19 18.585 19.335 18.25 19.75 18.25ZM20.5 14H3.5V9H20.5V14ZM3.5 7.5V2.5H20.5V7.5H3.5Z" fill="black"/>
</g>
<defs>
<clipPath id="clip0_4711_19216">
<rect width="24" height="24" fill="white"/>
</clipPath>
</defs>
</svg>
