<svg width="24" height="24" viewBox="0 0 24 24" fill="none" xmlns="http://www.w3.org/2000/svg">
<g clip-path="url(#clip0_4711_21479)">
<path d="M8.47 15.78L10.19 17.5H8.75C7.51 17.5 6.5 16.49 6.5 15.25V9.5H9.5V2H2V9.5H5V15.25C5 17.32 6.68 19 8.75 19H10.19L8.47 20.72L9.53 21.78L13.06 18.25L9.53 14.72L8.47 15.78ZM3.5 3.5H8V8H3.5V3.5Z" fill="black"/>
<path d="M19 14.5V8.74997C19 6.67997 17.32 4.99997 15.25 4.99997H13.81L15.53 3.27997L14.47 2.21997L10.94 5.74997L14.47 9.27997L15.53 8.21997L13.81 6.49997H15.25C16.49 6.49997 17.5 7.50997 17.5 8.74997V14.5H14.5V22H22V14.5H19ZM20.5 20.5H16V16H20.5V20.5Z" fill="black"/>
</g>
<defs>
<clipPath id="clip0_4711_21479">
<rect width="24" height="24" fill="white"/>
</clipPath>
</defs>
</svg>
