<svg width="24" height="24" viewBox="0 0 24 24" fill="none" xmlns="http://www.w3.org/2000/svg">
<g clip-path="url(#clip0_2930_8727)">
<path d="M18.435 16.095C14.205 16.095 10.78 12.685 10.78 8.48C10.78 6.805 11.325 5.255 12.25 4C7.945 4.155 4.5 7.68 4.5 11.995C4.5 16.31 8.105 20 12.55 20C15.52 20 18.115 18.405 19.5 16.02C19.15 16.07 18.795 16.095 18.435 16.095ZM12.545 18.5C8.935 18.5 5.995 15.58 5.995 11.995C5.995 9.46 7.435 7.27 9.565 6.195C9.375 6.935 9.275 7.7 9.275 8.48C9.275 12.765 12.26 16.37 16.27 17.335C15.19 18.075 13.895 18.495 12.54 18.495L12.545 18.5Z" fill="black"/>
</g>
<defs>
<clipPath id="clip0_2930_8727">
<rect width="24" height="24" fill="white"/>
</clipPath>
</defs>
</svg>
