<svg width="24" height="24" viewBox="0 0 24 24" fill="none" xmlns="http://www.w3.org/2000/svg">
<g clip-path="url(#clip0_4711_23549)">
<path d="M21.125 2H2.875C2.39 2 2 2.39 2 2.875V15.5C2 16.05 2.45 16.5 3 16.5H5V22L10.5 16.5H21.125C21.61 16.5 22 16.11 22 15.625V2.875C22 2.39 21.61 2 21.125 2ZM20.5 15H9.88L9.44 15.44L6.5 18.38V15H3.5V3.5H20.5V15Z" fill="black"/>
<path d="M17 7H7V8.5H17V7Z" fill="black"/>
<path d="M14.5 10H7V11.5H14.5V10Z" fill="black"/>
</g>
<defs>
<clipPath id="clip0_4711_23549">
<rect width="24" height="24" fill="white"/>
</clipPath>
</defs>
</svg>
