<svg width="24" height="24" viewBox="0 0 24 24" fill="none" xmlns="http://www.w3.org/2000/svg">
<g clip-path="url(#clip0_2459_4813)">
<path d="M18.5 9.5C19.0523 9.5 19.5 9.05228 19.5 8.5C19.5 7.94772 19.0523 7.5 18.5 7.5C17.9477 7.5 17.5 7.94772 17.5 8.5C17.5 9.05228 17.9477 9.5 18.5 9.5Z" fill="black"/>
<path d="M16 9.5C16.5523 9.5 17 9.05228 17 8.5C17 7.94772 16.5523 7.5 16 7.5C15.4477 7.5 15 7.94772 15 8.5C15 9.05228 15.4477 9.5 16 9.5Z" fill="black"/>
<path d="M22 12.5V4.5H2V12.5H11.25V15.89C10.615 16.115 10.115 16.615 9.89 17.25H4V18.75H9.89C10.2 19.62 11.025 20.25 12 20.25C12.975 20.25 13.8 19.62 14.11 18.75H20V17.25H14.11C13.885 16.615 13.385 16.115 12.75 15.89V12.5H22ZM12 18.75C11.585 18.75 11.25 18.415 11.25 18C11.25 17.585 11.585 17.25 12 17.25C12.415 17.25 12.75 17.585 12.75 18C12.75 18.415 12.415 18.75 12 18.75ZM3.5 6H20.5V11H3.5V6Z" fill="black"/>
</g>
<defs>
<clipPath id="clip0_2459_4813">
<rect width="24" height="24" fill="white"/>
</clipPath>
</defs>
</svg>
