<svg width="24" height="24" viewBox="0 0 24 24" fill="none" xmlns="http://www.w3.org/2000/svg">
<g clip-path="url(#clip0_2459_7585)">
<path d="M12 1C5.925 1 1 5.925 1 12C1 18.075 5.925 23 12 23C18.075 23 23 18.075 23 12C23 5.925 18.075 1 12 1ZM12 21.5C6.76 21.5 2.5 17.24 2.5 12C2.5 6.76 6.76 2.5 12 2.5C17.24 2.5 21.5 6.76 21.5 12C21.5 17.24 17.24 21.5 12 21.5Z" fill="black"/>
<path d="M9.25 16.19V7.5C9.25 7.36 9.36 7.25 9.5 7.25H10.5V5.75H9.5C8.535 5.75 7.75 6.535 7.75 7.5V16.19L6.03 14.47L4.97 15.53L8.5 19.06L12.03 15.53L10.97 14.47L9.25 16.19Z" fill="black"/>
<path d="M15.5 4.93994L11.97 8.46994L13.03 9.52994L14.75 7.80994V16.4999C14.75 16.6399 14.64 16.7499 14.5 16.7499H13.5V18.2499H14.5C15.465 18.2499 16.25 17.4649 16.25 16.4999V7.80994L17.97 9.52994L19.03 8.46994L15.5 4.93994Z" fill="black"/>
</g>
<defs>
<clipPath id="clip0_2459_7585">
<rect width="24" height="24" fill="white"/>
</clipPath>
</defs>
</svg>
