<svg width="24" height="24" viewBox="0 0 24 24" fill="none" xmlns="http://www.w3.org/2000/svg">
<g clip-path="url(#clip0_2930_8724)">
<path d="M1 3V21H23V3H1ZM21.5 4.5V15.56L19.215 12.22C19.055 11.99 18.795 11.845 18.51 11.84C18.225 11.82 17.96 11.965 17.79 12.19L15.04 15.85L8.7 7.195C8.535 6.975 8.275 6.84 8 6.835C7.72 6.825 7.46 6.965 7.295 7.185L2.495 13.555V4.5H21.495H21.5ZM2.5 19.5V16.04L7.99 8.755L14.33 17.41C14.495 17.63 14.755 17.765 15.03 17.77C15.305 17.77 15.57 17.64 15.735 17.42L18.47 13.785L21.5 18.215V19.495H2.5V19.5Z" fill="black"/>
<path d="M15 11.25C16.515 11.25 17.75 10.015 17.75 8.5C17.75 6.985 16.515 5.75 15 5.75C13.485 5.75 12.25 6.985 12.25 8.5C12.25 10.015 13.485 11.25 15 11.25ZM15 7.25C15.69 7.25 16.25 7.81 16.25 8.5C16.25 9.19 15.69 9.75 15 9.75C14.31 9.75 13.75 9.19 13.75 8.5C13.75 7.81 14.31 7.25 15 7.25Z" fill="black"/>
</g>
<defs>
<clipPath id="clip0_2930_8724">
<rect width="24" height="24" fill="white"/>
</clipPath>
</defs>
</svg>
