<svg width="24" height="24" viewBox="0 0 24 24" fill="none" xmlns="http://www.w3.org/2000/svg">
<g clip-path="url(#clip0_4711_22920)">
<path d="M12 11.75C14.895 11.75 17.25 9.395 17.25 6.5C17.25 3.605 14.895 1.25 12 1.25C9.105 1.25 6.75 3.605 6.75 6.5C6.75 9.395 9.105 11.75 12 11.75ZM12 2.75C14.07 2.75 15.75 4.43 15.75 6.5C15.75 8.57 14.07 10.25 12 10.25C9.93 10.25 8.25 8.57 8.25 6.5C8.25 4.43 9.93 2.75 12 2.75Z" fill="black"/>
<path d="M20.47 16.7251C15.56 12.7801 8.44 12.7801 3.53 16.7251L3.25 16.9501V22.7501H20.75V16.9501L20.47 16.7251ZM19.25 21.2501H4.75V17.6801C9.005 14.4601 14.995 14.4601 19.25 17.6801V21.2501Z" fill="black"/>
</g>
<defs>
<clipPath id="clip0_4711_22920">
<rect width="24" height="24" fill="white"/>
</clipPath>
</defs>
</svg>
