<svg width="24" height="24" viewBox="0 0 24 24" fill="none" xmlns="http://www.w3.org/2000/svg">
<g clip-path="url(#clip0_4711_23572)">
<path d="M21.125 2H2.875C2.39 2 2 2.39 2 2.875V15.5C2 16.05 2.45 16.5 3 16.5H5V22L10.5 16.5H21.125C21.61 16.5 22 16.11 22 15.625V2.875C22 2.39 21.61 2 21.125 2ZM20.5 15H9.88L9.44 15.44L6.5 18.38V15H3.5V3.5H20.5V15Z" fill="black"/>
<path d="M7.5 10.75C8.32843 10.75 9 10.0784 9 9.25C9 8.42157 8.32843 7.75 7.5 7.75C6.67157 7.75 6 8.42157 6 9.25C6 10.0784 6.67157 10.75 7.5 10.75Z" fill="black"/>
<path d="M12 10.75C12.8284 10.75 13.5 10.0784 13.5 9.25C13.5 8.42157 12.8284 7.75 12 7.75C11.1716 7.75 10.5 8.42157 10.5 9.25C10.5 10.0784 11.1716 10.75 12 10.75Z" fill="black"/>
<path d="M16.5 10.75C17.3284 10.75 18 10.0784 18 9.25C18 8.42157 17.3284 7.75 16.5 7.75C15.6716 7.75 15 8.42157 15 9.25C15 10.0784 15.6716 10.75 16.5 10.75Z" fill="black"/>
</g>
<defs>
<clipPath id="clip0_4711_23572">
<rect width="24" height="24" fill="white"/>
</clipPath>
</defs>
</svg>
