<svg width="24" height="24" viewBox="0 0 24 24" fill="none" xmlns="http://www.w3.org/2000/svg">
<g clip-path="url(#clip0_4711_19143)">
<path d="M20.25 9.25C18.995 9.25 17.935 10.1 17.605 11.25H12.675C12.55 10.63 12.27 10.07 11.88 9.6L13.935 7.035C14.27 7.175 14.63 7.25 15 7.25C15.735 7.25 16.425 6.965 16.945 6.445C18.015 5.375 18.015 3.63 16.945 2.555C16.425 2.035 15.735 1.75 15 1.75C14.265 1.75 13.575 2.035 13.055 2.555C12.095 3.515 12 5.015 12.765 6.09L10.705 8.665C10.19 8.4 9.615 8.25 9 8.25C8.655 8.25 8.32 8.3 8.005 8.39L6.805 5.825C7.385 5.32 7.755 4.58 7.755 3.75C7.755 2.235 6.52 1 5.005 1C3.49 1 2.255 2.235 2.255 3.75C2.255 5.265 3.49 6.5 5.005 6.5C5.155 6.5 5.305 6.485 5.445 6.46L6.67 9.07C5.81 9.76 5.255 10.815 5.255 12C5.255 13.185 5.775 14.17 6.585 14.86L5.335 17.52C5.225 17.505 5.115 17.5 5 17.5C3.485 17.5 2.25 18.735 2.25 20.25C2.25 21.765 3.485 23 5 23C6.515 23 7.75 21.765 7.75 20.25C7.75 19.385 7.345 18.61 6.715 18.105L7.895 15.585C8.245 15.69 8.615 15.75 8.995 15.75C9.665 15.75 10.295 15.57 10.84 15.26L12.86 17.785C11.995 18.865 12.045 20.445 13.05 21.445C13.57 21.965 14.26 22.25 14.995 22.25C15.73 22.25 16.42 21.965 16.94 21.445C18.01 20.375 18.01 18.63 16.94 17.555C16.42 17.035 15.73 16.75 14.995 16.75C14.68 16.75 14.375 16.815 14.085 16.915L11.97 14.27C12.305 13.83 12.55 13.315 12.665 12.75H17.595C17.925 13.9 18.98 14.75 20.24 14.75C21.755 14.75 22.99 13.515 22.99 12C22.99 10.485 21.755 9.25 20.24 9.25H20.25ZM3.75 3.75C3.75 3.06 4.31 2.5 5 2.5C5.69 2.5 6.25 3.06 6.25 3.75C6.25 4.44 5.69 5 5 5C4.31 5 3.75 4.44 3.75 3.75ZM5 21.5C4.31 21.5 3.75 20.94 3.75 20.25C3.75 19.56 4.31 19 5 19C5.69 19 6.25 19.56 6.25 20.25C6.25 20.94 5.69 21.5 5 21.5ZM14.115 3.615C14.35 3.38 14.665 3.25 15 3.25C15.335 3.25 15.645 3.38 15.885 3.615C16.37 4.105 16.37 4.895 15.885 5.385C15.41 5.855 14.59 5.855 14.115 5.385C13.63 4.895 13.63 4.105 14.115 3.615ZM6.75 12C6.75 10.76 7.76 9.75 9 9.75C10.24 9.75 11.25 10.76 11.25 12C11.25 13.24 10.24 14.25 9 14.25C7.76 14.25 6.75 13.24 6.75 12ZM15.885 18.615C16.37 19.105 16.37 19.895 15.885 20.385C15.41 20.855 14.59 20.855 14.115 20.385C13.63 19.895 13.63 19.105 14.115 18.615C14.35 18.38 14.665 18.25 15 18.25C15.335 18.25 15.645 18.38 15.885 18.615ZM20.25 13.25C19.56 13.25 19 12.69 19 12C19 11.31 19.56 10.75 20.25 10.75C20.94 10.75 21.5 11.31 21.5 12C21.5 12.69 20.94 13.25 20.25 13.25Z" fill="black"/>
</g>
<defs>
<clipPath id="clip0_4711_19143">
<rect width="24" height="24" fill="white"/>
</clipPath>
</defs>
</svg>
