<svg width="24" height="24" viewBox="0 0 24 24" fill="none" xmlns="http://www.w3.org/2000/svg">
<g clip-path="url(#clip0_2459_4848)">
<path d="M3.5 20.5V10.38C4.465 7.555 5.995 5.675 7.34 5.675C7.35001 5.675 7.36 5.675 7.37 5.675C8.8 5.705 10.225 7.81 11.28 11.46C12.785 16.655 14.845 17.78 16.355 17.78C16.395 17.78 16.435 17.78 16.475 17.78C18.885 17.685 21.05 14.695 21.99 10.155L20.52 9.85C19.66 14 17.805 16.225 16.415 16.28C15.05 16.33 13.7 14.425 12.725 11.045C11.1 5.425 8.93501 4.21 7.405 4.18C7.385 4.18 7.365 4.18 7.345 4.18C5.95 4.18 4.605 5.145 3.505 6.865V2H2.005V22H22.005V20.5H3.5Z" fill="black"/>
</g>
<defs>
<clipPath id="clip0_2459_4848">
<rect width="24" height="24" fill="white"/>
</clipPath>
</defs>
</svg>
