<svg width="24" height="24" viewBox="0 0 24 24" fill="none" xmlns="http://www.w3.org/2000/svg">
<g clip-path="url(#clip0_4711_22927)">
<path d="M5.325 14.985L4.5 12.5L3.675 14.985H1L3.165 16.515L2.335 19L4.5 17.465L6.665 19L5.835 16.515L8 14.985H5.325Z" fill="black"/>
<path d="M12.825 17.485L12 15L11.175 17.485H8.5L10.665 19.015L9.835 21.5L12 19.965L14.165 21.5L13.335 19.015L15.5 17.485H12.825Z" fill="black"/>
<path d="M23 14.9999H20.325L19.5 12.5149L18.675 14.9999H16L18.165 16.5349L17.335 19.0149L19.5 17.4849L21.665 19.0149L20.835 16.5349L23 14.9999Z" fill="black"/>
<path d="M12 7.25C13.38 7.25 14.5 6.13 14.5 4.75C14.5 3.37 13.38 2.25 12 2.25C10.62 2.25 9.5 3.37 9.5 4.75C9.5 6.13 10.62 7.25 12 7.25ZM12 3.75C12.55 3.75 13 4.2 13 4.75C13 5.3 12.55 5.75 12 5.75C11.45 5.75 11 5.3 11 4.75C11 4.2 11.45 3.75 12 3.75Z" fill="black"/>
<path d="M16.25 9.13512L15.91 8.91512C13.535 7.35512 10.465 7.35512 8.09 8.91512L7.75 9.13512V12.2501H16.25V9.13512ZM14.75 10.7501H9.25V9.96512C10.96 9.01012 13.04 9.01012 14.75 9.96512V10.7501Z" fill="black"/>
</g>
<defs>
<clipPath id="clip0_4711_22927">
<rect width="24" height="24" fill="white"/>
</clipPath>
</defs>
</svg>
