<svg width="24" height="24" viewBox="0 0 24 24" fill="none" xmlns="http://www.w3.org/2000/svg">
<g clip-path="url(#clip0_4711_24207)">
<path d="M21.52 11.9999C21.52 11.8599 21.515 11.7199 21.5 11.5799L23.025 10.6999L20.77 6.80488L19.245 7.68488C19.015 7.52488 18.77 7.38488 18.51 7.26488V5.50488H14.005V7.26488C13.585 7.46488 13.195 7.71488 12.845 8.01488L13.82 9.15488C14.17 8.85488 14.57 8.62988 15.005 8.46988L15.505 8.29488V7.00488H17.01V8.29488L17.51 8.46988C17.95 8.62488 18.35 8.85488 18.695 9.15488L19.1 9.49988L20.22 8.85488L20.97 10.1549L19.85 10.7999L19.945 11.3199C19.99 11.5599 20.01 11.7849 20.01 12.0049C20.01 12.2249 19.99 12.4499 19.945 12.6899L19.85 13.2099L20.97 13.8549L20.22 15.1549L19.1 14.5099L18.695 14.8549C18.345 15.1549 17.945 15.3799 17.51 15.5399L17.01 15.7149V17.0049H15.505L15.49 15.7099L14.99 15.5299C14.39 15.3149 13.9 14.8149 13.645 14.1649L11.75 9.29988C11.405 8.41488 10.78 7.69988 9.98997 7.27988V5.50488H5.48497V7.26488C5.22997 7.38488 4.98497 7.52488 4.74997 7.68488L3.22497 6.80488L0.969971 10.6999L2.49497 11.5799C2.48497 11.7199 2.47497 11.8599 2.47497 11.9999C2.47497 12.1399 2.47997 12.2799 2.49497 12.4199L0.969971 13.2999L3.22497 17.1949L4.74997 16.3149C4.97997 16.4749 5.22497 16.6149 5.48497 16.7349V18.4949H9.98997V16.7349C10.41 16.5349 10.8 16.2849 11.15 15.9849L10.175 14.8449C9.82497 15.1449 9.42497 15.3699 8.98997 15.5299L8.48997 15.7049V16.9949H6.98497V15.7049L6.48497 15.5299C6.04497 15.3749 5.64497 15.1449 5.29997 14.8449L4.89497 14.4999L3.77497 15.1449L3.02497 13.8449L4.14497 13.1999L4.04997 12.6799C4.00497 12.4399 3.98497 12.2149 3.98497 11.9949C3.98497 11.7749 4.00497 11.5499 4.04997 11.3099L4.14497 10.7899L3.02497 10.1449L3.77497 8.84488L4.89497 9.48988L5.29997 9.14488C5.64997 8.84488 6.04997 8.61988 6.48497 8.45988L6.98497 8.28488V6.99488H8.48997V7.75488L8.44997 8.31488L9.00497 8.46488C9.60497 8.67988 10.095 9.17988 10.35 9.82988L12.245 14.6949C12.59 15.5749 13.21 16.2849 14.005 16.7149V18.4949H18.51V16.7349C18.765 16.6149 19.01 16.4749 19.245 16.3149L20.77 17.1949L23.025 13.2999L21.5 12.4199C21.51 12.2799 21.52 12.1399 21.52 11.9999Z" fill="black"/>
<path d="M7.75 9.75C6.51 9.75 5.5 10.76 5.5 12C5.5 13.24 6.51 14.25 7.75 14.25C8.99 14.25 10 13.24 10 12C10 10.76 8.99 9.75 7.75 9.75ZM7.75 12.75C7.335 12.75 7 12.415 7 12C7 11.585 7.335 11.25 7.75 11.25C8.165 11.25 8.5 11.585 8.5 12C8.5 12.415 8.165 12.75 7.75 12.75Z" fill="black"/>
<path d="M16.25 14.25C17.49 14.25 18.5 13.24 18.5 12C18.5 10.76 17.49 9.75 16.25 9.75C15.01 9.75 14 10.76 14 12C14 13.24 15.01 14.25 16.25 14.25ZM16.25 11.25C16.665 11.25 17 11.585 17 12C17 12.415 16.665 12.75 16.25 12.75C15.835 12.75 15.5 12.415 15.5 12C15.5 11.585 15.835 11.25 16.25 11.25Z" fill="black"/>
</g>
<defs>
<clipPath id="clip0_4711_24207">
<rect width="24" height="24" fill="white"/>
</clipPath>
</defs>
</svg>
