<svg width="24" height="24" viewBox="0 0 24 24" fill="none" xmlns="http://www.w3.org/2000/svg">
<g clip-path="url(#clip0_2459_6179)">
<path d="M12 1C5.925 1 1 5.925 1 12C1 18.075 5.925 23 12 23C18.075 23 23 18.075 23 12C23 5.925 18.075 1 12 1ZM12 21.5C6.76 21.5 2.5 17.24 2.5 12C2.5 6.76 6.76 2.5 12 2.5C17.24 2.5 21.5 6.76 21.5 12C21.5 17.24 17.24 21.5 12 21.5Z" fill="black"/>
<path d="M12 3.75C10.76 3.75 9.75 4.76 9.75 6C9.75 7.24 10.76 8.25 12 8.25C13.24 8.25 14.25 7.24 14.25 6C14.25 4.76 13.24 3.75 12 3.75ZM12 6.75C11.585 6.75 11.25 6.415 11.25 6C11.25 5.585 11.585 5.25 12 5.25C12.415 5.25 12.75 5.585 12.75 6C12.75 6.415 12.415 6.75 12 6.75Z" fill="black"/>
<path d="M12 9.75C10.76 9.75 9.75 10.76 9.75 12C9.75 13.24 10.76 14.25 12 14.25C13.24 14.25 14.25 13.24 14.25 12C14.25 10.76 13.24 9.75 12 9.75ZM12 12.75C11.585 12.75 11.25 12.415 11.25 12C11.25 11.585 11.585 11.25 12 11.25C12.415 11.25 12.75 11.585 12.75 12C12.75 12.415 12.415 12.75 12 12.75Z" fill="black"/>
<path d="M12 15.75C10.76 15.75 9.75 16.76 9.75 18C9.75 19.24 10.76 20.25 12 20.25C13.24 20.25 14.25 19.24 14.25 18C14.25 16.76 13.24 15.75 12 15.75ZM12 18.75C11.585 18.75 11.25 18.415 11.25 18C11.25 17.585 11.585 17.25 12 17.25C12.415 17.25 12.75 17.585 12.75 18C12.75 18.415 12.415 18.75 12 18.75Z" fill="black"/>
</g>
<defs>
<clipPath id="clip0_2459_6179">
<rect width="24" height="24" fill="white"/>
</clipPath>
</defs>
</svg>
