<svg width="24" height="24" viewBox="0 0 24 24" fill="none" xmlns="http://www.w3.org/2000/svg">
<g clip-path="url(#clip0_4711_19225)">
<path d="M1 3V21H23V3H1ZM21.5 19.5H2.5V4.5H21.5V19.5Z" fill="black"/>
<path d="M4.75 7C5.16421 7 5.5 6.66421 5.5 6.25C5.5 5.83579 5.16421 5.5 4.75 5.5C4.33579 5.5 4 5.83579 4 6.25C4 6.66421 4.33579 7 4.75 7Z" fill="black"/>
<path d="M7.25 7C7.66421 7 8 6.66421 8 6.25C8 5.83579 7.66421 5.5 7.25 5.5C6.83579 5.5 6.5 5.83579 6.5 6.25C6.5 6.66421 6.83579 7 7.25 7Z" fill="black"/>
<path d="M15.03 16.28L18.06 13.25L15.03 10.22L13.97 11.28L15.94 13.25L13.97 15.22L15.03 16.28Z" fill="black"/>
<path d="M10.0299 15.22L8.05994 13.25L10.0299 11.28L8.96994 10.22L5.93994 13.25L8.96994 16.28L10.0299 15.22Z" fill="black"/>
<path d="M12.2681 8.83077L10.2672 17.3284L11.7273 17.6722L13.7282 9.17457L12.2681 8.83077Z" fill="black"/>
</g>
<defs>
<clipPath id="clip0_4711_19225">
<rect width="24" height="24" fill="white"/>
</clipPath>
</defs>
</svg>
