<svg width="24" height="24" viewBox="0 0 24 24" fill="none" xmlns="http://www.w3.org/2000/svg">
<g clip-path="url(#clip0_4711_23513)">
<path d="M21 11.25H11C9.21 11.25 7.75 9.79 7.75 8C7.75 6.21 9.21 4.75 11 4.75H17V3.25H11C8.38 3.25 6.25 5.38 6.25 8C6.25 9.26 6.745 10.4 7.545 11.25H3V12.75H13C14.79 12.75 16.25 14.21 16.25 16C16.25 17.79 14.79 19.25 13 19.25H7V20.75H13C15.62 20.75 17.75 18.62 17.75 16C17.75 14.74 17.255 13.6 16.455 12.75H21V11.25Z" fill="black"/>
</g>
<defs>
<clipPath id="clip0_4711_23513">
<rect width="24" height="24" fill="white"/>
</clipPath>
</defs>
</svg>
