<svg width="24" height="24" viewBox="0 0 24 24" fill="none" xmlns="http://www.w3.org/2000/svg">
<g clip-path="url(#clip0_4711_24210)">
<path d="M12.0001 8.27499C14.1851 9.05499 15.3301 11.47 14.5501 13.655L15.9651 14.16C16.7451 11.975 16.1051 9.62499 14.5301 8.11499C17.0551 6.90999 16.8251 3.08499 14.1751 2.18999C11.5551 1.20499 8.95508 4.01999 10.1451 6.54999C7.97008 6.725 5.99008 8.13499 5.21008 10.32L6.62508 10.825C7.40508 8.64 9.82008 7.49499 12.0051 8.27499H12.0001ZM11.4551 4.64999C12.2751 2.51999 15.4301 3.64499 14.7151 5.81499C13.8951 7.94499 10.7401 6.81999 11.4551 4.64999Z" fill="black"/>
<path d="M7.66006 17.05C7.20506 14.83 8.81006 12.51 11.0451 12.15L10.7751 10.675C8.59006 11.045 6.75506 12.79 6.25506 14.935C3.97006 13.355 0.750058 15.46 1.30006 18.21C1.78006 21 5.51506 21.795 7.09006 19.52C8.31506 21.335 10.6251 22.335 12.8251 21.91L12.5551 20.435C10.2701 20.85 8.07506 19.335 7.65506 17.05H7.66006ZM4.79506 19.33C2.53506 19.68 1.94006 16.39 4.17506 15.925C6.43006 15.58 7.04006 18.845 4.79506 19.33Z" fill="black"/>
<path d="M21.9801 16.79C21.4201 16.13 20.6501 15.755 19.8451 15.67C20.7851 13.7 20.5501 11.28 19.0501 9.51001L17.9051 10.48C21.3551 14.885 15.2601 20.05 11.4851 15.935L10.3401 16.905C11.7551 18.61 14.1701 19.325 16.2901 18.69C16.1301 20.455 17.7101 22.165 19.5151 22.11C22.2151 22.155 23.7601 18.815 21.9701 16.785L21.9801 16.79ZM20.6401 20.205C19.9401 20.815 18.7901 20.73 18.2001 20.005C17.2301 18.94 18.1001 17.105 19.5151 17.155C21.0901 17.125 21.8651 19.19 20.6351 20.205H20.6401Z" fill="black"/>
</g>
<defs>
<clipPath id="clip0_4711_24210">
<rect width="24" height="24" fill="white"/>
</clipPath>
</defs>
</svg>
