<svg width="24" height="24" viewBox="0 0 24 24" fill="none" xmlns="http://www.w3.org/2000/svg">
<g clip-path="url(#clip0_4711_22958)">
<path d="M20.25 4.99992C17.055 4.99992 12.51 1.44492 12.465 1.40992L12 1.04492L11.535 1.40992C11.49 1.44492 6.945 4.99992 3.75 4.99992H3V12.4049C3 14.4399 3.9 16.3399 5.475 17.6299L12 22.9699L18.525 17.6299C20.1 16.3449 21 14.4399 21 12.4049V4.99992H20.25ZM19.5 12.4049C19.5 13.9849 18.8 15.4649 17.575 16.4699L12 21.0299L6.425 16.4699C5.2 15.4699 4.5 13.9899 4.5 12.4049V6.44992C7.435 6.09492 10.785 3.82492 12 2.93492C13.215 3.82492 16.565 6.09492 19.5 6.44992V12.4049Z" fill="black"/>
<path d="M12 16.25C12.4142 16.25 12.75 15.9142 12.75 15.5C12.75 15.0858 12.4142 14.75 12 14.75C11.5858 14.75 11.25 15.0858 11.25 15.5C11.25 15.9142 11.5858 16.25 12 16.25Z" fill="black"/>
<path d="M9.25 10.4998H10.75C10.75 9.80984 11.31 9.24984 12 9.24984C12.735 9.24984 13.32 9.88484 13.245 10.6298C13.18 11.2798 12.58 11.7498 11.93 11.7498H11.755C11.48 11.7498 11.255 11.9748 11.255 12.2498V13.7498H12.755V13.1448C14.065 12.7748 14.985 11.4498 14.705 9.96984C14.505 8.90484 13.66 8.03484 12.6 7.80984C10.825 7.43484 9.255 8.78484 9.255 10.4948L9.25 10.4998Z" fill="black"/>
</g>
<defs>
<clipPath id="clip0_4711_22958">
<rect width="24" height="24" fill="white"/>
</clipPath>
</defs>
</svg>
