<svg width="24" height="24" viewBox="0 0 24 24" fill="none" xmlns="http://www.w3.org/2000/svg">
<g clip-path="url(#clip0_4711_21770)">
<path d="M12 1C5.925 1 1 5.925 1 12C1 18.075 5.925 23 12 23C18.075 23 23 18.075 23 12C23 5.925 18.075 1 12 1ZM12 21.5C6.76 21.5 2.5 17.24 2.5 12C2.5 6.76 6.76 2.5 12 2.5C17.24 2.5 21.5 6.76 21.5 12C21.5 17.24 17.24 21.5 12 21.5Z" fill="black"/>
<path d="M12.75 6.5H11.25V14.5H12.75V6.5Z" fill="black"/>
<path d="M12 17.5C12.4142 17.5 12.75 17.1642 12.75 16.75C12.75 16.3358 12.4142 16 12 16C11.5858 16 11.25 16.3358 11.25 16.75C11.25 17.1642 11.5858 17.5 12 17.5Z" fill="black"/>
</g>
<defs>
<clipPath id="clip0_4711_21770">
<rect width="24" height="24" fill="white"/>
</clipPath>
</defs>
</svg>
