<svg width="24" height="24" viewBox="0 0 24 24" fill="none" xmlns="http://www.w3.org/2000/svg">
<g clip-path="url(#clip0_4711_24246)">
<path d="M21.71 19.13C21.74 18.165 21.775 16.835 20.62 15.69C19.98 15.055 19.18 14.745 18.41 14.65L16.59 12.645L22.5 6.53L17.47 1.5L11.655 7.115L7.92995 2.93C7.17995 2.09 6.13995 1.59 5.06995 1.555C4.14495 1.52 3.29495 1.85 2.66995 2.465C2.04495 3.08 1.71995 3.93 1.74995 4.85C1.78495 5.915 2.28995 6.95 3.14495 7.695L7.30495 11.325L1.99995 16.45V22.005H7.55495L13.03 16.335L14.515 17.675C14.36 18.72 14.745 19.785 15.63 20.665C16.57 21.595 18.04 22.005 19.455 22.005C20.255 22.005 21.035 21.875 21.695 21.635L22.125 21.465L22.245 20.56L21.885 20.295C21.7 20.16 21.69 19.82 21.71 19.135V19.13ZM20.4 6.55L18.37 8.655L15.355 5.63L17.45 3.605L20.4 6.555V6.55ZM4.12995 6.56C3.58995 6.09 3.26995 5.45 3.24995 4.8C3.23495 4.3 3.40495 3.85 3.72995 3.525C4.05495 3.2 4.51495 3.035 5.02995 3.05C5.68995 3.07 6.34495 3.39 6.81995 3.925L10.585 8.16L8.38995 10.28L4.12995 6.565V6.56ZM6.91995 20.505H3.49495V17.08L14.28 6.665L17.33 9.73L6.91995 20.505ZM15.55 13.725L16.57 14.85L15.165 16.24L14.07 15.255L15.55 13.725ZM16.68 19.595C15.975 18.9 15.79 18.105 16.16 17.36L17.365 16.17C18.035 16.01 18.955 16.15 19.57 16.76C20.265 17.45 20.24 18.245 20.215 19.09C20.2 19.53 20.19 20.005 20.3 20.445C19.02 20.64 17.485 20.395 16.68 19.6V19.595Z" fill="black"/>
</g>
<defs>
<clipPath id="clip0_4711_24246">
<rect width="24" height="24" fill="white"/>
</clipPath>
</defs>
</svg>
