<svg width="24" height="24" viewBox="0 0 24 24" fill="none" xmlns="http://www.w3.org/2000/svg">
<g clip-path="url(#clip0_2459_6177)">
<path d="M17.795 6.97511L21.545 3.01511L20.455 1.98511L16.47 6.19511C15.105 5.48511 13.595 5.00511 12 5.00511C5.925 5.00511 1 12.0051 1 12.0051C1 12.0051 3.08 14.9601 6.205 17.0301L2.455 20.9901L3.545 22.0201L7.53 17.8101C8.895 18.5201 10.405 19.0001 12 19.0001C18.075 19.0001 23 12.0001 23 12.0001C23 12.0001 20.92 9.04511 17.795 6.97511ZM2.905 12.0001C4.36 10.2601 7.97 6.50011 12 6.50011C13.18 6.50011 14.325 6.83011 15.39 7.33011L14.505 8.26511C13.79 7.78511 12.925 7.50011 12 7.50011C9.52 7.50011 7.5 9.52011 7.5 12.0001C7.5 13.0151 7.84 13.9451 8.41 14.7001L7.255 15.9201C5.31 14.6801 3.75 13.0051 2.91 12.0001H2.905ZM15 12.0001C15 13.6551 13.655 15.0001 12 15.0001C11.475 15.0001 10.98 14.8651 10.55 14.6251L14.54 10.4101C14.83 10.8701 15 11.4151 15 12.0001ZM9 12.0001C9 10.3451 10.345 9.00011 12 9.00011C12.525 9.00011 13.02 9.13511 13.45 9.37511L9.46 13.5901C9.17 13.1301 9 12.5851 9 12.0001ZM12 17.5001C10.82 17.5001 9.675 17.1701 8.61 16.6701L9.495 15.7351C10.21 16.2151 11.075 16.5001 12 16.5001C14.48 16.5001 16.5 14.4801 16.5 12.0001C16.5 10.9851 16.16 10.0551 15.59 9.30011L16.745 8.08011C18.69 9.32011 20.25 10.9951 21.09 12.0001C19.635 13.7401 16.025 17.5001 11.995 17.5001H12Z" fill="black"/>
</g>
<defs>
<clipPath id="clip0_2459_6177">
<rect width="24" height="24" fill="white"/>
</clipPath>
</defs>
</svg>
