<svg width="24" height="24" viewBox="0 0 24 24" fill="none" xmlns="http://www.w3.org/2000/svg">
<g clip-path="url(#clip0_2459_6136)">
<path d="M20.78 20.97L18.23 18.415C18.785 17.645 19.115 16.7 19.115 15.675C19.115 13.085 17.02 10.985 14.43 10.985C13.795 10.985 13.185 11.115 12.635 11.345C12.185 10.5 11.35 9.88 10.335 9.685L8.745 9.385V4.76C9.87 4.805 10.865 5.4 11.365 6.345L12.69 5.64C11.93 4.205 10.425 3.305 8.745 3.26V2H7.245V3.25H7.145C4.855 3.25 2.995 5.025 2.995 7.235C2.995 8.735 4.115 10.04 5.655 10.33L7.245 10.63V15.255C6.12 15.21 5.125 14.615 4.625 13.67L3.3 14.375C4.06 15.81 5.565 16.71 7.245 16.755V18.015H8.745V16.765H8.845C9.185 16.765 9.52 16.72 9.845 16.645C10.29 18.77 12.175 20.36 14.425 20.36C15.445 20.36 16.39 20.03 17.16 19.47L19.71 22.025L20.77 20.965L20.78 20.97ZM5.94 8.86C5.105 8.705 4.5 8.02 4.5 7.21C4.5 5.855 5.69 4.755 7.15 4.755H7.25V9.11L5.94 8.865V8.86ZM9.79 15.11C9.49 15.215 9.18 15.27 8.85 15.27H8.75V10.915L10.06 11.16C10.655 11.27 11.13 11.645 11.355 12.145C10.505 12.885 9.93 13.93 9.785 15.105L9.79 15.11ZM11.25 15.68C11.25 13.92 12.68 12.49 14.435 12.49C16.19 12.49 17.62 13.92 17.62 15.68C17.62 17.44 16.19 18.87 14.435 18.87C12.68 18.87 11.25 17.44 11.25 15.68Z" fill="black"/>
</g>
<defs>
<clipPath id="clip0_2459_6136">
<rect width="24" height="24" fill="white"/>
</clipPath>
</defs>
</svg>
