<svg width="24" height="24" viewBox="0 0 24 24" fill="none" xmlns="http://www.w3.org/2000/svg">
<g clip-path="url(#clip0_4711_22926)">
<path d="M12 13.5C13.38 13.5 14.5 12.38 14.5 11C14.5 9.62 13.38 8.5 12 8.5C10.62 8.5 9.5 9.62 9.5 11C9.5 12.38 10.62 13.5 12 13.5ZM12 10C12.55 10 13 10.45 13 11C13 11.55 12.55 12 12 12C11.45 12 11 11.55 11 11C11 10.45 11.45 10 12 10Z" fill="black"/>
<path d="M8.09 15.1651L7.75 15.3851V18.5001H16.25V15.3851L15.91 15.1651C13.535 13.6051 10.465 13.6051 8.09 15.1651ZM14.75 17.0001H9.25V16.2151C10.96 15.2601 13.04 15.2601 14.75 16.2151V17.0001Z" fill="black"/>
<path d="M12 2L1 12H3.5V22H20.5V12H23L12 2ZM19 20.5H5V10.39L12 4.025L19 10.39V20.5Z" fill="black"/>
</g>
<defs>
<clipPath id="clip0_4711_22926">
<rect width="24" height="24" fill="white"/>
</clipPath>
</defs>
</svg>
