<svg width="24" height="24" viewBox="0 0 24 24" fill="none" xmlns="http://www.w3.org/2000/svg">
<g clip-path="url(#clip0_4711_24245)">
<path d="M6.815 6.35989L8.25 7.38489V8.67489L6.25 10.5499V13.4499L8.25 15.3249V16.6149L6.815 17.6399L7.685 18.8599L9.75 17.3849V14.6749L7.75 12.7999V11.1999L9.75 9.32489V6.61489L7.685 5.13989L6.815 6.35989Z" fill="black"/>
<path d="M20.25 6.92999V3.54999L15.685 1.11499L12 3.81999L8.315 1.11499L3.75 3.54999V6.92999L1.25 9.30499V14.7L3.75 17.075V20.455L8.315 22.89L12 20.185L15.685 22.89L20.25 20.455V17.075L22.75 14.7V9.30499L20.25 6.92999ZM8.185 21.115L5.25 19.55V16.53L6.185 15.86L5.315 14.64L4.205 15.435L2.75 14.055V9.94999L4.205 8.56999L5.315 9.36499L6.185 8.14499L5.25 7.47499V4.45499L8.185 2.88999L11.25 5.13499V11.255H10V12.755H11.25V18.875L8.185 21.12V21.115ZM21.25 14.055L19.795 15.435L18.685 14.64L17.815 15.86L18.75 16.53V19.55L15.815 21.115L12.75 18.87V12.75H14V11.25H12.75V5.12999L15.815 2.88499L18.75 4.44999V7.46999L17.815 8.13999L18.685 9.35999L19.795 8.56499L21.25 9.94499V14.05V14.055Z" fill="black"/>
<path d="M15.75 7.38489L17.185 6.35989L16.315 5.13989L14.25 6.61489V9.32489L16.25 11.1999V12.7999L14.25 14.6749V17.3849L16.315 18.8599L17.185 17.6399L15.75 16.6149V15.3249L17.75 13.4499V10.5499L15.75 8.67489V7.38489Z" fill="black"/>
</g>
<defs>
<clipPath id="clip0_4711_24245">
<rect width="24" height="24" fill="white"/>
</clipPath>
</defs>
</svg>
