<svg width="24" height="24" viewBox="0 0 24 24" fill="none" xmlns="http://www.w3.org/2000/svg">
<g clip-path="url(#clip0_2459_6178)">
<path d="M8.25 2C6.735 2 5.5 3.235 5.5 4.75C5.5 6.265 6.735 7.5 8.25 7.5C9.765 7.5 11 6.265 11 4.75C11 3.235 9.765 2 8.25 2ZM8.25 6C7.56 6 7 5.44 7 4.75C7 4.06 7.56 3.5 8.25 3.5C8.94 3.5 9.5 4.06 9.5 4.75C9.5 5.44 8.94 6 8.25 6Z" fill="black"/>
<path d="M15.5 7.5C17.015 7.5 18.25 6.265 18.25 4.75C18.25 3.235 17.015 2 15.5 2C13.985 2 12.75 3.235 12.75 4.75C12.75 6.265 13.985 7.5 15.5 7.5ZM15.5 3.5C16.19 3.5 16.75 4.06 16.75 4.75C16.75 5.44 16.19 6 15.5 6C14.81 6 14.25 5.44 14.25 4.75C14.25 4.06 14.81 3.5 15.5 3.5Z" fill="black"/>
<path d="M8.25 9.25C6.735 9.25 5.5 10.485 5.5 12C5.5 13.515 6.735 14.75 8.25 14.75C9.765 14.75 11 13.515 11 12C11 10.485 9.765 9.25 8.25 9.25ZM8.25 13.25C7.56 13.25 7 12.69 7 12C7 11.31 7.56 10.75 8.25 10.75C8.94 10.75 9.5 11.31 9.5 12C9.5 12.69 8.94 13.25 8.25 13.25Z" fill="black"/>
<path d="M15.5 9.25C13.985 9.25 12.75 10.485 12.75 12C12.75 13.515 13.985 14.75 15.5 14.75C17.015 14.75 18.25 13.515 18.25 12C18.25 10.485 17.015 9.25 15.5 9.25ZM15.5 13.25C14.81 13.25 14.25 12.69 14.25 12C14.25 11.31 14.81 10.75 15.5 10.75C16.19 10.75 16.75 11.31 16.75 12C16.75 12.69 16.19 13.25 15.5 13.25Z" fill="black"/>
<path d="M8.25 16.5C6.735 16.5 5.5 17.735 5.5 19.25C5.5 20.765 6.735 22 8.25 22C9.765 22 11 20.765 11 19.25C11 17.735 9.765 16.5 8.25 16.5ZM8.25 20.5C7.56 20.5 7 19.94 7 19.25C7 18.56 7.56 18 8.25 18C8.94 18 9.5 18.56 9.5 19.25C9.5 19.94 8.94 20.5 8.25 20.5Z" fill="black"/>
<path d="M15.5 16.5C13.985 16.5 12.75 17.735 12.75 19.25C12.75 20.765 13.985 22 15.5 22C17.015 22 18.25 20.765 18.25 19.25C18.25 17.735 17.015 16.5 15.5 16.5ZM15.5 20.5C14.81 20.5 14.25 19.94 14.25 19.25C14.25 18.56 14.81 18 15.5 18C16.19 18 16.75 18.56 16.75 19.25C16.75 19.94 16.19 20.5 15.5 20.5Z" fill="black"/>
</g>
<defs>
<clipPath id="clip0_2459_6178">
<rect width="24" height="24" fill="white"/>
</clipPath>
</defs>
</svg>
