<svg width="24" height="24" viewBox="0 0 24 24" fill="none" xmlns="http://www.w3.org/2000/svg">
<g clip-path="url(#clip0_2930_8797)">
<path d="M23 8.75H20V5.75H1V18.25H20V15.25H23V8.75ZM18.5 16.75H2.5V7.25H18.5V16.75ZM21.5 13.75H20V10.25H21.5V13.75Z" fill="black"/>
<path d="M5 8.75H3.5V15.25H5V8.75Z" fill="black"/>
<path d="M7.5 8.75H6V15.25H7.5V8.75Z" fill="black"/>
<path d="M10 8.75H8.5V15.25H10V8.75Z" fill="black"/>
<path d="M12.5 8.75H11V15.25H12.5V8.75Z" fill="black"/>
<path d="M15 8.75H13.5V15.25H15V8.75Z" fill="black"/>
<path d="M17.5 8.75H16V15.25H17.5V8.75Z" fill="black"/>
</g>
<defs>
<clipPath id="clip0_2930_8797">
<rect width="24" height="24" fill="white"/>
</clipPath>
</defs>
</svg>
