<svg width="24" height="24" viewBox="0 0 24 24" fill="none" xmlns="http://www.w3.org/2000/svg">
<g clip-path="url(#clip0_2459_4831)">
<path d="M4.75 1V23H19.25V1H4.75ZM17.75 21.5H6.25V2.5H17.75V21.5Z" fill="black"/>
<path d="M16.25 4.5H7.75V8.5H16.25V4.5ZM14.75 7H9.25V6H14.75V7Z" fill="black"/>
<path d="M16.25 9.5H7.75V11H16.25V9.5Z" fill="black"/>
<path d="M12 15.25C10.76 15.25 9.75 16.26 9.75 17.5C9.75 18.74 10.76 19.75 12 19.75C13.24 19.75 14.25 18.74 14.25 17.5C14.25 16.26 13.24 15.25 12 15.25ZM12 18.25C11.585 18.25 11.25 17.915 11.25 17.5C11.25 17.085 11.585 16.75 12 16.75C12.415 16.75 12.75 17.085 12.75 17.5C12.75 17.915 12.415 18.25 12 18.25Z" fill="black"/>
</g>
<defs>
<clipPath id="clip0_2459_4831">
<rect width="24" height="24" fill="white"/>
</clipPath>
</defs>
</svg>
