<svg width="24" height="24" viewBox="0 0 24 24" fill="none" xmlns="http://www.w3.org/2000/svg">
<g clip-path="url(#clip0_4711_19886)">
<path d="M4.75 17C3.51 17 2.5 18.01 2.5 19.25C2.5 20.49 3.51 21.5 4.75 21.5C5.99 21.5 7 20.49 7 19.25C7 18.01 5.99 17 4.75 17ZM4.75 20C4.335 20 4 19.665 4 19.25C4 18.835 4.335 18.5 4.75 18.5C5.165 18.5 5.5 18.835 5.5 19.25C5.5 19.665 5.165 20 4.75 20Z" fill="black"/>
<path d="M4.25 9.5H3V11H4.25C9.075 11 13 14.925 13 19.75V21H14.5V19.75C14.5 14.1 9.9 9.5 4.25 9.5Z" fill="black"/>
<path d="M4.25 1.5H3V3H4.25C13.485 3 21 10.515 21 19.75V21H22.5V19.75C22.5 9.685 14.315 1.5 4.25 1.5Z" fill="black"/>
</g>
<defs>
<clipPath id="clip0_4711_19886">
<rect width="24" height="24" fill="white"/>
</clipPath>
</defs>
</svg>
