<svg width="24" height="24" viewBox="0 0 24 24" fill="none" xmlns="http://www.w3.org/2000/svg">
<g clip-path="url(#clip0_4711_22925)">
<path d="M16 11.75C18.345 11.75 20.25 9.845 20.25 7.5C20.25 5.155 18.345 3.25 16 3.25C13.655 3.25 11.75 5.155 11.75 7.5C11.75 9.845 13.655 11.75 16 11.75ZM16 4.75C17.515 4.75 18.75 5.985 18.75 7.5C18.75 9.015 17.515 10.25 16 10.25C14.485 10.25 13.25 9.015 13.25 7.5C13.25 5.985 14.485 4.75 16 4.75Z" fill="black"/>
<path d="M22.47 15.5249C18.72 12.5099 13.28 12.5099 9.53 15.5249L9.25 15.7499V20.2499H22.75V15.7499L22.47 15.5249ZM21.25 18.7499H10.75V16.4749C13.845 14.1849 18.155 14.1849 21.25 16.4749V18.7499Z" fill="black"/>
<path d="M7.46997 7.71997L5.24997 9.93997L3.02997 7.71997L1.96997 8.77997L4.18997 11L1.96997 13.22L3.02997 14.28L5.24997 12.06L7.46997 14.28L8.52997 13.22L6.30997 11L8.52997 8.77997L7.46997 7.71997Z" fill="black"/>
</g>
<defs>
<clipPath id="clip0_4711_22925">
<rect width="24" height="24" fill="white"/>
</clipPath>
</defs>
</svg>
