<svg width="24" height="24" viewBox="0 0 24 24" fill="none" xmlns="http://www.w3.org/2000/svg">
<g clip-path="url(#clip0_4711_22959)">
<path d="M20.25 4.99992C17.055 4.99992 12.51 1.44492 12.465 1.40992L12 1.04492L11.535 1.40992C11.49 1.44492 6.945 4.99992 3.75 4.99992H3V12.4049C3 14.4399 3.9 16.3399 5.475 17.6299L12 22.9699L18.525 17.6299C20.1 16.3449 21 14.4399 21 12.4049V4.99992H20.25ZM19.5 12.4049C19.5 13.9849 18.8 15.4649 17.575 16.4699L12 21.0299L6.425 16.4699C5.2 15.4699 4.5 13.9899 4.5 12.4049V6.44992C7.435 6.09492 10.785 3.82492 12 2.93492C13.215 3.82492 16.565 6.09492 19.5 6.44992V12.4049Z" fill="black"/>
<path d="M11.35 5.87988C11.29 5.88988 11.25 5.94488 11.25 5.99988V10.8749H9.49999C9.45999 10.8749 9.41999 10.8949 9.39499 10.9299C9.36999 10.9649 9.36999 11.0099 9.38499 11.0499L12.51 18.0499C12.53 18.0949 12.575 18.1249 12.625 18.1249C12.635 18.1249 12.64 18.1249 12.65 18.1249C12.71 18.1149 12.75 18.0599 12.75 18.0049V13.1299H14.5C14.54 13.1299 14.58 13.1099 14.605 13.0749C14.63 13.0399 14.63 12.9949 14.615 12.9549L11.49 5.95488C11.465 5.89988 11.41 5.86988 11.35 5.88488V5.87988Z" fill="black"/>
</g>
<defs>
<clipPath id="clip0_4711_22959">
<rect width="24" height="24" fill="white"/>
</clipPath>
</defs>
</svg>
