<svg width="24" height="24" viewBox="0 0 24 24" fill="none" xmlns="http://www.w3.org/2000/svg">
<g clip-path="url(#clip0_4711_24248)">
<path d="M1.25 4V19.5H22.75V4H1.25ZM21.75 11.415H20.655V7.935L19.375 11.415H18.18L16.905 7.945V11.415H14.03L13.615 10.42H11.325L10.915 11.415H9.42L11.585 6.455H13.365L15.56 11.405V6.455H17.685L18.79 9.545L19.91 6.455H21.75V11.415ZM11.325 12.135H15.56V13.28H12.68V14.055H15.49V15.17H12.68V15.94H15.56V17.085L17.905 14.61L15.56 12.1H17.345L18.785 13.715L20.245 12.1H21.75V12.365L19.64 14.595L21.75 16.825V17.09H20.215L18.755 15.485L17.29 17.09H11.325V12.135ZM21.75 15.77L20.625 14.595L21.75 13.44V15.77ZM19.38 5.745L18.79 7.39L18.2 5.745H14.825V7.93L13.85 5.745H11.12L8.285 12.135H10.57V17.8H17.64L18.75 16.585L19.86 17.8H21.75V18.5H2.25V5H21.75V5.745H19.38Z" fill="black"/>
<path d="M11.79 9.30506H13.14L12.47 7.68506L11.79 9.30506Z" fill="black"/>
</g>
<defs>
<clipPath id="clip0_4711_24248">
<rect width="24" height="24" fill="white"/>
</clipPath>
</defs>
</svg>
