<svg width="24" height="24" viewBox="0 0 24 24" fill="none" xmlns="http://www.w3.org/2000/svg">
<g clip-path="url(#clip0_4711_21448)">
<path d="M18.47 16.03L20.44 18H19.02C16.51 18 14.225 16.62 13.05 14.405L11.725 15.105C13.16 17.815 15.955 19.5 19.02 19.5H19.94L18.47 20.97L19.53 22.03L23.06 18.5L19.53 14.97L18.47 16.03Z" fill="black"/>
<path d="M19.02 6.24997H20.19L18.47 7.96997L19.53 9.02997L23.06 5.49997L19.53 1.96997L18.47 3.02997L20.19 4.74997H19.02C15.955 4.74997 13.16 6.43497 11.725 9.14497L8.95 14.4C7.78 16.62 5.49 17.995 2.98 17.995H1V19.495H2.98C6.045 19.495 8.84 17.81 10.275 15.1L13.05 9.84497C14.22 7.62497 16.51 6.24997 19.02 6.24997Z" fill="black"/>
<path d="M8.95 9.845L10.275 9.145C8.84 6.435 6.045 4.75 2.98 4.75H1V6.25H2.98C5.49 6.25 7.775 7.63 8.95 9.845Z" fill="black"/>
</g>
<defs>
<clipPath id="clip0_4711_21448">
<rect width="24" height="24" fill="white"/>
</clipPath>
</defs>
</svg>
