<svg width="24" height="24" viewBox="0 0 24 24" fill="none" xmlns="http://www.w3.org/2000/svg">
<g clip-path="url(#clip0_2459_7584)">
<path d="M7.25 20.19V6C7.25 4.76 8.26 3.75 9.5 3.75H10.5V2.25H9.5C7.43 2.25 5.75 3.93 5.75 6V20.19L3.03 17.47L1.97 18.53L6.5 23.06L11.03 18.53L9.97 17.47L7.25 20.19Z" fill="black"/>
<path d="M22.03 5.46994L17.5 0.939941L12.97 5.46994L14.03 6.52994L16.75 3.80994V17.9999C16.75 19.2399 15.74 20.2499 14.5 20.2499H13.5V21.7499H14.5C16.57 21.7499 18.25 20.0699 18.25 17.9999V3.80994L20.97 6.52994L22.03 5.46994Z" fill="black"/>
</g>
<defs>
<clipPath id="clip0_2459_7584">
<rect width="24" height="24" fill="white"/>
</clipPath>
</defs>
</svg>
