<svg width="24" height="24" viewBox="0 0 24 24" fill="none" xmlns="http://www.w3.org/2000/svg">
<g clip-path="url(#clip0_4711_21494)">
<path d="M8.96997 6.52997L14.44 12L8.96997 17.47L10.03 18.53L16.56 12L10.03 5.46997L8.96997 6.52997Z" fill="black"/>
<path d="M12 1C5.925 1 1 5.925 1 12C1 18.075 5.925 23 12 23C18.075 23 23 18.075 23 12C23 5.925 18.075 1 12 1ZM12 21.5C6.76 21.5 2.5 17.24 2.5 12C2.5 6.76 6.76 2.5 12 2.5C17.24 2.5 21.5 6.76 21.5 12C21.5 17.24 17.24 21.5 12 21.5Z" fill="black"/>
</g>
<defs>
<clipPath id="clip0_4711_21494">
<rect width="24" height="24" fill="white"/>
</clipPath>
</defs>
</svg>
