<svg width="24" height="24" viewBox="0 0 24 24" fill="none" xmlns="http://www.w3.org/2000/svg">
<g clip-path="url(#clip0_4711_22547)">
<path d="M21.655 5.25H20V2.75C20 1.785 19.215 1 18.25 1H3.75C2.785 1 2 1.785 2 2.75V21.25C2 22.215 2.785 23 3.75 23H18.25C19.215 23 20 22.215 20 21.25V15.355H21.655C22.345 15.355 22.905 14.795 22.905 14.105V6.5C22.905 5.81 22.345 5.25 21.655 5.25ZM21.405 7.78H10.25V6.75H21.405V7.78ZM18.5 21.25C18.5 21.39 18.39 21.5 18.25 21.5H3.75C3.61 21.5 3.5 21.39 3.5 21.25V2.75C3.5 2.61 3.61 2.5 3.75 2.5H18.25C18.39 2.5 18.5 2.61 18.5 2.75V5.25H10C9.31 5.25 8.75 5.81 8.75 6.5V14.105C8.75 14.795 9.31 15.355 10 15.355H18.5V21.25ZM10.25 13.855V9.28H21.405V13.855H10.25Z" fill="black"/>
<path d="M12.79 11.325H11.78C11.365 11.325 11.03 11.66 11.03 12.075C11.03 12.49 11.365 12.825 11.78 12.825H12.79C13.205 12.825 13.54 12.49 13.54 12.075C13.54 11.66 13.205 11.325 12.79 11.325Z" fill="black"/>
<path d="M9.5 20C9.5 20.415 9.835 20.75 10.25 20.75H11.75C12.165 20.75 12.5 20.415 12.5 20C12.5 19.585 12.165 19.25 11.75 19.25H10.25C9.835 19.25 9.5 19.585 9.5 20Z" fill="black"/>
</g>
<defs>
<clipPath id="clip0_4711_22547">
<rect width="24" height="24" fill="white"/>
</clipPath>
</defs>
</svg>
