<svg width="24" height="24" viewBox="0 0 24 24" fill="none" xmlns="http://www.w3.org/2000/svg">
<g clip-path="url(#clip0_2459_4872)">
<path d="M3.5 20.5V2H2V22H22V20.5H3.5Z" fill="black"/>
<path d="M7.25 19C8.49 19 9.5 17.99 9.5 16.75C9.5 15.51 8.49 14.5 7.25 14.5C6.01 14.5 5 15.51 5 16.75C5 17.99 6.01 19 7.25 19ZM7.25 16C7.665 16 8 16.335 8 16.75C8 17.165 7.665 17.5 7.25 17.5C6.835 17.5 6.5 17.165 6.5 16.75C6.5 16.335 6.835 16 7.25 16Z" fill="black"/>
<path d="M17.25 12.5C18.49 12.5 19.5 11.49 19.5 10.25C19.5 9.01 18.49 8 17.25 8C16.01 8 15 9.01 15 10.25C15 11.49 16.01 12.5 17.25 12.5ZM17.25 9.5C17.665 9.5 18 9.835 18 10.25C18 10.665 17.665 11 17.25 11C16.835 11 16.5 10.665 16.5 10.25C16.5 9.835 16.835 9.5 17.25 9.5Z" fill="black"/>
<path d="M19.25 7C20.49 7 21.5 5.99 21.5 4.75C21.5 3.51 20.49 2.5 19.25 2.5C18.01 2.5 17 3.51 17 4.75C17 5.99 18.01 7 19.25 7ZM19.25 4C19.665 4 20 4.335 20 4.75C20 5.165 19.665 5.5 19.25 5.5C18.835 5.5 18.5 5.165 18.5 4.75C18.5 4.335 18.835 4 19.25 4Z" fill="black"/>
<path d="M10.75 13.5C12.54 13.5 14 12.04 14 10.25C14 8.46 12.54 7 10.75 7C8.96 7 7.5 8.46 7.5 10.25C7.5 12.04 8.96 13.5 10.75 13.5ZM10.75 8.5C11.715 8.5 12.5 9.285 12.5 10.25C12.5 11.215 11.715 12 10.75 12C9.785 12 9 11.215 9 10.25C9 9.285 9.785 8.5 10.75 8.5Z" fill="black"/>
</g>
<defs>
<clipPath id="clip0_2459_4872">
<rect width="24" height="24" fill="white"/>
</clipPath>
</defs>
</svg>
