<svg width="24" height="24" viewBox="0 0 24 24" fill="none" xmlns="http://www.w3.org/2000/svg">
<g clip-path="url(#clip0_2459_4817)">
<path d="M19.625 8.1501L18.88 6.8501L13.69 9.8301C13.225 9.4651 12.64 9.2501 12.005 9.2501C11.37 9.2501 10.785 9.4701 10.32 9.8301L5.13001 6.8501L4.38501 8.1501L9.43001 11.0501C9.32001 11.3451 9.25501 11.6651 9.25501 12.0001C9.25501 13.2551 10.105 14.3151 11.255 14.6451V20.0001H12.755V14.6451C13.905 14.3151 14.755 13.2601 14.755 12.0001C14.755 11.6651 14.69 11.3451 14.58 11.0501L19.625 8.1501ZM12 13.2501C11.31 13.2501 10.75 12.6901 10.75 12.0001C10.75 11.3101 11.31 10.7501 12 10.7501C12.69 10.7501 13.25 11.3101 13.25 12.0001C13.25 12.6901 12.69 13.2501 12 13.2501Z" fill="black"/>
</g>
<defs>
<clipPath id="clip0_2459_4817">
<rect width="24" height="24" fill="white"/>
</clipPath>
</defs>
</svg>
