<svg width="24" height="24" viewBox="0 0 24 24" fill="none" xmlns="http://www.w3.org/2000/svg">
<g clip-path="url(#clip0_4711_19184)">
<path d="M23 8.5H21.36C19.945 4.7 16.29 2 12 2C7.71 2 4.055 4.7 2.64 8.5H1V15.5H2.64C4.055 19.3 7.71 22 12 22C16.29 22 19.945 19.3 21.36 15.5H23V8.5ZM21.5 14H2.5V10H21.5V14ZM19.73 8.5H17.105C16.76 6.81 16.18 5.34 15.425 4.23C17.33 5.075 18.865 6.605 19.725 8.5H19.73ZM14.54 5.645C14.98 6.46 15.325 7.435 15.57 8.5H12.75V3.69C13.38 3.995 14.005 4.67 14.54 5.645ZM11.25 3.69V8.5H8.425C8.99 6.035 10.105 4.255 11.25 3.69ZM8.57 4.23C7.82 5.34 7.235 6.81 6.89 8.5H4.265C5.125 6.605 6.66 5.075 8.565 4.23H8.57ZM4.27 15.5H6.895C7.24 17.19 7.82 18.66 8.575 19.77C6.67 18.925 5.135 17.395 4.275 15.5H4.27ZM9.46 18.355C9.02 17.54 8.675 16.565 8.43 15.5H11.25V20.31C10.62 20.005 9.995 19.33 9.46 18.355ZM12.75 20.31V15.5H15.575C15.01 17.965 13.895 19.745 12.75 20.31ZM15.43 19.77C16.18 18.66 16.765 17.19 17.11 15.5H19.735C18.875 17.395 17.34 18.925 15.435 19.77H15.43Z" fill="black"/>
</g>
<defs>
<clipPath id="clip0_4711_19184">
<rect width="24" height="24" fill="white"/>
</clipPath>
</defs>
</svg>
