<svg width="24" height="24" viewBox="0 0 24 24" fill="none" xmlns="http://www.w3.org/2000/svg">
<g clip-path="url(#clip0_2459_4841)">
<path d="M20.5 11.3801V11.3501C20.5 9.35011 18.925 7.72011 16.955 7.61011L21.545 2.76511L20.455 1.73511L16.21 6.21511C15.14 4.27511 13.085 3.00011 10.75 3.00011C7.305 3.00011 4.5 5.80511 4.5 9.25011V9.30011C2.44 10.0301 1 12.0201 1 14.2501C1 16.4801 2.265 18.1951 4.075 19.0251L2.455 20.7351L3.545 21.7651L5.715 19.4701C5.89 19.4901 6.07 19.4951 6.25 19.4951H18.75C21.095 19.4951 23 17.5901 23 15.2451C23 13.5651 22 12.0551 20.5 11.3751V11.3801ZM2.5 14.2501C2.5 12.5001 3.74 10.9601 5.445 10.5901L6.105 10.4451L6.03 9.77511C6.01 9.60011 6 9.43011 6 9.25011C6 6.63011 8.13 4.50011 10.75 4.50011C12.69 4.50011 14.375 5.66011 15.105 7.38011L5.19 17.8451C3.635 17.3851 2.5 15.9501 2.5 14.2501ZM18.75 18.0001H7.11L15.54 9.10011H16.745C17.985 9.10011 18.995 10.1101 18.995 11.3501C18.995 11.4751 18.98 11.6051 18.955 11.7501L18.835 12.4201L19.49 12.6051C20.67 12.9351 21.495 14.0251 21.495 15.2501C21.495 16.7651 20.26 18.0001 18.745 18.0001H18.75Z" fill="black"/>
</g>
<defs>
<clipPath id="clip0_2459_4841">
<rect width="24" height="24" fill="white"/>
</clipPath>
</defs>
</svg>
