<svg width="24" height="24" viewBox="0 0 24 24" fill="none" xmlns="http://www.w3.org/2000/svg">
<g clip-path="url(#clip0_4711_19223)">
<path d="M2 9H11V2H2V9ZM3.5 3.5H9.5V7.5H3.5V3.5Z" fill="black"/>
<path d="M13 2V13H22V2H13ZM20.5 11.5H14.5V3.5H20.5V11.5Z" fill="black"/>
<path d="M2 22H11V11H2V22ZM3.5 12.5H9.5V20.5H3.5V12.5Z" fill="black"/>
<path d="M20.22 14.47L17.5 17.19L14.78 14.47L13.72 15.53L16.44 18.25L13.72 20.97L14.78 22.03L17.5 19.31L20.22 22.03L21.28 20.97L18.56 18.25L21.28 15.53L20.22 14.47Z" fill="black"/>
</g>
<defs>
<clipPath id="clip0_4711_19223">
<rect width="24" height="24" fill="white"/>
</clipPath>
</defs>
</svg>
