<svg width="24" height="24" viewBox="0 0 24 24" fill="none" xmlns="http://www.w3.org/2000/svg">
<g clip-path="url(#clip0_4711_24209)">
<path d="M1 5.5V18.5H23V5.5H1ZM21.5 8.75C20.71 8.42 20.08 7.79 19.75 7H21.5V8.75ZM18.17 17H5.83C5.39 15.385 4.115 14.115 2.5 13.67V10.325C4.115 9.885 5.385 8.61 5.83 6.995H18.175C18.615 8.61 19.89 9.88 21.505 10.325V13.67C19.89 14.11 18.62 15.385 18.175 17H18.17ZM4.25 7C3.92 7.79 3.29 8.42 2.5 8.75V7H4.25ZM2.5 15.25C3.29 15.58 3.92 16.21 4.25 17H2.5V15.25ZM19.75 17C20.08 16.21 20.71 15.58 21.5 15.25V17H19.75Z" fill="black"/>
<path d="M12 8.25C9.93 8.25 8.25 9.93 8.25 12C8.25 14.07 9.93 15.75 12 15.75C14.07 15.75 15.75 14.07 15.75 12C15.75 9.93 14.07 8.25 12 8.25ZM12 14.25C10.76 14.25 9.75 13.24 9.75 12C9.75 10.76 10.76 9.75 12 9.75C13.24 9.75 14.25 10.76 14.25 12C14.25 13.24 13.24 14.25 12 14.25Z" fill="black"/>
</g>
<defs>
<clipPath id="clip0_4711_24209">
<rect width="24" height="24" fill="white"/>
</clipPath>
</defs>
</svg>
