<svg width="24" height="24" viewBox="0 0 24 24" fill="none" xmlns="http://www.w3.org/2000/svg">
<g clip-path="url(#clip0_4711_24218)">
<path d="M20.31 1.75H8.25V4.645L2.75 6V7.715C2.75 8.425 3.065 9.08 3.62 9.515C4.02 9.83 4.505 9.995 4.995 9.995C5.17 9.995 5.345 9.975 5.515 9.935L19.515 6.57C20.535 6.325 21.245 5.41 21.245 4.35V1.75H20.305H20.31ZM9.75 3.25H13.91L9.75 4.275V3.25ZM19.75 4.35C19.75 4.715 19.51 5.03 19.17 5.11L5.17 8.475C4.87 8.545 4.655 8.42 4.55 8.335C4.36 8.185 4.25 7.96 4.25 7.71V7.17L19.75 3.335V4.35Z" fill="black"/>
<path d="M2.75 12.125V13.84C2.75 14.55 3.065 15.205 3.62 15.64C4.02 15.955 4.505 16.12 4.995 16.12C5.17 16.12 5.345 16.1 5.515 16.06L19.515 12.695C20.535 12.45 21.245 11.535 21.245 10.475V7.875H19.995L2.75 12.125ZM19.75 10.475C19.75 10.84 19.51 11.155 19.17 11.235L5.17 14.6C4.87 14.67 4.655 14.545 4.55 14.46C4.36 14.31 4.25 14.085 4.25 13.835V13.295L19.75 9.46V10.475Z" fill="black"/>
<path d="M2.75 18.25V19.965C2.75 20.675 3.065 21.33 3.62 21.765C4.02 22.08 4.5 22.245 4.995 22.245H17.055V19.41L19.515 18.82C20.535 18.575 21.245 17.665 21.245 16.6V14H19.995L2.75 18.25ZM15.56 20.75H11.505L15.56 19.775V20.75ZM19.75 16.605C19.75 16.97 19.51 17.285 19.17 17.365L5.17 20.73C4.875 20.8 4.655 20.675 4.55 20.59C4.36 20.44 4.25 20.215 4.25 19.965V19.425L19.75 15.59V16.605Z" fill="black"/>
</g>
<defs>
<clipPath id="clip0_4711_24218">
<rect width="24" height="24" fill="white"/>
</clipPath>
</defs>
</svg>
