<svg width="24" height="24" viewBox="0 0 24 24" fill="none" xmlns="http://www.w3.org/2000/svg">
<g clip-path="url(#clip0_4711_24205)">
<path d="M15.25 10.25V9.875C15.25 8.565 14.185 7.5 12.875 7.5H12.75V6H11.25V7.5H11.125C9.815 7.5 8.75 8.565 8.75 9.875V10.04C8.75 11.095 9.43 12.01 10.445 12.315L13.13 13.12C13.505 13.23 13.755 13.57 13.755 13.96V14.125C13.755 14.605 13.36 15 12.88 15H11.13C10.65 15 10.255 14.605 10.255 14.125V14H8.755V14.125C8.755 15.435 9.82 16.5 11.13 16.5H11.255V18H12.755V16.5H12.88C14.19 16.5 15.255 15.435 15.255 14.125V13.96C15.255 12.905 14.575 11.99 13.56 11.685L10.875 10.88C10.5 10.77 10.25 10.43 10.25 10.04V9.875C10.25 9.395 10.645 9 11.125 9H12.875C13.355 9 13.75 9.395 13.75 9.875V10.25H15.25Z" fill="black"/>
<path d="M21 12C21 16.96 16.965 21 12 21C9.32 21 6.785 19.795 5.08 17.75H8V16.25H2.75V21.5H4.25V19.08C6.225 21.24 9.035 22.5 12 22.5C17.79 22.5 22.5 17.79 22.5 12H21Z" fill="black"/>
<path d="M12 3C15.135 3 18.005 4.615 19.645 7.25H17V8.75H22.25V3.5H20.75V6.205C18.815 3.28 15.555 1.5 12 1.5C6.21 1.5 1.5 6.21 1.5 12H3C3 7.04 7.035 3 12 3Z" fill="black"/>
</g>
<defs>
<clipPath id="clip0_4711_24205">
<rect width="24" height="24" fill="white"/>
</clipPath>
</defs>
</svg>
