<svg width="24" height="24" viewBox="0 0 24 24" fill="none" xmlns="http://www.w3.org/2000/svg">
<g clip-path="url(#clip0_2459_7643)">
<path d="M12 1C5.925 1 1 5.925 1 12C1 18.075 5.925 23 12 23C18.075 23 23 18.075 23 12C23 5.925 18.075 1 12 1ZM12 21.5C6.76 21.5 2.5 17.24 2.5 12C2.5 6.76 6.76 2.5 12 2.5C17.24 2.5 21.5 6.76 21.5 12C21.5 17.24 17.24 21.5 12 21.5Z" fill="black"/>
<path d="M15.53 11.97L14.47 13.03L16.19 14.75H7.5C7.36 14.75 7.25 14.64 7.25 14.5V13.5H5.75V14.5C5.75 15.465 6.535 16.25 7.5 16.25H16.19L14.47 17.97L15.53 19.03L19.06 15.5L15.53 11.97Z" fill="black"/>
<path d="M9.53 10.97L7.81 9.24997H16.5C16.64 9.24997 16.75 9.35997 16.75 9.49997V10.5H18.25V9.49997C18.25 8.53497 17.465 7.74997 16.5 7.74997H7.81L9.53 6.02997L8.47 4.96997L4.94 8.49997L8.47 12.03L9.53 10.97Z" fill="black"/>
</g>
<defs>
<clipPath id="clip0_2459_7643">
<rect width="24" height="24" fill="white"/>
</clipPath>
</defs>
</svg>
