<svg width="24" height="24" viewBox="0 0 24 24" fill="none" xmlns="http://www.w3.org/2000/svg">
<g clip-path="url(#clip0_4711_22945)">
<path d="M20.25 4.99992C17.055 4.99992 12.51 1.44492 12.465 1.40992L12 1.04492L11.535 1.40992C11.49 1.44492 6.945 4.99992 3.75 4.99992H3V12.4049C3 14.4399 3.9 16.3399 5.475 17.6299L12 22.9699L18.525 17.6299C20.1 16.3449 21 14.4399 21 12.4049V4.99992H20.25ZM19.5 10.7499H12.75V3.46492C14.29 4.50992 17.04 6.15492 19.5 6.44992V10.7449V10.7499ZM11.25 3.46492V10.7499H4.5V6.45492C6.96 6.15492 9.71 4.51492 11.25 3.46992V3.46492ZM4.5 12.4049V12.2499H11.25V20.4149L6.425 16.4699C5.2 15.4699 4.5 13.9899 4.5 12.4049ZM17.575 16.4699L12.75 20.4149V12.2499H19.5V12.4049C19.5 13.9849 18.8 15.4649 17.575 16.4699Z" fill="black"/>
</g>
<defs>
<clipPath id="clip0_4711_22945">
<rect width="24" height="24" fill="white"/>
</clipPath>
</defs>
</svg>
