<svg width="24" height="24" viewBox="0 0 24 24" fill="none" xmlns="http://www.w3.org/2000/svg">
<g clip-path="url(#clip0_2459_6219)">
<path d="M16.5 7V17C16.5 19.525 14.525 21.5 12 21.5C9.475 21.5 7.5 19.525 7.5 17V5.25C7.5 3.71 8.71 2.5 10.25 2.5C11.79 2.5 13 3.71 13 5.25V17C13 17.545 12.57 17.955 12 17.955C11.43 17.955 11 17.545 11 17V7H9.5V17C9.5 18.38 10.6 19.455 12 19.455C13.4 19.455 14.5 18.375 14.5 17V5.25C14.5 2.905 12.595 1 10.25 1C7.905 1 6 2.905 6 5.25V17C6 20.31 8.69 23 12 23C15.31 23 18 20.31 18 17V7H16.5Z" fill="black"/>
</g>
<defs>
<clipPath id="clip0_2459_6219">
<rect width="24" height="24" fill="white"/>
</clipPath>
</defs>
</svg>
