<svg width="24" height="24" viewBox="0 0 24 24" fill="none" xmlns="http://www.w3.org/2000/svg">
<g clip-path="url(#clip0_4711_24224)">
<path d="M7.35 13.2651C7.665 13.2651 8.05 13.0951 8.27 12.8551C8.255 12.9051 8.235 13.0151 8.235 13.0701C8.235 13.1501 8.27 13.2051 8.345 13.2051H8.945C9.04 13.2051 9.12 13.1051 9.135 13.0101L9.49 10.7851C9.5 10.7201 9.45 10.6501 9.38 10.6501H8.72C8.585 10.6501 8.58 10.8401 8.575 10.9351C8.37 10.6401 8.08 10.5901 7.75 10.5901C6.9 10.5901 6.25 11.3301 6.25 12.1501C6.25 12.8251 6.675 13.2651 7.35 13.2651ZM7.905 11.2901C8.225 11.2901 8.47 11.4851 8.47 11.8251C8.47 12.2501 8.13 12.5701 7.705 12.5701C7.385 12.5701 7.15 12.3901 7.15 12.0501C7.15 11.6301 7.48 11.2901 7.905 11.2901Z" fill="black"/>
<path d="M9.84995 14.015C9.84995 14.08 9.90495 14.125 9.95995 14.125H10.63C10.69 14.125 10.75 14.09 10.785 14.035L12.995 10.835C12.995 10.835 13.015 10.8 13.015 10.775C13.015 10.715 12.96 10.655 12.905 10.655H12.235C12.175 10.655 12.115 10.69 12.08 10.74L11.16 12.09L10.78 10.79C10.75 10.715 10.675 10.655 10.585 10.655H9.93995C9.87995 10.655 9.82495 10.715 9.82495 10.775C9.82495 10.815 10.505 12.74 10.56 12.925C10.47 13.055 9.84995 13.91 9.84995 14.015Z" fill="black"/>
<path d="M3.21994 13.21H3.87995C3.97495 13.21 4.05994 13.11 4.07494 13.015L4.22994 12.095C4.26494 11.845 4.68994 11.93 4.85494 11.93C5.84494 11.93 6.45494 11.34 6.45494 10.345C6.45494 9.62 5.88995 9.375 5.24994 9.375H3.85994C3.77494 9.375 3.68994 9.445 3.67994 9.54L3.10994 13.07C3.09994 13.14 3.15494 13.21 3.21994 13.21ZM4.51994 10.24C4.52994 10.185 4.57995 10.15 4.62995 10.15H4.79495C5.18994 10.15 5.48495 10.2 5.40495 10.665C5.33495 11.105 5.03995 11.155 4.65495 11.155L4.36994 11.165L4.51994 10.24Z" fill="black"/>
<path d="M17.21 13.2651C17.53 13.2651 17.92 13.0951 18.13 12.8551C18.12 12.9051 18.095 13.0151 18.095 13.0701C18.095 13.1501 18.13 13.2051 18.205 13.2051H18.805C18.9 13.2051 18.98 13.1051 18.995 13.0101L19.35 10.7851C19.36 10.7201 19.31 10.6501 19.24 10.6501H18.58C18.45 10.6501 18.44 10.8401 18.43 10.9351C18.24 10.6401 17.945 10.5901 17.61 10.5901C16.755 10.5901 16.11 11.3301 16.11 12.1501C16.11 12.8251 16.53 13.2651 17.21 13.2651ZM17.765 11.2901C18.085 11.2901 18.33 11.4851 18.325 11.8251C18.325 12.2501 17.99 12.5701 17.575 12.5701C17.255 12.5701 17.01 12.3851 17.01 12.0501C17.01 11.6251 17.34 11.2901 17.765 11.2901Z" fill="black"/>
<path d="M19.575 13.205H20.145C20.235 13.205 20.32 13.105 20.325 13.01L20.8899 9.51V9.5C20.8899 9.43 20.835 9.375 20.78 9.375H20.135C20.085 9.375 20.03 9.42 20.025 9.47L19.4599 13.07L19.45 13.085C19.45 13.15 19.505 13.205 19.575 13.205Z" fill="black"/>
<path d="M13.0899 13.205H13.7999C13.8699 13.205 13.9249 13.155 13.9399 13.095L14.0949 12.095C14.1299 11.845 14.5549 11.93 14.7199 11.93C15.7099 11.93 16.3149 11.34 16.3149 10.345C16.3149 9.62 15.7549 9.375 15.1099 9.375H13.7349C13.6399 9.375 13.5499 9.445 13.5399 9.54L12.9799 13.07C12.9699 13.135 13.0249 13.205 13.0899 13.205ZM14.3899 10.24C14.3949 10.185 14.4399 10.15 14.4999 10.15H14.6549C14.9499 10.15 15.2799 10.165 15.2849 10.53C15.2849 11.05 14.9699 11.155 14.5199 11.155L14.2449 11.165L14.3899 10.24Z" fill="black"/>
<path d="M1.25 4V19.5H22.75V4H1.25ZM21.75 18.5H2.25V5H21.75V18.5Z" fill="black"/>
</g>
<defs>
<clipPath id="clip0_4711_24224">
<rect width="24" height="24" fill="white"/>
</clipPath>
</defs>
</svg>
