<svg width="24" height="24" viewBox="0 0 24 24" fill="none" xmlns="http://www.w3.org/2000/svg">
<g clip-path="url(#clip0_4711_19938)">
<path d="M22.03 19.97L19.48 17.42C20.035 16.65 20.365 15.705 20.365 14.685C20.365 12.1 18.27 10 15.68 10C13.09 10 10.995 12.095 10.995 14.685C10.995 17.275 13.09 19.37 15.68 19.37C16.7 19.37 17.645 19.04 18.415 18.485L20.965 21.035L22.025 19.975L22.03 19.97ZM12.5 14.685C12.5 12.93 13.93 11.5 15.685 11.5C17.44 11.5 18.87 12.93 18.87 14.685C18.87 16.44 17.44 17.87 15.685 17.87C13.93 17.87 12.5 16.44 12.5 14.685Z" fill="black"/>
<path d="M2.75 5.5H18.25V9H19.75V4H13.75V2.75C13.75 1.785 12.965 1 12 1H9C8.035 1 7.25 1.785 7.25 2.75V4H1.25V17H9.25V15.5H2.75V5.5ZM8.75 2.75C8.75 2.61 8.86 2.5 9 2.5H12C12.14 2.5 12.25 2.61 12.25 2.75V4H8.75V2.75Z" fill="black"/>
</g>
<defs>
<clipPath id="clip0_4711_19938">
<rect width="24" height="24" fill="white"/>
</clipPath>
</defs>
</svg>
