<svg width="24" height="24" viewBox="0 0 24 24" fill="none" xmlns="http://www.w3.org/2000/svg">
<g clip-path="url(#clip0_2459_7599)">
<path d="M20.25 2V5.115C20.045 4.87 19.83 4.63 19.6 4.4C17.57 2.37 14.87 1.25 12 1.25C9.13 1.25 6.43 2.37 4.4 4.4C2.37 6.43 1.25 9.13 1.25 12C1.25 12.415 1.585 12.75 2 12.75C2.415 12.75 2.75 12.415 2.75 12C2.75 9.53 3.71 7.205 5.46 5.46C9.065 1.855 14.935 1.855 18.54 5.46C18.79 5.71 19.02 5.975 19.24 6.25H16V7.75H21.75V2H20.25Z" fill="black"/>
<path d="M18.54 18.5401C18.245 18.8351 18.245 19.3101 18.54 19.6001C18.835 19.8951 19.31 19.8951 19.6 19.6001C19.895 19.3051 19.895 18.8301 19.6 18.5401C19.305 18.2451 18.83 18.2451 18.54 18.5401Z" fill="black"/>
<path d="M15.54 20.5449C15.155 20.7049 14.975 21.1399 15.135 21.5249C15.295 21.9099 15.73 22.0899 16.115 21.9299C16.5 21.7699 16.68 21.3349 16.52 20.9499C16.36 20.5649 15.925 20.3849 15.54 20.5449Z" fill="black"/>
<path d="M12 22.75C12.4142 22.75 12.75 22.4142 12.75 22C12.75 21.5858 12.4142 21.25 12 21.25C11.5858 21.25 11.25 21.5858 11.25 22C11.25 22.4142 11.5858 22.75 12 22.75Z" fill="black"/>
<path d="M8.45998 20.545C8.07498 20.385 7.63998 20.57 7.47998 20.95C7.31998 21.335 7.50498 21.77 7.88498 21.93C8.26498 22.09 8.70498 21.905 8.86498 21.525C9.02498 21.14 8.83998 20.705 8.45998 20.545Z" fill="black"/>
<path d="M4.40002 18.5401C4.10502 18.8351 4.10502 19.3101 4.40002 19.6001C4.69502 19.8951 5.17002 19.8951 5.46002 19.6001C5.75502 19.3051 5.75502 18.8301 5.46002 18.5401C5.16502 18.2451 4.69002 18.2451 4.40002 18.5401Z" fill="black"/>
<path d="M2.47496 15.135C2.08996 15.295 1.90996 15.73 2.06996 16.115C2.22996 16.5 2.66496 16.68 3.04996 16.52C3.43496 16.36 3.61496 15.925 3.45496 15.54C3.29496 15.155 2.85996 14.975 2.47496 15.135Z" fill="black"/>
</g>
<defs>
<clipPath id="clip0_2459_7599">
<rect width="24" height="24" fill="white"/>
</clipPath>
</defs>
</svg>
