<svg width="24" height="24" viewBox="0 0 24 24" fill="none" xmlns="http://www.w3.org/2000/svg">
<g clip-path="url(#clip0_2459_4822)">
<path d="M13 17.75H15.19L13.19 19.75H2V21.25H13.81L16.25 18.81V21H17.75V16.25H13V17.75Z" fill="black"/>
<path d="M10.97 14.22L12.03 15.28L15.31 12L12.03 8.71997L10.97 9.77997L12.44 11.25H2V12.75H12.44L10.97 14.22Z" fill="black"/>
<path d="M15.19 6.25H13V7.75H17.75V3H16.25V5.19L13.81 2.75H2V4.25H13.19L15.19 6.25Z" fill="black"/>
<path d="M19.5 8.75C17.71 8.75 16.25 10.21 16.25 12C16.25 13.79 17.71 15.25 19.5 15.25C21.29 15.25 22.75 13.79 22.75 12C22.75 10.21 21.29 8.75 19.5 8.75ZM19.5 13.75C18.535 13.75 17.75 12.965 17.75 12C17.75 11.035 18.535 10.25 19.5 10.25C20.465 10.25 21.25 11.035 21.25 12C21.25 12.965 20.465 13.75 19.5 13.75Z" fill="black"/>
</g>
<defs>
<clipPath id="clip0_2459_4822">
<rect width="24" height="24" fill="white"/>
</clipPath>
</defs>
</svg>
