<svg width="24" height="24" viewBox="0 0 24 24" fill="none" xmlns="http://www.w3.org/2000/svg">
<g clip-path="url(#clip0_2459_4814)">
<path d="M1 3V21H23V3H1ZM21.5 4.5V8H2.5V4.5H21.5ZM2.5 19.5V9.5H21.5V19.5H2.5Z" fill="black"/>
<path d="M4.25 7C4.66421 7 5 6.66421 5 6.25C5 5.83579 4.66421 5.5 4.25 5.5C3.83579 5.5 3.5 5.83579 3.5 6.25C3.5 6.66421 3.83579 7 4.25 7Z" fill="black"/>
<path d="M6.25 7C6.66421 7 7 6.66421 7 6.25C7 5.83579 6.66421 5.5 6.25 5.5C5.83579 5.5 5.5 5.83579 5.5 6.25C5.5 6.66421 5.83579 7 6.25 7Z" fill="black"/>
<path d="M8.25 7C8.66421 7 9 6.66421 9 6.25C9 5.83579 8.66421 5.5 8.25 5.5C7.83579 5.5 7.5 5.83579 7.5 6.25C7.5 6.66421 7.83579 7 8.25 7Z" fill="black"/>
</g>
<defs>
<clipPath id="clip0_2459_4814">
<rect width="24" height="24" fill="white"/>
</clipPath>
</defs>
</svg>
