<svg width="24" height="24" viewBox="0 0 24 24" fill="none" xmlns="http://www.w3.org/2000/svg">
<g clip-path="url(#clip0_4711_22953)">
<path d="M12 1C5.935 1 1 5.935 1 12C1 18.065 5.935 23 12 23C18.065 23 23 18.065 23 12C23 5.935 18.065 1 12 1ZM12 21.5C6.76 21.5 2.5 17.24 2.5 12C2.5 6.76 6.76 2.5 12 2.5C17.24 2.5 21.5 6.76 21.5 12C21.5 17.24 17.24 21.5 12 21.5Z" fill="black"/>
<path d="M17.5 10.75H11.66C11.32 9.32 10.035 8.25 8.5 8.25C6.71 8.25 5.25 9.71 5.25 11.5C5.25 13.29 6.71 14.75 8.5 14.75C10.035 14.75 11.32 13.68 11.66 12.25H14.25V15H15.75V12.25H17.25V15H18.75V12C18.75 11.31 18.19 10.75 17.5 10.75ZM8.5 13.25C7.535 13.25 6.75 12.465 6.75 11.5C6.75 10.535 7.535 9.75 8.5 9.75C9.465 9.75 10.25 10.535 10.25 11.5C10.25 12.465 9.465 13.25 8.5 13.25Z" fill="black"/>
</g>
<defs>
<clipPath id="clip0_4711_22953">
<rect width="24" height="24" fill="white"/>
</clipPath>
</defs>
</svg>
