<svg width="24" height="24" viewBox="0 0 24 24" fill="none" xmlns="http://www.w3.org/2000/svg">
<g clip-path="url(#clip0_4711_23545)">
<path d="M15.5 1H3V23H21V6.5L15.5 1ZM16.25 3.87L18.63 6.25H16.25V3.87ZM4.5 21.5V2.5H14.75V7.75H19.5V21.5H4.5Z" fill="black"/>
<path d="M13.685 8.045C13.49 7.85 13.235 7.75 12.98 7.75C12.725 7.75 12.47 7.85 12.275 8.045L7.755 12.565V16.25H11.44L15.96 11.73C16.35 11.34 16.35 10.705 15.96 10.315L13.69 8.045H13.685ZM10.815 14.75H9.25V13.185L11.165 11.27L12.73 12.835L10.815 14.75ZM13.79 11.775L12.225 10.21L12.98 9.455L14.545 11.02L13.79 11.775Z" fill="black"/>
</g>
<defs>
<clipPath id="clip0_4711_23545">
<rect width="24" height="24" fill="white"/>
</clipPath>
</defs>
</svg>
