<svg width="24" height="24" viewBox="0 0 24 24" fill="none" xmlns="http://www.w3.org/2000/svg">
<g clip-path="url(#clip0_2459_7590)">
<path d="M18.47 16.03L20.19 17.75H16.63C15.17 17.75 13.765 17.135 12.775 16.06L10.34 13.42C9.795 12.83 9.15 12.355 8.45 12C9.15 11.64 9.795 11.165 10.34 10.58L12.775 7.93997C13.765 6.86497 15.17 6.24997 16.63 6.24997H20.19L18.47 7.96997L19.53 9.02997L23.06 5.49997L19.53 1.96997L18.47 3.02997L20.19 4.74997H16.63C14.75 4.74997 12.945 5.53997 11.67 6.91997L9.235 9.55997C8.245 10.635 6.84 11.25 5.38 11.25H1V12.75H5.375C6.835 12.75 8.24 13.365 9.23 14.44L11.665 17.08C12.94 18.46 14.745 19.25 16.625 19.25H20.185L18.465 20.97L19.525 22.03L23.055 18.5L19.525 14.97L18.465 16.03H18.47Z" fill="black"/>
</g>
<defs>
<clipPath id="clip0_2459_7590">
<rect width="24" height="24" fill="white"/>
</clipPath>
</defs>
</svg>
