<svg width="24" height="24" viewBox="0 0 24 24" fill="none" xmlns="http://www.w3.org/2000/svg">
<g clip-path="url(#clip0_4711_23528)">
<path d="M4.74997 4.93997L3.52997 3.71997L2.46997 4.77997L4.74997 7.05997L9.02997 2.77997L7.96997 1.71997L4.74997 4.93997Z" fill="black"/>
<path d="M4.74997 12.19L3.52997 10.97L2.46997 12.03L4.74997 14.31L9.02997 10.03L7.96997 8.96997L4.74997 12.19Z" fill="black"/>
<path d="M3 22.25H8.5V16.75H3V22.25ZM4.5 18.25H7V20.75H4.5V18.25Z" fill="black"/>
<path d="M21 3.75H11V5.25H21V3.75Z" fill="black"/>
<path d="M21 11.25H11V12.75H21V11.25Z" fill="black"/>
<path d="M21 18.75H11V20.25H21V18.75Z" fill="black"/>
</g>
<defs>
<clipPath id="clip0_4711_23528">
<rect width="24" height="24" fill="white"/>
</clipPath>
</defs>
</svg>
