<svg width="24" height="24" viewBox="0 0 24 24" fill="none" xmlns="http://www.w3.org/2000/svg">
<g clip-path="url(#clip0_2930_8787)">
<path d="M12 9.25C10.485 9.25 9.25 10.485 9.25 12C9.25 13.515 10.485 14.75 12 14.75C13.515 14.75 14.75 13.515 14.75 12C14.75 10.485 13.515 9.25 12 9.25ZM12 13.25C11.31 13.25 10.75 12.69 10.75 12C10.75 11.31 11.31 10.75 12 10.75C12.69 10.75 13.25 11.31 13.25 12C13.25 12.69 12.69 13.25 12 13.25Z" fill="black"/>
<path d="M7.05 7.05005C4.32 9.78005 4.32 14.22 7.05 16.95L8.11 15.89C5.965 13.745 5.965 10.255 8.11 8.11005L7.05 7.05005Z" fill="black"/>
<path d="M16.95 7.05005L15.89 8.11005C18.035 10.255 18.035 13.745 15.89 15.89L16.95 16.95C19.68 14.22 19.68 9.78005 16.95 7.05005Z" fill="black"/>
<path d="M5.28001 5.27997L4.22001 4.21997C-0.0649939 8.50997 -0.0649939 15.49 4.22001 19.78L5.28001 18.72C1.57501 15.015 1.57501 8.98997 5.28001 5.28497V5.27997Z" fill="black"/>
<path d="M19.78 4.21997L18.72 5.27997C22.425 8.98497 22.425 15.01 18.72 18.715L19.78 19.775C24.07 15.485 24.07 8.50997 19.78 4.21997Z" fill="black"/>
</g>
<defs>
<clipPath id="clip0_2930_8787">
<rect width="24" height="24" fill="white"/>
</clipPath>
</defs>
</svg>
