<svg width="24" height="24" viewBox="0 0 24 24" fill="none" xmlns="http://www.w3.org/2000/svg">
<g clip-path="url(#clip0_2459_7586)">
<path d="M18.53 12.97L17.47 14.03L20.19 16.75H6C4.76 16.75 3.75 15.74 3.75 14.5V13.5H2.25V14.5C2.25 16.57 3.93 18.25 6 18.25H20.19L17.47 20.97L18.53 22.03L23.06 17.5L18.53 12.97Z" fill="black"/>
<path d="M6.53 9.96997L3.81 7.24997H18C19.24 7.24997 20.25 8.25997 20.25 9.49997V10.5H21.75V9.49997C21.75 7.42997 20.07 5.74997 18 5.74997H3.81L6.53 3.02997L5.47 1.96997L0.940002 6.49997L5.47 11.03L6.53 9.96997Z" fill="black"/>
</g>
<defs>
<clipPath id="clip0_2459_7586">
<rect width="24" height="24" fill="white"/>
</clipPath>
</defs>
</svg>
