<svg width="24" height="24" viewBox="0 0 24 24" fill="none" xmlns="http://www.w3.org/2000/svg">
<g clip-path="url(#clip0_4711_22940)">
<path d="M19.5 8.5C19.5 4.365 16.135 1 12 1C7.865 1 4.5 4.365 4.5 8.5C4.5 11.06 5.79 13.32 7.75 14.675V23.125L12 20.395L16.25 23.125V14.675C18.21 13.32 19.5 11.06 19.5 8.5ZM6 8.5C6 5.19 8.69 2.5 12 2.5C15.31 2.5 18 5.19 18 8.5C18 11.81 15.31 14.5 12 14.5C8.69 14.5 6 11.81 6 8.5ZM14.75 20.375L12 18.605L9.25 20.375V15.47C10.105 15.81 11.03 16 12 16C12.97 16 13.895 15.81 14.75 15.47V20.375Z" fill="black"/>
<path d="M12 12.25C14.07 12.25 15.75 10.57 15.75 8.5C15.75 6.43 14.07 4.75 12 4.75C9.93 4.75 8.25 6.43 8.25 8.5C8.25 10.57 9.93 12.25 12 12.25ZM12 6.25C13.24 6.25 14.25 7.26 14.25 8.5C14.25 9.74 13.24 10.75 12 10.75C10.76 10.75 9.75 9.74 9.75 8.5C9.75 7.26 10.76 6.25 12 6.25Z" fill="black"/>
</g>
<defs>
<clipPath id="clip0_4711_22940">
<rect width="24" height="24" fill="white"/>
</clipPath>
</defs>
</svg>
