<svg width="24" height="24" viewBox="0 0 24 24" fill="none" xmlns="http://www.w3.org/2000/svg">
<g clip-path="url(#clip0_2459_6154)">
<path d="M4.75 2C3.235 2 2 3.235 2 4.75C2 6.265 3.235 7.5 4.75 7.5C6.265 7.5 7.5 6.265 7.5 4.75C7.5 3.235 6.265 2 4.75 2ZM4.75 6C4.06 6 3.5 5.44 3.5 4.75C3.5 4.06 4.06 3.5 4.75 3.5C5.44 3.5 6 4.06 6 4.75C6 5.44 5.44 6 4.75 6Z" fill="black"/>
<path d="M12 2C10.485 2 9.25 3.235 9.25 4.75C9.25 6.265 10.485 7.5 12 7.5C13.515 7.5 14.75 6.265 14.75 4.75C14.75 3.235 13.515 2 12 2ZM12 6C11.31 6 10.75 5.44 10.75 4.75C10.75 4.06 11.31 3.5 12 3.5C12.69 3.5 13.25 4.06 13.25 4.75C13.25 5.44 12.69 6 12 6Z" fill="black"/>
<path d="M4.75 9.25C3.235 9.25 2 10.485 2 12C2 13.515 3.235 14.75 4.75 14.75C6.265 14.75 7.5 13.515 7.5 12C7.5 10.485 6.265 9.25 4.75 9.25ZM4.75 13.25C4.06 13.25 3.5 12.69 3.5 12C3.5 11.31 4.06 10.75 4.75 10.75C5.44 10.75 6 11.31 6 12C6 12.69 5.44 13.25 4.75 13.25Z" fill="black"/>
<path d="M12 9.25C10.485 9.25 9.25 10.485 9.25 12C9.25 13.515 10.485 14.75 12 14.75C13.515 14.75 14.75 13.515 14.75 12C14.75 10.485 13.515 9.25 12 9.25ZM12 13.25C11.31 13.25 10.75 12.69 10.75 12C10.75 11.31 11.31 10.75 12 10.75C12.69 10.75 13.25 11.31 13.25 12C13.25 12.69 12.69 13.25 12 13.25Z" fill="black"/>
<path d="M4.75 16.5C3.235 16.5 2 17.735 2 19.25C2 20.765 3.235 22 4.75 22C6.265 22 7.5 20.765 7.5 19.25C7.5 17.735 6.265 16.5 4.75 16.5ZM4.75 20.5C4.06 20.5 3.5 19.94 3.5 19.25C3.5 18.56 4.06 18 4.75 18C5.44 18 6 18.56 6 19.25C6 19.94 5.44 20.5 4.75 20.5Z" fill="black"/>
<path d="M19.25 7.5C20.765 7.5 22 6.265 22 4.75C22 3.235 20.765 2 19.25 2C17.735 2 16.5 3.235 16.5 4.75C16.5 6.265 17.735 7.5 19.25 7.5ZM19.25 3.5C19.94 3.5 20.5 4.06 20.5 4.75C20.5 5.44 19.94 6 19.25 6C18.56 6 18 5.44 18 4.75C18 4.06 18.56 3.5 19.25 3.5Z" fill="black"/>
<path d="M19.25 9.25C17.735 9.25 16.5 10.485 16.5 12C16.5 13.515 17.735 14.75 19.25 14.75C20.765 14.75 22 13.515 22 12C22 10.485 20.765 9.25 19.25 9.25ZM19.25 13.25C18.56 13.25 18 12.69 18 12C18 11.31 18.56 10.75 19.25 10.75C19.94 10.75 20.5 11.31 20.5 12C20.5 12.69 19.94 13.25 19.25 13.25Z" fill="black"/>
<path d="M19.25 16.5C17.735 16.5 16.5 17.735 16.5 19.25C16.5 20.765 17.735 22 19.25 22C20.765 22 22 20.765 22 19.25C22 17.735 20.765 16.5 19.25 16.5ZM19.25 20.5C18.56 20.5 18 19.94 18 19.25C18 18.56 18.56 18 19.25 18C19.94 18 20.5 18.56 20.5 19.25C20.5 19.94 19.94 20.5 19.25 20.5Z" fill="black"/>
<path d="M12 16.5C10.485 16.5 9.25 17.735 9.25 19.25C9.25 20.765 10.485 22 12 22C13.515 22 14.75 20.765 14.75 19.25C14.75 17.735 13.515 16.5 12 16.5ZM12 20.5C11.31 20.5 10.75 19.94 10.75 19.25C10.75 18.56 11.31 18 12 18C12.69 18 13.25 18.56 13.25 19.25C13.25 19.94 12.69 20.5 12 20.5Z" fill="black"/>
</g>
<defs>
<clipPath id="clip0_2459_6154">
<rect width="24" height="24" fill="white"/>
</clipPath>
</defs>
</svg>
