<svg width="24" height="24" viewBox="0 0 24 24" fill="none" xmlns="http://www.w3.org/2000/svg">
<g clip-path="url(#clip0_2930_8778)">
<path d="M12 6.5C8.965 6.5 6.5 8.965 6.5 12C6.5 15.035 8.965 17.5 12 17.5C15.035 17.5 17.5 15.035 17.5 12C17.5 8.965 15.035 6.5 12 6.5ZM12 16C9.795 16 8 14.205 8 12C8 9.795 9.795 8 12 8C14.205 8 16 9.795 16 12C16 14.205 14.205 16 12 16Z" fill="black"/>
<path d="M12.75 1H11.25V5H12.75V1Z" fill="black"/>
<path d="M4.7502 3.69056L3.68954 4.75122L6.51797 7.57965L7.57863 6.51899L4.7502 3.69056Z" fill="black"/>
<path d="M5 11.25H1V12.75H5V11.25Z" fill="black"/>
<path d="M6.51944 16.4218L3.69101 19.2502L4.75167 20.3109L7.5801 17.4825L6.51944 16.4218Z" fill="black"/>
<path d="M12.75 19H11.25V23H12.75V19Z" fill="black"/>
<path d="M17.4831 16.4205L16.4225 17.4812L19.2509 20.3096L20.3116 19.249L17.4831 16.4205Z" fill="black"/>
<path d="M23 11.25H19V12.75H23V11.25Z" fill="black"/>
<path d="M19.2494 3.68891L16.421 6.51733L17.4817 7.57799L20.3101 4.74957L19.2494 3.68891Z" fill="black"/>
</g>
<defs>
<clipPath id="clip0_2930_8778">
<rect width="24" height="24" fill="white"/>
</clipPath>
</defs>
</svg>
