<svg width="25" height="24" viewBox="0 0 25 24" fill="none" xmlns="http://www.w3.org/2000/svg">
<g clip-path="url(#clip0_2459_7631)">
<path d="M8.53 15.78L10.25 17.5H8.81C7.57 17.5 6.56 16.49 6.56 15.25V9.5H9.56V2H2.06V9.5H5.06V15.25C5.06 17.32 6.74 19 8.81 19H10.25L8.53 20.72L9.59 21.78L13.12 18.25L9.59 14.72L8.53 15.78ZM3.56 3.5H8.06V8H3.56V3.5Z" fill="black"/>
<path d="M19.06 14.5V8.74997C19.06 6.67997 17.38 4.99997 15.31 4.99997H13.87L15.59 3.27997L14.53 2.21997L11 5.74997L14.53 9.27997L15.59 8.21997L13.87 6.49997H15.31C16.55 6.49997 17.56 7.50997 17.56 8.74997V14.5H14.56V22H22.06V14.5H19.06ZM20.56 20.5H16.06V16H20.56V20.5Z" fill="black"/>
</g>
<defs>
<clipPath id="clip0_2459_7631">
<rect width="24" height="24" fill="white" transform="translate(0.0599976)"/>
</clipPath>
</defs>
</svg>
