<svg width="24" height="24" viewBox="0 0 24 24" fill="none" xmlns="http://www.w3.org/2000/svg">
<g clip-path="url(#clip0_4711_22595)">
<path d="M2 2V22H22V2H2ZM20.5 11.25H12.75V3.5H20.5V11.25ZM11.25 3.5V11.25H3.5V3.5H11.25ZM3.5 12.75H11.25V20.5H3.5V12.75ZM12.75 20.5V12.75H20.5V20.5H12.75Z" fill="black"/>
<path d="M10 6.5H5V8H10V6.5Z" fill="black"/>
<path d="M19 14.5H14V16H19V14.5Z" fill="black"/>
<path d="M19 17H14V18.5H19V17Z" fill="black"/>
<path d="M10 16H8.25V14.25H6.75V16H5V17.5H6.75V19.25H8.25V17.5H10V16Z" fill="black"/>
<path d="M13.97 8.71997L15.03 9.77997L16.5 8.30997L17.97 9.77997L19.03 8.71997L17.56 7.24997L19.03 5.77997L17.97 4.71997L16.5 6.18997L15.03 4.71997L13.97 5.77997L15.44 7.24997L13.97 8.71997Z" fill="black"/>
</g>
<defs>
<clipPath id="clip0_4711_22595">
<rect width="24" height="24" fill="white"/>
</clipPath>
</defs>
</svg>
