<svg width="24" height="24" viewBox="0 0 24 24" fill="none" xmlns="http://www.w3.org/2000/svg">
<g clip-path="url(#clip0_2930_8776)">
<path d="M6 13.5H18L12 5.5L6 13.5ZM9 12L12 8L15 12H9Z" fill="black"/>
<path d="M18 15.25H6V16.75H18V15.25Z" fill="black"/>
<path d="M12 1C5.925 1 1 5.925 1 12C1 18.075 5.925 23 12 23C18.075 23 23 18.075 23 12C23 5.925 18.075 1 12 1ZM12 21.5C6.76 21.5 2.5 17.24 2.5 12C2.5 6.76 6.76 2.5 12 2.5C17.24 2.5 21.5 6.76 21.5 12C21.5 17.24 17.24 21.5 12 21.5Z" fill="black"/>
</g>
<defs>
<clipPath id="clip0_2930_8776">
<rect width="24" height="24" fill="white"/>
</clipPath>
</defs>
</svg>
