<svg width="24" height="24" viewBox="0 0 24 24" fill="none" xmlns="http://www.w3.org/2000/svg">
<g clip-path="url(#clip0_2459_4837)">
<path d="M19.75 16.25C18.775 16.25 17.95 16.88 17.64 17.75H16.5V15.5H18.255C20.455 15.5 22.25 13.805 22.25 11.715C22.25 10.23 21.325 8.895 19.935 8.285C19.905 6.475 18.36 5.015 16.455 4.985C15.745 2.64 13.48 1 10.845 1C7.635 1 5.02 3.455 5 6.48C3.085 7.14 1.755 8.885 1.755 10.85C1.755 13.415 3.965 15.5 6.675 15.5H7.505V17.75H6.365C6.055 16.88 5.23 16.25 4.255 16.25C3.015 16.25 2.00501 17.26 2.00501 18.5C2.00501 19.74 3.015 20.75 4.255 20.75C5.23 20.75 6.055 20.12 6.365 19.25H9.005V15.5H11.255V18.64C10.385 18.95 9.755 19.775 9.755 20.75C9.755 21.99 10.765 23 12.005 23C13.245 23 14.255 21.99 14.255 20.75C14.255 19.775 13.625 18.95 12.755 18.64V15.5H15.005V19.25H17.645C17.955 20.12 18.78 20.75 19.755 20.75C20.995 20.75 22.005 19.74 22.005 18.5C22.005 17.26 20.995 16.25 19.755 16.25H19.75ZM4.25 19.25C3.835 19.25 3.5 18.915 3.5 18.5C3.5 18.085 3.835 17.75 4.25 17.75C4.665 17.75 5 18.085 5 18.5C5 18.915 4.665 19.25 4.25 19.25ZM12 21.5C11.585 21.5 11.25 21.165 11.25 20.75C11.25 20.335 11.585 20 12 20C12.415 20 12.75 20.335 12.75 20.75C12.75 21.165 12.415 21.5 12 21.5ZM3.25 10.85C3.25 9.385 4.37501 8.095 5.925 7.775L6.6 7.635L6.52 6.95C6.505 6.805 6.495 6.66 6.495 6.51C6.495 4.295 8.445 2.495 10.84 2.495C12.975 2.495 14.78 3.91 15.12 5.86L15.23 6.48H16.4C17.52 6.48 18.43 7.31 18.43 8.33C18.43 8.43 18.42 8.535 18.395 8.65L18.265 9.34L18.94 9.52C20 9.8 20.745 10.7 20.745 11.71C20.745 12.97 19.625 13.995 18.25 13.995H6.67C4.785 13.995 3.25 12.58 3.25 10.845V10.85ZM19.75 19.25C19.335 19.25 19 18.915 19 18.5C19 18.085 19.335 17.75 19.75 17.75C20.165 17.75 20.5 18.085 20.5 18.5C20.5 18.915 20.165 19.25 19.75 19.25Z" fill="black"/>
</g>
<defs>
<clipPath id="clip0_2459_4837">
<rect width="24" height="24" fill="white"/>
</clipPath>
</defs>
</svg>
