<svg width="24" height="24" viewBox="0 0 24 24" fill="none" xmlns="http://www.w3.org/2000/svg">
<g clip-path="url(#clip0_2459_6191)">
<path d="M2 7.5H7.5V2H2V7.5ZM3.5 3.5H6V6H3.5V3.5Z" fill="black"/>
<path d="M9.25 7.5H14.75V2H9.25V7.5ZM10.75 3.5H13.25V6H10.75V3.5Z" fill="black"/>
<path d="M16.5 2V7.5H22V2H16.5ZM20.5 6H18V3.5H20.5V6Z" fill="black"/>
<path d="M2 22H7.5V16.5H2V22ZM3.5 18H6V20.5H3.5V18Z" fill="black"/>
<path d="M9.25 22H14.75V16.5H9.25V22ZM10.75 18H13.25V20.5H10.75V18Z" fill="black"/>
<path d="M16.5 22H22V16.5H16.5V22ZM18 18H20.5V20.5H18V18Z" fill="black"/>
<path d="M2 14.75H7.5V9.25H2V14.75ZM3.5 10.75H6V13.25H3.5V10.75Z" fill="black"/>
<path d="M9.25 14.75H14.75V9.25H9.25V14.75ZM10.75 10.75H13.25V13.25H10.75V10.75Z" fill="black"/>
<path d="M16.5 14.75H22V9.25H16.5V14.75ZM18 10.75H20.5V13.25H18V10.75Z" fill="black"/>
</g>
<defs>
<clipPath id="clip0_2459_6191">
<rect width="24" height="24" fill="white"/>
</clipPath>
</defs>
</svg>
