<svg width="24" height="24" viewBox="0 0 24 24" fill="none" xmlns="http://www.w3.org/2000/svg">
<g clip-path="url(#clip0_4711_19869)">
<path d="M17.53 11.03L16.47 9.97L12.75 13.69V1H11.25V13.69L7.53003 9.97L6.47003 11.03L12 16.56L17.53 11.03Z" fill="black"/>
<path d="M19.78 4.21997L18.72 5.27997C22.425 8.98497 22.425 15.01 18.72 18.715C15.015 22.42 8.99002 22.42 5.28502 18.715C1.58002 15.01 1.58002 8.98497 5.28502 5.27997L4.22502 4.21997C-0.0649776 8.50997 -0.0649776 15.49 4.22002 19.78C6.36502 21.925 9.18002 22.995 12 22.995C14.82 22.995 17.635 21.925 19.78 19.78C24.07 15.49 24.07 8.51497 19.78 4.22497V4.21997Z" fill="black"/>
</g>
<defs>
<clipPath id="clip0_4711_19869">
<rect width="24" height="24" fill="white"/>
</clipPath>
</defs>
</svg>
