<svg width="24" height="24" viewBox="0 0 24 24" fill="none" xmlns="http://www.w3.org/2000/svg">
<g clip-path="url(#clip0_4711_23570)">
<path d="M17 3.5V2.35C15.53 1.495 13.825 1 12 1C10.175 1 8.47 1.495 7 2.35V3.5H3V23H21V3.5H17ZM8.5 3.26C9.6 2.76 10.795 2.5 12 2.5C13.205 2.5 14.4 2.76 15.5 3.26V3.5V5H8.505V3.26H8.5ZM19.5 21.5H4.5V5H6.995V6.5H7H17.005V5.18V5H19.505V21.5H19.5Z" fill="black"/>
<path d="M14.47 10.47L12 12.94L9.52997 10.47L8.46997 11.53L10.94 14L8.46997 16.47L9.52997 17.53L12 15.06L14.47 17.53L15.53 16.47L13.06 14L15.53 11.53L14.47 10.47Z" fill="black"/>
</g>
<defs>
<clipPath id="clip0_4711_23570">
<rect width="24" height="24" fill="white"/>
</clipPath>
</defs>
</svg>
