<svg width="24" height="24" viewBox="0 0 24 24" fill="none" xmlns="http://www.w3.org/2000/svg">
<g clip-path="url(#clip0_4711_22586)">
<path d="M21 15C21 14.695 20.875 14.4 20.66 14.185L19.38 12.905V10.635C19.38 9.045 18.255 7.71 16.75 7.37V3.25C16.75 2.01 15.74 1 14.5 1H5.5C4.26 1 3.25 2.01 3.25 3.25V20.75C3.25 21.99 4.26 23 5.5 23H14.5C15.74 23 16.75 21.99 16.75 20.75V16.785H21V15ZM7.5 2.5H12.5V3.75H7.5V2.5ZM15.25 20.75C15.25 21.165 14.915 21.5 14.5 21.5H5.5C5.085 21.5 4.75 21.165 4.75 20.75V3.25C4.75 2.835 5.085 2.5 5.5 2.5H6V4C6 4.69 6.56 5.25 7.25 5.25H12.75C13.44 5.25 14 4.69 14 4V2.5H14.5C14.915 2.5 15.25 2.835 15.25 3.25V7.375C13.745 7.715 12.62 9.045 12.62 10.64L12.605 12.94L11.34 14.19C11.125 14.405 11 14.7 11 15.005V16.79H15.25V20.755V20.75ZM19.5 15.285H12.5V15.15L13.66 14.005C13.95 13.715 14.12 13.315 14.12 12.905V10.635C14.12 9.615 14.965 8.785 16 8.785C17.035 8.785 17.88 9.615 17.88 10.635V12.905C17.88 13.315 18.05 13.715 18.34 14.005L19.5 15.15V15.285Z" fill="black"/>
</g>
<defs>
<clipPath id="clip0_4711_22586">
<rect width="24" height="24" fill="white"/>
</clipPath>
</defs>
</svg>
