<svg width="24" height="24" viewBox="0 0 24 24" fill="none" xmlns="http://www.w3.org/2000/svg">
<g clip-path="url(#clip0_4711_19929)">
<path d="M16.75 9.25C15.495 9.25 14.435 10.1 14.105 11.25H1V12.75H14.105C14.435 13.9 15.49 14.75 16.75 14.75C18.01 14.75 19.065 13.9 19.395 12.75H23V11.25H19.395C19.065 10.1 18.01 9.25 16.75 9.25ZM16.75 13.25C16.06 13.25 15.5 12.69 15.5 12C15.5 11.31 16.06 10.75 16.75 10.75C17.44 10.75 18 11.31 18 12C18 12.69 17.44 13.25 16.75 13.25Z" fill="black"/>
<path d="M9.75 16.5C8.495 16.5 7.435 17.35 7.105 18.5H1V20H7.105C7.435 21.15 8.49 22 9.75 22C11.01 22 12.065 21.15 12.395 20H23V18.5H12.395C12.065 17.35 11.01 16.5 9.75 16.5ZM9.75 20.5C9.06 20.5 8.5 19.94 8.5 19.25C8.5 18.56 9.06 18 9.75 18C10.44 18 11 18.56 11 19.25C11 19.94 10.44 20.5 9.75 20.5Z" fill="black"/>
<path d="M8.895 4.25C8.565 3.1 7.51 2.25 6.25 2.25C4.99 2.25 3.935 3.1 3.605 4.25H1V5.75H3.605C3.935 6.9 4.99 7.75 6.25 7.75C7.51 7.75 8.565 6.9 8.895 5.75H23V4.25H8.895ZM6.25 6.25C5.56 6.25 5 5.69 5 5C5 4.31 5.56 3.75 6.25 3.75C6.94 3.75 7.5 4.31 7.5 5C7.5 5.69 6.94 6.25 6.25 6.25Z" fill="black"/>
</g>
<defs>
<clipPath id="clip0_4711_19929">
<rect width="24" height="24" fill="white"/>
</clipPath>
</defs>
</svg>
