<svg width="24" height="24" viewBox="0 0 24 24" fill="none" xmlns="http://www.w3.org/2000/svg">
<g clip-path="url(#clip0_2930_8769)">
<path d="M12 8.25C9.105 8.25 6.75 10.605 6.75 13.5C6.75 16.395 9.105 18.75 12 18.75C14.895 18.75 17.25 16.395 17.25 13.5C17.25 10.605 14.895 8.25 12 8.25ZM12 17.25C9.93 17.25 8.25 15.57 8.25 13.5C8.25 11.43 9.93 9.75 12 9.75C14.07 9.75 15.75 11.43 15.75 13.5C15.75 15.57 14.07 17.25 12 17.25Z" fill="black"/>
<path d="M17.825 7.25L15.425 3.25H8.575L6.175 7.25H1.25V21.75H22.75V7.25H17.825ZM21.25 20.25H2.75V8.75H7.025L9.425 4.75H14.575L16.975 8.75H21.25V20.25Z" fill="black"/>
</g>
<defs>
<clipPath id="clip0_2930_8769">
<rect width="24" height="24" fill="white"/>
</clipPath>
</defs>
</svg>
