<svg width="24" height="24" viewBox="0 0 24 24" fill="none" xmlns="http://www.w3.org/2000/svg">
<g clip-path="url(#clip0_4711_23522)">
<path d="M16.285 10.62C16.89 9.82 17.25 8.83 17.25 7.75C17.25 5.13 15.12 3 12.5 3H5.25V21H13.75C16.785 21 19.25 18.535 19.25 15.5C19.25 13.38 18.045 11.535 16.285 10.62ZM7.75 5.5H12.5C13.74 5.5 14.75 6.51 14.75 7.75C14.75 8.99 13.74 10 12.5 10H7.75V5.5ZM13.75 18.5H7.75V12.5H13.75C15.405 12.5 16.75 13.845 16.75 15.5C16.75 17.155 15.405 18.5 13.75 18.5Z" fill="black"/>
</g>
<defs>
<clipPath id="clip0_4711_23522">
<rect width="24" height="24" fill="white"/>
</clipPath>
</defs>
</svg>
