<svg width="24" height="24" viewBox="0 0 24 24" fill="none" xmlns="http://www.w3.org/2000/svg">
<g clip-path="url(#clip0_4711_22935)">
<path d="M12 1C5.935 1 1 5.935 1 12C1 18.065 5.935 23 12 23C18.065 23 23 18.065 23 12C23 5.935 18.065 1 12 1ZM12 2.5C17.24 2.5 21.5 6.76 21.5 12C21.5 14.01 20.87 15.87 19.8 17.41C17.53 15.81 14.795 14.93 12 14.93C9.205 14.93 6.47 15.81 4.2 17.41C3.13 15.875 2.5 14.01 2.5 12C2.5 6.76 6.76 2.5 12 2.5ZM12 21.5C9.31 21.5 6.88 20.37 5.15 18.57C7.15 17.185 9.545 16.43 12 16.43C14.455 16.43 16.845 17.185 18.85 18.57C17.12 20.375 14.695 21.5 12 21.5Z" fill="black"/>
<path d="M12 13.5C14.345 13.5 16.25 11.595 16.25 9.25C16.25 6.905 14.345 5 12 5C9.655 5 7.75 6.905 7.75 9.25C7.75 11.595 9.655 13.5 12 13.5ZM12 6.5C13.515 6.5 14.75 7.735 14.75 9.25C14.75 10.765 13.515 12 12 12C10.485 12 9.25 10.765 9.25 9.25C9.25 7.735 10.485 6.5 12 6.5Z" fill="black"/>
</g>
<defs>
<clipPath id="clip0_4711_22935">
<rect width="24" height="24" fill="white"/>
</clipPath>
</defs>
</svg>
