<svg width="24" height="24" viewBox="0 0 24 24" fill="none" xmlns="http://www.w3.org/2000/svg">
<g clip-path="url(#clip0_4711_22566)">
<path d="M11.75 19.25H10.25C9.835 19.25 9.5 19.585 9.5 20C9.5 20.415 9.835 20.75 10.25 20.75H11.75C12.165 20.75 12.5 20.415 12.5 20C12.5 19.585 12.165 19.25 11.75 19.25Z" fill="black"/>
<path d="M21 5.25H20V2.75C20 1.785 19.215 1 18.25 1H3.75C2.785 1 2 1.785 2 2.75V21.25C2 22.215 2.785 23 3.75 23H18.25C19.215 23 20 22.215 20 21.25V14.75H21C21.83 14.75 22.5 14.08 22.5 13.25V6.75C22.5 5.92 21.83 5.25 21 5.25ZM18.5 21.25C18.5 21.39 18.39 21.5 18.25 21.5H3.75C3.61 21.5 3.5 21.39 3.5 21.25V2.75C3.5 2.61 3.61 2.5 3.75 2.5H18.25C18.39 2.5 18.5 2.61 18.5 2.75V5.25H11C10.17 5.25 9.5 5.92 9.5 6.75V13.25C9.5 14.08 10.17 14.75 11 14.75H12V16.75L14 14.75H18.5V21.25ZM21 13.25H11V6.75H21V13.25Z" fill="black"/>
</g>
<defs>
<clipPath id="clip0_4711_22566">
<rect width="24" height="24" fill="white"/>
</clipPath>
</defs>
</svg>
