<svg width="24" height="24" viewBox="0 0 24 24" fill="none" xmlns="http://www.w3.org/2000/svg">
<g clip-path="url(#clip0_4711_19943)">
<path d="M22.255 9.14512L20.87 4.99512C20.225 3.05012 18.41 1.74512 16.365 1.74512H12.97C12.445 1.74512 11.92 1.79512 11.405 1.88512L6.68 2.74512H1.5V13.7451H7.07L11.53 18.8201C11.705 19.0001 11.82 19.2301 11.86 19.4801L12.225 21.6601C12.305 22.1451 12.72 22.4951 13.21 22.4951H13.75C15.265 22.4951 16.5 21.2601 16.5 19.7451V18.0701C16.5 17.7751 16.455 17.4801 16.36 17.2001L15.79 15.4951H19.75C21.265 15.4951 22.5 14.2601 22.5 12.7451V10.6451C22.5 10.1351 22.42 9.63012 22.255 9.14512ZM3 4.25012H6V12.2501H3V4.25012ZM21 12.7501C21 13.4401 20.44 14.0001 19.75 14.0001H14.925C14.645 14.0001 14.38 14.1351 14.215 14.3651C14.05 14.5901 14.005 14.8851 14.095 15.1551L14.94 17.6801C14.98 17.8101 15.005 17.9401 15.005 18.0751V19.7501C15.005 20.4401 14.445 21.0001 13.755 21.0001H13.64L13.345 19.2351C13.255 18.6851 13 18.1851 12.64 17.8101L7.505 11.9701V4.13012L11.68 3.37012C12.105 3.29012 12.545 3.25512 12.975 3.25512H16.37C17.77 3.25512 19.01 4.15012 19.455 5.47512L20.84 9.62512C20.95 9.95512 21.005 10.3051 21.005 10.6551V12.7551L21 12.7501Z" fill="black"/>
</g>
<defs>
<clipPath id="clip0_4711_19943">
<rect width="24" height="24" fill="white"/>
</clipPath>
</defs>
</svg>
