<svg width="24" height="24" viewBox="0 0 24 24" fill="none" xmlns="http://www.w3.org/2000/svg">
<g clip-path="url(#clip0_4711_24200)">
<path d="M7.87003 1.75L6.80503 2.81L8.91003 4.91L2.58503 11.22C1.47003 12.335 1.47003 14.145 2.58503 15.26L7.95003 20.615C8.49003 21.155 9.21003 21.45 9.97003 21.45C10.73 21.45 11.455 21.155 11.995 20.615L19.38 13.245L7.87003 1.75ZM9.97503 5.97L16.335 12.32H3.62003C3.62003 12.32 3.64003 12.295 3.65003 12.285L9.97503 5.975V5.97ZM10.935 19.555C10.42 20.065 9.53003 20.065 9.01503 19.555L3.65003 14.2C3.53503 14.085 3.45003 13.955 3.38503 13.82H16.68L10.935 19.555Z" fill="black"/>
<path d="M19.905 15.735L19.39 15.25L18.875 15.735C18.325 16.25 16.53 18.045 16.53 19.415C16.53 20.98 17.815 22.25 19.39 22.25C20.965 22.25 22.25 20.98 22.25 19.415C22.25 18.045 20.455 16.255 19.905 15.735ZM19.39 20.76C18.64 20.76 18.03 20.155 18.03 19.415C18.03 19.01 18.665 18.12 19.39 17.34C20.11 18.12 20.75 19.01 20.75 19.415C20.75 20.16 20.14 20.76 19.39 20.76Z" fill="black"/>
</g>
<defs>
<clipPath id="clip0_4711_24200">
<rect width="24" height="24" fill="white"/>
</clipPath>
</defs>
</svg>
