<svg width="24" height="24" viewBox="0 0 24 24" fill="none" xmlns="http://www.w3.org/2000/svg">
<g clip-path="url(#clip0_4711_23531)">
<path d="M10.81 5.75L8.585 3.25H1V20.75H23V5.75H10.81ZM21.5 19.25H2.5V4.75H7.915L10.14 7.25H21.5V19.25Z" fill="black"/>
<path d="M8.75 9.25C7.095 9.25 5.75 10.595 5.75 12.25C5.75 13.905 7.095 15.25 8.75 15.25C10.145 15.25 11.315 14.29 11.65 13H14.25V15.25H15.75V13H16.75V15.25H18.25V12.75C18.25 12.06 17.69 11.5 17 11.5H11.65C11.315 10.21 10.145 9.25 8.75 9.25ZM8.75 13.75C7.925 13.75 7.25 13.075 7.25 12.25C7.25 11.425 7.925 10.75 8.75 10.75C9.575 10.75 10.25 11.425 10.25 12.25C10.25 13.075 9.575 13.75 8.75 13.75Z" fill="black"/>
</g>
<defs>
<clipPath id="clip0_4711_23531">
<rect width="24" height="24" fill="white"/>
</clipPath>
</defs>
</svg>
