<svg width="24" height="24" viewBox="0 0 24 24" fill="none" xmlns="http://www.w3.org/2000/svg">
<g clip-path="url(#clip0_2459_4833)">
<path d="M20 14.5V11.25H12.75V9.5H15.75V5H8.25V9.5H11.25V11.25H4V14.5H2.5V19H7V14.5H5.5V12.75H11.25V14.5H9.75V19H14.25V14.5H12.75V12.75H18.5V14.5H17V19H21.5V14.5H20ZM9.75 6.5H14.25V8H9.75V6.5ZM5.5 17.5H4V16H5.5V17.5ZM12.75 17.5H11.25V16H12.75V17.5ZM20 17.5H18.5V16H20V17.5Z" fill="black"/>
</g>
<defs>
<clipPath id="clip0_2459_4833">
<rect width="24" height="24" fill="white"/>
</clipPath>
</defs>
</svg>
