<svg width="24" height="24" viewBox="0 0 24 24" fill="none" xmlns="http://www.w3.org/2000/svg">
<g clip-path="url(#clip0_2930_8737)">
<path d="M12.685 7.36011H11.185V12.3601H12.685V7.36011Z" fill="black"/>
<path d="M11.935 15.1101C12.3492 15.1101 12.685 14.7743 12.685 14.3601C12.685 13.9459 12.3492 13.6101 11.935 13.6101C11.5208 13.6101 11.185 13.9459 11.185 14.3601C11.185 14.7743 11.5208 15.1101 11.935 15.1101Z" fill="black"/>
<path d="M22.53 7.6101C16.725 1.8051 7.27499 1.8051 1.46999 7.6101L0.984985 8.0951L12.005 21.1601L23.025 8.0951L22.54 7.6101H22.53ZM12 18.8351L3.02999 8.2001C8.10999 3.6101 15.89 3.6101 20.97 8.2001L12 18.8401V18.8351Z" fill="black"/>
</g>
<defs>
<clipPath id="clip0_2930_8737">
<rect width="24" height="24" fill="white"/>
</clipPath>
</defs>
</svg>
