<svg width="24" height="24" viewBox="0 0 24 24" fill="none" xmlns="http://www.w3.org/2000/svg">
<g clip-path="url(#clip0_2459_7871)">
<path d="M12 4C6.755 4 2.5 8.255 2.5 13.5C2.5 18.745 6.755 23 12 23C17.245 23 21.5 18.745 21.5 13.5C21.5 8.255 17.245 4 12 4ZM12 21.5C7.59 21.5 4 17.91 4 13.5C4 9.09 7.59 5.5 12 5.5C16.41 5.5 20 9.09 20 13.5C20 17.91 16.41 21.5 12 21.5Z" fill="black"/>
<path d="M6.03707 1.50346L1.50098 6.03955L2.56164 7.10021L7.09773 2.56412L6.03707 1.50346Z" fill="black"/>
<path d="M17.9611 1.50038L16.9004 2.56104L21.4365 7.09713L22.4972 6.03646L17.9611 1.50038Z" fill="black"/>
<path d="M10.28 15.47L8.06 13.25L7 14.31L10.28 17.59L17.06 10.81L16 9.75L10.28 15.47Z" fill="black"/>
</g>
<defs>
<clipPath id="clip0_2459_7871">
<rect width="24" height="24" fill="white"/>
</clipPath>
</defs>
</svg>
