<svg width="24" height="24" viewBox="0 0 24 24" fill="none" xmlns="http://www.w3.org/2000/svg">
<g clip-path="url(#clip0_4711_19156)">
<path d="M20.75 15.75C19.775 15.75 18.95 16.38 18.64 17.25H17V14.71L18.975 12.735L17.62 11.38C17.7 11.21 17.77 11.04 17.835 10.865H19.75V6.635H17.835C17.77 6.46 17.7 6.29 17.62 6.12L18.975 4.765L15.985 1.775L14.63 3.13C14.46 3.05 14.29 2.98 14.115 2.915V1H9.885V2.915C9.71 2.98 9.54 3.05 9.37 3.13L8.015 1.775L5.025 4.765L6.38 6.12C6.3 6.29 6.23 6.46 6.165 6.635H4.25V10.865H6.165C6.23 11.04 6.3 11.21 6.38 11.38L5.025 12.735L7 14.71V17.25H5.36C5.05 16.38 4.225 15.75 3.25 15.75C2.01 15.75 1 16.76 1 18C1 19.24 2.01 20.25 3.25 20.25C4.225 20.25 5.05 19.62 5.36 18.75H8.5V15.24L9.37 14.37C9.54 14.45 9.71 14.52 9.885 14.585V16.5H11.25V18.64C10.38 18.95 9.75 19.775 9.75 20.75C9.75 21.99 10.76 23 12 23C13.24 23 14.25 21.99 14.25 20.75C14.25 19.775 13.62 18.95 12.75 18.64V16.5H14.115V14.585C14.29 14.52 14.46 14.45 14.63 14.37L15.5 15.24V18.75H18.64C18.95 19.62 19.775 20.25 20.75 20.25C21.99 20.25 23 19.24 23 18C23 16.76 21.99 15.75 20.75 15.75ZM3.25 18.75C2.835 18.75 2.5 18.415 2.5 18C2.5 17.585 2.835 17.25 3.25 17.25C3.665 17.25 4 17.585 4 18C4 18.415 3.665 18.75 3.25 18.75ZM12 21.5C11.585 21.5 11.25 21.165 11.25 20.75C11.25 20.335 11.585 20 12 20C12.415 20 12.75 20.335 12.75 20.75C12.75 21.165 12.415 21.5 12 21.5ZM14.39 12.805C14.015 13.03 13.605 13.195 13.18 13.305L12.615 13.45V14.995H11.385V13.45L10.82 13.305C10.395 13.195 9.985 13.025 9.61 12.805L9.11 12.51L8.015 13.605L7.145 12.735L8.24 11.64L7.945 11.14C7.725 10.765 7.555 10.355 7.445 9.93L7.3 9.365H5.755V8.135H7.3L7.445 7.57C7.555 7.14 7.725 6.735 7.945 6.36L8.24 5.86L7.145 4.765L8.015 3.895L9.11 4.99L9.61 4.695C9.985 4.47 10.395 4.305 10.82 4.195L11.385 4.05V2.505H12.615V4.05L13.18 4.195C13.605 4.305 14.015 4.475 14.39 4.695L14.89 4.99L15.985 3.895L16.855 4.765L15.76 5.86L16.055 6.36C16.275 6.735 16.445 7.145 16.555 7.57L16.7 8.135H18.245V9.365H16.7L16.555 9.93C16.445 10.36 16.275 10.765 16.055 11.14L15.76 11.64L16.855 12.735L15.985 13.605L14.89 12.51L14.39 12.805ZM20.75 18.75C20.335 18.75 20 18.415 20 18C20 17.585 20.335 17.25 20.75 17.25C21.165 17.25 21.5 17.585 21.5 18C21.5 18.415 21.165 18.75 20.75 18.75Z" fill="black"/>
<path d="M12 6C10.485 6 9.25 7.235 9.25 8.75C9.25 10.265 10.485 11.5 12 11.5C13.515 11.5 14.75 10.265 14.75 8.75C14.75 7.235 13.515 6 12 6ZM12 10C11.31 10 10.75 9.44 10.75 8.75C10.75 8.06 11.31 7.5 12 7.5C12.69 7.5 13.25 8.06 13.25 8.75C13.25 9.44 12.69 10 12 10Z" fill="black"/>
</g>
<defs>
<clipPath id="clip0_4711_19156">
<rect width="24" height="24" fill="white"/>
</clipPath>
</defs>
</svg>
