<svg width="24" height="24" viewBox="0 0 24 24" fill="none" xmlns="http://www.w3.org/2000/svg">
<g clip-path="url(#clip0_4711_24181)">
<path d="M18.25 6.5V2.5H3.75C2.235 2.5 1 3.735 1 5.25V22H21V6.5H18.25ZM3.75 4H16.75V6.5H3.75C3.06 6.5 2.5 5.94 2.5 5.25C2.5 4.56 3.06 4 3.75 4ZM19.5 15.5H13.75C13.06 15.5 12.5 14.94 12.5 14.25C12.5 13.56 13.06 13 13.75 13H19.5V15.5ZM13.75 11.5C12.235 11.5 11 12.735 11 14.25C11 15.765 12.235 17 13.75 17H19.5V20.5H2.5V7.7C2.875 7.89 3.3 8 3.75 8H19.5V11.5H13.75Z" fill="black"/>
</g>
<defs>
<clipPath id="clip0_4711_24181">
<rect width="24" height="24" fill="white"/>
</clipPath>
</defs>
</svg>
