<svg width="24" height="24" viewBox="0 0 24 24" fill="none" xmlns="http://www.w3.org/2000/svg">
<g clip-path="url(#clip0_2930_8743)">
<path d="M12.75 19.25H11.25C10.835 19.25 10.5 19.585 10.5 20C10.5 20.415 10.835 20.75 11.25 20.75H12.75C13.165 20.75 13.5 20.415 13.5 20C13.5 19.585 13.165 19.25 12.75 19.25Z" fill="black"/>
<path d="M19.25 1H4.75C3.785 1 3 1.785 3 2.75V21.25C3 22.215 3.785 23 4.75 23H19.25C20.215 23 21 22.215 21 21.25V2.75C21 1.785 20.215 1 19.25 1ZM19.5 21.25C19.5 21.39 19.39 21.5 19.25 21.5H4.75C4.61 21.5 4.5 21.39 4.5 21.25V2.75C4.5 2.61 4.61 2.5 4.75 2.5H19.25C19.39 2.5 19.5 2.61 19.5 2.75V21.25Z" fill="black"/>
<path d="M15.735 11.58C15.705 11.55 15.69 11.515 15.69 11.475V8.925C15.69 6.9 14.035 5.25 12 5.25C9.965 5.25 8.31 6.9 8.31 8.925V11.475C8.31 11.515 8.295 11.55 8.265 11.58L6.855 12.985C6.63 13.21 6.5 13.52 6.5 13.835V15.75H17.5V13.835C17.5 13.52 17.37 13.21 17.145 12.985L15.735 11.58ZM16 14.25H8V13.96L9.325 12.645C9.635 12.34 9.81 11.91 9.81 11.475V8.925C9.81 7.725 10.795 6.75 12 6.75C13.205 6.75 14.19 7.725 14.19 8.925V11.475C14.19 11.91 14.365 12.335 14.675 12.645L16 13.96V14.25Z" fill="black"/>
</g>
<defs>
<clipPath id="clip0_2930_8743">
<rect width="24" height="24" fill="white"/>
</clipPath>
</defs>
</svg>
