<svg width="24" height="24" viewBox="0 0 24 24" fill="none" xmlns="http://www.w3.org/2000/svg">
<g clip-path="url(#clip0_4711_24201)">
<path d="M19.625 6H17.5V4H1V17.5H4.09C4.43 18.93 5.715 20 7.25 20C8.785 20 10.07 18.93 10.41 17.5H13.59C13.93 18.93 15.215 20 16.75 20C18.285 20 19.57 18.93 19.91 17.5H23V10.5L19.625 6ZM18.875 7.5L21.125 10.5H17.5V7.5H18.875ZM7.25 18.5C6.285 18.5 5.5 17.715 5.5 16.75C5.5 15.785 6.285 15 7.25 15C8.215 15 9 15.785 9 16.75C9 17.715 8.215 18.5 7.25 18.5ZM13.59 16H10.41C10.07 14.57 8.785 13.5 7.25 13.5C5.715 13.5 4.43 14.57 4.09 16H2.5V5.5H16V13.59C14.81 13.875 13.875 14.81 13.59 16ZM16.75 18.5C15.785 18.5 15 17.715 15 16.75C15 15.785 15.785 15 16.75 15C17.715 15 18.5 15.785 18.5 16.75C18.5 17.715 17.715 18.5 16.75 18.5ZM21.5 16H19.91C19.625 14.81 18.69 13.875 17.5 13.59V12H21.5V16Z" fill="black"/>
</g>
<defs>
<clipPath id="clip0_4711_24201">
<rect width="24" height="24" fill="white"/>
</clipPath>
</defs>
</svg>
