<svg width="24" height="24" viewBox="0 0 24 24" fill="none" xmlns="http://www.w3.org/2000/svg">
<g clip-path="url(#clip0_2459_7859)">
<path d="M11.25 11.575L6.61501 14.355L7.38501 15.645L12.75 12.425V6H11.25V11.575Z" fill="black"/>
<path d="M2.5 12C2.5 6.76 6.76 2.5 12 2.5C17.24 2.5 21.5 6.76 21.5 12H23C23 5.935 18.065 1 12 1C5.935 1 1 5.935 1 12C1 18.065 5.935 23 12 23V21.5C6.76 21.5 2.5 17.24 2.5 12Z" fill="black"/>
<path d="M20.5 13.5C19.12 13.5 18 14.62 18 16V17.5H13.5V23H20.5V17.5H19.5V16C19.5 15.45 19.95 15 20.5 15C21.05 15 21.5 15.45 21.5 16V16.75H23V16C23 14.62 21.88 13.5 20.5 13.5ZM19 21.5H15V19H19V21.5Z" fill="black"/>
</g>
<defs>
<clipPath id="clip0_2459_7859">
<rect width="24" height="24" fill="white"/>
</clipPath>
</defs>
</svg>
