<svg width="24" height="24" viewBox="0 0 24 24" fill="none" xmlns="http://www.w3.org/2000/svg">
<g clip-path="url(#clip0_4711_19200)">
<path d="M12 1C5.925 1 1 5.925 1 12C1 18.075 5.925 23 12 23C18.075 23 23 18.075 23 12C23 5.925 18.075 1 12 1ZM20.485 7.75H17.535C17.12 5.945 16.455 4.38 15.61 3.22C17.73 4.095 19.455 5.715 20.48 7.75H20.485ZM21.5 12C21.5 12.955 21.355 13.88 21.09 14.75H17.81C17.935 13.87 18 12.95 18 12C18 11.05 17.935 10.13 17.81 9.25H21.09C21.355 10.12 21.5 11.045 21.5 12ZM2.5 12C2.5 11.045 2.645 10.12 2.91 9.25H6.19C6.065 10.13 6 11.05 6 12C6 12.95 6.065 13.87 6.19 14.75H2.91C2.645 13.88 2.5 12.955 2.5 12ZM7.5 12C7.5 11.025 7.575 10.11 7.705 9.25H11.25V14.75H7.705C7.575 13.89 7.5 12.975 7.5 12ZM12.75 2.66C14.045 3.19 15.315 5.05 15.995 7.75H12.75V2.66ZM11.25 2.66V7.75H8.005C8.685 5.05 9.955 3.19 11.25 2.66ZM11.25 16.25V21.34C9.955 20.81 8.685 18.95 8.005 16.25H11.25ZM12.75 21.34V16.25H15.995C15.315 18.95 14.045 20.81 12.75 21.34ZM12.75 14.75V9.25H16.295C16.425 10.11 16.5 11.025 16.5 12C16.5 12.975 16.425 13.89 16.295 14.75H12.75ZM8.39 3.22C7.55 4.385 6.88 5.945 6.465 7.75H3.515C4.54 5.715 6.27 4.09 8.385 3.22H8.39ZM3.52 16.25H6.47C6.885 18.055 7.55 19.62 8.395 20.78C6.275 19.905 4.55 18.285 3.525 16.25H3.52ZM15.615 20.78C16.455 19.615 17.125 18.055 17.54 16.25H20.49C19.465 18.285 17.735 19.91 15.62 20.78H15.615Z" fill="black"/>
</g>
<defs>
<clipPath id="clip0_4711_19200">
<rect width="24" height="24" fill="white"/>
</clipPath>
</defs>
</svg>
