<svg width="24" height="24" viewBox="0 0 24 24" fill="none" xmlns="http://www.w3.org/2000/svg">
<g clip-path="url(#clip0_2930_8765)">
<path d="M18.25 14.5H15.75V9.5H18.25C20.32 9.5 22 7.82 22 5.75C22 3.68 20.32 2 18.25 2C16.18 2 14.5 3.68 14.5 5.75V8.25H9.5V5.75C9.5 3.68 7.82 2 5.75 2C3.68 2 2 3.68 2 5.75C2 7.82 3.68 9.5 5.75 9.5H8.25V14.5H5.75C3.68 14.5 2 16.18 2 18.25C2 20.32 3.68 22 5.75 22C7.82 22 9.5 20.32 9.5 18.25V15.75H14.5V18.25C14.5 20.32 16.18 22 18.25 22C20.32 22 22 20.32 22 18.25C22 16.18 20.32 14.5 18.25 14.5ZM16 5.75C16 4.51 17.01 3.5 18.25 3.5C19.49 3.5 20.5 4.51 20.5 5.75C20.5 6.99 19.49 8 18.25 8H16V5.75ZM8 8H5.75C4.51 8 3.5 6.99 3.5 5.75C3.5 4.51 4.51 3.5 5.75 3.5C6.99 3.5 8 4.51 8 5.75V8ZM8 18.25C8 19.49 6.99 20.5 5.75 20.5C4.51 20.5 3.5 19.49 3.5 18.25C3.5 17.01 4.51 16 5.75 16H8V18.25ZM14.25 14.25H9.75V9.75H14.25V14.25ZM18.25 20.5C17.01 20.5 16 19.49 16 18.25V16H18.25C19.49 16 20.5 17.01 20.5 18.25C20.5 19.49 19.49 20.5 18.25 20.5Z" fill="black"/>
</g>
<defs>
<clipPath id="clip0_2930_8765">
<rect width="24" height="24" fill="white"/>
</clipPath>
</defs>
</svg>
