<svg width="24" height="24" viewBox="0 0 24 24" fill="none" xmlns="http://www.w3.org/2000/svg">
<g clip-path="url(#clip0_4711_24240)">
<path d="M20.465 13.64C20.41 13.575 20.395 13.49 20.425 13.41C20.88 12.205 21.07 10.945 20.985 9.66503C20.685 5.10003 16.875 1.40503 12.31 1.25503C9.84499 1.17003 7.51499 2.07003 5.74999 3.78003C3.97999 5.49003 3.00999 7.79003 3.00999 10.25C3.00999 11.33 3.20499 12.395 3.58999 13.41C3.61999 13.485 3.60499 13.575 3.54999 13.64C2.84499 14.455 2.59999 15.535 2.86999 16.595C3.13999 17.645 3.94999 18.505 4.98999 18.84C5.24999 18.925 5.51999 18.975 5.78999 18.995L6.36499 23.005H17.665L18.24 18.995C18.51 18.975 18.775 18.925 19.04 18.84C20.075 18.505 20.89 17.65 21.16 16.595C21.43 15.535 21.185 14.455 20.48 13.64H20.465ZM19.69 16.22C19.55 16.77 19.11 17.235 18.565 17.41C18.38 17.47 18.19 17.5 18 17.5H17.995C17.67 17.5 17.36 17.63 17.125 17.86C16.9 18.085 16.765 18.39 16.75 18.705L16.35 21.5H7.64999L7.24999 18.71C7.23499 18.395 7.09999 18.09 6.87499 17.865C6.63999 17.63 6.32999 17.505 6.00499 17.505C6.00499 17.505 6.00499 17.505 5.99999 17.505C5.81499 17.505 5.62499 17.475 5.43499 17.415C4.89499 17.24 4.44999 16.775 4.30999 16.225C4.15999 15.645 4.29499 15.06 4.66999 14.625C5.08499 14.145 5.20499 13.48 4.97999 12.885C4.65999 12.04 4.49999 11.155 4.49999 10.255C4.49999 8.20503 5.30999 6.29003 6.78499 4.86503C8.25999 3.44003 10.2 2.68503 12.255 2.76003C16.06 2.88503 19.235 5.96503 19.485 9.77003C19.555 10.835 19.4 11.885 19.02 12.885C18.795 13.475 18.915 14.145 19.33 14.625C19.71 15.065 19.84 15.65 19.69 16.23V16.22Z" fill="black"/>
<path d="M11.25 12.5C11.25 10.985 10.015 9.75 8.5 9.75C6.985 9.75 5.75 10.985 5.75 12.5C5.75 14.015 6.985 15.25 8.5 15.25C10.015 15.25 11.25 14.015 11.25 12.5ZM8.5 13.75C7.81 13.75 7.25 13.19 7.25 12.5C7.25 11.81 7.81 11.25 8.5 11.25C9.19 11.25 9.75 11.81 9.75 12.5C9.75 13.19 9.19 13.75 8.5 13.75Z" fill="black"/>
<path d="M15.5 9.75C13.985 9.75 12.75 10.985 12.75 12.5C12.75 14.015 13.985 15.25 15.5 15.25C17.015 15.25 18.25 14.015 18.25 12.5C18.25 10.985 17.015 9.75 15.5 9.75ZM15.5 13.75C14.81 13.75 14.25 13.19 14.25 12.5C14.25 11.81 14.81 11.25 15.5 11.25C16.19 11.25 16.75 11.81 16.75 12.5C16.75 13.19 16.19 13.75 15.5 13.75Z" fill="black"/>
<path d="M9.96997 16.7199L11.03 17.7799L12 16.8099L12.97 17.7799L14.03 16.7199L12 14.6899L9.96997 16.7199Z" fill="black"/>
</g>
<defs>
<clipPath id="clip0_4711_24240">
<rect width="24" height="24" fill="white"/>
</clipPath>
</defs>
</svg>
