<svg width="24" height="24" viewBox="0 0 24 24" fill="none" xmlns="http://www.w3.org/2000/svg">
<g clip-path="url(#clip0_4711_19159)">
<path d="M20.98 5.05C20.775 2.725 16.99 1 12 1C7.01 1 3.225 2.73 3.02 5.05H3V18.75C3 21.175 6.87 23 12 23C17.13 23 21 21.175 21 18.75V5.05H20.98ZM12 2.5C16.645 2.5 19.5 4.1 19.5 5.25C19.5 6.4 16.645 8 12 8C7.355 8 4.5 6.4 4.5 5.25C4.5 4.1 7.355 2.5 12 2.5ZM12 21.5C7.355 21.5 4.5 19.9 4.5 18.75V16.665C6.085 17.79 8.795 18.5 12 18.5C15.205 18.5 17.915 17.79 19.5 16.665V18.75C19.5 19.9 16.645 21.5 12 21.5ZM12 17C7.355 17 4.5 15.4 4.5 14.25V12.165C6.085 13.29 8.795 14 12 14C15.205 14 17.915 13.29 19.5 12.165V14.25C19.5 15.4 16.645 17 12 17ZM12 12.5C7.355 12.5 4.5 10.9 4.5 9.75V7.665C6.085 8.79 8.795 9.5 12 9.5C15.205 9.5 17.915 8.79 19.5 7.665V9.75C19.5 10.9 16.645 12.5 12 12.5Z" fill="black"/>
</g>
<defs>
<clipPath id="clip0_4711_19159">
<rect width="24" height="24" fill="white"/>
</clipPath>
</defs>
</svg>
