<svg width="24" height="24" viewBox="0 0 24 24" fill="none" xmlns="http://www.w3.org/2000/svg">
<g clip-path="url(#clip0_4711_23536)">
<path d="M10.81 5.75L8.585 3.25H1V20.75H23V5.75H10.81ZM21.5 19.25H2.5V4.75H7.915L10.14 7.25H21.5V19.25Z" fill="black"/>
<path d="M8.36497 9.56003C7.71497 10.05 7.30997 10.79 7.25497 11.595C7.19997 12.395 7.49997 13.18 8.05997 13.735L12 17.83L15.925 13.745C16.5 13.18 16.795 12.395 16.74 11.59C16.685 10.79 16.28 10.045 15.63 9.55503C14.71 8.86003 13.44 8.80503 12.47 9.41503C12.295 9.52503 12.14 9.64503 11.995 9.78503C11.85 9.64503 11.695 9.52503 11.52 9.41503C10.55 8.80503 9.27997 8.86503 8.35997 9.55503L8.36497 9.56003ZM10.73 10.69C10.975 10.845 11.155 11.06 11.255 11.315C11.375 11.625 11.665 11.825 12 11.825C12.335 11.825 12.62 11.625 12.74 11.315C12.84 11.055 13.02 10.845 13.27 10.69C13.71 10.415 14.315 10.44 14.735 10.76C15.04 10.99 15.225 11.325 15.25 11.695C15.275 12.06 15.14 12.42 14.86 12.695L12 15.67L9.12497 12.685C8.85997 12.425 8.72497 12.065 8.74997 11.7C8.77497 11.325 8.95997 10.995 9.26497 10.765C9.48997 10.595 9.76997 10.505 10.05 10.505C10.285 10.505 10.525 10.57 10.725 10.695L10.73 10.69Z" fill="black"/>
</g>
<defs>
<clipPath id="clip0_4711_23536">
<rect width="24" height="24" fill="white"/>
</clipPath>
</defs>
</svg>
