<svg width="24" height="24" viewBox="0 0 24 24" fill="none" xmlns="http://www.w3.org/2000/svg">
<g clip-path="url(#clip0_4711_21759)">
<path d="M12 1H11.25V5H12.75V2.53C17.64 2.915 21.5 7.015 21.5 12C21.5 17.24 17.24 21.5 12 21.5C6.76 21.5 2.5 17.24 2.5 12H1C1 18.065 5.935 23 12 23C18.065 23 23 18.065 23 12C23 5.935 18.065 1 12 1Z" fill="black"/>
<path d="M8.07999 3.28003C8.17499 3.28003 8.27499 3.26003 8.36499 3.22503C8.74999 3.06503 8.93 2.63003 8.77 2.24503C8.65 1.95503 8.36999 1.78003 8.07499 1.78003C7.97999 1.78003 7.87999 1.80003 7.78999 1.83503C7.40499 1.99503 7.225 2.43003 7.385 2.81503C7.505 3.10503 7.78499 3.28003 8.07999 3.28003Z" fill="black"/>
<path d="M4.75 5.5C4.94 5.5 5.135 5.425 5.28 5.28C5.575 4.985 5.575 4.51 5.28 4.22C5.135 4.075 4.94 4 4.75 4C4.56 4 4.365 4.075 4.22 4.22C3.925 4.515 3.925 4.99 4.22 5.28C4.365 5.425 4.56 5.5 4.75 5.5Z" fill="black"/>
<path d="M2.245 8.76995C2.34 8.80995 2.435 8.82495 2.53 8.82495C2.825 8.82495 3.105 8.64995 3.225 8.35995C3.385 7.97495 3.2 7.53995 2.82 7.37995C2.725 7.33995 2.63 7.32495 2.535 7.32495C2.24 7.32495 1.96 7.49995 1.84 7.78995C1.68 8.17495 1.865 8.60995 2.245 8.76995Z" fill="black"/>
<path d="M5.77098 8.79849L5.23245 10.1985L11.7331 12.6991L12.2716 11.2991L5.77098 8.79849Z" fill="black"/>
</g>
<defs>
<clipPath id="clip0_4711_21759">
<rect width="24" height="24" fill="white"/>
</clipPath>
</defs>
</svg>
