<svg width="24" height="24" viewBox="0 0 24 24" fill="none" xmlns="http://www.w3.org/2000/svg">
<g clip-path="url(#clip0_4711_19152)">
<path d="M20 17.75C19.655 17.75 19.33 17.835 19.035 17.975L17.09 16.03C17.97 14.92 18.5 13.52 18.5 12C18.5 10.48 17.97 9.08 17.09 7.97L19.035 6.025C19.33 6.165 19.655 6.25 20 6.25C21.24 6.25 22.25 5.24 22.25 4C22.25 2.76 21.24 1.75 20 1.75C18.76 1.75 17.75 2.76 17.75 4C17.75 4.345 17.835 4.67 17.975 4.965L16.03 6.91C14.92 6.03 13.52 5.5 12 5.5C10.48 5.5 9.08 6.03 7.97 6.91L6.025 4.965C6.165 4.67 6.25 4.345 6.25 4C6.25 2.76 5.24 1.75 4 1.75C2.76 1.75 1.75 2.76 1.75 4C1.75 5.24 2.76 6.25 4 6.25C4.345 6.25 4.67 6.165 4.965 6.025L6.91 7.97C6.03 9.08 5.5 10.48 5.5 12C5.5 13.52 6.03 14.92 6.91 16.03L4.965 17.975C4.67 17.835 4.345 17.75 4 17.75C2.76 17.75 1.75 18.76 1.75 20C1.75 21.24 2.76 22.25 4 22.25C5.24 22.25 6.25 21.24 6.25 20C6.25 19.655 6.165 19.33 6.025 19.035L7.97 17.09C9.08 17.97 10.48 18.5 12 18.5C13.52 18.5 14.92 17.97 16.03 17.09L17.975 19.035C17.835 19.33 17.75 19.655 17.75 20C17.75 21.24 18.76 22.25 20 22.25C21.24 22.25 22.25 21.24 22.25 20C22.25 18.76 21.24 17.75 20 17.75ZM15.04 15.96C14.73 16.2 14.39 16.405 14.025 16.565C14.44 15.505 14.67 14.135 14.73 12.75H16.935C16.805 13.6 16.465 14.385 15.96 15.04L15.035 15.965L15.04 15.96ZM12.005 17C11.685 16.925 10.895 15.51 10.77 12.75H13.235C13.11 15.51 12.32 16.92 12.01 17H12.005ZM8.04 15.04C7.535 14.385 7.195 13.605 7.065 12.75H9.27C9.33 14.135 9.56 15.51 9.975 16.565C9.61 16.405 9.275 16.2 8.96 15.96L8.035 15.035L8.04 15.04ZM8.96 8.04C9.27 7.8 9.61 7.595 9.975 7.435C9.56 8.495 9.33 9.865 9.27 11.25H7.065C7.195 10.4 7.535 9.615 8.04 8.96L8.965 8.035L8.96 8.04ZM11.995 7C12.315 7.075 13.105 8.49 13.23 11.25H10.765C10.89 8.49 11.68 7.08 11.99 7H11.995ZM15.96 8.96C16.465 9.615 16.805 10.395 16.935 11.25H14.73C14.67 9.865 14.44 8.49 14.025 7.435C14.39 7.595 14.725 7.8 15.04 8.04L15.965 8.965L15.96 8.96ZM20 3.25C20.415 3.25 20.75 3.585 20.75 4C20.75 4.415 20.415 4.75 20 4.75C19.585 4.75 19.25 4.415 19.25 4C19.25 3.585 19.585 3.25 20 3.25ZM3.25 4C3.25 3.585 3.585 3.25 4 3.25C4.415 3.25 4.75 3.585 4.75 4C4.75 4.415 4.415 4.75 4 4.75C3.585 4.75 3.25 4.415 3.25 4ZM4 20.75C3.585 20.75 3.25 20.415 3.25 20C3.25 19.585 3.585 19.25 4 19.25C4.415 19.25 4.75 19.585 4.75 20C4.75 20.415 4.415 20.75 4 20.75ZM20 20.75C19.585 20.75 19.25 20.415 19.25 20C19.25 19.585 19.585 19.25 20 19.25C20.415 19.25 20.75 19.585 20.75 20C20.75 20.415 20.415 20.75 20 20.75Z" fill="black"/>
</g>
<defs>
<clipPath id="clip0_4711_19152">
<rect width="24" height="24" fill="white"/>
</clipPath>
</defs>
</svg>
