<svg width="24" height="24" viewBox="0 0 24 24" fill="none" xmlns="http://www.w3.org/2000/svg">
<g clip-path="url(#clip0_4711_22587)">
<path d="M21.725 8.65001L22.785 7.59001C21.765 6.57001 20.63 5.72001 19.405 5.03501L21.575 2.48001L20.43 1.51001L18.015 4.35001C16.14 3.54501 14.105 3.12001 12 3.12001C7.925 3.12001 4.095 4.70501 1.215 7.58501L2.275 8.64501C4.87 6.05001 8.325 4.62001 12 4.62001C13.735 4.62001 15.42 4.94501 16.99 5.55501L15.07 7.81501C11.34 6.74001 7.155 7.66001 4.22 10.595L5.28 11.655C7.64 9.29501 10.94 8.44501 13.985 9.09001L11.825 11.63C10.155 11.675 8.5 12.325 7.23 13.595L8.29 14.655C8.88 14.065 9.58 13.65 10.32 13.4L3.43 21.505L4.575 22.475L12.51 13.14C13.68 13.25 14.82 13.755 15.715 14.65L16.775 13.59C15.875 12.69 14.78 12.105 13.63 11.82L15.555 9.55001C16.705 10.015 17.785 10.71 18.72 11.64L19.78 10.58C18.825 9.62501 17.73 8.89001 16.565 8.36001L18.415 6.18501C19.62 6.82001 20.735 7.64001 21.725 8.63001V8.65001Z" fill="black"/>
<path d="M12 15.875C10.62 15.875 9.5 16.995 9.5 18.375C9.5 19.755 10.62 20.875 12 20.875C13.38 20.875 14.5 19.755 14.5 18.375C14.5 16.995 13.38 15.875 12 15.875ZM12 19.375C11.45 19.375 11 18.925 11 18.375C11 17.825 11.45 17.375 12 17.375C12.55 17.375 13 17.825 13 18.375C13 18.925 12.55 19.375 12 19.375Z" fill="black"/>
</g>
<defs>
<clipPath id="clip0_4711_22587">
<rect width="24" height="24" fill="white"/>
</clipPath>
</defs>
</svg>
