<svg width="24" height="24" viewBox="0 0 24 24" fill="none" xmlns="http://www.w3.org/2000/svg">
<g clip-path="url(#clip0_2459_4857)">
<path d="M3.5 20.5V2H2V22H22V20.5H3.5Z" fill="black"/>
<path d="M7.5 6.75C7.91421 6.75 8.25 6.41421 8.25 6C8.25 5.58579 7.91421 5.25 7.5 5.25C7.08579 5.25 6.75 5.58579 6.75 6C6.75 6.41421 7.08579 6.75 7.5 6.75Z" fill="black"/>
<path d="M7.5 16.75C7.91421 16.75 8.25 16.4142 8.25 16C8.25 15.5858 7.91421 15.25 7.5 15.25C7.08579 15.25 6.75 15.5858 6.75 16C6.75 16.4142 7.08579 16.75 7.5 16.75Z" fill="black"/>
<path d="M17.5 16.75C17.9142 16.75 18.25 16.4142 18.25 16C18.25 15.5858 17.9142 15.25 17.5 15.25C17.0858 15.25 16.75 15.5858 16.75 16C16.75 16.4142 17.0858 16.75 17.5 16.75Z" fill="black"/>
<path d="M12.5 11.75C12.9142 11.75 13.25 11.4142 13.25 11C13.25 10.5858 12.9142 10.25 12.5 10.25C12.0858 10.25 11.75 10.5858 11.75 11C11.75 11.4142 12.0858 11.75 12.5 11.75Z" fill="black"/>
<path d="M17.5 7.25C18.1904 7.25 18.75 6.69036 18.75 6C18.75 5.30964 18.1904 4.75 17.5 4.75C16.8096 4.75 16.25 5.30964 16.25 6C16.25 6.69036 16.8096 7.25 17.5 7.25Z" fill="black"/>
<path d="M17.5 12.25C18.1904 12.25 18.75 11.6904 18.75 11C18.75 10.3096 18.1904 9.75 17.5 9.75C16.8096 9.75 16.25 10.3096 16.25 11C16.25 11.6904 16.8096 12.25 17.5 12.25Z" fill="black"/>
<path d="M7.5 12.25C8.19036 12.25 8.75 11.6904 8.75 11C8.75 10.3096 8.19036 9.75 7.5 9.75C6.80964 9.75 6.25 10.3096 6.25 11C6.25 11.6904 6.80964 12.25 7.5 12.25Z" fill="black"/>
<path d="M12.5 8C13.6046 8 14.5 7.10457 14.5 6C14.5 4.89543 13.6046 4 12.5 4C11.3954 4 10.5 4.89543 10.5 6C10.5 7.10457 11.3954 8 12.5 8Z" fill="black"/>
<path d="M12.5 18C13.6046 18 14.5 17.1046 14.5 16C14.5 14.8954 13.6046 14 12.5 14C11.3954 14 10.5 14.8954 10.5 16C10.5 17.1046 11.3954 18 12.5 18Z" fill="black"/>
</g>
<defs>
<clipPath id="clip0_2459_4857">
<rect width="24" height="24" fill="white"/>
</clipPath>
</defs>
</svg>
