<svg width="24" height="24" viewBox="0 0 24 24" fill="none" xmlns="http://www.w3.org/2000/svg">
<g clip-path="url(#clip0_4711_22932)">
<path d="M12 9C13.38 9 14.5 7.88 14.5 6.5C14.5 5.12 13.38 4 12 4C10.62 4 9.5 5.12 9.5 6.5C9.5 7.88 10.62 9 12 9ZM12 5.5C12.55 5.5 13 5.95 13 6.5C13 7.05 12.55 7.5 12 7.5C11.45 7.5 11 7.05 11 6.5C11 5.95 11.45 5.5 12 5.5Z" fill="black"/>
<path d="M16.25 10.8851L15.91 10.6651C13.535 9.10512 10.465 9.10512 8.09 10.6651L7.75 10.8851V14.0001H16.25V10.8851ZM14.75 12.5001H9.25V11.7151C10.96 10.7601 13.04 10.7601 14.75 11.7151V12.5001Z" fill="black"/>
<path d="M18 15.5H6V17H18V15.5Z" fill="black"/>
<path d="M16.25 18.5H7.75V20H16.25V18.5Z" fill="black"/>
<path d="M3 1V23H21V1H3ZM19.5 21.5H4.5V2.5H19.5V21.5Z" fill="black"/>
</g>
<defs>
<clipPath id="clip0_4711_22932">
<rect width="24" height="24" fill="white"/>
</clipPath>
</defs>
</svg>
