<svg width="24" height="24" viewBox="0 0 24 24" fill="none" xmlns="http://www.w3.org/2000/svg">
<g clip-path="url(#clip0_4711_23527)">
<path d="M5 2V11.25H1V19.25C1 20.765 2.235 22 3.75 22H20.25C21.765 22 23 20.765 23 19.25V2H5ZM5 19.25C5 19.94 4.44 20.5 3.75 20.5C3.06 20.5 2.5 19.94 2.5 19.25V12.75H5V19.25ZM21.5 19.25C21.5 19.94 20.94 20.5 20.25 20.5H6.2C6.39 20.125 6.5 19.7 6.5 19.25V3.5H21.5V19.25Z" fill="black"/>
<path d="M18.5 6.5H15.5V8H18.5V6.5Z" fill="black"/>
<path d="M18.5 9.5H15.5V11H18.5V9.5Z" fill="black"/>
<path d="M18.5 12.5H9.5V14H18.5V12.5Z" fill="black"/>
<path d="M18.5 15.5H9.5V17H18.5V15.5Z" fill="black"/>
<path d="M14 6.5H9.5V11H14V6.5ZM12.5 9.5H11V8H12.5V9.5Z" fill="black"/>
</g>
<defs>
<clipPath id="clip0_4711_23527">
<rect width="24" height="24" fill="white"/>
</clipPath>
</defs>
</svg>
