<svg width="24" height="24" viewBox="0 0 24 24" fill="none" xmlns="http://www.w3.org/2000/svg">
<g clip-path="url(#clip0_4711_19859)">
<path d="M11 5.5H5.5V11H11V5.5ZM9.5 9.5H7V7H9.5V9.5Z" fill="black"/>
<path d="M18.5 5.5H13V11H18.5V5.5ZM17 9.5H14.5V7H17V9.5Z" fill="black"/>
<path d="M5.5 18.5H11V13H5.5V18.5ZM7 14.5H9.5V17H7V14.5Z" fill="black"/>
<path d="M16.5 22H22V16.5H16.5V22ZM18 18H20.5V20.5H18V18Z" fill="black"/>
<path d="M2 2V22H13.5V20.5H3.5V3.5H20.5V13.5H22V2H2Z" fill="black"/>
</g>
<defs>
<clipPath id="clip0_4711_19859">
<rect width="24" height="24" fill="white"/>
</clipPath>
</defs>
</svg>
