<svg width="24" height="24" viewBox="0 0 24 24" fill="none" xmlns="http://www.w3.org/2000/svg">
<g clip-path="url(#clip0_2459_4828)">
<path d="M21.525 6.5C20.65 4.985 18.43 4.78 15.83 5.365C15.04 2.82 13.745 1 12 1C10.255 1 8.96004 2.82 8.17004 5.365C5.57004 4.78 3.34504 4.985 2.47504 6.5C1.60004 8.015 2.53004 10.04 4.34004 12C2.53004 13.96 1.60004 15.985 2.47504 17.5C3.06004 18.51 4.24004 18.94 5.73504 18.94C6.48004 18.94 7.30504 18.82 8.17004 18.63C8.96004 21.18 10.255 23.005 12.005 23.005C13.755 23.005 15.045 21.18 15.84 18.63C16.705 18.825 17.53 18.94 18.275 18.94C19.77 18.94 20.95 18.51 21.535 17.5C22.41 15.985 21.48 13.96 19.67 12C21.48 10.04 22.41 8.015 21.535 6.5H21.525ZM18.23 6.57C19.27 6.57 19.975 6.82 20.225 7.25C20.61 7.92 20.07 9.32 18.595 10.945C17.985 10.39 17.315 9.85 16.61 9.335C16.52 8.47 16.385 7.62 16.21 6.815C16.97 6.65 17.655 6.565 18.23 6.565V6.57ZM13.625 14.815C13.07 15.135 12.53 15.42 12 15.675C11.47 15.42 10.93 15.135 10.375 14.815C9.82004 14.495 9.30504 14.165 8.82004 13.835C8.78004 13.25 8.75004 12.64 8.75004 12C8.75004 11.36 8.77504 10.75 8.82004 10.165C9.30504 9.835 9.82004 9.51 10.375 9.185C10.93 8.865 11.47 8.585 12 8.33C12.53 8.585 13.07 8.865 13.625 9.185C14.18 9.505 14.695 9.835 15.18 10.165C15.22 10.75 15.25 11.36 15.25 12C15.25 12.64 15.225 13.25 15.18 13.835C14.695 14.165 14.18 14.49 13.625 14.815ZM14.965 15.76C14.905 16.12 14.845 16.47 14.775 16.8C14.45 16.695 14.115 16.575 13.77 16.445C13.97 16.335 14.175 16.23 14.375 16.115C14.57 16 14.77 15.885 14.965 15.765V15.76ZM10.235 16.44C9.89004 16.57 9.55504 16.695 9.23004 16.795C9.16004 16.465 9.09504 16.115 9.04004 15.755C9.23504 15.875 9.43004 15.99 9.63004 16.105C9.83004 16.22 10.035 16.325 10.235 16.435V16.44ZM7.26504 12.68C6.98004 12.45 6.71004 12.22 6.46004 11.995C6.71004 11.77 6.98004 11.54 7.26504 11.31C7.26004 11.54 7.25504 11.765 7.25504 11.995C7.25504 12.225 7.25504 12.45 7.26504 12.68ZM9.04004 8.235C9.10004 7.875 9.16004 7.525 9.23004 7.2C9.55504 7.305 9.89004 7.42 10.23 7.55C10.025 7.66 9.82504 7.77 9.62504 7.885C9.43004 8 9.23004 8.115 9.03504 8.235H9.04004ZM13.775 7.55C14.12 7.42 14.455 7.3 14.775 7.2C14.845 7.53 14.91 7.88 14.965 8.235C14.77 8.115 14.575 8 14.375 7.885C14.175 7.77 13.97 7.66 13.77 7.55H13.775ZM16.745 11.31C17.03 11.54 17.3 11.77 17.55 11.995C17.3 12.22 17.03 12.45 16.745 12.68C16.75 12.45 16.755 12.225 16.755 11.995C16.755 11.765 16.755 11.54 16.745 11.31ZM12 2.5C12.77 2.5 13.715 3.67 14.39 5.765C13.605 6.015 12.8 6.325 12.005 6.68C11.205 6.325 10.405 6.015 9.61504 5.765C10.285 3.675 11.23 2.5 12.005 2.5H12ZM3.77004 7.25C4.02004 6.82 4.72004 6.57 5.76504 6.57C6.34004 6.57 7.02504 6.655 7.78504 6.82C7.61004 7.625 7.47504 8.47 7.38504 9.34C6.68004 9.85 6.01004 10.395 5.40004 10.95C3.92504 9.325 3.38504 7.92 3.77004 7.255V7.25ZM3.77004 16.75C3.38504 16.08 3.92504 14.68 5.40004 13.055C6.01004 13.61 6.68004 14.15 7.38504 14.665C7.47504 15.535 7.61004 16.385 7.78504 17.19C5.64004 17.655 4.15504 17.42 3.77004 16.755V16.75ZM12 21.5C11.23 21.5 10.285 20.325 9.61004 18.235C10.395 17.985 11.2 17.68 12 17.325C12.8 17.68 13.6 17.99 14.39 18.235C13.72 20.325 12.775 21.5 12 21.5ZM20.23 16.75C19.845 17.42 18.36 17.65 16.215 17.185C16.39 16.38 16.525 15.53 16.615 14.66C17.32 14.15 17.99 13.605 18.6 13.05C20.075 14.675 20.615 16.08 20.23 16.745V16.75Z" fill="black"/>
<path d="M12 13C12.5523 13 13 12.5523 13 12C13 11.4477 12.5523 11 12 11C11.4477 11 11 11.4477 11 12C11 12.5523 11.4477 13 12 13Z" fill="black"/>
</g>
<defs>
<clipPath id="clip0_2459_4828">
<rect width="24" height="24" fill="white"/>
</clipPath>
</defs>
</svg>
