<svg width="24" height="24" viewBox="0 0 24 24" fill="none" xmlns="http://www.w3.org/2000/svg">
<g clip-path="url(#clip0_4711_22582)">
<path d="M12 1C8.14 1 5 4.14 5 8V16C5 19.86 8.14 23 12 23C15.86 23 19 19.86 19 16V8C19 4.14 15.86 1 12 1ZM17.5 8V8.75H12.75V2.555C15.43 2.925 17.5 5.22 17.5 8ZM11.25 2.555V8.75H6.5V8C6.5 5.22 8.57 2.925 11.25 2.555ZM12 21.5C8.965 21.5 6.5 19.035 6.5 16V10.25H17.5V16C17.5 19.035 15.035 21.5 12 21.5Z" fill="black"/>
</g>
<defs>
<clipPath id="clip0_4711_22582">
<rect width="24" height="24" fill="white"/>
</clipPath>
</defs>
</svg>
