<svg width="24" height="24" viewBox="0 0 24 24" fill="none" xmlns="http://www.w3.org/2000/svg">
<g clip-path="url(#clip0_2459_4867)">
<path d="M20.705 14.4251C20.485 14.3001 20.245 14.2201 20 14.1701V9.83012C20.245 9.78512 20.48 9.70012 20.705 9.57012C21.78 8.95012 22.15 7.57012 21.53 6.49512C20.91 5.42012 19.53 5.05012 18.455 5.67012C18.26 5.78512 18.095 5.93012 17.945 6.09012L14.155 3.86012C14.21 3.66512 14.25 3.46012 14.25 3.24512C14.25 2.00512 13.24 0.995117 12 0.995117C10.76 0.995117 9.75005 2.00512 9.75005 3.24512C9.75005 3.46012 9.79005 3.66512 9.84505 3.86012L6.05505 6.09012C5.90505 5.93012 5.74005 5.78512 5.54505 5.67012C4.47005 5.05012 3.09005 5.42012 2.47005 6.49512C1.85005 7.57012 2.22005 8.95012 3.29505 9.57012C3.51505 9.70012 3.75505 9.78012 4.00005 9.83012V14.1701C3.75505 14.2151 3.52005 14.2951 3.29505 14.4251C2.22005 15.0451 1.85005 16.4251 2.47005 17.5001C2.88505 18.2201 3.64505 18.6251 4.42505 18.6251C4.80505 18.6251 5.19505 18.5301 5.54505 18.3251C5.74005 18.2101 5.90505 18.0651 6.05505 17.9051L9.84505 20.1351C9.79005 20.3301 9.75005 20.5351 9.75005 20.7501C9.75005 21.9901 10.76 23.0001 12 23.0001C13.24 23.0001 14.25 21.9901 14.25 20.7501C14.25 20.5351 14.21 20.3301 14.155 20.1351L17.945 17.9051C18.095 18.0651 18.26 18.2101 18.455 18.3251C18.81 18.5301 19.195 18.6251 19.575 18.6251C20.355 18.6251 21.11 18.2201 21.53 17.5001C22.15 16.4251 21.78 15.0451 20.705 14.4251ZM17.385 8.07512L13.705 10.5451C13.29 10.0601 12.685 9.75012 12 9.75012C11.315 9.75012 10.71 10.0651 10.295 10.5451L6.61505 8.07512C6.65505 7.88012 6.68005 7.68012 6.66505 7.48012L10.715 5.09512C11.08 5.35012 11.52 5.50012 11.995 5.50012C12.47 5.50012 12.91 5.35012 13.275 5.09512L17.325 7.47512C17.31 7.67512 17.335 7.87512 17.375 8.07012L17.385 8.07512ZM12.005 12.7501C11.59 12.7501 11.255 12.4151 11.255 12.0001C11.255 11.5851 11.59 11.2501 12.005 11.2501C12.42 11.2501 12.755 11.5851 12.755 12.0001C12.755 12.4151 12.42 12.7501 12.005 12.7501ZM6.37505 15.2501C6.16505 14.8851 5.86505 14.6051 5.50505 14.4051V9.59012C5.62505 9.52512 5.74505 9.44512 5.85005 9.36012L9.75505 11.9851C9.75505 11.9851 9.75505 11.9951 9.75505 12.0001C9.75505 12.9751 10.385 13.8001 11.255 14.1101V18.6351C11.065 18.7051 10.885 18.7901 10.725 18.9001L6.67505 16.5201C6.70505 16.0801 6.60505 15.6401 6.38005 15.2501H6.37505ZM12.755 18.6401V14.1151C13.625 13.8051 14.255 12.9801 14.255 12.0051C14.255 12.0051 14.255 11.9951 14.255 11.9901L18.16 9.36512C18.265 9.45512 18.385 9.53012 18.505 9.59512V14.4101C18.145 14.6051 17.845 14.8901 17.635 15.2551C17.41 15.6451 17.31 16.0851 17.34 16.5301L13.29 18.9151C13.13 18.8001 12.95 18.7151 12.76 18.6501L12.755 18.6401ZM18.86 7.43512C18.91 7.24012 19.035 7.08012 19.21 6.98012C19.33 6.91012 19.455 6.88012 19.585 6.88012C19.845 6.88012 20.095 7.01512 20.235 7.25512C20.44 7.61512 20.32 8.07512 19.96 8.28012C19.785 8.38012 19.585 8.40512 19.39 8.35512C19.195 8.30512 19.035 8.18012 18.935 8.00512C18.835 7.83012 18.81 7.63012 18.86 7.43512ZM12.005 2.50512C12.42 2.50512 12.755 2.84012 12.755 3.25512C12.755 3.67012 12.42 4.00512 12.005 4.00512C11.59 4.00512 11.255 3.67012 11.255 3.25512C11.255 2.84012 11.59 2.50512 12.005 2.50512ZM3.77005 7.25012C3.91005 7.01012 4.16005 6.87512 4.42005 6.87512C4.54505 6.87512 4.67505 6.90512 4.79505 6.97512C4.97005 7.07512 5.09005 7.23512 5.14505 7.43012C5.19505 7.62512 5.17005 7.82512 5.07005 8.00012C4.97005 8.17512 4.81005 8.29512 4.61505 8.35012C4.42505 8.40012 4.22005 8.37512 4.04505 8.27512C3.68505 8.07012 3.56505 7.61012 3.77005 7.25012ZM5.14505 16.5701C5.09505 16.7651 4.97005 16.9251 4.79505 17.0251C4.43505 17.2301 3.97505 17.1101 3.77005 16.7501C3.56505 16.3901 3.68505 15.9301 4.04505 15.7251C4.22005 15.6251 4.42005 15.6001 4.61505 15.6501C4.81005 15.7001 4.97005 15.8251 5.07005 16.0001C5.17005 16.1751 5.19505 16.3751 5.14505 16.5701ZM12 21.5001C11.585 21.5001 11.25 21.1651 11.25 20.7501C11.25 20.3351 11.585 20.0001 12 20.0001C12.415 20.0001 12.75 20.3351 12.75 20.7501C12.75 21.1651 12.415 21.5001 12 21.5001ZM20.23 16.7501C20.025 17.1101 19.565 17.2301 19.205 17.0251C19.03 16.9251 18.91 16.7651 18.855 16.5701C18.805 16.3751 18.83 16.1751 18.93 16.0001C19.03 15.8251 19.19 15.7051 19.385 15.6501C19.58 15.6001 19.78 15.6251 19.955 15.7251C20.315 15.9301 20.435 16.3901 20.23 16.7501Z" fill="black"/>
</g>
<defs>
<clipPath id="clip0_2459_4867">
<rect width="24" height="24" fill="white"/>
</clipPath>
</defs>
</svg>
