<svg width="24" height="24" viewBox="0 0 24 24" fill="none" xmlns="http://www.w3.org/2000/svg">
<g clip-path="url(#clip0_4711_22928)">
<path d="M12 6.75C13.38 6.75 14.5 5.63 14.5 4.25C14.5 2.87 13.38 1.75 12 1.75C10.62 1.75 9.5 2.87 9.5 4.25C9.5 5.63 10.62 6.75 12 6.75ZM12 3.25C12.55 3.25 13 3.7 13 4.25C13 4.8 12.55 5.25 12 5.25C11.45 5.25 11 4.8 11 4.25C11 3.7 11.45 3.25 12 3.25Z" fill="black"/>
<path d="M20 18.0001V14.2501H12.75V11.7501H16.25V8.63512L15.91 8.41512C13.535 6.85512 10.465 6.85512 8.09 8.41512L7.75 8.63512V11.7501H11.25V14.2501H4V18.0001H2.5V22.5001H7V18.0001H5.5V15.7501H11.25V18.0001H9.75V22.5001H14.25V18.0001H12.75V15.7501H18.5V18.0001H17V22.5001H21.5V18.0001H20ZM9.25 9.46512C10.96 8.51012 13.04 8.51012 14.75 9.46512V10.2501H9.25V9.46512ZM5.5 21.0001H4V19.5001H5.5V21.0001ZM12.75 21.0001H11.25V19.5001H12.75V21.0001ZM20 21.0001H18.5V19.5001H20V21.0001Z" fill="black"/>
</g>
<defs>
<clipPath id="clip0_4711_22928">
<rect width="24" height="24" fill="white"/>
</clipPath>
</defs>
</svg>
