<svg width="24" height="24" viewBox="0 0 24 24" fill="none" xmlns="http://www.w3.org/2000/svg">
<g clip-path="url(#clip0_4711_21459)">
<path d="M6.46997 12.9702L7.52997 14.0302L11.25 10.3102V23.0002H12.75V10.3102L16.47 14.0302L17.53 12.9702L12 7.44019L6.46997 12.9702Z" fill="black"/>
<path d="M19.78 4.2201C15.49 -0.0649023 8.50998 -0.0649023 4.21998 4.2201C-0.0650244 8.5101 -0.0650244 15.4901 4.21998 19.7801L5.27998 18.7201C1.57498 15.0151 1.57498 8.9901 5.27998 5.2851C8.98498 1.5801 15.01 1.5801 18.715 5.2851C22.42 8.9901 22.42 15.0151 18.715 18.7201L19.775 19.7801C24.065 15.4901 24.065 8.5151 19.775 4.2251L19.78 4.2201Z" fill="black"/>
</g>
<defs>
<clipPath id="clip0_4711_21459">
<rect width="24" height="24" fill="white"/>
</clipPath>
</defs>
</svg>
