<svg width="24" height="24" viewBox="0 0 24 24" fill="none" xmlns="http://www.w3.org/2000/svg">
<g clip-path="url(#clip0_4711_19892)">
<path d="M12 1C5.925 1 1 5.925 1 12C1 18.075 5.925 23 12 23C18.075 23 23 18.075 23 12C23 5.925 18.075 1 12 1ZM12 21.5C6.76 21.5 2.5 17.24 2.5 12C2.5 6.76 6.76 2.5 12 2.5C17.24 2.5 21.5 6.76 21.5 12C21.5 17.24 17.24 21.5 12 21.5Z" fill="black"/>
<path d="M12.895 5.08509C11.55 4.82509 10.18 5.16509 9.14 6.02509C8.1 6.88509 7.5 8.15009 7.5 9.50009H9C9 8.60009 9.4 7.75509 10.095 7.18509C10.8 6.60509 11.69 6.38009 12.61 6.56009C13.775 6.78509 14.715 7.72509 14.94 8.89009C15.22 10.3401 14.44 11.7751 13.075 12.3001C11.965 12.7251 11.245 13.7451 11.245 14.8901V15.5001H12.745V14.8901C12.745 14.3701 13.085 13.9051 13.61 13.7001C15.65 12.9151 16.83 10.7701 16.405 8.60509C16.065 6.84509 14.65 5.43009 12.885 5.08509H12.895Z" fill="black"/>
<path d="M12 19C12.5523 19 13 18.5523 13 18C13 17.4477 12.5523 17 12 17C11.4477 17 11 17.4477 11 18C11 18.5523 11.4477 19 12 19Z" fill="black"/>
</g>
<defs>
<clipPath id="clip0_4711_19892">
<rect width="24" height="24" fill="white"/>
</clipPath>
</defs>
</svg>
