<svg width="24" height="24" viewBox="0 0 24 24" fill="none" xmlns="http://www.w3.org/2000/svg">
<g clip-path="url(#clip0_2930_8771)">
<path d="M21 7.25H16.25V3.25C16.25 2.01 15.24 1 14 1H5C3.76 1 2.75 2.01 2.75 3.25V20.75C2.75 21.99 3.76 23 5 23H14C15.24 23 16.25 21.99 16.25 20.75V17.25H21C21.69 17.25 22.25 16.69 22.25 16V8.5C22.25 7.81 21.69 7.25 21 7.25ZM20.75 9.75H9.75V8.75H20.75V9.75ZM7 2.5H12V3.75H7V2.5ZM14.75 20.75C14.75 21.165 14.415 21.5 14 21.5H5C4.585 21.5 4.25 21.165 4.25 20.75V3.25C4.25 2.835 4.585 2.5 5 2.5H5.5V4C5.5 4.69 6.06 5.25 6.75 5.25H12.25C12.94 5.25 13.5 4.69 13.5 4V2.5H14C14.415 2.5 14.75 2.835 14.75 3.25V7.25H9.5C8.81 7.25 8.25 7.81 8.25 8.5V16C8.25 16.69 8.81 17.25 9.5 17.25H14.75V20.75ZM9.75 15.75V11.25H20.75V15.75H9.75Z" fill="black"/>
<path d="M12.75 13.25H11.75C11.335 13.25 11 13.585 11 14C11 14.415 11.335 14.75 11.75 14.75H12.75C13.165 14.75 13.5 14.415 13.5 14C13.5 13.585 13.165 13.25 12.75 13.25Z" fill="black"/>
</g>
<defs>
<clipPath id="clip0_2930_8771">
<rect width="24" height="24" fill="white"/>
</clipPath>
</defs>
</svg>
