<svg width="24" height="24" viewBox="0 0 24 24" fill="none" xmlns="http://www.w3.org/2000/svg">
<g clip-path="url(#clip0_4711_21453)">
<path d="M16 7.74991H21.75V1.99991H20.25V5.11491C20.045 4.86991 19.83 4.62991 19.6 4.39991C15.41 0.204912 8.59001 0.204912 4.40001 4.39991C0.210007 8.59491 0.210007 15.4099 4.40001 19.6049C6.49501 21.6999 9.25001 22.7499 12 22.7499C14.75 22.7499 17.505 21.6999 19.6 19.6049L18.54 18.5449C14.935 22.1499 9.06501 22.1499 5.46001 18.5449C3.71501 16.7999 2.75001 14.4749 2.75001 12.0049C2.75001 9.53491 3.71001 7.20991 5.46001 5.46491C9.06501 1.85991 14.935 1.85991 18.54 5.46491C18.79 5.71491 19.02 5.97991 19.24 6.25491H16V7.75491V7.74991Z" fill="black"/>
</g>
<defs>
<clipPath id="clip0_4711_21453">
<rect width="24" height="24" fill="white"/>
</clipPath>
</defs>
</svg>
