<svg width="24" height="24" viewBox="0 0 24 24" fill="none" xmlns="http://www.w3.org/2000/svg">
<g clip-path="url(#clip0_4711_22558)">
<path d="M23 8.75H20V5.75H1V18.25H20V15.25H23V8.75ZM18.5 16.75H2.5V7.25H18.5V16.75ZM21.5 13.75H20V10.25H21.5V13.75Z" fill="black"/>
<path d="M4.5 12.75H9.375V14.5C9.375 14.54 9.395 14.58 9.43 14.605C9.45 14.62 9.475 14.625 9.5 14.625C9.515 14.625 9.535 14.625 9.55 14.615L16.55 11.49C16.605 11.465 16.635 11.405 16.62 11.35C16.61 11.29 16.555 11.25 16.5 11.25H11.625V9.49999C11.625 9.45999 11.605 9.41999 11.57 9.39499C11.535 9.36999 11.49 9.36999 11.45 9.38499L4.45 12.51C4.395 12.535 4.365 12.595 4.38 12.65C4.39 12.71 4.445 12.75 4.5 12.75Z" fill="black"/>
</g>
<defs>
<clipPath id="clip0_4711_22558">
<rect width="24" height="24" fill="white"/>
</clipPath>
</defs>
</svg>
