<svg width="24" height="24" viewBox="0 0 24 24" fill="none" xmlns="http://www.w3.org/2000/svg">
<g clip-path="url(#clip0_2459_4883)">
<path d="M21 4.25C21 2.46 19.54 1 17.75 1C15.96 1 14.5 2.46 14.5 4.25C14.5 5.785 15.57 7.07 17 7.41V8C17 9.79 15.54 11.25 13.75 11.25H10.25C8.99 11.25 7.85 11.745 7 12.545V7.41C8.43 7.07 9.5 5.785 9.5 4.25C9.5 2.46 8.04 1 6.25 1C4.46 1 3 2.46 3 4.25C3 5.785 4.07 7.07 5.5 7.41V16.59C4.07 16.93 3 18.215 3 19.75C3 21.54 4.46 23 6.25 23C8.04 23 9.5 21.54 9.5 19.75C9.5 18.215 8.43 16.93 7 16.59V16C7 14.21 8.46 12.75 10.25 12.75H13.75C16.37 12.75 18.5 10.62 18.5 8V7.41C19.93 7.07 21 5.785 21 4.25ZM4.5 4.25C4.5 3.285 5.285 2.5 6.25 2.5C7.215 2.5 8 3.285 8 4.25C8 5.215 7.215 6 6.25 6C5.285 6 4.5 5.215 4.5 4.25ZM8 19.75C8 20.715 7.215 21.5 6.25 21.5C5.285 21.5 4.5 20.715 4.5 19.75C4.5 18.785 5.285 18 6.25 18C7.215 18 8 18.785 8 19.75ZM17.75 6C16.785 6 16 5.215 16 4.25C16 3.285 16.785 2.5 17.75 2.5C18.715 2.5 19.5 3.285 19.5 4.25C19.5 5.215 18.715 6 17.75 6Z" fill="black"/>
</g>
<defs>
<clipPath id="clip0_2459_4883">
<rect width="24" height="24" fill="white"/>
</clipPath>
</defs>
</svg>
