<svg width="24" height="24" viewBox="0 0 24 24" fill="none" xmlns="http://www.w3.org/2000/svg">
<g clip-path="url(#clip0_4711_23581)">
<path d="M21.125 2H2.875C2.39 2 2 2.39 2 2.875V15.5C2 16.05 2.45 16.5 3 16.5H5V22L10.5 16.5H21.125C21.61 16.5 22 16.11 22 15.625V2.875C22 2.39 21.61 2 21.125 2ZM20.5 15H9.88L9.44 15.44L6.5 18.38V15H3.5V3.5H20.5V15Z" fill="black"/>
<path d="M12 13C12.4142 13 12.75 12.6642 12.75 12.25C12.75 11.8358 12.4142 11.5 12 11.5C11.5858 11.5 11.25 11.8358 11.25 12.25C11.25 12.6642 11.5858 13 12 13Z" fill="black"/>
<path d="M12 6.50009C12.735 6.50009 13.32 7.13509 13.245 7.88009C13.18 8.53009 12.58 9.00009 11.93 9.00009H11.755C11.48 9.00009 11.255 9.22509 11.255 9.50009V10.5001H12.755V10.3951C14.065 10.0251 14.985 8.70009 14.705 7.22009C14.505 6.15509 13.66 5.28509 12.6 5.06009C10.825 4.68509 9.255 6.03509 9.255 7.74509H10.755C10.755 7.05509 11.315 6.49509 12.005 6.49509L12 6.50009Z" fill="black"/>
</g>
<defs>
<clipPath id="clip0_4711_23581">
<rect width="24" height="24" fill="white"/>
</clipPath>
</defs>
</svg>
