<svg width="25" height="24" viewBox="0 0 25 24" fill="none" xmlns="http://www.w3.org/2000/svg">
<g clip-path="url(#clip0_2459_7600)">
<path d="M16.06 7.74991H21.81V1.99991H20.31V5.11491C20.105 4.86991 19.89 4.62991 19.66 4.39991C15.47 0.204912 8.65 0.204912 4.46 4.39991C0.270005 8.59491 0.270005 15.4099 4.46 19.6049C6.55501 21.6999 9.31001 22.7499 12.06 22.7499C14.81 22.7499 17.565 21.6999 19.66 19.6049L18.6 18.5449C14.995 22.1499 9.125 22.1499 5.52 18.5449C3.775 16.7999 2.81 14.4749 2.81 12.0049C2.81 9.53491 3.77 7.20991 5.52 5.46491C9.125 1.85991 14.995 1.85991 18.6 5.46491C18.85 5.71491 19.08 5.97991 19.3 6.25491H16.06V7.75491V7.74991Z" fill="black"/>
<path d="M16.56 12.75V11.25H15.22C15.14 10.89 15.015 10.6 14.825 10.295L15.775 9.345L14.715 8.285L13.765 9.235C13.46 9.045 13.175 8.92 12.81 8.84V7.5H11.31V8.84C10.95 8.92 10.66 9.045 10.355 9.235L9.405 8.285L8.345 9.345L9.295 10.295C9.105 10.6 8.98 10.885 8.9 11.25H7.56V12.75H8.9C8.98 13.11 9.105 13.395 9.295 13.7L8.345 14.65L9.405 15.71L10.355 14.76C10.66 14.95 10.945 15.075 11.31 15.155V16.495H12.81V15.155C13.17 15.075 13.46 14.95 13.765 14.76L14.715 15.71L15.775 14.68L14.825 13.7C15.015 13.395 15.14 13.11 15.22 12.745H16.56V12.75ZM12.065 13.755C11.1 13.755 10.315 12.97 10.315 12.005C10.315 11.04 11.1 10.255 12.065 10.255C13.03 10.255 13.815 11.04 13.815 12.005C13.815 12.97 13.03 13.755 12.065 13.755Z" fill="black"/>
</g>
<defs>
<clipPath id="clip0_2459_7600">
<rect width="24" height="24" fill="white" transform="translate(0.0599976)"/>
</clipPath>
</defs>
</svg>
