<svg width="24" height="24" viewBox="0 0 24 24" fill="none" xmlns="http://www.w3.org/2000/svg">
<g clip-path="url(#clip0_4711_22532)">
<path d="M7.25 20.3899L5 19.4899V16.4299L2.5 14.0549V12.7499H4V11.2499H2.5V9.94489L5 7.56989V4.50989L7.25 3.60989V4.74989H8.75V1.38989L3.5 3.48989V6.92989L1 9.30489V14.6949L3.5 17.0699V20.5099L8.75 22.6099V19.2499H7.25V20.3899Z" fill="black"/>
<path d="M20.5 6.92989V3.48989L15.25 1.38989V4.74989H16.75V3.60989L19 4.50989V7.56989L21.5 9.94489V11.2499H20V12.7499H21.5V14.0549L19 16.4299V19.4899L16.75 20.3899V19.2499H15.25V22.6099L20.5 20.5099V17.0699L23 14.6949V9.30489L20.5 6.92989Z" fill="black"/>
<path d="M15.75 15.75V14.25H17.25V12.75H15.75V11.25H17.25V9.75H15.75V8.25H14.25V6.75H12.75V8.25H11.25V6.75H9.75V8.25H8.25V9.75H6.75V11.25H8.25V12.75H6.75V14.25H8.25V15.75H9.75V17.25H11.25V15.75H12.75V17.25H14.25V15.75H15.75ZM9.75 9.75H14.25V14.25H9.75V9.75Z" fill="black"/>
<path d="M13 11H11V13H13V11Z" fill="black"/>
</g>
<defs>
<clipPath id="clip0_4711_22532">
<rect width="24" height="24" fill="white"/>
</clipPath>
</defs>
</svg>
