<svg width="24" height="24" viewBox="0 0 24 24" fill="none" xmlns="http://www.w3.org/2000/svg">
<g clip-path="url(#clip0_4711_19177)">
<path d="M18.25 11C20.04 11 21.5 9.54 21.5 7.75V5.25H20V7.75C20 8.715 19.215 9.5 18.25 9.5H17.455C17.14 8.835 16.735 8.25 16.25 7.76V7C16.25 4.38 14.345 2.25 12 2.25C9.655 2.25 7.75 4.38 7.75 7V7.76C7.27 8.255 6.865 8.84 6.545 9.5H5.75C4.785 9.5 4 8.715 4 7.75V5.25H2.5V7.75C2.5 9.54 3.96 11 5.75 11H6.01C5.86 11.625 5.775 12.295 5.76 13H2.5V14.5H5.83C5.91 15.2 6.05 15.87 6.26 16.5H5.755C3.965 16.5 2.505 17.96 2.505 19.75V22.25H4.005V19.75C4.005 18.785 4.79 18 5.755 18H6.905C8.04 20.115 9.9 21.5 12.005 21.5C14.11 21.5 15.975 20.115 17.105 18H18.255C19.22 18 20.005 18.785 20.005 19.75V22.25H21.505V19.75C21.505 17.96 20.045 16.5 18.255 16.5H17.75C17.955 15.87 18.095 15.2 18.18 14.5H21.51V13H18.25C18.235 12.295 18.15 11.625 18 11H18.26H18.25ZM12 3.75C13.415 3.75 14.58 5.015 14.73 6.64C13.92 6.23 13.005 6 12 6C10.995 6 10.08 6.23 9.27 6.64C9.425 5.015 10.59 3.75 12 3.75ZM12.75 19.905V11.25H11.25V19.905C8.985 19.39 7.25 16.605 7.25 13.25C7.25 11.105 7.995 9.395 9.245 8.415H9.25C10 7.825 10.935 7.5 12 7.5C14.84 7.5 16.75 9.81 16.75 13.25C16.75 16.69 15.015 19.395 12.75 19.905Z" fill="black"/>
</g>
<defs>
<clipPath id="clip0_4711_19177">
<rect width="24" height="24" fill="white"/>
</clipPath>
</defs>
</svg>
