<svg width="24" height="24" viewBox="0 0 24 24" fill="none" xmlns="http://www.w3.org/2000/svg">
<g clip-path="url(#clip0_4711_19863)">
<path d="M11.9399 1L1.18994 11.75L12.2499 22.81L22.9999 12.06V1H11.9399ZM21.4999 11.44L12.2499 20.69L3.30994 11.75L12.5599 2.5H21.4999V11.44Z" fill="black"/>
<path d="M17.25 9.5C18.765 9.5 20 8.265 20 6.75C20 5.235 18.765 4 17.25 4C15.735 4 14.5 5.235 14.5 6.75C14.5 8.265 15.735 9.5 17.25 9.5ZM17.25 5.5C17.94 5.5 18.5 6.06 18.5 6.75C18.5 7.44 17.94 8 17.25 8C16.56 8 16 7.44 16 6.75C16 6.06 16.56 5.5 17.25 5.5Z" fill="black"/>
</g>
<defs>
<clipPath id="clip0_4711_19863">
<rect width="24" height="24" fill="white"/>
</clipPath>
</defs>
</svg>
