<svg width="24" height="24" viewBox="0 0 24 24" fill="none" xmlns="http://www.w3.org/2000/svg">
<g clip-path="url(#clip0_4711_19161)">
<path d="M21 14.75V11H12.75V8.75H15.75V4.25H8.25V8.75H11.25V11H3V14.75H1V19.25H6.5V14.75H4.5V12.5H11.25V14.75H9.25V19.25H14.75V14.75H12.75V12.5H19.5V14.75H17.5V19.25H23V14.75H21ZM9.75 5.75H14.25V7.25H9.75V5.75ZM5 17.75H2.5V16.25H5V17.75ZM13.25 17.75H10.75V16.25H13.25V17.75ZM21.5 17.75H19V16.25H21.5V17.75Z" fill="black"/>
</g>
<defs>
<clipPath id="clip0_4711_19161">
<rect width="24" height="24" fill="white"/>
</clipPath>
</defs>
</svg>
