<svg width="24" height="24" viewBox="0 0 24 24" fill="none" xmlns="http://www.w3.org/2000/svg">
<g clip-path="url(#clip0_4711_24239)">
<path d="M21.2 18.565L15.725 9.25V3.25H17.25V1.75H6.75001V3.25H8.27501V9.25L2.80001 18.565C1.91001 20.23 3.10501 22.25 4.98501 22.25H19.015C20.895 22.25 22.09 20.23 21.2 18.565ZM9.57001 10.01L9.77501 9.66V3.25H14.22V9.66L14.425 10.01L16.92 14.25H7.07501L9.57001 10.01ZM19.855 20.27C19.77 20.415 19.515 20.75 19.015 20.75H4.98501C4.48501 20.75 4.23501 20.415 4.14501 20.27C4.06001 20.125 3.88001 19.74 4.11001 19.295L6.19501 15.75H17.805L19.89 19.295C20.12 19.745 19.94 20.125 19.855 20.27Z" fill="black"/>
</g>
<defs>
<clipPath id="clip0_4711_24239">
<rect width="24" height="24" fill="white"/>
</clipPath>
</defs>
</svg>
