<svg width="24" height="24" viewBox="0 0 24 24" fill="none" xmlns="http://www.w3.org/2000/svg">
<g clip-path="url(#clip0_2459_6142)">
<path d="M11.94 1L3.365 9.575C2.155 9.86 1.25 10.935 1.25 12.215V13.06H2.75V12.215C2.75 11.545 3.31 10.995 4 10.995C4.69 10.995 5.25 11.54 5.25 12.215V13.995H4V20.495H9.94L12.25 22.805L23 12.055V1H11.94ZM5.5 15.5H10.5V19H5.5V15.5ZM21.5 11.44L12.25 20.69L12 20.44V14H6.75V12.22C6.75 11.17 6.14 10.255 5.255 9.805L12.56 2.5H21.5V11.44Z" fill="black"/>
<path d="M17.25 9.5C18.765 9.5 20 8.265 20 6.75C20 5.235 18.765 4 17.25 4C15.735 4 14.5 5.235 14.5 6.75C14.5 8.265 15.735 9.5 17.25 9.5ZM17.25 5.5C17.94 5.5 18.5 6.06 18.5 6.75C18.5 7.44 17.94 8 17.25 8C16.56 8 16 7.44 16 6.75C16 6.06 16.56 5.5 17.25 5.5Z" fill="black"/>
</g>
<defs>
<clipPath id="clip0_2459_6142">
<rect width="24" height="24" fill="white"/>
</clipPath>
</defs>
</svg>
