<svg width="24" height="24" viewBox="0 0 24 24" fill="none" xmlns="http://www.w3.org/2000/svg">
<g clip-path="url(#clip0_4711_19157)">
<path d="M18 9C18.5523 9 19 8.55228 19 8C19 7.44772 18.5523 7 18 7C17.4477 7 17 7.44772 17 8C17 8.55228 17.4477 9 18 9Z" fill="black"/>
<path d="M15 9C15.5523 9 16 8.55228 16 8C16 7.44772 15.5523 7 15 7C14.4477 7 14 7.44772 14 8C14 8.55228 14.4477 9 15 9Z" fill="black"/>
<path d="M22 12V4H2V12H11.25V15.89C10.615 16.115 10.115 16.615 9.89 17.25H4V18.75H9.89C10.2 19.62 11.025 20.25 12 20.25C12.975 20.25 13.8 19.62 14.11 18.75H20V17.25H14.11C13.885 16.615 13.385 16.115 12.75 15.89V12H22ZM12 18.75C11.585 18.75 11.25 18.415 11.25 18C11.25 17.585 11.585 17.25 12 17.25C12.415 17.25 12.75 17.585 12.75 18C12.75 18.415 12.415 18.75 12 18.75ZM3.5 5.5H20.5V10.5H3.5V5.5Z" fill="black"/>
</g>
<defs>
<clipPath id="clip0_4711_19157">
<rect width="24" height="24" fill="white"/>
</clipPath>
</defs>
</svg>
