<svg width="24" height="24" viewBox="0 0 24 24" fill="none" xmlns="http://www.w3.org/2000/svg">
<g clip-path="url(#clip0_4711_19860)">
<path d="M21.565 2.245L20.44 1.255L17.81 4.25H15.755V3C15.755 2.02 14.765 1.25 13.505 1.25H10.505C9.245 1.25 8.255 2.02 8.255 3V4.25H3V5.75H4.295L5.06 18.77L2.44 21.755L3.565 22.745L5.185 20.9L5.295 22.75H18.71L19.71 5.75H21.005V4.25H19.81L21.57 2.245H21.565ZM9.75 3.02C9.78 2.945 10.05 2.75 10.505 2.75H13.505C13.955 2.75 14.225 2.945 14.255 3V4.25H9.755V3.02H9.75ZM5.8 5.75H16.495L10.755 12.285V9.25H9.255V13.995L6.47 17.165L5.8 5.75ZM6.71 21.25L6.595 19.295L9.255 16.27V17.75H10.755V14.56L13.255 11.715V17.75H14.755V10.005L18.19 6.095L17.3 21.25H6.705H6.71Z" fill="black"/>
</g>
<defs>
<clipPath id="clip0_4711_19860">
<rect width="24" height="24" fill="white"/>
</clipPath>
</defs>
</svg>
