<svg width="24" height="24" viewBox="0 0 24 24" fill="none" xmlns="http://www.w3.org/2000/svg">
<g clip-path="url(#clip0_4711_22581)">
<path d="M21.25 3.25H2.75V17.25H21.25V3.25ZM19.75 15.75H4.25V4.75H19.75V15.75Z" fill="black"/>
<path d="M23 19.25H1V20.75H23V19.25Z" fill="black"/>
<path d="M11.655 14.6651L12 14.8451L12.345 14.6651C12.695 14.4851 15.75 12.8301 15.75 10.5001V7.65507L12 6.19507L8.25 7.65507V10.5001C8.25 12.8351 11.305 14.4851 11.655 14.6651ZM9.75 8.68007L12 7.80507L14.25 8.68007V10.5001C14.25 11.5401 12.825 12.6301 12 13.1351C11.175 12.6251 9.75 11.5401 9.75 10.5001V8.68007Z" fill="black"/>
</g>
<defs>
<clipPath id="clip0_4711_22581">
<rect width="24" height="24" fill="white"/>
</clipPath>
</defs>
</svg>
