<svg width="24" height="24" viewBox="0 0 24 24" fill="none" xmlns="http://www.w3.org/2000/svg">
<g clip-path="url(#clip0_4711_19940)">
<path d="M22.99 7.89996C22.9 6.20996 22.08 4.62496 20.745 3.55996C18.675 1.90496 15.72 1.80996 13.555 3.32996C12.93 3.76996 12.405 4.30496 11.995 4.92496C11.585 4.30996 11.06 3.76996 10.435 3.32996C8.27 1.80996 5.315 1.90496 3.245 3.55996C1.91 4.62996 1.09 6.20996 0.999998 7.89996C0.909998 9.58996 1.545 11.245 2.735 12.425L11.99 22.085L21.23 12.44C22.435 11.245 23.07 9.58996 22.98 7.89996H22.99ZM20.17 11.39L12 19.92L3.815 11.375C2.915 10.48 2.44 9.24496 2.505 7.97996C2.575 6.69996 3.17 5.54496 4.19 4.72996C5.005 4.07496 6.005 3.74996 7.005 3.74996C7.905 3.74996 8.81 4.01996 9.58 4.55996C10.365 5.10996 10.94 5.86996 11.25 6.75996C11.365 7.07996 11.665 7.29496 12 7.29496C12.34 7.29496 12.64 7.07496 12.75 6.75996C13.06 5.87496 13.635 5.11496 14.42 4.56496C16.04 3.42496 18.26 3.49496 19.81 4.73996C20.825 5.55496 21.425 6.70996 21.495 7.98996C21.56 9.25496 21.085 10.49 20.17 11.4V11.39Z" fill="black"/>
</g>
<defs>
<clipPath id="clip0_4711_19940">
<rect width="24" height="24" fill="white"/>
</clipPath>
</defs>
</svg>
