<svg width="24" height="24" viewBox="0 0 24 24" fill="none" xmlns="http://www.w3.org/2000/svg">
<g clip-path="url(#clip0_4711_24232)">
<path d="M1.25 4V19.5H22.75V4H1.25ZM21.75 18.5H2.25V5H21.75V18.5Z" fill="black"/>
<path d="M12.9999 14.4349C14.4649 14.4399 15.4199 13.7149 15.4299 12.5999C15.4399 11.9899 15.0599 11.5199 14.2599 11.1399C13.7699 10.8899 13.4699 10.7249 13.4699 10.4749C13.4799 10.2449 13.7249 10.0099 14.2749 10.0099C14.7299 9.99988 15.0599 10.1049 15.3099 10.2149L15.4399 10.2749L15.6299 9.10988C15.3549 9.00488 14.9149 8.87988 14.3799 8.87988C12.9999 8.87988 12.0299 9.61488 12.0249 10.6599C12.0149 11.4299 12.7199 11.8599 13.2449 12.1199C13.7849 12.3849 13.9699 12.5549 13.9699 12.7899C13.9599 13.1499 13.5299 13.3149 13.1299 13.3149C12.5749 13.3149 12.2799 13.2249 11.8249 13.0249L11.6399 12.9399L11.4449 14.1499C11.7699 14.2949 12.3749 14.4299 12.9999 14.4349Z" fill="black"/>
<path d="M16.79 14.36C16.79 14.36 17.03 13.695 17.085 13.555H18.875C18.915 13.745 19.04 14.36 19.04 14.36H20.335L19.21 8.97998H18.13C17.795 8.97998 17.54 9.07998 17.4 9.42998L15.325 14.36H16.79ZM18.04 10.945C18.04 10.945 18.155 10.625 18.225 10.43L18.325 10.895C18.325 10.895 18.585 12.18 18.645 12.45H17.485C17.6 12.145 18.04 10.945 18.04 10.945Z" fill="black"/>
<path d="M10.5751 14.36L11.4501 8.97998H10.0501L9.18005 14.36H10.5751Z" fill="black"/>
<path d="M5.81999 14.35H7.29499L9.48999 8.97998H8.01499L6.64999 12.65L6.49999 11.905L6.01499 9.43498C5.93499 9.09498 5.68999 8.99498 5.37999 8.97998H3.13499L3.10999 9.08998C3.65999 9.22998 4.14999 9.42998 4.57499 9.67998L5.81999 14.35Z" fill="black"/>
</g>
<defs>
<clipPath id="clip0_4711_24232">
<rect width="24" height="24" fill="white"/>
</clipPath>
</defs>
</svg>
