<svg width="24" height="24" viewBox="0 0 24 24" fill="none" xmlns="http://www.w3.org/2000/svg">
<g clip-path="url(#clip0_4711_22552)">
<path d="M12.75 19.25H11.25C10.835 19.25 10.5 19.585 10.5 20C10.5 20.415 10.835 20.75 11.25 20.75H12.75C13.165 20.75 13.5 20.415 13.5 20C13.5 19.585 13.165 19.25 12.75 19.25Z" fill="black"/>
<path d="M19.25 1H4.75C3.785 1 3 1.785 3 2.75V21.25C3 22.215 3.785 23 4.75 23H19.25C20.215 23 21 22.215 21 21.25V2.75C21 1.785 20.215 1 19.25 1ZM19.5 21.25C19.5 21.39 19.39 21.5 19.25 21.5H4.75C4.61 21.5 4.5 21.39 4.5 21.25V2.75C4.5 2.61 4.61 2.5 4.75 2.5H19.25C19.39 2.5 19.5 2.61 19.5 2.75V21.25Z" fill="black"/>
<path d="M12.595 5.3199C11.515 5.1099 10.415 5.3849 9.575 6.0749C8.735 6.7699 8.25 7.7949 8.25 8.8849H9.75C9.75 8.2449 10.035 7.6399 10.53 7.2349C11.03 6.8249 11.66 6.6699 12.31 6.7949C13.135 6.9549 13.8 7.6199 13.96 8.4499C14.16 9.4849 13.605 10.5049 12.64 10.8799C11.77 11.2149 11.255 12.0199 11.255 13.0299V13.4999H12.755V13.0299C12.755 12.7599 12.83 12.4149 13.18 12.2749C14.825 11.6399 15.77 9.9099 15.435 8.1599C15.16 6.7349 14.02 5.5949 12.6 5.3149L12.595 5.3199Z" fill="black"/>
<path d="M12 16C12.4142 16 12.75 15.6642 12.75 15.25C12.75 14.8358 12.4142 14.5 12 14.5C11.5858 14.5 11.25 14.8358 11.25 15.25C11.25 15.6642 11.5858 16 12 16Z" fill="black"/>
</g>
<defs>
<clipPath id="clip0_4711_22552">
<rect width="24" height="24" fill="white"/>
</clipPath>
</defs>
</svg>
