<svg width="24" height="24" viewBox="0 0 24 24" fill="none" xmlns="http://www.w3.org/2000/svg">
<g clip-path="url(#clip0_2459_7864)">
<path d="M12 1.5C8.795 1.5 5.925 2.935 4 5.2V1.75H2.5V7.75H8.5V6.25H5.09C6.74 4.265 9.22 3 12 3C16.965 3 21 7.035 21 12C21 16.965 16.965 21 12 21C8.735 21 5.87 19.255 4.295 16.64L3.005 17.42C4.845 20.465 8.185 22.5 12 22.5C17.8 22.5 22.5 17.8 22.5 12C22.5 6.2 17.8 1.5 12 1.5Z" fill="black"/>
<path d="M11.25 6V12.425L16.615 15.645L17.385 14.355L12.75 11.575V6H11.25Z" fill="black"/>
</g>
<defs>
<clipPath id="clip0_2459_7864">
<rect width="24" height="24" fill="white"/>
</clipPath>
</defs>
</svg>
