<svg width="25" height="24" viewBox="0 0 25 24" fill="none" xmlns="http://www.w3.org/2000/svg">
<g clip-path="url(#clip0_2459_7625)">
<path d="M22.36 20.27L18.965 14.395L17.67 15.145L19.76 18.77H13.37L14.84 17.3L13.78 16.24L10.5 19.52L13.78 22.8L14.84 21.74L13.37 20.27H22.36Z" fill="black"/>
<path d="M15.31 11.0651L13.305 10.5251L12.915 11.9751L17.395 13.1751L18.6 8.69506L17.15 8.30506L16.61 10.3151L12.06 2.43506L8.58002 8.46006L9.88002 9.21006L12.06 5.43506L15.31 11.0651Z" fill="black"/>
<path d="M8.06501 15.29L9.51001 14.905L8.31001 10.425L3.83001 11.625L4.22001 13.075L6.23001 12.535L1.76001 20.27H9.08001V18.77H4.36001L7.52501 13.285L8.06501 15.29Z" fill="black"/>
</g>
<defs>
<clipPath id="clip0_2459_7625">
<rect width="24" height="24" fill="white" transform="translate(0.0599976)"/>
</clipPath>
</defs>
</svg>
