<svg width="24" height="24" viewBox="0 0 24 24" fill="none" xmlns="http://www.w3.org/2000/svg">
<g clip-path="url(#clip0_2459_7617)">
<path d="M17.53 6.47L16.47 7.53L20.19 11.25H14.88C13.055 11.25 11.335 10.28 10.39 8.72L8.895 6.25C7.68 4.245 5.465 3 3.125 3H1V4.5H3.12C4.945 4.5 6.665 5.47 7.61 7.03L9.105 9.5C9.76 10.58 10.705 11.44 11.805 12C10.705 12.565 9.76 13.42 9.105 14.5L7.61 16.97C6.665 18.53 4.945 19.5 3.12 19.5H1V21H3.12C5.465 21 7.675 19.755 8.89 17.75L10.385 15.28C11.33 13.72 13.05 12.75 14.875 12.75H20.185L16.465 16.47L17.525 17.53L23.055 12L17.525 6.47H17.53Z" fill="black"/>
</g>
<defs>
<clipPath id="clip0_2459_7617">
<rect width="24" height="24" fill="white"/>
</clipPath>
</defs>
</svg>
