<svg width="24" height="24" viewBox="0 0 24 24" fill="none" xmlns="http://www.w3.org/2000/svg">
<g clip-path="url(#clip0_4711_23546)">
<path d="M14.5 5.25C13.71 5.25 12.955 5.395 12.25 5.645V2.25H3.75V21.75H12.25V18.355C12.955 18.605 13.71 18.75 14.5 18.75C18.22 18.75 21.25 15.72 21.25 12C21.25 8.28 18.22 5.25 14.5 5.25ZM10.75 20.25H5.25V3.75H10.75V6.39C8.945 7.6 7.75 9.665 7.75 12C7.75 14.335 8.945 16.395 10.75 17.61V20.25ZM14.5 17.25C11.605 17.25 9.25 14.895 9.25 12C9.25 9.105 11.605 6.75 14.5 6.75C17.395 6.75 19.75 9.105 19.75 12C19.75 14.895 17.395 17.25 14.5 17.25Z" fill="black"/>
<path d="M16.185 9.21997L14.465 10.94L12.745 9.21997L11.685 10.28L13.405 12L11.685 13.72L12.745 14.78L14.465 13.06L16.185 14.78L17.245 13.72L15.525 12L17.245 10.28L16.185 9.21997Z" fill="black"/>
</g>
<defs>
<clipPath id="clip0_4711_23546">
<rect width="24" height="24" fill="white"/>
</clipPath>
</defs>
</svg>
