<svg width="24" height="24" viewBox="0 0 24 24" fill="none" xmlns="http://www.w3.org/2000/svg">
<g clip-path="url(#clip0_4711_24222)">
<path d="M15.53 6.52997L14.47 5.46997L12 7.93997L9.52997 5.46997L8.46997 6.52997L12 10.06L15.53 6.52997Z" fill="black"/>
<path d="M8.46997 17.4699L9.52997 18.5299L12 16.0599L14.47 18.5299L15.53 17.4699L12 13.9399L8.46997 17.4699Z" fill="black"/>
<path d="M2 2V22H22V2H2ZM20.5 20.5H3.5V3.5H20.5V20.5Z" fill="black"/>
<path d="M17.5 11.25H15.5V12.75H17.5V11.25Z" fill="black"/>
<path d="M14.5 11.25H12.5V12.75H14.5V11.25Z" fill="black"/>
<path d="M11.5 11.25H9.5V12.75H11.5V11.25Z" fill="black"/>
<path d="M8.5 11.25H6.5V12.75H8.5V11.25Z" fill="black"/>
</g>
<defs>
<clipPath id="clip0_4711_24222">
<rect width="24" height="24" fill="white"/>
</clipPath>
</defs>
</svg>
