<svg width="24" height="24" viewBox="0 0 24 24" fill="none" xmlns="http://www.w3.org/2000/svg">
<g clip-path="url(#clip0_4711_23535)">
<path d="M18.27 9.37489L22.545 6.99989L12 1.13989L1.45502 6.99989L5.73002 9.37489L1.45502 11.7499L5.73002 14.1249L1.45502 16.4999L12 22.3599L22.545 16.4999L18.27 14.1249L22.545 11.7499L18.27 9.37489ZM12 2.85989L19.455 6.99989L12 11.1399L4.54502 6.99989L12 2.85989ZM7.27502 10.2349L12 12.8599L16.725 10.2349L19.455 11.7499L12 15.8899L4.54502 11.7499L7.27502 10.2349ZM19.455 16.4999L12 20.6399L4.54502 16.4999L7.27502 14.9849L12 17.6099L16.725 14.9849L19.455 16.4999Z" fill="black"/>
</g>
<defs>
<clipPath id="clip0_4711_23535">
<rect width="24" height="24" fill="white"/>
</clipPath>
</defs>
</svg>
