<svg width="24" height="24" viewBox="0 0 24 24" fill="none" xmlns="http://www.w3.org/2000/svg">
<g clip-path="url(#clip0_4711_24230)">
<path d="M22.25 9.75H23V3.75H1V9.75H1.75C2.99 9.75 4 10.76 4 12C4 13.24 2.99 14.25 1.75 14.25H1V20.25H23V14.25H22.25C21.01 14.25 20 13.24 20 12C20 10.76 21.01 9.75 22.25 9.75ZM21.5 15.675V18.75H2.5V15.675C4.21 15.325 5.5 13.81 5.5 12C5.5 10.19 4.21 8.675 2.5 8.325V5.25H21.5V8.325C19.79 8.675 18.5 10.19 18.5 12C18.5 13.81 19.79 15.325 21.5 15.675Z" fill="black"/>
<path d="M12.75 6.75H11.25V9.25H12.75V6.75Z" fill="black"/>
<path d="M12.75 10.75H11.25V13.25H12.75V10.75Z" fill="black"/>
<path d="M12.75 14.75H11.25V17.25H12.75V14.75Z" fill="black"/>
</g>
<defs>
<clipPath id="clip0_4711_24230">
<rect width="24" height="24" fill="white"/>
</clipPath>
</defs>
</svg>
