<svg width="24" height="24" viewBox="0 0 24 24" fill="none" xmlns="http://www.w3.org/2000/svg">
<g clip-path="url(#clip0_4711_24192)">
<path d="M12 1C11.88 1 11.765 1 11.645 1.01C7.71003 1.19 4.52503 4.52 4.50003 8.455C4.48503 10.825 5.57503 12.94 7.28503 14.325C7.72503 14.68 8.00003 15.205 8.00003 15.77V19C8.00003 21.21 9.79003 23 12 23C14.21 23 16 21.21 16 19V15.825C16 15.225 16.29 14.675 16.755 14.295C18.43 12.92 19.5 10.84 19.5 8.505C19.5 4.365 16.14 1.005 12 1.005V1ZM12 21.5C10.62 21.5 9.50003 20.38 9.50003 19V18H14.5V19C14.5 20.38 13.38 21.5 12 21.5ZM15.8 13.13C14.97 13.81 14.5 14.79 14.5 15.82V16.495H9.50003V15.765C9.50003 14.76 9.03503 13.81 8.23003 13.155C6.80503 12 5.99003 10.29 6.00003 8.46C6.02003 5.32 8.58003 2.645 11.715 2.505C11.81 2.505 11.905 2.5 12 2.5C15.31 2.5 18 5.19 18 8.5C18 10.3 17.2 11.985 15.8 13.13Z" fill="black"/>
<path d="M5.27998 1.77997L4.21998 0.719971C-0.0650244 5.00997 -0.0650244 11.99 4.21998 16.28L5.27998 15.22C1.57498 11.515 1.57498 5.48997 5.27998 1.78497V1.77997Z" fill="black"/>
<path d="M19.78 0.719971L18.72 1.77997C22.425 5.48497 22.425 11.51 18.72 15.215L19.78 16.275C24.07 11.985 24.07 5.00497 19.78 0.719971Z" fill="black"/>
</g>
<defs>
<clipPath id="clip0_4711_24192">
<rect width="24" height="24" fill="white"/>
</clipPath>
</defs>
</svg>
