<svg width="24" height="24" viewBox="0 0 24 24" fill="none" xmlns="http://www.w3.org/2000/svg">
<g clip-path="url(#clip0_2930_8713)">
<path d="M12 1C5.925 1 1 5.925 1 12C1 18.075 5.925 23 12 23C18.075 23 23 18.075 23 12C23 5.925 18.075 1 12 1ZM12 21.5C6.76 21.5 2.5 17.24 2.5 12C2.5 6.76 6.76 2.5 12 2.5C17.24 2.5 21.5 6.76 21.5 12C21.5 17.24 17.24 21.5 12 21.5Z" fill="black"/>
<path d="M7.25 16.75H16.75V7.25H7.25V16.75ZM8.75 8.75H15.25V15.25H8.75V8.75Z" fill="black"/>
</g>
<defs>
<clipPath id="clip0_2930_8713">
<rect width="24" height="24" fill="white"/>
</clipPath>
</defs>
</svg>
