<svg width="24" height="24" viewBox="0 0 24 24" fill="none" xmlns="http://www.w3.org/2000/svg">
<g clip-path="url(#clip0_2459_6148)">
<path d="M12.75 5.5H11.25V12.5H12.75V5.5Z" fill="black"/>
<path d="M12 1C5.925 1 1 5.925 1 12C1 18.075 5.925 23 12 23C18.075 23 23 18.075 23 12C23 5.925 18.075 1 12 1ZM12 21.5C6.76 21.5 2.5 17.24 2.5 12C2.5 6.76 6.76 2.5 12 2.5C17.24 2.5 21.5 6.76 21.5 12C21.5 17.24 17.24 21.5 12 21.5Z" fill="black"/>
<path d="M15.18 8.82001C16.935 10.575 16.935 13.43 15.18 15.185C13.425 16.94 10.57 16.94 8.815 15.185C7.06 13.43 7.06 10.575 8.815 8.82001L7.755 7.76001C5.415 10.1 5.415 13.905 7.755 16.245C8.925 17.415 10.46 18 12 18C13.54 18 15.075 17.415 16.245 16.245C18.585 13.905 18.585 10.1 16.245 7.76001L15.185 8.82001H15.18Z" fill="black"/>
</g>
<defs>
<clipPath id="clip0_2459_6148">
<rect width="24" height="24" fill="white"/>
</clipPath>
</defs>
</svg>
