<svg width="24" height="24" viewBox="0 0 24 24" fill="none" xmlns="http://www.w3.org/2000/svg">
<g clip-path="url(#clip0_4711_24178)">
<path d="M6.235 5.25L5.665 1.5H2.5V3H4.365L6.375 16.25H20.75L22.5 5.25H6.235ZM19.465 14.75H7.675L6.46 6.75H20.73L19.46 14.75H19.465Z" fill="black"/>
<path d="M9.25 17.5C7.87 17.5 6.75 18.62 6.75 20C6.75 21.38 7.87 22.5 9.25 22.5C10.63 22.5 11.75 21.38 11.75 20C11.75 18.62 10.63 17.5 9.25 17.5ZM9.25 21C8.7 21 8.25 20.55 8.25 20C8.25 19.45 8.7 19 9.25 19C9.8 19 10.25 19.45 10.25 20C10.25 20.55 9.8 21 9.25 21Z" fill="black"/>
<path d="M17.75 17.5C16.37 17.5 15.25 18.62 15.25 20C15.25 21.38 16.37 22.5 17.75 22.5C19.13 22.5 20.25 21.38 20.25 20C20.25 18.62 19.13 17.5 17.75 17.5ZM17.75 21C17.2 21 16.75 20.55 16.75 20C16.75 19.45 17.2 19 17.75 19C18.3 19 18.75 19.45 18.75 20C18.75 20.55 18.3 21 17.75 21Z" fill="black"/>
<path d="M12.815 13.75H14.32V11.5H16.585V10H14.32V7.75H12.815V10H10.55V11.5H12.815V13.75Z" fill="black"/>
</g>
<defs>
<clipPath id="clip0_4711_24178">
<rect width="24" height="24" fill="white"/>
</clipPath>
</defs>
</svg>
