<svg width="24" height="24" viewBox="0 0 24 24" fill="none" xmlns="http://www.w3.org/2000/svg">
<g clip-path="url(#clip0_2459_4862)">
<path d="M1 3V21H23V3H1ZM21.5 19.5H2.5V4.5H21.5V19.5Z" fill="black"/>
<path d="M4.25 7C4.66421 7 5 6.66421 5 6.25C5 5.83579 4.66421 5.5 4.25 5.5C3.83579 5.5 3.5 5.83579 3.5 6.25C3.5 6.66421 3.83579 7 4.25 7Z" fill="black"/>
<path d="M6.25 7C6.66421 7 7 6.66421 7 6.25C7 5.83579 6.66421 5.5 6.25 5.5C5.83579 5.5 5.5 5.83579 5.5 6.25C5.5 6.66421 5.83579 7 6.25 7Z" fill="black"/>
<path d="M8.25 7C8.66421 7 9 6.66421 9 6.25C9 5.83579 8.66421 5.5 8.25 5.5C7.83579 5.5 7.5 5.83579 7.5 6.25C7.5 6.66421 7.83579 7 8.25 7Z" fill="black"/>
<path d="M9.235 14.6999L8.285 15.6499L9.345 16.7099L10.295 15.7599C10.585 15.9399 10.905 16.0749 11.245 16.1549V17.4949H12.745V16.1549C13.085 16.0749 13.405 15.9399 13.695 15.7599L14.645 16.7099L15.705 15.6499L14.755 14.6999C14.935 14.4099 15.07 14.0899 15.15 13.7499H16.49V12.2499H15.15C15.07 11.9099 14.935 11.5899 14.755 11.2999L15.705 10.3499L14.645 9.28988L13.695 10.2399C13.405 10.0599 13.085 9.92488 12.745 9.84488V8.50488H11.245V9.84488C10.905 9.92488 10.585 10.0599 10.295 10.2399L9.345 9.28988L8.285 10.3499L9.235 11.2999C9.055 11.5899 8.92 11.9099 8.84 12.2499H7.5V13.7499H8.84C8.92 14.0899 9.055 14.4099 9.235 14.6999ZM12 11.2499C12.965 11.2499 13.75 12.0349 13.75 12.9999C13.75 13.9649 12.965 14.7499 12 14.7499C11.035 14.7499 10.25 13.9649 10.25 12.9999C10.25 12.0349 11.035 11.2499 12 11.2499Z" fill="black"/>
</g>
<defs>
<clipPath id="clip0_2459_4862">
<rect width="24" height="24" fill="white"/>
</clipPath>
</defs>
</svg>
