<svg width="24" height="24" viewBox="0 0 24 24" fill="none" xmlns="http://www.w3.org/2000/svg">
<g clip-path="url(#clip0_4711_24215)">
<path d="M19 13.375C18.435 13.375 17.885 13.495 17.375 13.725L14.5 8.74C15.445 7.985 16 6.845 16 5.625C16 3.42 14.205 1.625 12 1.625C9.795 1.625 8 3.42 8 5.625C8 6.86 8.55 7.99 9.5 8.745L6.625 13.72C6.115 13.495 5.565 13.37 5 13.37C2.795 13.37 1 15.165 1 17.37C1 19.575 2.795 21.37 5 21.37C6.96 21.37 8.595 19.95 8.935 18.08H15.07C15.405 19.945 17.04 21.37 19.005 21.37C21.21 21.37 23.005 19.575 23.005 17.37C23.005 15.165 21.21 13.37 19.005 13.37L19 13.375ZM17.295 16.585H6.705L12 7.41L17.295 16.585ZM9.5 5.625C9.5 4.245 10.62 3.125 12 3.125C13.38 3.125 14.5 4.245 14.5 5.625C14.5 6.31 14.22 6.95 13.735 7.42L12 4.415L10.265 7.42C9.78 6.955 9.5 6.315 9.5 5.625ZM5 19.875C3.62 19.875 2.5 18.755 2.5 17.375C2.5 15.995 3.62 14.875 5 14.875C5.3 14.875 5.59 14.935 5.865 15.035L4.105 18.085H7.385C7.075 19.115 6.13 19.875 5 19.875ZM19 19.875C17.87 19.875 16.925 19.115 16.615 18.085H19.895L18.135 15.035C18.41 14.935 18.705 14.875 19 14.875C20.38 14.875 21.5 15.995 21.5 17.375C21.5 18.755 20.38 19.875 19 19.875Z" fill="black"/>
</g>
<defs>
<clipPath id="clip0_4711_24215">
<rect width="24" height="24" fill="white"/>
</clipPath>
</defs>
</svg>
