<svg width="24" height="24" viewBox="0 0 24 24" fill="none" xmlns="http://www.w3.org/2000/svg">
<g clip-path="url(#clip0_4711_21443)">
<path d="M7.25 20.19V6C7.25 4.76 8.26 3.75 9.5 3.75H10.5V2.25H9.5C7.43 2.25 5.75 3.93 5.75 6V20.19L2.03 16.47L0.970001 17.53L6.5 23.06L12.03 17.53L10.97 16.47L7.25 20.19Z" fill="black"/>
<path d="M23.03 6.46994L17.5 0.939941L11.97 6.46994L13.03 7.52994L16.75 3.80994V17.9999C16.75 19.2399 15.74 20.2499 14.5 20.2499H13.5V21.7499H14.5C16.57 21.7499 18.25 20.0699 18.25 17.9999V3.80994L21.97 7.52994L23.03 6.46994Z" fill="black"/>
</g>
<defs>
<clipPath id="clip0_4711_21443">
<rect width="24" height="24" fill="white"/>
</clipPath>
</defs>
</svg>
