<svg width="24" height="24" viewBox="0 0 24 24" fill="none" xmlns="http://www.w3.org/2000/svg">
<g clip-path="url(#clip0_4711_24237)">
<path d="M6.26496 8.81006H5.70996V11.6451H6.26496V8.81006Z" fill="black"/>
<path d="M3.92499 8.81006H3.10999V11.6451H3.92499C4.99499 11.6451 5.45499 10.8701 5.45499 10.2301C5.45499 9.39506 4.82999 8.81006 3.92499 8.81006ZM4.57499 10.9451C4.40499 11.1001 4.16999 11.1701 3.80999 11.1701H3.66499V9.29506H3.80999C4.16999 9.29506 4.38999 9.35006 4.57499 9.52006C4.76999 9.69506 4.87999 9.96006 4.87999 10.2301C4.87999 10.5001 4.76999 10.7651 4.57499 10.9451Z" fill="black"/>
<path d="M8.44999 10.7901C8.44999 10.3351 8.25999 10.1301 7.62999 9.90008C7.29499 9.78508 7.19999 9.70008 7.19999 9.54508C7.19999 9.24508 7.70498 9.06008 8.06498 9.46008L8.35998 9.08508C7.69498 8.49508 6.62999 8.78008 6.62999 9.58008C6.62999 9.97008 6.80999 10.1751 7.33499 10.3651C8.22499 10.6801 7.84499 11.2101 7.44999 11.2101C7.18499 11.2101 6.96999 11.0801 6.83999 10.8351L6.48499 11.1801C7.09999 12.0801 8.44999 11.8101 8.44999 10.7901Z" fill="black"/>
<path d="M10.825 11.555V10.895C10.155 11.565 9.2 11.095 9.2 10.23C9.2 9.41003 10.125 8.88003 10.825 9.57503V8.91503C9.775 8.39503 8.625 9.15003 8.625 10.23C8.625 11.31 9.79 12.05 10.825 11.555Z" fill="black"/>
<path d="M12.535 11.7901C13.39 11.7901 14.085 11.1051 14.085 10.2501C14.085 9.39508 13.39 8.70508 12.535 8.70508C11.68 8.70508 10.985 9.39508 10.985 10.2501C10.985 11.1051 11.675 11.7901 12.535 11.7901Z" fill="black"/>
<path d="M15.38 11.7201L16.615 8.81006H16.005L15.235 10.7201L14.475 8.81006H13.87L15.085 11.7201H15.38Z" fill="black"/>
<path d="M19.3601 10.51H19.435L20.205 11.645H20.885L19.99 10.455C20.41 10.365 20.64 10.085 20.64 9.64995C20.64 8.66495 19.585 8.80495 18.8 8.80495V11.645H19.3601V10.51ZM19.3601 9.25995H19.5301C19.8801 9.25995 20.07 9.40495 20.07 9.67995C20.07 9.96995 19.8801 10.12 19.5201 10.12H19.3601V9.25995Z" fill="black"/>
<path d="M18.435 11.1701H17.415V10.4001H18.4V9.92506H17.415V9.29506H18.435V8.81006H16.86V11.6451H18.435V11.1701Z" fill="black"/>
<path d="M1.25 4V19.5H22.75V4H1.25ZM2.25 5H21.75V13.115C20.14 14.055 13.845 17.315 7.63 18.5H2.25V5Z" fill="black"/>
</g>
<defs>
<clipPath id="clip0_4711_24237">
<rect width="24" height="24" fill="white"/>
</clipPath>
</defs>
</svg>
