<svg width="24" height="24" viewBox="0 0 24 24" fill="none" xmlns="http://www.w3.org/2000/svg">
<g clip-path="url(#clip0_4711_22537)">
<path d="M12 3.125C7.925 3.125 4.095 4.71 1.215 7.59L2.275 8.65C4.87 6.055 8.325 4.625 12 4.625C15.675 4.625 19.125 6.055 21.725 8.65L22.785 7.59C19.905 4.71 16.075 3.125 12 3.125Z" fill="black"/>
<path d="M4.22 10.5949L5.28 11.6549C8.985 7.94994 15.01 7.94994 18.715 11.6549L19.775 10.5949C15.485 6.30494 8.505 6.30494 4.22 10.5949Z" fill="black"/>
<path d="M7.225 13.5999L8.285 14.6599C10.33 12.6149 13.665 12.6149 15.71 14.6599L16.77 13.5999C14.14 10.9699 9.855 10.9699 7.225 13.5999Z" fill="black"/>
<path d="M12 15.875C10.62 15.875 9.5 16.995 9.5 18.375C9.5 19.755 10.62 20.875 12 20.875C13.38 20.875 14.5 19.755 14.5 18.375C14.5 16.995 13.38 15.875 12 15.875ZM12 19.375C11.45 19.375 11 18.925 11 18.375C11 17.825 11.45 17.375 12 17.375C12.55 17.375 13 17.825 13 18.375C13 18.925 12.55 19.375 12 19.375Z" fill="black"/>
</g>
<defs>
<clipPath id="clip0_4711_22537">
<rect width="24" height="24" fill="white"/>
</clipPath>
</defs>
</svg>
