<svg width="24" height="24" viewBox="0 0 24 24" fill="none" xmlns="http://www.w3.org/2000/svg">
<g clip-path="url(#clip0_4711_24231)">
<path d="M18.47 6C18.645 5.625 18.75 5.2 18.75 4.75C18.75 3.235 17.62 2 16.235 2C14.465 2 12.87 3.98 12 5.295C11.13 3.98 9.535 2 7.765 2C6.38 2 5.25 3.235 5.25 4.75C5.25 5.2 5.35 5.625 5.53 6H2V22H22V6H18.47ZM20.5 11.25H14.75V7.5H20.5V11.25ZM10.75 11.25V7.5H13.25V11.25H10.75ZM13.25 12.75V20.5H10.75V12.75H13.25ZM16.235 3.5C16.795 3.5 17.25 4.06 17.25 4.75C17.25 5.44 16.795 6 16.235 6H13.335C14.135 4.83 15.305 3.5 16.235 3.5ZM6.75 4.75C6.75 4.06 7.205 3.5 7.765 3.5C8.695 3.5 9.865 4.83 10.665 6H7.765C7.205 6 6.75 5.44 6.75 4.75ZM7.765 7.5H9.25V11.25H3.5V7.5H7.765ZM3.5 12.75H9.25V20.5H3.5V12.75ZM14.75 20.5V12.75H20.5V20.5H14.75Z" fill="black"/>
</g>
<defs>
<clipPath id="clip0_4711_24231">
<rect width="24" height="24" fill="white"/>
</clipPath>
</defs>
</svg>
