<svg width="24" height="24" viewBox="0 0 24 24" fill="none" xmlns="http://www.w3.org/2000/svg">
<g clip-path="url(#clip0_4711_23575)">
<path d="M21.75 3.25H2.25V11.75H5.645C5.395 12.455 5.25 13.21 5.25 14C5.25 17.72 8.28 20.75 12 20.75C15.72 20.75 18.75 17.72 18.75 14C18.75 13.21 18.605 12.455 18.355 11.75H21.75V3.25ZM12 19.25C9.105 19.25 6.75 16.895 6.75 14C6.75 11.105 9.105 8.75 12 8.75C14.895 8.75 17.25 11.105 17.25 14C17.25 16.895 14.895 19.25 12 19.25ZM20.25 10.25H17.61C16.4 8.445 14.335 7.25 12 7.25C9.665 7.25 7.605 8.445 6.39 10.25H3.75V4.75H20.25V10.25Z" fill="black"/>
<path d="M13.72 11.22L12 12.94L10.28 11.22L9.21997 12.28L10.94 14L9.21997 15.72L10.28 16.78L12 15.06L13.72 16.78L14.78 15.72L13.06 14L14.78 12.28L13.72 11.22Z" fill="black"/>
</g>
<defs>
<clipPath id="clip0_4711_23575">
<rect width="24" height="24" fill="white"/>
</clipPath>
</defs>
</svg>
