<svg width="24" height="24" viewBox="0 0 24 24" fill="none" xmlns="http://www.w3.org/2000/svg">
<g clip-path="url(#clip0_2459_4824)">
<path d="M19.75 16.25C18.775 16.25 17.95 16.88 17.64 17.75H16.5V15.5H21V1H3V15.5H7.5V17.75H6.36C6.05 16.88 5.225 16.25 4.25 16.25C3.01 16.25 2 17.26 2 18.5C2 19.74 3.01 20.75 4.25 20.75C5.225 20.75 6.05 20.12 6.36 19.25H9V15.5H11.25V18.64C10.38 18.95 9.75 19.775 9.75 20.75C9.75 21.99 10.76 23 12 23C13.24 23 14.25 21.99 14.25 20.75C14.25 19.775 13.62 18.95 12.75 18.64V15.5H15V19.25H17.64C17.95 20.12 18.775 20.75 19.75 20.75C20.99 20.75 22 19.74 22 18.5C22 17.26 20.99 16.25 19.75 16.25ZM4.25 19.25C3.835 19.25 3.5 18.915 3.5 18.5C3.5 18.085 3.835 17.75 4.25 17.75C4.665 17.75 5 18.085 5 18.5C5 18.915 4.665 19.25 4.25 19.25ZM12 21.5C11.585 21.5 11.25 21.165 11.25 20.75C11.25 20.335 11.585 20 12 20C12.415 20 12.75 20.335 12.75 20.75C12.75 21.165 12.415 21.5 12 21.5ZM4.5 2.5H19.5V7.5H4.5V2.5ZM4.5 9H19.5V14H4.5V9ZM19.75 19.25C19.335 19.25 19 18.915 19 18.5C19 18.085 19.335 17.75 19.75 17.75C20.165 17.75 20.5 18.085 20.5 18.5C20.5 18.915 20.165 19.25 19.75 19.25Z" fill="black"/>
<path d="M17.5 6C18.0523 6 18.5 5.55228 18.5 5C18.5 4.44772 18.0523 4 17.5 4C16.9477 4 16.5 4.44772 16.5 5C16.5 5.55228 16.9477 6 17.5 6Z" fill="black"/>
<path d="M15 6C15.5523 6 16 5.55228 16 5C16 4.44772 15.5523 4 15 4C14.4477 4 14 4.44772 14 5C14 5.55228 14.4477 6 15 6Z" fill="black"/>
<path d="M17.5 12.5C18.0523 12.5 18.5 12.0523 18.5 11.5C18.5 10.9477 18.0523 10.5 17.5 10.5C16.9477 10.5 16.5 10.9477 16.5 11.5C16.5 12.0523 16.9477 12.5 17.5 12.5Z" fill="black"/>
<path d="M15 12.5C15.5523 12.5 16 12.0523 16 11.5C16 10.9477 15.5523 10.5 15 10.5C14.4477 10.5 14 10.9477 14 11.5C14 12.0523 14.4477 12.5 15 12.5Z" fill="black"/>
</g>
<defs>
<clipPath id="clip0_2459_4824">
<rect width="24" height="24" fill="white"/>
</clipPath>
</defs>
</svg>
