<svg width="24" height="24" viewBox="0 0 24 24" fill="none" xmlns="http://www.w3.org/2000/svg">
<g clip-path="url(#clip0_4711_19894)">
<path d="M11 5.5H5.5V11H11V5.5ZM9.5 9.5H7V7H9.5V9.5Z" fill="black"/>
<path d="M18.5 5.5H13V11H18.5V5.5ZM17 9.5H14.5V7H17V9.5Z" fill="black"/>
<path d="M11 13H5.5V18.5H11V13ZM9.5 17H7V14.5H9.5V17Z" fill="black"/>
<path d="M18.5 13H13V18.5H18.5V13ZM17 17H14.5V14.5H17V17Z" fill="black"/>
<path d="M2 2V22H22V2H2ZM20.5 20.5H3.5V3.5H20.5V20.5Z" fill="black"/>
</g>
<defs>
<clipPath id="clip0_4711_19894">
<rect width="24" height="24" fill="white"/>
</clipPath>
</defs>
</svg>
