<svg width="24" height="24" viewBox="0 0 24 24" fill="none" xmlns="http://www.w3.org/2000/svg">
<g clip-path="url(#clip0_2459_4815)">
<path d="M19.78 4.2201C15.49 -0.0649023 8.50998 -0.0649023 4.21998 4.2201C-0.0650244 8.5101 -0.0650244 15.4901 4.21998 19.7801L5.27998 18.7201C1.57498 15.0151 1.57498 8.9901 5.27998 5.2851C8.98498 1.5801 15.01 1.5801 18.715 5.2851C22.42 8.9901 22.42 15.0151 18.715 18.7201L19.775 19.7801C24.065 15.4901 24.065 8.5151 19.775 4.2251L19.78 4.2201Z" fill="black"/>
<path d="M12 6.75C10.6 6.75 9.27998 7.295 8.28998 8.29C6.24498 10.335 6.24498 13.665 8.28998 15.715L9.34998 14.655C7.88998 13.195 7.88998 10.815 9.34998 9.35C10.06 8.64 11 8.25 12 8.25C13 8.25 13.945 8.64 14.65 9.35C16.11 10.81 16.11 13.19 14.65 14.655L15.71 15.715C17.755 13.67 17.755 10.34 15.71 8.29C14.72 7.3 13.4 6.75 12 6.75Z" fill="black"/>
</g>
<defs>
<clipPath id="clip0_2459_4815">
<rect width="24" height="24" fill="white"/>
</clipPath>
</defs>
</svg>
