<svg width="24" height="24" viewBox="0 0 24 24" fill="none" xmlns="http://www.w3.org/2000/svg">
<g clip-path="url(#clip0_2459_6173)">
<path d="M16.5 1C15.22 1 14.03 1.375 13.025 2.015V2H1.25V5.31L7.25 11.31V22.965L12.75 20.215V12.805C13.81 13.555 15.1 14 16.5 14C20.09 14 23 11.09 23 7.5C23 3.91 20.09 1 16.5 1ZM8.75 20.535V10.69L2.75 4.69V3.5H11.385C10.52 4.605 10 5.99 10 7.5C10 8.93 10.465 10.25 11.25 11.32V19.285L8.75 20.535ZM16.5 12.5C13.745 12.5 11.5 10.255 11.5 7.5C11.5 4.745 13.745 2.5 16.5 2.5C19.255 2.5 21.5 4.745 21.5 7.5C21.5 10.255 19.255 12.5 16.5 12.5Z" fill="black"/>
<path d="M17.25 4H15.75V6.75H13V8.25H15.75V11H17.25V8.25H20V6.75H17.25V4Z" fill="black"/>
</g>
<defs>
<clipPath id="clip0_2459_6173">
<rect width="24" height="24" fill="white"/>
</clipPath>
</defs>
</svg>
