<svg width="24" height="24" viewBox="0 0 24 24" fill="none" xmlns="http://www.w3.org/2000/svg">
<g clip-path="url(#clip0_2459_4875)">
<path d="M19.5 9.25012C18.245 9.25012 17.185 10.1001 16.855 11.2501H14.64C14.38 10.3351 13.66 9.61512 12.745 9.35512V7.14012C13.895 6.81012 14.745 5.75512 14.745 4.49512C14.745 2.98012 13.51 1.74512 11.995 1.74512C10.48 1.74512 9.24499 2.98012 9.24499 4.49512C9.24499 5.75012 10.095 6.81012 11.245 7.14012V9.35512C10.33 9.61512 9.60999 10.3351 9.34999 11.2501H7.13499C6.80499 10.1001 5.74999 9.25012 4.48999 9.25012C2.97499 9.25012 1.73999 10.4851 1.73999 12.0001C1.73999 13.5151 2.97499 14.7501 4.48999 14.7501C5.74499 14.7501 6.80499 13.9001 7.13499 12.7501H9.34999C9.60999 13.6651 10.33 14.3851 11.245 14.6451V16.8601C10.095 17.1901 9.24499 18.2451 9.24499 19.5051C9.24499 21.0201 10.48 22.2551 11.995 22.2551C13.51 22.2551 14.745 21.0201 14.745 19.5051C14.745 18.2501 13.895 17.1901 12.745 16.8601V14.6451C13.66 14.3851 14.38 13.6651 14.64 12.7501H16.855C17.185 13.9001 18.24 14.7501 19.5 14.7501C21.015 14.7501 22.25 13.5151 22.25 12.0001C22.25 10.4851 21.015 9.25012 19.5 9.25012ZM4.49999 13.2501C3.80999 13.2501 3.24999 12.6901 3.24999 12.0001C3.24999 11.3101 3.80999 10.7501 4.49999 10.7501C5.18999 10.7501 5.74999 11.3101 5.74999 12.0001C5.74999 12.6901 5.18999 13.2501 4.49999 13.2501ZM10.75 4.50012C10.75 3.81012 11.31 3.25012 12 3.25012C12.69 3.25012 13.25 3.81012 13.25 4.50012C13.25 5.19012 12.69 5.75012 12 5.75012C11.31 5.75012 10.75 5.19012 10.75 4.50012ZM13.25 19.5001C13.25 20.1901 12.69 20.7501 12 20.7501C11.31 20.7501 10.75 20.1901 10.75 19.5001C10.75 18.8101 11.31 18.2501 12 18.2501C12.69 18.2501 13.25 18.8101 13.25 19.5001ZM12 13.2501C11.31 13.2501 10.75 12.6901 10.75 12.0001C10.75 11.3101 11.31 10.7501 12 10.7501C12.69 10.7501 13.25 11.3101 13.25 12.0001C13.25 12.6901 12.69 13.2501 12 13.2501ZM19.5 13.2501C18.81 13.2501 18.25 12.6901 18.25 12.0001C18.25 11.3101 18.81 10.7501 19.5 10.7501C20.19 10.7501 20.75 11.3101 20.75 12.0001C20.75 12.6901 20.19 13.2501 19.5 13.2501Z" fill="black"/>
</g>
<defs>
<clipPath id="clip0_2459_4875">
<rect width="24" height="24" fill="white"/>
</clipPath>
</defs>
</svg>
