<svg width="24" height="24" viewBox="0 0 24 24" fill="none" xmlns="http://www.w3.org/2000/svg">
<g clip-path="url(#clip0_2459_6144)">
<path d="M18.13 6.98996C17.655 4.54996 15.69 2.59496 13.245 2.12496C11.37 1.75996 9.465 2.23996 8.015 3.43496C6.575 4.62496 5.745 6.37496 5.745 8.23496H7.245C7.245 6.81996 7.87 5.49496 8.965 4.58996C10.065 3.67996 11.52 3.31996 12.955 3.59996C14.805 3.95996 16.29 5.43996 16.65 7.27996C17.095 9.56496 15.855 11.825 13.7 12.655C12.21 13.225 11.245 14.585 11.245 16.115V17.01H12.745V16.115C12.745 15.21 13.33 14.405 14.24 14.055C17.075 12.965 18.71 9.99996 18.125 6.99496L18.13 6.98996Z" fill="black"/>
<path d="M12 21.5C12.6904 21.5 13.25 20.9404 13.25 20.25C13.25 19.5596 12.6904 19 12 19C11.3096 19 10.75 19.5596 10.75 20.25C10.75 20.9404 11.3096 21.5 12 21.5Z" fill="black"/>
</g>
<defs>
<clipPath id="clip0_2459_6144">
<rect width="24" height="24" fill="white"/>
</clipPath>
</defs>
</svg>
