<svg width="24" height="24" viewBox="0 0 24 24" fill="none" xmlns="http://www.w3.org/2000/svg">
<g clip-path="url(#clip0_4711_22554)">
<path d="M18.5 5.99994H15.5V8.99994H16.25V11.0349L12.75 12.7849V4.30994L13.97 5.52994L15.03 4.46994L12 1.43994L8.97 4.46994L10.03 5.52994L11.25 4.30994V15.2849L7.75 13.5349V11.2899C8.195 11.0299 8.5 10.5499 8.5 9.99994C8.5 9.16994 7.83 8.49994 7 8.49994C6.17 8.49994 5.5 9.16994 5.5 9.99994C5.5 10.5549 5.805 11.0299 6.25 11.2899V14.4599L11.25 16.9599V17.8749C10.24 18.1949 9.5 19.1299 9.5 20.2449C9.5 21.6249 10.62 22.7449 12 22.7449C13.38 22.7449 14.5 21.6249 14.5 20.2449C14.5 19.1299 13.76 18.1949 12.75 17.8749V14.4599L17.75 11.9599V8.99494H18.5V5.99494V5.99994ZM12 21.2499C11.45 21.2499 11 20.7999 11 20.2499C11 19.6999 11.45 19.2499 12 19.2499C12.55 19.2499 13 19.6999 13 20.2499C13 20.7999 12.55 21.2499 12 21.2499Z" fill="black"/>
</g>
<defs>
<clipPath id="clip0_4711_22554">
<rect width="24" height="24" fill="white"/>
</clipPath>
</defs>
</svg>
