<svg width="24" height="24" viewBox="0 0 24 24" fill="none" xmlns="http://www.w3.org/2000/svg">
<g clip-path="url(#clip0_4711_19206)">
<path d="M12 1C5.935 1 1 5.935 1 12C1 18.065 5.935 23 12 23C18.065 23 23 18.065 23 12C23 5.935 18.065 1 12 1ZM16.735 15.675C17.525 14.66 18 13.385 18 12C18 10.615 17.525 9.345 16.735 8.325L19.22 5.84C20.64 7.5 21.5 9.65 21.5 12C21.5 14.35 20.64 16.5 19.22 18.16L16.735 15.675ZM15.675 7.27C14.845 6.625 13.845 6.195 12.75 6.055V2.54C14.805 2.7 16.675 3.515 18.16 4.785L15.675 7.27ZM12 7.505C14.48 7.505 16.5 9.525 16.5 12.005C16.5 14.485 14.48 16.505 12 16.505C9.52 16.505 7.5 14.485 7.5 12.005C7.5 9.525 9.52 7.505 12 7.505ZM2.5 12C2.5 7.015 6.36 2.925 11.25 2.54V6.055C8.295 6.425 6 8.95 6 12.005C6 15.315 8.69 18.005 12 18.005C13.385 18.005 14.655 17.53 15.675 16.74L18.16 19.225C16.5 20.645 14.35 21.505 12 21.505C6.76 21.505 2.5 17.245 2.5 12.005V12Z" fill="black"/>
</g>
<defs>
<clipPath id="clip0_4711_19206">
<rect width="24" height="24" fill="white"/>
</clipPath>
</defs>
</svg>
