<svg width="24" height="24" viewBox="0 0 24 24" fill="none" xmlns="http://www.w3.org/2000/svg">
<g clip-path="url(#clip0_4711_24196)">
<path d="M16.25 20.5C19.1 18.74 21 15.595 21 12C21 6.475 16.525 2 11 2C5.475 2 1 6.475 1 12C1 17.525 5.475 22 11 22H23V20.5H16.25ZM2.5 12C2.5 7.315 6.315 3.5 11 3.5C15.685 3.5 19.5 7.315 19.5 12C19.5 16.685 15.685 20.5 11 20.5C6.315 20.5 2.5 16.685 2.5 12Z" fill="black"/>
<path d="M11 10.25C12.38 10.25 13.5 9.13 13.5 7.75C13.5 6.37 12.38 5.25 11 5.25C9.62 5.25 8.5 6.37 8.5 7.75C8.5 9.13 9.62 10.25 11 10.25ZM11 6.75C11.55 6.75 12 7.2 12 7.75C12 8.3 11.55 8.75 11 8.75C10.45 8.75 10 8.3 10 7.75C10 7.2 10.45 6.75 11 6.75Z" fill="black"/>
<path d="M9.25 12C9.25 10.62 8.13 9.5 6.75 9.5C5.37 9.5 4.25 10.62 4.25 12C4.25 13.38 5.37 14.5 6.75 14.5C8.13 14.5 9.25 13.38 9.25 12ZM6.75 13C6.2 13 5.75 12.55 5.75 12C5.75 11.45 6.2 11 6.75 11C7.3 11 7.75 11.45 7.75 12C7.75 12.55 7.3 13 6.75 13Z" fill="black"/>
<path d="M11 13.75C9.62 13.75 8.5 14.87 8.5 16.25C8.5 17.63 9.62 18.75 11 18.75C12.38 18.75 13.5 17.63 13.5 16.25C13.5 14.87 12.38 13.75 11 13.75ZM11 17.25C10.45 17.25 10 16.8 10 16.25C10 15.7 10.45 15.25 11 15.25C11.55 15.25 12 15.7 12 16.25C12 16.8 11.55 17.25 11 17.25Z" fill="black"/>
<path d="M17.75 12C17.75 10.62 16.63 9.5 15.25 9.5C13.87 9.5 12.75 10.62 12.75 12C12.75 13.38 13.87 14.5 15.25 14.5C16.63 14.5 17.75 13.38 17.75 12ZM15.25 13C14.7 13 14.25 12.55 14.25 12C14.25 11.45 14.7 11 15.25 11C15.8 11 16.25 11.45 16.25 12C16.25 12.55 15.8 13 15.25 13Z" fill="black"/>
</g>
<defs>
<clipPath id="clip0_4711_24196">
<rect width="24" height="24" fill="white"/>
</clipPath>
</defs>
</svg>
