<svg width="24" height="24" viewBox="0 0 24 24" fill="none" xmlns="http://www.w3.org/2000/svg">
<g clip-path="url(#clip0_2459_6147)">
<path d="M11.94 1L1.19 11.75L4 14.56V20.5H9.98L9.96 20.52L12.25 22.81L23 12.06V1H11.94ZM9.25 14H6.75V12.22C6.75 11.55 7.31 11 8 11C8.69 11 9.25 11.545 9.25 12.22V14ZM5.5 15.5H10.5V19H5.5V15.5ZM21.5 11.44L12.25 20.69L12 20.44V14H10.75V12.22C10.75 10.72 9.515 9.5 8 9.5C6.485 9.5 5.25 10.72 5.25 12.22V13.69L3.31 11.75L12.56 2.5H21.5V11.44Z" fill="black"/>
<path d="M17.25 9.5C18.765 9.5 20 8.265 20 6.75C20 5.235 18.765 4 17.25 4C15.735 4 14.5 5.235 14.5 6.75C14.5 8.265 15.735 9.5 17.25 9.5ZM17.25 5.5C17.94 5.5 18.5 6.06 18.5 6.75C18.5 7.44 17.94 8 17.25 8C16.56 8 16 7.44 16 6.75C16 6.06 16.56 5.5 17.25 5.5Z" fill="black"/>
</g>
<defs>
<clipPath id="clip0_2459_6147">
<rect width="24" height="24" fill="white"/>
</clipPath>
</defs>
</svg>
