<svg width="24" height="24" viewBox="0 0 24 24" fill="none" xmlns="http://www.w3.org/2000/svg">
<g clip-path="url(#clip0_4711_23543)">
<path d="M21.125 2H2.875C2.39 2 2 2.39 2 2.875V15.5C2 16.05 2.45 16.5 3 16.5H5V22L10.5 16.5H21.125C21.61 16.5 22 16.11 22 15.625V2.875C22 2.39 21.61 2 21.125 2ZM20.5 15H9.88L9.44 15.44L6.5 18.38V15H3.5V3.5H20.5V15Z" fill="black"/>
<path d="M16.25 11.16C16.25 10.875 16.13 10.595 15.925 10.395L14.915 9.41V8.115C14.915 6.535 13.605 5.25 12 5.25C10.395 5.25 9.085 6.535 9.085 8.115V9.41L8.075 10.395C7.87 10.595 7.75 10.875 7.75 11.16V13.25H16.25V11.16ZM14.75 11.75H9.25V11.34L10.16 10.45C10.43 10.19 10.58 9.825 10.58 9.455V8.11C10.58 7.36 11.215 6.745 11.995 6.745C12.775 6.745 13.41 7.355 13.41 8.11V9.455C13.41 9.825 13.565 10.19 13.83 10.45L14.74 11.34V11.75H14.75Z" fill="black"/>
</g>
<defs>
<clipPath id="clip0_4711_23543">
<rect width="24" height="24" fill="white"/>
</clipPath>
</defs>
</svg>
