<svg width="24" height="24" viewBox="0 0 24 24" fill="none" xmlns="http://www.w3.org/2000/svg">
<g clip-path="url(#clip0_4711_22924)">
<path d="M20.25 4.99992C17.055 4.99992 12.51 1.44492 12.465 1.40992L12 1.04492L11.535 1.40992C11.49 1.44492 6.945 4.99992 3.75 4.99992H3V12.4049C3 14.4399 3.9 16.3399 5.475 17.6299L12 22.9699L18.525 17.6299C20.1 16.3449 21 14.4399 21 12.4049V4.99992H20.25ZM7.84 17.6249C9.04 16.7349 10.485 16.2499 12 16.2499C13.515 16.2499 14.96 16.7349 16.16 17.6249L12 21.0299L7.84 17.6249ZM19.5 12.4049C19.5 13.9849 18.8 15.4649 17.575 16.4699L17.35 16.6549C15.84 15.4249 13.965 14.7499 12 14.7499C10.035 14.7499 8.16 15.4249 6.65 16.6549L6.425 16.4699C5.2 15.4699 4.5 13.9899 4.5 12.4049V6.44992C7.435 6.09492 10.785 3.82492 12 2.93492C13.215 3.82492 16.565 6.09492 19.5 6.44992V12.4049Z" fill="black"/>
<path d="M8.25 9.98486C8.25 12.0549 9.93 13.7349 12 13.7349C14.07 13.7349 15.75 12.0549 15.75 9.98486C15.75 7.91486 14.07 6.23486 12 6.23486C9.93 6.23486 8.25 7.91486 8.25 9.98486ZM14.25 9.98486C14.25 11.2249 13.24 12.2349 12 12.2349C10.76 12.2349 9.75 11.2249 9.75 9.98486C9.75 8.74486 10.76 7.73486 12 7.73486C13.24 7.73486 14.25 8.74486 14.25 9.98486Z" fill="black"/>
</g>
<defs>
<clipPath id="clip0_4711_22924">
<rect width="24" height="24" fill="white"/>
</clipPath>
</defs>
</svg>
