<svg width="24" height="24" viewBox="0 0 24 24" fill="none" xmlns="http://www.w3.org/2000/svg">
<g clip-path="url(#clip0_4711_22938)">
<path d="M14.5 11.75C15.88 11.75 17 10.63 17 9.25C17 7.87 15.88 6.75 14.5 6.75C13.12 6.75 12 7.87 12 9.25C12 10.63 13.12 11.75 14.5 11.75ZM14.5 8.25C15.05 8.25 15.5 8.7 15.5 9.25C15.5 9.8 15.05 10.25 14.5 10.25C13.95 10.25 13.5 9.8 13.5 9.25C13.5 8.7 13.95 8.25 14.5 8.25Z" fill="black"/>
<path d="M18.75 16.7501V13.6351L18.41 13.4151C16.035 11.8551 12.965 11.8551 10.59 13.4151L10.25 13.6351V16.7501H18.75ZM11.75 14.4651C13.46 13.5101 15.54 13.5101 17.25 14.4651V15.2501H11.75V14.4651Z" fill="black"/>
<path d="M20.5 2H3.5V7.75H2V9.25H3.5V11.25H2V12.75H3.5V14.75H2V16.25H3.5V22H20.5C21.05 22 21.5 21.55 21.5 21V3C21.5 2.45 21.05 2 20.5 2ZM5 16.25H6.5V14.75H5V12.75H6.5V11.25H5V9.25H6.5V7.75H5V3.5H7.5V20.5H5V16.25ZM20 20.5H9V3.5H20V20.5Z" fill="black"/>
</g>
<defs>
<clipPath id="clip0_4711_22938">
<rect width="24" height="24" fill="white"/>
</clipPath>
</defs>
</svg>
