<svg width="24" height="24" viewBox="0 0 24 24" fill="none" xmlns="http://www.w3.org/2000/svg">
<g clip-path="url(#clip0_4711_24223)">
<path d="M18.03 6.00012C16.585 6.00012 15.215 6.62512 14.27 7.72012L12 10.3501L9.73 7.72012C8.785 6.62512 7.415 6.00012 5.97 6.00012C3.23 6.00012 1 8.23012 1 10.9701V12.0301C1 14.7701 3.23 17.0001 5.97 17.0001C7.19 17.0001 8.35 16.5501 9.25 15.7551V17.2501H10.75V13.0001H6.5V14.5001H8.4C7.755 15.1351 6.885 15.5001 5.97 15.5001C4.055 15.5001 2.5 13.9451 2.5 12.0301V10.9701C2.5 9.05512 4.055 7.50012 5.97 7.50012C6.98 7.50012 7.935 7.94012 8.595 8.70012L14.27 15.2751C15.215 16.3701 16.585 16.9951 18.03 16.9951C20.77 16.9951 23 14.7651 23 12.0251V10.9651C23 8.22512 20.77 5.99512 18.03 5.99512V6.00012ZM21.5 12.0301C21.5 13.9451 19.945 15.5001 18.03 15.5001C17.02 15.5001 16.065 15.0601 15.405 14.3001L12.99 11.5001L15.405 8.70012C16.065 7.93512 17.02 7.50012 18.03 7.50012C19.945 7.50012 21.5 9.05512 21.5 10.9701V12.0301Z" fill="black"/>
</g>
<defs>
<clipPath id="clip0_4711_24223">
<rect width="24" height="24" fill="white"/>
</clipPath>
</defs>
</svg>
