<svg width="24" height="24" viewBox="0 0 24 24" fill="none" xmlns="http://www.w3.org/2000/svg">
<g clip-path="url(#clip0_4711_22957)">
<path d="M1 3V22H23V3H1ZM21.5 20.5H2.5V4.5H21.5V20.5Z" fill="black"/>
<path d="M13 13.93V18.795L15.5 17.365L18 18.795V13.93C19.06 13.155 19.75 11.91 19.75 10.5C19.75 8.155 17.845 6.25 15.5 6.25C13.155 6.25 11.25 8.155 11.25 10.5C11.25 11.91 11.94 13.155 13 13.93ZM16.5 16.21L15.5 15.64L14.5 16.21V14.63C14.82 14.71 15.155 14.755 15.5 14.755C15.845 14.755 16.18 14.71 16.5 14.63V16.21ZM15.5 7.75C17.015 7.75 18.25 8.985 18.25 10.5C18.25 12.015 17.015 13.25 15.5 13.25C13.985 13.25 12.75 12.015 12.75 10.5C12.75 8.985 13.985 7.75 15.5 7.75Z" fill="black"/>
<path d="M9.75 9.75H4.25V11.25H9.75V9.75Z" fill="black"/>
<path d="M9.75 13.25H4.25V14.75H9.75V13.25Z" fill="black"/>
</g>
<defs>
<clipPath id="clip0_4711_22957">
<rect width="24" height="24" fill="white"/>
</clipPath>
</defs>
</svg>
