<svg width="24" height="24" viewBox="0 0 24 24" fill="none" xmlns="http://www.w3.org/2000/svg">
<g clip-path="url(#clip0_4711_21454)">
<path d="M16 7.74991H21.75V1.99991H20.25V5.11491C20.045 4.86991 19.83 4.62991 19.6 4.39991C15.41 0.204912 8.59001 0.204912 4.40001 4.39991C0.210007 8.59491 0.210007 15.4099 4.40001 19.6049C6.49501 21.6999 9.25001 22.7499 12 22.7499C14.75 22.7499 17.505 21.6999 19.6 19.6049L18.54 18.5449C14.935 22.1499 9.06501 22.1499 5.46001 18.5449C3.71501 16.7999 2.75001 14.4749 2.75001 12.0049C2.75001 9.53491 3.71001 7.20991 5.46001 5.46491C9.06501 1.85991 14.935 1.85991 18.54 5.46491C18.79 5.71491 19.02 5.97991 19.24 6.25491H16V7.75491V7.74991Z" fill="black"/>
<path d="M16.5 12.75V11.25H15.16C15.08 10.89 14.955 10.6 14.765 10.295L15.715 9.345L14.655 8.285L13.705 9.235C13.4 9.045 13.115 8.92 12.75 8.84V7.5H11.25V8.84C10.89 8.92 10.6 9.045 10.295 9.235L9.345 8.285L8.285 9.345L9.235 10.295C9.045 10.6 8.92 10.885 8.84 11.25H7.5V12.75H8.84C8.92 13.11 9.045 13.395 9.235 13.7L8.285 14.65L9.345 15.71L10.295 14.76C10.6 14.95 10.885 15.075 11.25 15.155V16.495H12.75V15.155C13.11 15.075 13.4 14.95 13.705 14.76L14.655 15.71L15.715 14.68L14.765 13.7C14.955 13.395 15.08 13.11 15.16 12.745H16.5V12.75ZM12.005 13.755C11.04 13.755 10.255 12.97 10.255 12.005C10.255 11.04 11.04 10.255 12.005 10.255C12.97 10.255 13.755 11.04 13.755 12.005C13.755 12.97 12.97 13.755 12.005 13.755Z" fill="black"/>
</g>
<defs>
<clipPath id="clip0_4711_21454">
<rect width="24" height="24" fill="white"/>
</clipPath>
</defs>
</svg>
