<svg width="24" height="24" viewBox="0 0 24 24" fill="none" xmlns="http://www.w3.org/2000/svg">
<g clip-path="url(#clip0_2459_6145)">
<path d="M12 17C10.345 17 9 18.345 9 20C9 21.655 10.345 23 12 23C13.655 23 15 21.655 15 20C15 18.345 13.655 17 12 17ZM12 21.5C11.175 21.5 10.5 20.825 10.5 20C10.5 19.175 11.175 18.5 12 18.5C12.825 18.5 13.5 19.175 13.5 20C13.5 20.825 12.825 21.5 12 21.5Z" fill="black"/>
<path d="M14 1H10C6.83 1 4.25 3.58 4.25 6.75V8H9.25V6.75C9.25 6.335 9.585 6 10 6H14C14.415 6 14.75 6.335 14.75 6.75V8.5C14.75 8.915 14.415 9.25 14 9.25C11.38 9.25 9.25 11.38 9.25 14V15.5H14.25V14.245C17.305 14.115 19.75 11.585 19.75 8.5V6.75C19.75 3.58 17.17 1 14 1ZM18.25 8.5C18.25 10.845 16.345 12.75 14 12.75C13.31 12.75 12.75 13.31 12.75 14H10.75C10.75 12.21 12.21 10.75 14 10.75C15.24 10.75 16.25 9.74 16.25 8.5V6.75C16.25 5.51 15.24 4.5 14 4.5H10C8.845 4.5 7.89 5.375 7.765 6.5H5.76C5.89 4.27 7.745 2.5 10.005 2.5H14.005C16.35 2.5 18.255 4.405 18.255 6.75V8.5H18.25Z" fill="black"/>
</g>
<defs>
<clipPath id="clip0_2459_6145">
<rect width="24" height="24" fill="white"/>
</clipPath>
</defs>
</svg>
