<svg width="24" height="24" viewBox="0 0 24 24" fill="none" xmlns="http://www.w3.org/2000/svg">
<g clip-path="url(#clip0_4711_21470)">
<path d="M12 1C5.925 1 1 5.925 1 12C1 18.075 5.925 23 12 23C18.075 23 23 18.075 23 12C23 5.925 18.075 1 12 1ZM2.5 12C2.5 6.76 6.76 2.5 12 2.5C14.35 2.5 16.5 3.36 18.16 4.78L4.78 18.16C3.36 16.5 2.5 14.35 2.5 12ZM12 21.5C9.65 21.5 7.5 20.64 5.84 19.22L19.22 5.84C20.64 7.5 21.5 9.65 21.5 12C21.5 17.24 17.24 21.5 12 21.5Z" fill="black"/>
</g>
<defs>
<clipPath id="clip0_4711_21470">
<rect width="24" height="24" fill="white"/>
</clipPath>
</defs>
</svg>
