<svg width="24" height="24" viewBox="0 0 24 24" fill="none" xmlns="http://www.w3.org/2000/svg">
<g clip-path="url(#clip0_4711_23582)">
<path d="M19.75 2.5C19.75 1.81 19.19 1.25 18.5 1.25H8.5C7.81 1.25 7.25 1.81 7.25 2.5V4.25H5.5C4.81 4.25 4.25 4.81 4.25 5.5V23.035L10.5 18.17L16.75 23.035V17.7L19.75 20.035V2.5ZM15.25 19.965L10.5 16.265L5.75 19.965V5.75H15.25V19.965ZM18.25 16.965L16.75 15.795V5.5C16.75 4.81 16.19 4.25 15.5 4.25H8.75V2.75H18.25V16.965Z" fill="black"/>
</g>
<defs>
<clipPath id="clip0_4711_23582">
<rect width="24" height="24" fill="white"/>
</clipPath>
</defs>
</svg>
