<svg width="24" height="24" viewBox="0 0 24 24" fill="none" xmlns="http://www.w3.org/2000/svg">
<g clip-path="url(#clip0_2459_7619)">
<path d="M9.47 7.52997L13.94 12L9.47 16.47L10.53 17.53L16.06 12L10.53 6.46997L9.47 7.52997Z" fill="black"/>
<path d="M12 1C5.925 1 1 5.925 1 12C1 18.075 5.925 23 12 23C18.075 23 23 18.075 23 12C23 5.925 18.075 1 12 1ZM12 21.5C6.76 21.5 2.5 17.24 2.5 12C2.5 6.76 6.76 2.5 12 2.5C17.24 2.5 21.5 6.76 21.5 12C21.5 17.24 17.24 21.5 12 21.5Z" fill="black"/>
</g>
<defs>
<clipPath id="clip0_2459_7619">
<rect width="24" height="24" fill="white"/>
</clipPath>
</defs>
</svg>
