<svg width="24" height="24" viewBox="0 0 24 24" fill="none" xmlns="http://www.w3.org/2000/svg">
<g clip-path="url(#clip0_2459_7862)">
<path d="M11.25 11.575L6.61499 14.355L7.38499 15.645L12.75 12.425V6H11.25V11.575Z" fill="black"/>
<path d="M12 1C5.935 1 1 5.935 1 12C1 18.065 5.935 23 12 23V21.5C6.76 21.5 2.5 17.24 2.5 12C2.5 6.76 6.76 2.5 12 2.5C17.24 2.5 21.5 6.76 21.5 12H23C23 5.935 18.065 1 12 1Z" fill="black"/>
<path d="M20 16C20 14.62 18.88 13.5 17.5 13.5C16.12 13.5 15 14.62 15 16V17.5H14V23H21V17.5H20V16ZM16.5 16C16.5 15.45 16.95 15 17.5 15C18.05 15 18.5 15.45 18.5 16V17.5H16.5V16ZM19.5 21.5H15.5V19H19.5V21.5Z" fill="black"/>
</g>
<defs>
<clipPath id="clip0_2459_7862">
<rect width="24" height="24" fill="white"/>
</clipPath>
</defs>
</svg>
