<svg width="24" height="24" viewBox="0 0 24 24" fill="none" xmlns="http://www.w3.org/2000/svg">
<g clip-path="url(#clip0_4711_22559)">
<path d="M16.5 1H7.5C6.26 1 5.25 2.01 5.25 3.25V20.75C5.25 21.99 6.26 23 7.5 23H16.5C17.74 23 18.75 21.99 18.75 20.75V3.25C18.75 2.01 17.74 1 16.5 1ZM9.5 2.5H14.5V3.75H9.5V2.5ZM17.25 20.75C17.25 21.165 16.915 21.5 16.5 21.5H7.5C7.085 21.5 6.75 21.165 6.75 20.75V3.25C6.75 2.835 7.085 2.5 7.5 2.5H8V4C8 4.69 8.56 5.25 9.25 5.25H14.75C15.44 5.25 16 4.69 16 4V2.5H16.5C16.915 2.5 17.25 2.835 17.25 3.25V20.75Z" fill="black"/>
<path d="M12.035 15.25C12.4492 15.25 12.785 14.9142 12.785 14.5C12.785 14.0858 12.4492 13.75 12.035 13.75C11.6208 13.75 11.285 14.0858 11.285 14.5C11.285 14.9142 11.6208 15.25 12.035 15.25Z" fill="black"/>
<path d="M9.74001 12.2L10.8 13.26C11.48 12.58 12.59 12.58 13.275 13.26L14.335 12.2C13.07 10.935 11.005 10.935 9.74001 12.2Z" fill="black"/>
<path d="M7.97 10.4349L9.03 11.4949C10.685 9.83988 13.385 9.83988 15.04 11.4949L16.1 10.4349C13.86 8.19488 10.21 8.19488 7.97 10.4349Z" fill="black"/>
</g>
<defs>
<clipPath id="clip0_4711_22559">
<rect width="24" height="24" fill="white"/>
</clipPath>
</defs>
</svg>
