<svg width="24" height="24" viewBox="0 0 24 24" fill="none" xmlns="http://www.w3.org/2000/svg">
<g clip-path="url(#clip0_4711_19148)">
<path d="M21.165 4.625L20.335 3.375L13.665 7.815C13.205 7.46 12.625 7.25 12 7.25C11.375 7.25 10.8 7.46 10.335 7.815L3.66496 3.375L2.83496 4.625L9.43496 9.02C9.31496 9.325 9.24996 9.655 9.24996 10.005C9.24996 11.26 10.1 12.32 11.25 12.65V20.505H12.75V12.65C13.9 12.32 14.75 11.265 14.75 10.005C14.75 9.66 14.685 9.33 14.565 9.02L21.165 4.625ZM12 11.25C11.31 11.25 10.75 10.69 10.75 10C10.75 9.31 11.31 8.75 12 8.75C12.69 8.75 13.25 9.31 13.25 10C13.25 10.69 12.69 11.25 12 11.25Z" fill="black"/>
</g>
<defs>
<clipPath id="clip0_4711_19148">
<rect width="24" height="24" fill="white"/>
</clipPath>
</defs>
</svg>
