<svg width="24" height="24" viewBox="0 0 24 24" fill="none" xmlns="http://www.w3.org/2000/svg">
<g clip-path="url(#clip0_4711_23578)">
<path d="M21.125 2H2.875C2.39 2 2 2.39 2 2.875V15.5C2 16.05 2.45 16.5 3 16.5H5V22L10.5 16.5H21.125C21.61 16.5 22 16.11 22 15.625V2.875C22 2.39 21.61 2 21.125 2ZM20.5 15H9.88L9.44 15.44L6.5 18.38V15H3.5V3.5H20.5V15Z" fill="black"/>
<path d="M12.75 5H11.25V10.5H12.75V5Z" fill="black"/>
<path d="M12 13C12.4142 13 12.75 12.6642 12.75 12.25C12.75 11.8358 12.4142 11.5 12 11.5C11.5858 11.5 11.25 11.8358 11.25 12.25C11.25 12.6642 11.5858 13 12 13Z" fill="black"/>
</g>
<defs>
<clipPath id="clip0_4711_23578">
<rect width="24" height="24" fill="white"/>
</clipPath>
</defs>
</svg>
