<svg width="24" height="24" viewBox="0 0 24 24" fill="none" xmlns="http://www.w3.org/2000/svg">
<g clip-path="url(#clip0_2930_8760)">
<path d="M20.5 7H16.25V3.25C16.25 2.01 15.24 1 14 1H5C3.76 1 2.75 2.01 2.75 3.25V20.75C2.75 21.99 3.76 23 5 23H14C15.24 23 16.25 21.99 16.25 20.75V16.5H20.5C21.33 16.5 22 15.83 22 15V8.5C22 7.67 21.33 7 20.5 7ZM7 2.5H12V3.75H7V2.5ZM14.75 20.75C14.75 21.165 14.415 21.5 14 21.5H5C4.585 21.5 4.25 21.165 4.25 20.75V3.25C4.25 2.835 4.585 2.5 5 2.5H5.5V4C5.5 4.69 6.06 5.25 6.75 5.25H12.25C12.94 5.25 13.5 4.69 13.5 4V2.5H14C14.415 2.5 14.75 2.835 14.75 3.25V7H10.5C9.67 7 9 7.67 9 8.5V15C9 15.83 9.67 16.5 10.5 16.5H11.5V18.5L13.5 16.5H14.75V20.75ZM20.5 15H10.5V8.5H20.5V15Z" fill="black"/>
</g>
<defs>
<clipPath id="clip0_2930_8760">
<rect width="24" height="24" fill="white"/>
</clipPath>
</defs>
</svg>
