<svg width="24" height="24" viewBox="0 0 24 24" fill="none" xmlns="http://www.w3.org/2000/svg">
<g clip-path="url(#clip0_4711_22518)">
<path d="M17 17V7L12 12L17 17ZM15.5 13.38L14.12 12L15.5 10.62V13.375V13.38Z" fill="black"/>
<path d="M11 17V7L6 12L11 17ZM9.5 13.38L8.12 12L9.5 10.62V13.375V13.38Z" fill="black"/>
<path d="M12 1C5.925 1 1 5.925 1 12C1 18.075 5.925 23 12 23C18.075 23 23 18.075 23 12C23 5.925 18.075 1 12 1ZM12 21.5C6.76 21.5 2.5 17.24 2.5 12C2.5 6.76 6.76 2.5 12 2.5C17.24 2.5 21.5 6.76 21.5 12C21.5 17.24 17.24 21.5 12 21.5Z" fill="black"/>
</g>
<defs>
<clipPath id="clip0_4711_22518">
<rect width="24" height="24" fill="white"/>
</clipPath>
</defs>
</svg>
