<svg width="24" height="24" viewBox="0 0 24 24" fill="none" xmlns="http://www.w3.org/2000/svg">
<g clip-path="url(#clip0_4711_22579)">
<path d="M21.25 3.25H2.75V17.25H21.25V3.25ZM19.75 15.75H4.25V4.75H19.75V15.75Z" fill="black"/>
<path d="M23 19.25H1V20.75H23V19.25Z" fill="black"/>
<path d="M9.235 11.955L8.285 12.905L9.345 13.965L10.295 13.015C10.585 13.195 10.905 13.33 11.25 13.41V14.75H12.75V13.41C13.09 13.33 13.41 13.195 13.705 13.015L14.655 13.965L15.715 12.905L14.765 11.955C14.945 11.665 15.08 11.345 15.16 11H16.5V9.5H15.16C15.08 9.16 14.945 8.84 14.765 8.545L15.715 7.595L14.655 6.535L13.705 7.485C13.415 7.305 13.095 7.17 12.75 7.09V5.75H11.25V7.09C10.91 7.17 10.59 7.305 10.295 7.485L9.345 6.535L8.285 7.595L9.235 8.545C9.055 8.835 8.92 9.155 8.84 9.5H7.5V11H8.84C8.92 11.34 9.055 11.66 9.235 11.955ZM12 8.5C12.965 8.5 13.75 9.285 13.75 10.25C13.75 11.215 12.965 12 12 12C11.035 12 10.25 11.215 10.25 10.25C10.25 9.285 11.035 8.5 12 8.5Z" fill="black"/>
</g>
<defs>
<clipPath id="clip0_4711_22579">
<rect width="24" height="24" fill="white"/>
</clipPath>
</defs>
</svg>
