<svg width="24" height="24" viewBox="0 0 24 24" fill="none" xmlns="http://www.w3.org/2000/svg">
<g clip-path="url(#clip0_4711_24184)">
<path d="M13.5 1.25H11.75C5.825 1.25 1 6.07 1 12C1 17.93 5.825 22.75 11.75 22.75H13.635V19.75C18.675 19.68 22.75 15.555 22.75 10.5C22.75 5.445 18.6 1.25 13.5 1.25ZM13.5 18.25H12.135V21.25H11.75C6.65 21.25 2.5 17.1 2.5 12C2.5 6.9 6.65 2.75 11.75 2.75H13.5C17.775 2.75 21.25 6.225 21.25 10.5C21.25 14.775 17.775 18.25 13.5 18.25Z" fill="black"/>
<path d="M6 8.25C4.76 8.25 3.75 9.26 3.75 10.5C3.75 11.74 4.76 12.75 6 12.75C7.24 12.75 8.25 11.74 8.25 10.5C8.25 9.26 7.24 8.25 6 8.25ZM6 11.25C5.585 11.25 5.25 10.915 5.25 10.5C5.25 10.085 5.585 9.75 6 9.75C6.415 9.75 6.75 10.085 6.75 10.5C6.75 10.915 6.415 11.25 6 11.25Z" fill="black"/>
<path d="M9.75 4C8.51 4 7.5 5.01 7.5 6.25C7.5 7.49 8.51 8.5 9.75 8.5C10.99 8.5 12 7.49 12 6.25C12 5.01 10.99 4 9.75 4ZM9.75 7C9.335 7 9 6.665 9 6.25C9 5.835 9.335 5.5 9.75 5.5C10.165 5.5 10.5 5.835 10.5 6.25C10.5 6.665 10.165 7 9.75 7Z" fill="black"/>
<path d="M17.75 6.5C17.75 5.26 16.74 4.25 15.5 4.25C14.26 4.25 13.25 5.26 13.25 6.5C13.25 7.74 14.26 8.75 15.5 8.75C16.74 8.75 17.75 7.74 17.75 6.5ZM14.75 6.5C14.75 6.085 15.085 5.75 15.5 5.75C15.915 5.75 16.25 6.085 16.25 6.5C16.25 6.915 15.915 7.25 15.5 7.25C15.085 7.25 14.75 6.915 14.75 6.5Z" fill="black"/>
<path d="M17.75 9.25C16.51 9.25 15.5 10.26 15.5 11.5C15.5 12.74 16.51 13.75 17.75 13.75C18.99 13.75 20 12.74 20 11.5C20 10.26 18.99 9.25 17.75 9.25ZM17.75 12.25C17.335 12.25 17 11.915 17 11.5C17 11.085 17.335 10.75 17.75 10.75C18.165 10.75 18.5 11.085 18.5 11.5C18.5 11.915 18.165 12.25 17.75 12.25Z" fill="black"/>
</g>
<defs>
<clipPath id="clip0_4711_24184">
<rect width="24" height="24" fill="white"/>
</clipPath>
</defs>
</svg>
