<svg width="24" height="24" viewBox="0 0 24 24" fill="none" xmlns="http://www.w3.org/2000/svg">
<g clip-path="url(#clip0_2459_4856)">
<path d="M20.5 10C19.525 10 18.7 10.63 18.39 11.5H17.225C16.995 9.09 15.13 7.15 12.75 6.81V5.61C13.62 5.3 14.25 4.475 14.25 3.5C14.25 2.26 13.24 1.25 12 1.25C10.76 1.25 9.75 2.26 9.75 3.5C9.75 4.475 10.38 5.3 11.25 5.61V6.81C8.87 7.15 7.005 9.09 6.775 11.5H5.61C5.3 10.63 4.475 10 3.5 10C2.26 10 1.25 11.01 1.25 12.25C1.25 13.49 2.26 14.5 3.5 14.5C4.475 14.5 5.3 13.87 5.61 13H6.86C7.15 14.505 8.03 15.915 8.96 17.05C7 17.46 5.25 18.315 5.25 19.75C5.25 21.72 8.645 22.75 12 22.75C15.355 22.75 18.75 21.72 18.75 19.75C18.75 18.31 17 17.455 15.04 17.05C15.97 15.92 16.85 14.505 17.14 13H18.39C18.7 13.87 19.525 14.5 20.5 14.5C21.74 14.5 22.75 13.49 22.75 12.25C22.75 11.01 21.74 10 20.5 10ZM12 2.75C12.415 2.75 12.75 3.085 12.75 3.5C12.75 3.915 12.415 4.25 12 4.25C11.585 4.25 11.25 3.915 11.25 3.5C11.25 3.085 11.585 2.75 12 2.75ZM3.5 13C3.085 13 2.75 12.665 2.75 12.25C2.75 11.835 3.085 11.5 3.5 11.5C3.915 11.5 4.25 11.835 4.25 12.25C4.25 12.665 3.915 13 3.5 13ZM17.25 19.75C17.25 20.185 15.41 21.25 12 21.25C8.59 21.25 6.75 20.185 6.75 19.75C6.75 19.45 7.78 18.665 10.165 18.365C10.895 19.09 11.475 19.545 11.545 19.595L12.005 19.945L12.465 19.595C12.53 19.545 13.11 19.09 13.845 18.365C16.23 18.665 17.26 19.455 17.26 19.75H17.25ZM13.265 16.8C12.78 17.32 12.32 17.745 12 18.025C11.68 17.745 11.22 17.32 10.735 16.8C9.575 15.56 8.25 13.76 8.25 12C8.25 9.93 9.93 8.25 12 8.25C14.07 8.25 15.75 9.93 15.75 12C15.75 13.76 14.43 15.555 13.265 16.8ZM20.5 13C20.085 13 19.75 12.665 19.75 12.25C19.75 11.835 20.085 11.5 20.5 11.5C20.915 11.5 21.25 11.835 21.25 12.25C21.25 12.665 20.915 13 20.5 13Z" fill="black"/>
<path d="M12 10.7151C11.29 10.7151 10.715 11.2901 10.715 12.0001C10.715 12.7101 11.29 13.2851 12 13.2851C12.71 13.2851 13.285 12.7101 13.285 12.0001C13.285 11.2901 12.71 10.7151 12 10.7151Z" fill="black"/>
</g>
<defs>
<clipPath id="clip0_2459_4856">
<rect width="24" height="24" fill="white"/>
</clipPath>
</defs>
</svg>
