<svg width="24" height="24" viewBox="0 0 24 24" fill="none" xmlns="http://www.w3.org/2000/svg">
<g clip-path="url(#clip0_4711_24221)">
<path d="M12 1C5.935 1 1 5.935 1 12C1 18.065 5.935 23 12 23C18.065 23 23 18.065 23 12C23 5.935 18.065 1 12 1ZM12 21.5C6.76 21.5 2.5 17.24 2.5 12C2.5 6.76 6.76 2.5 12 2.5C17.24 2.5 21.5 6.76 21.5 12C21.5 17.24 17.24 21.5 12 21.5Z" fill="black"/>
<path d="M12 4H11.25V20H12C16.41 20 20 16.41 20 12C20 7.59 16.41 4 12 4ZM12.75 18.455V5.545C15.98 5.92 18.5 8.67 18.5 12C18.5 15.33 15.98 18.085 12.75 18.455Z" fill="black"/>
</g>
<defs>
<clipPath id="clip0_4711_24221">
<rect width="24" height="24" fill="white"/>
</clipPath>
</defs>
</svg>
