<svg width="24" height="24" viewBox="0 0 24 24" fill="none" xmlns="http://www.w3.org/2000/svg">
<g clip-path="url(#clip0_4711_19862)">
<path d="M19.75 8.5H15.79L16.36 6.795C16.455 6.515 16.5 6.22 16.5 5.925V4.25C16.5 2.735 15.265 1.5 13.75 1.5H13.21C12.72 1.5 12.305 1.85 12.225 2.335L11.86 4.515C11.82 4.765 11.705 4.995 11.505 5.2L7.065 10.25H1.5V21.25H6.68L11.405 22.11C11.92 22.205 12.445 22.25 12.97 22.25H16.365C18.41 22.25 20.225 20.945 20.87 19L22.255 14.85C22.415 14.365 22.5 13.86 22.5 13.35V11.25C22.5 9.735 21.265 8.5 19.75 8.5ZM3 11.75H6V19.75H3V11.75ZM21 13.35C21 13.7 20.945 14.045 20.835 14.38L19.45 18.53C19.005 19.86 17.77 20.75 16.365 20.75H12.97C12.535 20.75 12.1 20.71 11.675 20.635L7.5 19.875V12.035L12.615 6.215C13 5.815 13.25 5.315 13.34 4.765L13.635 3H13.75C14.44 3 15 3.56 15 4.25V5.925C15 6.06 14.98 6.195 14.935 6.32L14.09 8.85C14 9.115 14.045 9.41 14.21 9.64C14.375 9.865 14.64 10.005 14.92 10.005H19.745C20.435 10.005 20.995 10.565 20.995 11.255V13.355L21 13.35Z" fill="black"/>
</g>
<defs>
<clipPath id="clip0_4711_19862">
<rect width="24" height="24" fill="white"/>
</clipPath>
</defs>
</svg>
