<svg width="25" height="24" viewBox="0 0 25 24" fill="none" xmlns="http://www.w3.org/2000/svg">
<g clip-path="url(#clip0_2459_7611)">
<path d="M16.06 7.74991H21.81V1.99991H20.31V5.11491C20.105 4.86991 19.89 4.62991 19.66 4.39991C15.47 0.204912 8.65 0.204912 4.46 4.39991C0.270005 8.59491 0.270005 15.4099 4.46 19.6049C6.55501 21.6999 9.31001 22.7499 12.06 22.7499C14.81 22.7499 17.565 21.6999 19.66 19.6049L18.6 18.5449C14.995 22.1499 9.125 22.1499 5.52 18.5449C3.775 16.7999 2.81 14.4749 2.81 12.0049C2.81 9.53491 3.77 7.20991 5.52 5.46491C9.125 1.85991 14.995 1.85991 18.6 5.46491C18.85 5.71491 19.08 5.97991 19.3 6.25491H16.06V7.75491V7.74991Z" fill="black"/>
</g>
<defs>
<clipPath id="clip0_2459_7611">
<rect width="24" height="24" fill="white" transform="translate(0.0599976)"/>
</clipPath>
</defs>
</svg>
