<svg width="24" height="24" viewBox="0 0 24 24" fill="none" xmlns="http://www.w3.org/2000/svg">
<g clip-path="url(#clip0_4711_19882)">
<path d="M12 1C5.925 1 1 5.925 1 12C1 18.075 5.925 23 12 23C18.075 23 23 18.075 23 12C23 5.925 18.075 1 12 1ZM12 21.5C6.76 21.5 2.5 17.24 2.5 12C2.5 6.76 6.76 2.5 12 2.5C17.24 2.5 21.5 6.76 21.5 12C21.5 17.24 17.24 21.5 12 21.5Z" fill="black"/>
<path d="M6 9.75C4.76 9.75 3.75 10.76 3.75 12C3.75 13.24 4.76 14.25 6 14.25C7.24 14.25 8.25 13.24 8.25 12C8.25 10.76 7.24 9.75 6 9.75ZM6 12.75C5.585 12.75 5.25 12.415 5.25 12C5.25 11.585 5.585 11.25 6 11.25C6.415 11.25 6.75 11.585 6.75 12C6.75 12.415 6.415 12.75 6 12.75Z" fill="black"/>
<path d="M12 9.75C10.76 9.75 9.75 10.76 9.75 12C9.75 13.24 10.76 14.25 12 14.25C13.24 14.25 14.25 13.24 14.25 12C14.25 10.76 13.24 9.75 12 9.75ZM12 12.75C11.585 12.75 11.25 12.415 11.25 12C11.25 11.585 11.585 11.25 12 11.25C12.415 11.25 12.75 11.585 12.75 12C12.75 12.415 12.415 12.75 12 12.75Z" fill="black"/>
<path d="M18 9.75C16.76 9.75 15.75 10.76 15.75 12C15.75 13.24 16.76 14.25 18 14.25C19.24 14.25 20.25 13.24 20.25 12C20.25 10.76 19.24 9.75 18 9.75ZM18 12.75C17.585 12.75 17.25 12.415 17.25 12C17.25 11.585 17.585 11.25 18 11.25C18.415 11.25 18.75 11.585 18.75 12C18.75 12.415 18.415 12.75 18 12.75Z" fill="black"/>
</g>
<defs>
<clipPath id="clip0_4711_19882">
<rect width="24" height="24" fill="white"/>
</clipPath>
</defs>
</svg>
