<svg width="24" height="24" viewBox="0 0 24 24" fill="none" xmlns="http://www.w3.org/2000/svg">
<g clip-path="url(#clip0_4711_22511)">
<path d="M18.25 8V1H5.75V8H3V18.25C3 20.87 5.13 23 7.75 23H16.25C18.87 23 21 20.87 21 18.25V8H18.25ZM7.25 2.5H16.75V8H7.25V2.5ZM19.5 18.25C19.5 20.04 18.04 21.5 16.25 21.5H7.75C5.96 21.5 4.5 20.04 4.5 18.25V9.5H19.5V18.25Z" fill="black"/>
<path d="M14.755 4.19507H13.255V6.19507H14.755V4.19507Z" fill="black"/>
<path d="M10.755 4.19507H9.255V6.19507H10.755V4.19507Z" fill="black"/>
<path d="M15.5 18H8.5V19.5H15.5V18Z" fill="black"/>
</g>
<defs>
<clipPath id="clip0_4711_22511">
<rect width="24" height="24" fill="white"/>
</clipPath>
</defs>
</svg>
