<svg width="24" height="24" viewBox="0 0 24 24" fill="none" xmlns="http://www.w3.org/2000/svg">
<g clip-path="url(#clip0_4711_24187)">
<path d="M22.75 2.5L5.42 6.175H1.25V16.675H4.75V19C4.75 20.24 5.76 21.25 7 21.25H12.25C13.49 21.25 14.5 20.24 14.5 19V18.6L22.75 20.35V2.5ZM2.75 7.675H4.75V15.175H2.75V7.675ZM13 19C13 19.415 12.665 19.75 12.25 19.75H7C6.585 19.75 6.25 19.415 6.25 19V16.85L13 18.28V18.995V19ZM21.25 18.5L6.25 15.32V7.535L21.25 4.355V18.505V18.5Z" fill="black"/>
</g>
<defs>
<clipPath id="clip0_4711_24187">
<rect width="24" height="24" fill="white"/>
</clipPath>
</defs>
</svg>
