<svg width="24" height="24" viewBox="0 0 24 24" fill="none" xmlns="http://www.w3.org/2000/svg">
<g clip-path="url(#clip0_4711_22577)">
<path d="M12 18C10.485 18 9.25 16.765 9.25 15.25C9.25 14.835 8.915 14.5 8.5 14.5C8.085 14.5 7.75 14.835 7.75 15.25C7.75 17.595 9.655 19.5 12 19.5C12.415 19.5 12.75 19.165 12.75 18.75C12.75 18.335 12.415 18 12 18Z" fill="black"/>
<path d="M14.75 13C14.75 13.415 15.085 13.75 15.5 13.75C15.915 13.75 16.25 13.415 16.25 13V8.75C16.25 6.405 14.345 4.5 12 4.5C9.655 4.5 7.75 6.405 7.75 8.75V11.75C7.75 12.165 8.085 12.5 8.5 12.5C8.915 12.5 9.25 12.165 9.25 11.75V8.75C9.25 7.235 10.485 6 12 6C13.515 6 14.75 7.235 14.75 8.75V13Z" fill="black"/>
<path d="M12 8.25C11.585 8.25 11.25 8.585 11.25 9V15C11.25 15.415 11.585 15.75 12 15.75C12.415 15.75 12.75 15.415 12.75 15V9C12.75 8.585 12.415 8.25 12 8.25Z" fill="black"/>
<path d="M12 1C7.725 1 4.25 4.475 4.25 8.75C4.25 9.165 4.585 9.5 5 9.5C5.415 9.5 5.75 9.165 5.75 8.75C5.75 5.305 8.555 2.5 12 2.5C15.445 2.5 18.25 5.305 18.25 8.75V15.25C18.25 17 17.5 18.645 16.25 19.815V16.5C16.25 16.085 15.915 15.75 15.5 15.75C15.085 15.75 14.75 16.085 14.75 16.5V21.315C14.75 21.315 14.75 21.345 14.75 21.355C14.75 21.38 14.75 21.41 14.76 21.435C14.76 21.46 14.77 21.48 14.775 21.505C14.78 21.53 14.79 21.55 14.795 21.575C14.805 21.6 14.815 21.625 14.83 21.65C14.835 21.665 14.84 21.675 14.845 21.69C14.845 21.695 14.855 21.7 14.855 21.705C14.885 21.755 14.92 21.805 14.965 21.845C14.965 21.845 14.975 21.855 14.98 21.86C15.02 21.895 15.06 21.925 15.105 21.955C15.12 21.965 15.135 21.97 15.15 21.98C15.19 22 15.23 22.015 15.27 22.03C15.285 22.03 15.3 22.04 15.315 22.045C15.37 22.06 15.425 22.065 15.485 22.065C15.485 22.065 15.485 22.065 15.49 22.065C15.49 22.065 15.495 22.065 15.5 22.065C15.555 22.065 15.61 22.055 15.665 22.045C15.68 22.045 15.695 22.035 15.71 22.03C15.755 22.015 15.795 22 15.835 21.98C15.845 21.98 15.855 21.975 15.865 21.97C18.255 20.59 19.74 18.015 19.74 15.255V8.755C19.74 4.48 16.265 1.005 11.99 1.005L12 1Z" fill="black"/>
<path d="M12 21.5C8.555 21.5 5.75 18.695 5.75 15.25V12.25C5.75 11.835 5.415 11.5 5 11.5C4.585 11.5 4.25 11.835 4.25 12.25V15.25C4.25 19.525 7.725 23 12 23C12.415 23 12.75 22.665 12.75 22.25C12.75 21.835 12.415 21.5 12 21.5Z" fill="black"/>
</g>
<defs>
<clipPath id="clip0_4711_22577">
<rect width="24" height="24" fill="white"/>
</clipPath>
</defs>
</svg>
