<svg width="24" height="24" viewBox="0 0 24 24" fill="none" xmlns="http://www.w3.org/2000/svg">
<g clip-path="url(#clip0_4711_19880)">
<path d="M4.75 9.25C3.235 9.25 2 10.485 2 12C2 13.515 3.235 14.75 4.75 14.75C6.265 14.75 7.5 13.515 7.5 12C7.5 10.485 6.265 9.25 4.75 9.25ZM4.75 13.25C4.06 13.25 3.5 12.69 3.5 12C3.5 11.31 4.06 10.75 4.75 10.75C5.44 10.75 6 11.31 6 12C6 12.69 5.44 13.25 4.75 13.25Z" fill="black"/>
<path d="M12 9.25C10.485 9.25 9.25 10.485 9.25 12C9.25 13.515 10.485 14.75 12 14.75C13.515 14.75 14.75 13.515 14.75 12C14.75 10.485 13.515 9.25 12 9.25ZM12 13.25C11.31 13.25 10.75 12.69 10.75 12C10.75 11.31 11.31 10.75 12 10.75C12.69 10.75 13.25 11.31 13.25 12C13.25 12.69 12.69 13.25 12 13.25Z" fill="black"/>
<path d="M19.25 9.25C17.735 9.25 16.5 10.485 16.5 12C16.5 13.515 17.735 14.75 19.25 14.75C20.765 14.75 22 13.515 22 12C22 10.485 20.765 9.25 19.25 9.25ZM19.25 13.25C18.56 13.25 18 12.69 18 12C18 11.31 18.56 10.75 19.25 10.75C19.94 10.75 20.5 11.31 20.5 12C20.5 12.69 19.94 13.25 19.25 13.25Z" fill="black"/>
</g>
<defs>
<clipPath id="clip0_4711_19880">
<rect width="24" height="24" fill="white"/>
</clipPath>
</defs>
</svg>
