<svg width="24" height="24" viewBox="0 0 24 24" fill="none" xmlns="http://www.w3.org/2000/svg">
<g clip-path="url(#clip0_4711_22584)">
<path d="M16.5 1H7.5C6.26 1 5.25 2.01 5.25 3.25V20.75C5.25 21.99 6.26 23 7.5 23H16.5C17.74 23 18.75 21.99 18.75 20.75V3.25C18.75 2.01 17.74 1 16.5 1ZM9.5 2.5H14.5V3.75H9.5V2.5ZM17.25 20.75C17.25 21.165 16.915 21.5 16.5 21.5H7.5C7.085 21.5 6.75 21.165 6.75 20.75V3.25C6.75 2.835 7.085 2.5 7.5 2.5H8V4C8 4.69 8.56 5.25 9.25 5.25H14.75C15.44 5.25 16 4.69 16 4V2.5H16.5C16.915 2.5 17.25 2.835 17.25 3.25V20.75Z" fill="black"/>
<path d="M12.75 9H11.25V14.5H12.75V9Z" fill="black"/>
<path d="M12 17C12.4142 17 12.75 16.6642 12.75 16.25C12.75 15.8358 12.4142 15.5 12 15.5C11.5858 15.5 11.25 15.8358 11.25 16.25C11.25 16.6642 11.5858 17 12 17Z" fill="black"/>
</g>
<defs>
<clipPath id="clip0_4711_22584">
<rect width="24" height="24" fill="white"/>
</clipPath>
</defs>
</svg>
