<svg width="24" height="24" viewBox="0 0 24 24" fill="none" xmlns="http://www.w3.org/2000/svg">
<g clip-path="url(#clip0_4711_22930)">
<path d="M8.25 12C9.63 12 10.75 10.88 10.75 9.5C10.75 8.12 9.63 7 8.25 7C6.87 7 5.75 8.12 5.75 9.5C5.75 10.88 6.87 12 8.25 12ZM8.25 8.5C8.8 8.5 9.25 8.95 9.25 9.5C9.25 10.05 8.8 10.5 8.25 10.5C7.7 10.5 7.25 10.05 7.25 9.5C7.25 8.95 7.7 8.5 8.25 8.5Z" fill="black"/>
<path d="M12.5 13.8851L12.16 13.6651C9.785 12.1051 6.715 12.1051 4.34 13.6651L4 13.8851V17.0001H12.5V13.8851ZM11 15.5001H5.5V14.7151C7.21 13.7601 9.29 13.7601 11 14.7151V15.5001Z" fill="black"/>
<path d="M19.5 12.75H14V14.25H19.5V12.75Z" fill="black"/>
<path d="M19.5 9.75H14V11.25H19.5V9.75Z" fill="black"/>
<path d="M1 3.5V20.5H23V3.5H1ZM21.5 19H2.5V5H21.5V19Z" fill="black"/>
</g>
<defs>
<clipPath id="clip0_4711_22930">
<rect width="24" height="24" fill="white"/>
</clipPath>
</defs>
</svg>
