<svg width="24" height="24" viewBox="0 0 24 24" fill="none" xmlns="http://www.w3.org/2000/svg">
<g clip-path="url(#clip0_4711_24213)">
<path d="M18.5 2H5.5L1 9L12 22L23 9L18.5 2ZM7.55 9.75L10.21 17.56L3.605 9.75H7.555H7.55ZM14.865 9.75L12 18.175L9.135 9.75H14.87H14.865ZM8.97 8.25L10.62 3.5H13.38L15.03 8.25H8.965H8.97ZM16.45 9.75H20.4L13.795 17.56L16.455 9.75H16.45ZM20.735 8.25H16.62L14.97 3.5H17.685L20.74 8.25H20.735ZM6.32 3.5H9.035L7.385 8.25H3.265L6.32 3.5Z" fill="black"/>
</g>
<defs>
<clipPath id="clip0_4711_24213">
<rect width="24" height="24" fill="white"/>
</clipPath>
</defs>
</svg>
