<svg width="24" height="24" viewBox="0 0 24 24" fill="none" xmlns="http://www.w3.org/2000/svg">
<g clip-path="url(#clip0_4711_22525)">
<path d="M17.8934 2.55677L4.89185 20.5574L6.10783 21.4357L19.1094 3.43506L17.8934 2.55677Z" fill="black"/>
<path d="M8.25 10C10.04 10 11.5 8.54 11.5 6.75C11.5 4.96 10.04 3.5 8.25 3.5C6.46 3.5 5 4.96 5 6.75C5 8.54 6.46 10 8.25 10ZM8.25 5C9.215 5 10 5.785 10 6.75C10 7.715 9.215 8.5 8.25 8.5C7.285 8.5 6.5 7.715 6.5 6.75C6.5 5.785 7.285 5 8.25 5Z" fill="black"/>
<path d="M15.75 14C13.96 14 12.5 15.46 12.5 17.25C12.5 19.04 13.96 20.5 15.75 20.5C17.54 20.5 19 19.04 19 17.25C19 15.46 17.54 14 15.75 14ZM15.75 19C14.785 19 14 18.215 14 17.25C14 16.285 14.785 15.5 15.75 15.5C16.715 15.5 17.5 16.285 17.5 17.25C17.5 18.215 16.715 19 15.75 19Z" fill="black"/>
</g>
<defs>
<clipPath id="clip0_4711_22525">
<rect width="24" height="24" fill="white"/>
</clipPath>
</defs>
</svg>
