<svg width="24" height="24" viewBox="0 0 24 24" fill="none" xmlns="http://www.w3.org/2000/svg">
<g clip-path="url(#clip0_4711_23542)">
<path d="M15.5 1H3V23H21V6.5L15.5 1ZM16.25 3.87L18.63 6.25H16.25V3.87ZM4.5 21.5V2.5H14.75V7.75H19.5V21.5H4.5Z" fill="black"/>
<path d="M13.975 9.025C13.29 8.34 12.395 8 11.5 8C10.605 8 9.70997 8.34 9.02497 9.025C7.65997 10.39 7.65997 12.61 9.02497 13.975C9.70997 14.66 10.605 15 11.5 15C12.155 15 12.815 14.815 13.385 14.445L15.47 16.53L16.53 15.47L14.445 13.385C15.315 12.03 15.16 10.21 13.975 9.025ZM11.5 13.5C10.965 13.5 10.465 13.29 10.085 12.915C9.30497 12.135 9.30497 10.865 10.085 10.085C10.465 9.705 10.965 9.5 11.5 9.5C12.035 9.5 12.535 9.71 12.915 10.085C13.695 10.865 13.695 12.135 12.915 12.915C12.535 13.295 12.035 13.5 11.5 13.5Z" fill="black"/>
</g>
<defs>
<clipPath id="clip0_4711_23542">
<rect width="24" height="24" fill="white"/>
</clipPath>
</defs>
</svg>
