<svg width="24" height="24" viewBox="0 0 24 24" fill="none" xmlns="http://www.w3.org/2000/svg">
<g clip-path="url(#clip0_4711_19878)">
<path d="M12.75 1H11.25V13H12.75V1Z" fill="black"/>
<path d="M19.25 5.5L18.19 6.56C19.845 8.215 20.755 10.41 20.755 12.745C20.755 15.08 19.845 17.28 18.19 18.93C14.78 22.34 9.22501 22.34 5.815 18.93C4.16 17.275 3.25 15.08 3.25 12.745C3.25 10.41 4.16 8.21 5.815 6.56L4.755 5.5C2.82 7.435 1.755 10.01 1.755 12.75C1.755 15.49 2.82 18.06 4.755 20C6.755 22 9.38 23 12.005 22.995C14.63 22.995 17.255 21.995 19.255 20C21.19 18.065 22.255 15.49 22.255 12.75C22.255 10.01 21.19 7.44 19.255 5.5H19.25Z" fill="black"/>
</g>
<defs>
<clipPath id="clip0_4711_19878">
<rect width="24" height="24" fill="white"/>
</clipPath>
</defs>
</svg>
