<svg width="24" height="24" viewBox="0 0 24 24" fill="none" xmlns="http://www.w3.org/2000/svg">
<g clip-path="url(#clip0_2930_8781)">
<path d="M4.5 1.5V22.5H19.5V1.5H4.5ZM18 21H6V3H18V21Z" fill="black"/>
<path d="M16.5 4.5H7.5V9H16.5V4.5ZM15 7.5H9V6H15V7.5Z" fill="black"/>
<path d="M9.5 17.5H7.5V19.5H9.5V17.5Z" fill="black"/>
<path d="M9.5 14H7.5V16H9.5V14Z" fill="black"/>
<path d="M9.5 10.5H7.5V12.5H9.5V10.5Z" fill="black"/>
<path d="M13 17.5H11V19.5H13V17.5Z" fill="black"/>
<path d="M13 14H11V16H13V14Z" fill="black"/>
<path d="M13 10.5H11V12.5H13V10.5Z" fill="black"/>
<path d="M16.5 10.5H14.5V12.5H16.5V10.5Z" fill="black"/>
<path d="M16.5 14H14.5V19.5H16.5V14Z" fill="black"/>
</g>
<defs>
<clipPath id="clip0_2930_8781">
<rect width="24" height="24" fill="white"/>
</clipPath>
</defs>
</svg>
