<svg width="24" height="24" viewBox="0 0 24 24" fill="none" xmlns="http://www.w3.org/2000/svg">
<g clip-path="url(#clip0_4711_19932)">
<path d="M11.9399 1L1.18994 11.75L3.99994 14.56V20.5H9.97994L9.95994 20.52L12.2499 22.81L22.9999 12.06V1H11.9399ZM9.24994 14H6.74994V12.22C6.74994 11.55 7.30994 11 7.99994 11C8.68994 11 9.24994 11.545 9.24994 12.22V14ZM5.49994 15.5H10.4999V19H5.49994V15.5ZM21.4999 11.44L12.2499 20.69L11.9999 20.44V14H10.7499V12.22C10.7499 10.72 9.51494 9.5 7.99994 9.5C6.48494 9.5 5.24994 10.72 5.24994 12.22V13.69L3.30994 11.75L12.5599 2.5H21.4999V11.44Z" fill="black"/>
<path d="M17.25 9.5C18.765 9.5 20 8.265 20 6.75C20 5.235 18.765 4 17.25 4C15.735 4 14.5 5.235 14.5 6.75C14.5 8.265 15.735 9.5 17.25 9.5ZM17.25 5.5C17.94 5.5 18.5 6.06 18.5 6.75C18.5 7.44 17.94 8 17.25 8C16.56 8 16 7.44 16 6.75C16 6.06 16.56 5.5 17.25 5.5Z" fill="black"/>
</g>
<defs>
<clipPath id="clip0_4711_19932">
<rect width="24" height="24" fill="white"/>
</clipPath>
</defs>
</svg>
