<svg width="24" height="24" viewBox="0 0 24 24" fill="none" xmlns="http://www.w3.org/2000/svg">
<g clip-path="url(#clip0_4711_24208)">
<path d="M15.465 12.845L22.935 2.5H15.585L11.97 7.51L8.355 2.5H1L8.47 12.845C7.395 13.805 6.715 15.2 6.715 16.75C6.715 19.645 9.07 22 11.965 22C14.86 22 17.215 19.645 17.215 16.75C17.215 15.2 16.535 13.805 15.46 12.845H15.465ZM16.35 4H20L14.715 11.315L12.89 8.79L16.35 4ZM7.585 4L13 11.5H9.35L3.935 4H7.585ZM11.965 20.5C9.895 20.5 8.215 18.82 8.215 16.75C8.215 14.68 9.895 13 11.965 13C14.035 13 15.715 14.68 15.715 16.75C15.715 18.82 14.035 20.5 11.965 20.5Z" fill="black"/>
</g>
<defs>
<clipPath id="clip0_4711_24208">
<rect width="24" height="24" fill="white"/>
</clipPath>
</defs>
</svg>
