<svg width="24" height="24" viewBox="0 0 24 24" fill="none" xmlns="http://www.w3.org/2000/svg">
<g clip-path="url(#clip0_4711_23551)">
<path d="M9.77997 13.53L12 11.31L14.22 13.53L15.28 12.47L13.06 10.25L15.28 8.02997L14.22 6.96997L12 9.18997L9.77997 6.96997L8.71997 8.02997L10.94 10.25L8.71997 12.47L9.77997 13.53Z" fill="black"/>
<path d="M21.125 3H2.875C2.39 3 2 3.39 2 3.875V16.5C2 17.05 2.45 17.5 3 17.5H5V23L10.5 17.5H21.125C21.61 17.5 22 17.11 22 16.625V3.875C22 3.39 21.61 3 21.125 3ZM20.5 16H9.88L9.44 16.44L6.5 19.38V16H3.5V4.5H20.5V16Z" fill="black"/>
</g>
<defs>
<clipPath id="clip0_4711_23551">
<rect width="24" height="24" fill="white"/>
</clipPath>
</defs>
</svg>
