<svg width="24" height="24" viewBox="0 0 24 24" fill="none" xmlns="http://www.w3.org/2000/svg">
<g clip-path="url(#clip0_4711_19222)">
<path d="M20 9.25012C18.745 9.25012 17.685 10.1001 17.355 11.2501H14.64C14.38 10.3351 13.66 9.61512 12.745 9.35512V6.64012C13.895 6.31012 14.745 5.25512 14.745 3.99512C14.745 2.48012 13.51 1.24512 11.995 1.24512C10.48 1.24512 9.24499 2.48012 9.24499 3.99512C9.24499 5.25012 10.095 6.31012 11.245 6.64012V9.35512C10.33 9.61512 9.60999 10.3351 9.34999 11.2501H6.63499C6.30499 10.1001 5.24999 9.25012 3.98999 9.25012C2.47499 9.25012 1.23999 10.4851 1.23999 12.0001C1.23999 13.5151 2.47499 14.7501 3.98999 14.7501C5.24499 14.7501 6.30499 13.9001 6.63499 12.7501H9.34999C9.60999 13.6651 10.33 14.3851 11.245 14.6451V17.3601C10.095 17.6901 9.24499 18.7451 9.24499 20.0051C9.24499 21.5201 10.48 22.7551 11.995 22.7551C13.51 22.7551 14.745 21.5201 14.745 20.0051C14.745 18.7501 13.895 17.6901 12.745 17.3601V14.6451C13.66 14.3851 14.38 13.6651 14.64 12.7501H17.355C17.685 13.9001 18.74 14.7501 20 14.7501C21.515 14.7501 22.75 13.5151 22.75 12.0001C22.75 10.4851 21.515 9.25012 20 9.25012ZM3.99999 13.2501C3.30999 13.2501 2.74999 12.6901 2.74999 12.0001C2.74999 11.3101 3.30999 10.7501 3.99999 10.7501C4.68999 10.7501 5.24999 11.3101 5.24999 12.0001C5.24999 12.6901 4.68999 13.2501 3.99999 13.2501ZM10.75 4.00012C10.75 3.31012 11.31 2.75012 12 2.75012C12.69 2.75012 13.25 3.31012 13.25 4.00012C13.25 4.69012 12.69 5.25012 12 5.25012C11.31 5.25012 10.75 4.69012 10.75 4.00012ZM13.25 20.0001C13.25 20.6901 12.69 21.2501 12 21.2501C11.31 21.2501 10.75 20.6901 10.75 20.0001C10.75 19.3101 11.31 18.7501 12 18.7501C12.69 18.7501 13.25 19.3101 13.25 20.0001ZM12 13.2501C11.31 13.2501 10.75 12.6901 10.75 12.0001C10.75 11.3101 11.31 10.7501 12 10.7501C12.69 10.7501 13.25 11.3101 13.25 12.0001C13.25 12.6901 12.69 13.2501 12 13.2501ZM20 13.2501C19.31 13.2501 18.75 12.6901 18.75 12.0001C18.75 11.3101 19.31 10.7501 20 10.7501C20.69 10.7501 21.25 11.3101 21.25 12.0001C21.25 12.6901 20.69 13.2501 20 13.2501Z" fill="black"/>
</g>
<defs>
<clipPath id="clip0_4711_19222">
<rect width="24" height="24" fill="white"/>
</clipPath>
</defs>
</svg>
