<svg width="24" height="24" viewBox="0 0 24 24" fill="none" xmlns="http://www.w3.org/2000/svg">
<g clip-path="url(#clip0_4711_19189)">
<path d="M21.5 18.25V15.5H18.5V14.25H20V9.75H18.5V7H12.75V5.75H15.75V1.25H8.25V5.75H11.25V7H5.5V9.75H4V14.25H5.5V15.5H2.75V18.25H1.25V22.75H5.75V18.25H4.25V17H8.5V18.25H7V22.75H11.5V18.25H10V15.5H7V14.25H8.5V9.75H7V8.5H11.25V9.75H9.75V14.25H14.25V9.75H12.75V8.5H17V9.75H15.5V14.25H17V15.5H14.25V18.25H12.75V22.75H17.25V18.25H15.75V17H20V18.25H18.5V22.75H23V18.25H21.5ZM9.75 2.75H14.25V4.25H9.75V2.75ZM4.25 21.25H2.75V19.75H4.25V21.25ZM10 21.25H8.5V19.75H10V21.25ZM7 12.75H5.5V11.25H7V12.75ZM12.75 12.75H11.25V11.25H12.75V12.75ZM17 11.25H18.5V12.75H17V11.25ZM15.75 21.25H14.25V19.75H15.75V21.25ZM21.5 21.25H20V19.75H21.5V21.25Z" fill="black"/>
</g>
<defs>
<clipPath id="clip0_4711_19189">
<rect width="24" height="24" fill="white"/>
</clipPath>
</defs>
</svg>
