<svg width="24" height="24" viewBox="0 0 24 24" fill="none" xmlns="http://www.w3.org/2000/svg">
<g clip-path="url(#clip0_4711_24238)">
<path d="M7.32997 8.57007C7.07497 8.58007 6.75497 8.74007 6.56997 8.96007C6.40497 9.15007 6.26497 9.46007 6.29997 9.75007C6.58997 9.77507 6.87997 9.60507 7.06497 9.39007C7.24497 9.17007 7.36497 8.87007 7.32997 8.57007Z" fill="black"/>
<path d="M5.58002 13.6899C5.90002 13.6749 6.03002 13.4799 6.42002 13.4799C6.81002 13.4799 6.92002 13.6899 7.26502 13.6849C7.61502 13.6749 7.83502 13.3699 8.05502 13.0549C8.29502 12.6949 8.39502 12.3499 8.40002 12.3299C8.39502 12.3199 7.72002 12.0649 7.71502 11.2899C7.70502 10.6449 8.24502 10.3299 8.27002 10.3149C7.96502 9.86489 7.49002 9.81489 7.33002 9.80489C6.90502 9.77989 6.54502 10.0449 6.34502 10.0449C6.14502 10.0449 5.83002 9.81489 5.50002 9.82489C5.06502 9.82989 4.66002 10.0749 4.44002 10.4649C3.98502 11.2499 4.32002 12.4049 4.76502 13.0399C4.98002 13.3549 5.24002 13.6999 5.58002 13.6899Z" fill="black"/>
<path d="M10.5 12.0349H11.52C12.45 12.0349 13.105 11.3999 13.105 10.4799C13.105 9.55993 12.46 8.92993 11.545 8.92993H9.76501V13.6499H10.5V12.0349ZM10.5 9.54493H11.35C11.99 9.54493 12.355 9.88493 12.355 10.4849C12.355 11.0849 11.99 11.4199 11.345 11.4199H10.5V9.54493Z" fill="black"/>
<path d="M17.695 13.8651C17.58 14.2201 17.4 14.3601 17.07 14.3601C17.015 14.3601 16.9 14.3501 16.855 14.3501V14.9151C16.9 14.9301 17.08 14.9351 17.14 14.9351C17.855 14.9351 18.195 14.6601 18.49 13.8351L19.775 10.2251H19.03L18.165 13.0151H18.15L17.285 10.2251H16.515L17.76 13.6601L17.695 13.8651Z" fill="black"/>
<path d="M14.605 11.6649C13.75 11.7149 13.285 12.0649 13.285 12.6699C13.285 13.2749 13.765 13.6899 14.445 13.6899C14.91 13.6899 15.335 13.4549 15.53 13.0849H15.545V13.6549H16.225V11.2999H16.23C16.23 10.6199 15.68 10.1799 14.84 10.1799C14.06 10.1799 13.48 10.6249 13.46 11.2349H14.125C14.18 10.9449 14.45 10.7549 14.82 10.7549C15.27 10.7549 15.52 10.9599 15.52 11.3499V11.6099L14.605 11.6649ZM15.52 12.3649C15.52 12.8099 15.145 13.1249 14.645 13.1249C14.25 13.1249 14 12.9349 14 12.6499C14 12.3499 14.24 12.1799 14.705 12.1499L15.52 12.0999V12.3649Z" fill="black"/>
<path d="M1.25 4V19.5H22.75V4H1.25ZM21.75 18.5H2.25V5H21.75V18.5Z" fill="black"/>
</g>
<defs>
<clipPath id="clip0_4711_24238">
<rect width="24" height="24" fill="white"/>
</clipPath>
</defs>
</svg>
