<svg width="24" height="24" viewBox="0 0 24 24" fill="none" xmlns="http://www.w3.org/2000/svg">
<g clip-path="url(#clip0_4711_24227)">
<path d="M10.5351 11.7449C10.5951 11.2849 10.7051 11.1049 10.7601 11.0399C10.8251 10.9899 10.9051 10.9399 11.0201 10.9399C11.3151 10.9399 11.2851 11.2249 11.2851 11.2449C11.2851 11.2599 10.9451 13.3899 10.9451 13.3899H12.0751L12.4051 11.3649C12.4051 11.3649 12.6951 10.2649 12.0151 10.0749C11.3401 9.88491 10.7201 10.3499 10.7201 10.3499H10.7151L10.7201 10.3099V10.0749H9.69006L9.18506 13.3899H10.3251L10.5351 11.7449Z" fill="black"/>
<path d="M6.66499 13.2101C6.66499 13.2101 6.68499 13.2301 6.69499 13.2351C6.70999 13.2551 6.72999 13.2601 6.74999 13.2601C7.70999 13.8151 8.70499 13.2351 8.70499 13.2351L8.81999 12.3151C8.81999 12.3151 8.23499 12.6051 7.81499 12.5801C7.38999 12.5551 7.37499 12.0501 7.37499 12.0501C7.51499 12.0351 8.12499 11.9551 8.48999 11.7801C8.78499 11.6451 9.12499 11.3101 9.05999 10.8501C9.05499 10.8451 9.05999 10.8401 9.05499 10.8401C9.02999 10.5051 8.86999 10.3051 8.71999 10.1951C8.71499 10.1951 8.71499 10.1901 8.70999 10.1851C8.70999 10.1851 8.67999 10.1651 8.62499 10.1351C8.51499 10.0751 8.42499 10.0601 8.42499 10.0601C8.25499 10.0101 8.01499 9.97506 7.73499 10.0351C7.15499 10.1551 6.82999 10.4551 6.55499 10.8301C6.55499 10.8301 6.18499 11.4051 6.21999 12.1351C6.24999 12.8301 6.48499 13.0501 6.66499 13.2101ZM7.51499 11.0601C7.51499 11.0601 7.62499 10.8751 7.84499 10.8251C7.89999 10.8251 7.95499 10.8251 8.01999 10.8351C8.05999 10.8501 8.12999 10.9001 8.14499 11.0151C8.14999 11.1101 8.09499 11.1951 7.96499 11.2801C7.77499 11.4001 7.37999 11.4251 7.37999 11.4251C7.37999 11.4251 7.41999 11.2251 7.51499 11.0601Z" fill="black"/>
<path d="M4.76 13.3901C4.76 13.3901 5.195 12.8001 5.455 12.3501C5.715 11.8951 6.25 11.1151 5.88 9.99512C5.365 10.1101 4.8 10.2401 4.8 10.2401C5.185 11.2001 4.325 12.3501 4.325 12.3501L4.065 10.0901L2.87 10.1951L3.405 13.3901H4.76Z" fill="black"/>
<path d="M14.0301 11.745C14.0901 11.285 14.2051 11.105 14.2551 11.04C14.3201 10.99 14.4001 10.94 14.5151 10.94C14.8101 10.94 14.7801 11.225 14.7801 11.245C14.7801 11.26 14.4401 13.39 14.4401 13.39H15.5701L15.9001 11.365C15.9001 11.365 15.9051 11.36 15.9051 11.345C15.9201 11.3 15.9501 11.19 16.0001 11.1C16.0001 11.095 16.0701 11.01 16.1501 10.975C16.1801 10.97 16.2051 10.96 16.2451 10.96C16.4501 10.96 16.5501 11.07 16.4851 11.49C16.4201 11.915 16.1801 13.39 16.1801 13.39H17.3451C17.3451 13.39 17.6351 11.415 17.6751 11.2C17.7151 10.985 17.7601 10.4 17.4451 10.165C17.1351 9.92999 16.5551 10.04 16.3551 10.11C16.1501 10.185 15.8701 10.385 15.8701 10.385C15.8051 10.245 15.6951 10.125 15.5101 10.075C14.8351 9.88499 14.2201 10.35 14.2201 10.35H14.2101L14.2201 10.31V10.075H13.1851L12.6801 13.39H13.8201L14.0301 11.745Z" fill="black"/>
<path d="M18.95 13.4751C19.335 13.5351 19.935 13.5351 20.43 13.1001C20.92 12.6701 21.27 11.9151 21.095 10.9251C20.925 9.93507 19.735 9.90007 19.09 10.1601C19.09 10.1601 18.015 10.5851 18.005 11.8801C17.995 13.1701 18.57 13.4151 18.95 13.4751ZM19.295 11.2951C19.295 11.2951 19.375 11.1051 19.455 11.0101C19.495 10.9751 19.7 10.8101 19.84 10.9351C19.945 11.0301 19.96 11.0951 19.975 11.3901C19.995 11.7251 19.905 12.1151 19.795 12.3401C19.68 12.5651 19.28 12.8951 19.185 12.3401C19.12 11.9451 19.225 11.5151 19.295 11.2951Z" fill="black"/>
<path d="M1.25 4V19.5H22.75V4H1.25ZM21.75 18.5H2.25V5H21.75V18.5Z" fill="black"/>
</g>
<defs>
<clipPath id="clip0_4711_24227">
<rect width="24" height="24" fill="white"/>
</clipPath>
</defs>
</svg>
