<svg width="24" height="24" viewBox="0 0 24 24" fill="none" xmlns="http://www.w3.org/2000/svg">
<g clip-path="url(#clip0_4711_22509)">
<path d="M1 8.2501V15.7501H4.975L12 20.3951V3.6001L5 8.2501H1ZM10.5 6.4001V17.6051L5.425 14.2501H2.5V9.7501H5.455L10.5 6.4001Z" fill="black"/>
<path d="M19.78 4.22021L18.72 5.28022C22.425 8.98522 22.425 15.0102 18.72 18.7152L19.78 19.7752C24.07 15.4852 24.07 8.51021 19.78 4.22021Z" fill="black"/>
<path d="M17.305 6.69507L16.245 7.75507C17.38 8.89007 18 10.3951 18 12.0001C18 13.6051 17.375 15.1101 16.245 16.2451L17.305 17.3051C18.72 15.8901 19.5 14.0051 19.5 12.0001C19.5 9.99507 18.72 8.11507 17.305 6.69507Z" fill="black"/>
<path d="M13.77 10.2302C14.745 11.2052 14.745 12.7902 13.77 13.7652L14.83 14.8252C16.39 13.2652 16.39 10.7302 14.83 9.17017L13.77 10.2302Z" fill="black"/>
</g>
<defs>
<clipPath id="clip0_4711_22509">
<rect width="24" height="24" fill="white"/>
</clipPath>
</defs>
</svg>
