<svg width="24" height="24" viewBox="0 0 24 24" fill="none" xmlns="http://www.w3.org/2000/svg">
<g clip-path="url(#clip0_4711_19888)">
<path d="M12.5 7.5C14.155 7.5 15.5 6.155 15.5 4.5C15.5 2.845 14.155 1.5 12.5 1.5C10.845 1.5 9.5 2.845 9.5 4.5C9.5 6.155 10.845 7.5 12.5 7.5ZM12.5 3C13.325 3 14 3.675 14 4.5C14 5.325 13.325 6 12.5 6C11.675 6 11 5.325 11 4.5C11 3.675 11.675 3 12.5 3Z" fill="black"/>
<path d="M15.15 10.45C15.21 10.09 15.105 9.72 14.865 9.44C14.625 9.16 14.28 9 13.915 9H7.5V10.5H9.62L7.85 21.55C7.79 21.91 7.895 22.28 8.135 22.56C8.375 22.84 8.72 23 9.085 23H15.5V21.5H13.38L15.15 10.45ZM11.14 10.5H13.62L11.86 21.5H9.38L11.14 10.5Z" fill="black"/>
</g>
<defs>
<clipPath id="clip0_4711_19888">
<rect width="24" height="24" fill="white"/>
</clipPath>
</defs>
</svg>
