<svg width="24" height="24" viewBox="0 0 24 24" fill="none" xmlns="http://www.w3.org/2000/svg">
<g clip-path="url(#clip0_4711_22951)">
<path d="M12 12C13.38 12 14.5 10.88 14.5 9.5C14.5 8.12 13.38 7 12 7C10.62 7 9.5 8.12 9.5 9.5C9.5 10.88 10.62 12 12 12ZM12 8.5C12.55 8.5 13 8.95 13 9.5C13 10.05 12.55 10.5 12 10.5C11.45 10.5 11 10.05 11 9.5C11 8.95 11.45 8.5 12 8.5Z" fill="black"/>
<path d="M8.09 13.6651L7.75 13.8851V17.0001H16.25V13.8851L15.91 13.6651C13.535 12.1051 10.465 12.1051 8.09 13.6651ZM14.75 15.5001H9.25V14.7151C10.96 13.7601 13.04 13.7601 14.75 14.7151V15.5001Z" fill="black"/>
<path d="M23 12C23 10.93 22.245 10.03 21.24 9.805C20.415 6.33 17.67 3.585 14.195 2.76C13.97 1.755 13.075 1 12 1C10.925 1 10.03 1.755 9.805 2.76C6.325 3.585 3.58 6.33 2.76 9.805C1.755 10.03 1 10.925 1 12C1 13.075 1.755 13.97 2.76 14.195C3.585 17.7 6.295 20.415 9.805 21.24C10.03 22.245 10.925 23 12 23C13.075 23 13.97 22.245 14.195 21.24C17.65 20.42 20.42 17.66 21.24 14.195C22.245 13.97 23 13.075 23 12ZM12 2.5C12.415 2.5 12.75 2.835 12.75 3.25C12.75 3.665 12.415 4 12 4C11.585 4 11.25 3.665 11.25 3.25C11.25 2.835 11.585 2.5 12 2.5ZM3.25 11.25C3.665 11.25 4 11.585 4 12C4 12.415 3.665 12.75 3.25 12.75C2.835 12.75 2.5 12.415 2.5 12C2.5 11.585 2.835 11.25 3.25 11.25ZM12 21.5C11.585 21.5 11.25 21.165 11.25 20.75C11.25 20.335 11.585 20 12 20C12.415 20 12.75 20.335 12.75 20.75C12.75 21.165 12.415 21.5 12 21.5ZM14.005 19.745C13.635 19.01 12.88 18.5 12 18.5C11.12 18.5 10.37 19.01 10 19.745C7.17 19.02 4.98 16.83 4.255 14.005C4.99 13.635 5.5 12.88 5.5 12.005C5.5 11.13 4.99 10.37 4.255 10C4.98 7.195 7.195 4.98 10 4.26C10.37 4.995 11.125 5.505 12.005 5.505C12.885 5.505 13.635 4.995 14.01 4.26C16.81 4.985 19.03 7.2 19.755 10.005C19.02 10.375 18.51 11.13 18.51 12.01C18.51 12.89 19.02 13.64 19.75 14.01C19.025 16.805 16.8 19.03 14.01 19.755L14.005 19.745ZM20.75 12.75C20.335 12.75 20 12.415 20 12C20 11.585 20.335 11.25 20.75 11.25C21.165 11.25 21.5 11.585 21.5 12C21.5 12.415 21.165 12.75 20.75 12.75Z" fill="black"/>
</g>
<defs>
<clipPath id="clip0_4711_22951">
<rect width="24" height="24" fill="white"/>
</clipPath>
</defs>
</svg>
