<svg width="24" height="24" viewBox="0 0 24 24" fill="none" xmlns="http://www.w3.org/2000/svg">
<g clip-path="url(#clip0_4711_19864)">
<path d="M11.9399 1L1.18994 11.75L3.99994 14.56V20.5H9.97994L9.95994 20.52L12.2499 22.81L22.9999 12.06V1H11.9399ZM5.49994 15.5H10.4999V19H5.49994V15.5ZM21.4999 11.44L12.2499 20.69L11.9999 20.44V14H6.74994V12.22C6.74994 11.55 7.30994 11 7.99994 11C8.33494 11 8.64994 11.13 8.88994 11.36L9.94494 10.29C9.42494 9.78 8.73494 9.5 8.00494 9.5C6.48994 9.5 5.25494 10.72 5.25494 12.22V13.69L3.31494 11.75L12.5599 2.5H21.4999V11.44Z" fill="black"/>
<path d="M17.25 9.5C18.765 9.5 20 8.265 20 6.75C20 5.235 18.765 4 17.25 4C15.735 4 14.5 5.235 14.5 6.75C14.5 8.265 15.735 9.5 17.25 9.5ZM17.25 5.5C17.94 5.5 18.5 6.06 18.5 6.75C18.5 7.44 17.94 8 17.25 8C16.56 8 16 7.44 16 6.75C16 6.06 16.56 5.5 17.25 5.5Z" fill="black"/>
</g>
<defs>
<clipPath id="clip0_4711_19864">
<rect width="24" height="24" fill="white"/>
</clipPath>
</defs>
</svg>
