<svg width="24" height="24" viewBox="0 0 24 24" fill="none" xmlns="http://www.w3.org/2000/svg">
<g clip-path="url(#clip0_4711_22541)">
<path d="M14.965 8.595L16.065 7.495L15.005 6.435L13.905 7.535C13.555 7.31 13.17 7.145 12.75 7.055V5.5H11.25V7.055C10.835 7.145 10.445 7.31 10.095 7.535L8.995 6.435L7.935 7.495L9.035 8.595C8.81 8.945 8.645 9.33 8.555 9.75H7V11.25H8.555C8.645 11.665 8.81 12.055 9.035 12.405L7.935 13.505L8.995 14.565L10.095 13.465C10.445 13.69 10.83 13.855 11.25 13.945V15.5H12.75V13.945C13.165 13.855 13.555 13.69 13.905 13.465L15.005 14.565L16.065 13.505L14.965 12.405C15.19 12.055 15.355 11.67 15.445 11.25H17V9.75H15.445C15.355 9.335 15.19 8.945 14.965 8.595ZM12 12.525C10.88 12.525 9.97 11.615 9.97 10.495C9.97 9.375 10.88 8.465 12 8.465C13.12 8.465 14.03 9.375 14.03 10.495C14.03 11.615 13.12 12.525 12 12.525Z" fill="black"/>
<path d="M12.75 19.25H11.25C10.835 19.25 10.5 19.585 10.5 20C10.5 20.415 10.835 20.75 11.25 20.75H12.75C13.165 20.75 13.5 20.415 13.5 20C13.5 19.585 13.165 19.25 12.75 19.25Z" fill="black"/>
<path d="M19.25 1H4.75C3.785 1 3 1.785 3 2.75V21.25C3 22.215 3.785 23 4.75 23H19.25C20.215 23 21 22.215 21 21.25V2.75C21 1.785 20.215 1 19.25 1ZM19.5 21.25C19.5 21.39 19.39 21.5 19.25 21.5H4.75C4.61 21.5 4.5 21.39 4.5 21.25V2.75C4.5 2.61 4.61 2.5 4.75 2.5H19.25C19.39 2.5 19.5 2.61 19.5 2.75V21.25Z" fill="black"/>
</g>
<defs>
<clipPath id="clip0_4711_22541">
<rect width="24" height="24" fill="white"/>
</clipPath>
</defs>
</svg>
