<svg width="24" height="24" viewBox="0 0 24 24" fill="none" xmlns="http://www.w3.org/2000/svg">
<g clip-path="url(#clip0_2459_7636)">
<path d="M19.6 4.4C17.57 2.37 14.87 1.25 12 1.25C9.13 1.25 6.43 2.37 4.4 4.4C4.17 4.63 3.955 4.87 3.75 5.115V2H2.25V7.75H8V6.25H4.76C4.98 5.975 5.21 5.71 5.46 5.46C9.065 1.855 14.935 1.855 18.54 5.46C20.285 7.205 21.25 9.53 21.25 12C21.25 12.415 21.585 12.75 22 12.75C22.415 12.75 22.75 12.415 22.75 12C22.75 9.13 21.63 6.43 19.6 4.4Z" fill="black"/>
<path d="M4.40002 18.5401C4.10502 18.8351 4.10502 19.3101 4.40002 19.6001C4.69502 19.8951 5.17002 19.8951 5.46002 19.6001C5.75502 19.3051 5.75502 18.8301 5.46002 18.5401C5.16502 18.2451 4.69002 18.2451 4.40002 18.5401Z" fill="black"/>
<path d="M8.45998 20.545C8.07498 20.385 7.63998 20.57 7.47998 20.95C7.31998 21.335 7.50498 21.77 7.88498 21.93C8.26498 22.09 8.70498 21.905 8.86498 21.525C9.02498 21.14 8.83998 20.705 8.45998 20.545Z" fill="black"/>
<path d="M12 22.75C12.4142 22.75 12.75 22.4142 12.75 22C12.75 21.5858 12.4142 21.25 12 21.25C11.5858 21.25 11.25 21.5858 11.25 22C11.25 22.4142 11.5858 22.75 12 22.75Z" fill="black"/>
<path d="M15.54 20.5449C15.155 20.7049 14.975 21.1399 15.135 21.5249C15.295 21.9099 15.73 22.0899 16.115 21.9299C16.5 21.7699 16.68 21.3349 16.52 20.9499C16.36 20.5649 15.925 20.3849 15.54 20.5449Z" fill="black"/>
<path d="M18.54 18.5401C18.245 18.8351 18.245 19.3101 18.54 19.6001C18.835 19.8951 19.31 19.8951 19.6 19.6001C19.895 19.3051 19.895 18.8301 19.6 18.5401C19.305 18.2451 18.83 18.2451 18.54 18.5401Z" fill="black"/>
<path d="M21.525 15.1351C21.14 14.9751 20.705 15.1601 20.545 15.5401C20.385 15.9251 20.57 16.3601 20.95 16.5201C21.33 16.6801 21.77 16.4951 21.93 16.1151C22.09 15.7301 21.905 15.2951 21.525 15.1351Z" fill="black"/>
</g>
<defs>
<clipPath id="clip0_2459_7636">
<rect width="24" height="24" fill="white"/>
</clipPath>
</defs>
</svg>
