<svg width="24" height="24" viewBox="0 0 24 24" fill="none" xmlns="http://www.w3.org/2000/svg">
<g clip-path="url(#clip0_2578_6530)">
<path d="M1 3V21H23V3H1ZM21.5 19.5H2.5V4.5H21.5V19.5Z" fill="black"/>
<path d="M4.25 7C4.66421 7 5 6.66421 5 6.25C5 5.83579 4.66421 5.5 4.25 5.5C3.83579 5.5 3.5 5.83579 3.5 6.25C3.5 6.66421 3.83579 7 4.25 7Z" fill="black"/>
<path d="M6.25 7C6.66421 7 7 6.66421 7 6.25C7 5.83579 6.66421 5.5 6.25 5.5C5.83579 5.5 5.5 5.83579 5.5 6.25C5.5 6.66421 5.83579 7 6.25 7Z" fill="black"/>
<path d="M8.25 7C8.66421 7 9 6.66421 9 6.25C9 5.83579 8.66421 5.5 8.25 5.5C7.83579 5.5 7.5 5.83579 7.5 6.25C7.5 6.66421 7.83579 7 8.25 7Z" fill="black"/>
<path d="M11.645 18.4099L12 18.5999L12.355 18.4099C12.525 18.3199 16.5 16.1649 16.5 13.2499V9.73994L12 7.93994L7.5 9.73994V13.2499C7.5 16.1649 11.48 18.3199 11.645 18.4099ZM9 10.7549L12 9.55494L15 10.7549V13.2449C15 14.7349 13.08 16.2199 12 16.8799C10.92 16.2199 9 14.7349 9 13.2449V10.7549Z" fill="black"/>
</g>
<defs>
<clipPath id="clip0_2578_6530">
<rect width="24" height="24" fill="white"/>
</clipPath>
</defs>
</svg>
