<svg width="24" height="24" viewBox="0 0 24 24" fill="none" xmlns="http://www.w3.org/2000/svg">
<g clip-path="url(#clip0_4711_21758)">
<path d="M20.8 14.05C19.485 12.735 18.75 10.955 18.75 9.1V8.25C18.75 4.52 15.73 1.5 12 1.5C11.89 1.5 11.785 1.5 11.675 1.51C8.045 1.68 5.25 4.81 5.25 8.445V8.925C5.25 10.96 4.515 12.74 3.2 14.055L2.88 14.375C2.315 14.94 2 15.7 2 16.495V19H8.77C8.765 19.085 8.75 19.165 8.75 19.25C8.75 21.04 10.21 22.5 12 22.5C13.79 22.5 15.25 21.04 15.25 19.25C15.25 19.165 15.235 19.085 15.23 19H22V16.495C22 15.7 21.685 14.935 21.12 14.375L20.8 14.055V14.05ZM13.75 19.25C13.75 20.215 12.965 21 12 21C11.035 21 10.25 20.215 10.25 19.25C10.25 19.165 10.26 19.085 10.27 19H13.73C13.74 19.08 13.75 19.165 13.75 19.25ZM20.5 17.5H3.5V16.495C3.5 16.095 3.655 15.72 3.94 15.435L4.26 15.115C5.865 13.51 6.75 11.31 6.75 8.925V8.445C6.75 5.58 8.99 3.14 11.745 3.01C11.83 3.01 11.915 3.005 12 3.005C14.895 3.005 17.25 5.36 17.25 8.255V9.105C17.25 11.375 18.135 13.51 19.74 15.115L20.06 15.435C20.345 15.72 20.5 16.095 20.5 16.495V17.5Z" fill="black"/>
<path d="M6.29 2.05507L5.28 0.945068C3.225 2.81007 2 5.63507 2 8.50007H3.5C3.5 6.05007 4.54 3.64007 6.29 2.05507Z" fill="black"/>
<path d="M22.035 8.50007C22.035 5.63507 20.81 2.81007 18.755 0.945068L17.745 2.05507C19.49 3.64007 20.535 6.05007 20.535 8.50007H22.035Z" fill="black"/>
</g>
<defs>
<clipPath id="clip0_4711_21758">
<rect width="24" height="24" fill="white"/>
</clipPath>
</defs>
</svg>
