<svg width="24" height="24" viewBox="0 0 24 24" fill="none" xmlns="http://www.w3.org/2000/svg">
<g clip-path="url(#clip0_4711_19187)">
<path d="M11.145 17.25H12.25V15.75H11.145C11.085 15.545 11.005 15.345 10.9 15.16L11.68 14.38L10.62 13.32L9.84 14.1C9.655 13.995 9.46 13.915 9.25 13.855V12.75H7.75V13.855C7.545 13.915 7.345 13.995 7.16 14.1L6.38 13.32L5.32 14.38L6.1 15.16C5.995 15.345 5.915 15.54 5.855 15.75H4.75V17.25H5.855C5.915 17.455 5.995 17.655 6.1 17.84L5.32 18.62L6.38 19.68L7.16 18.9C7.345 19.005 7.54 19.085 7.75 19.145V20.25H9.25V19.145C9.455 19.085 9.655 19.005 9.84 18.9L10.62 19.68L11.68 18.62L10.9 17.84C11.005 17.655 11.085 17.46 11.145 17.25ZM8.5 17.75C7.81 17.75 7.25 17.19 7.25 16.5C7.25 15.81 7.81 15.25 8.5 15.25C9.19 15.25 9.75 15.81 9.75 16.5C9.75 17.19 9.19 17.75 8.5 17.75Z" fill="black"/>
<path d="M19 6C19.5523 6 20 5.55228 20 5C20 4.44772 19.5523 4 19 4C18.4477 4 18 4.44772 18 5C18 5.55228 18.4477 6 19 6Z" fill="black"/>
<path d="M16 6C16.5523 6 17 5.55228 17 5C17 4.44772 16.5523 4 16 4C15.4477 4 15 4.44772 15 5C15 5.55228 15.4477 6 16 6Z" fill="black"/>
<path d="M19 12.5C19.5523 12.5 20 12.0523 20 11.5C20 10.9477 19.5523 10.5 19 10.5C18.4477 10.5 18 10.9477 18 11.5C18 12.0523 18.4477 12.5 19 12.5Z" fill="black"/>
<path d="M16 12.5C16.5523 12.5 17 12.0523 17 11.5C17 10.9477 16.5523 10.5 16 10.5C15.4477 10.5 15 10.9477 15 11.5C15 12.0523 15.4477 12.5 16 12.5Z" fill="black"/>
<path d="M19 19C19.5523 19 20 18.5523 20 18C20 17.4477 19.5523 17 19 17C18.4477 17 18 17.4477 18 18C18 18.5523 18.4477 19 19 19Z" fill="black"/>
<path d="M3 1V13.045C2.37 14.045 2 15.23 2 16.5C2 20.09 4.91 23 8.5 23C9.77 23 10.95 22.63 11.955 22H23V1H3ZM3.5 16.5C3.5 13.745 5.745 11.5 8.5 11.5C11.255 11.5 13.5 13.745 13.5 16.5C13.5 19.255 11.255 21.5 8.5 21.5C5.745 21.5 3.5 19.255 3.5 16.5ZM21.5 20.5H13.615C14.48 19.395 15 18.01 15 16.5C15 16.16 14.965 15.825 14.915 15.5H21.5V20.5ZM21.5 14H14.5C13.52 11.65 11.205 10 8.5 10C6.99 10 5.605 10.52 4.5 11.385V9H21.5V14ZM4.5 7.5V2.5H21.5V7.5H4.5Z" fill="black"/>
</g>
<defs>
<clipPath id="clip0_4711_19187">
<rect width="24" height="24" fill="white"/>
</clipPath>
</defs>
</svg>
