<svg width="24" height="24" viewBox="0 0 24 24" fill="none" xmlns="http://www.w3.org/2000/svg">
<g clip-path="url(#clip0_4711_19210)">
<path d="M19.78 5.71994C15.49 1.42994 8.50996 1.42994 4.22496 5.71994C-0.0650387 10.0099 -0.0650387 16.9899 4.21996 21.2799L5.27996 20.2199C1.57496 16.5149 1.57496 10.4899 5.27996 6.78494C8.98496 3.07994 15.01 3.07994 18.715 6.78494C22.42 10.4899 22.42 16.5149 18.715 20.2199L19.775 21.2799C24.065 16.9899 24.065 10.0149 19.775 5.72494L19.78 5.71994Z" fill="black"/>
<path d="M12.965 11.475C12.67 11.335 12.345 11.25 12 11.25C10.76 11.25 9.75 12.26 9.75 13.5C9.75 14.74 10.76 15.75 12 15.75C13.24 15.75 14.25 14.74 14.25 13.5C14.25 13.155 14.165 12.83 14.025 12.535L17.03 9.52997L15.97 8.46997L12.965 11.475ZM12 14.25C11.585 14.25 11.25 13.915 11.25 13.5C11.25 13.085 11.585 12.75 12 12.75C12.415 12.75 12.75 13.085 12.75 13.5C12.75 13.915 12.415 14.25 12 14.25Z" fill="black"/>
<path d="M15.5 18.25H8.5V19.75H15.5V18.25Z" fill="black"/>
</g>
<defs>
<clipPath id="clip0_4711_19210">
<rect width="24" height="24" fill="white"/>
</clipPath>
</defs>
</svg>
