<svg width="24" height="24" viewBox="0 0 24 24" fill="none" xmlns="http://www.w3.org/2000/svg">
<g clip-path="url(#clip0_4711_22950)">
<path d="M20.25 4.99992C17.055 4.99992 12.51 1.44492 12.465 1.40992L12 1.04492L11.535 1.40992C11.49 1.44492 6.945 4.99992 3.75 4.99992H3V12.4049C3 14.4399 3.9 16.3399 5.475 17.6299L12 22.9699L18.525 17.6299C20.1 16.3449 21 14.4399 21 12.4049V4.99992H20.25ZM19.5 12.4049C19.5 13.9849 18.8 15.4649 17.575 16.4699L12 21.0299L6.425 16.4699C5.2 15.4699 4.5 13.9899 4.5 12.4049V6.44992C7.435 6.09492 10.785 3.82492 12 2.93492C13.215 3.82492 16.565 6.09492 19.5 6.44992V12.4049Z" fill="black"/>
<path d="M8.15998 11.365L7.09998 12.43L10.38 15.71L17.16 8.92999L16.1 7.86499L10.38 13.585L8.15998 11.365Z" fill="black"/>
</g>
<defs>
<clipPath id="clip0_4711_22950">
<rect width="24" height="24" fill="white"/>
</clipPath>
</defs>
</svg>
