<svg width="24" height="24" viewBox="0 0 24 24" fill="none" xmlns="http://www.w3.org/2000/svg">
<g clip-path="url(#clip0_4711_24183)">
<path d="M17.915 12.5451C17.85 12.4951 17.79 12.4501 17.74 12.4101C17.725 12.1601 17.69 11.9151 17.645 11.6701C19.52 12.2651 21.535 10.7701 21.5 8.79507C21.51 7.05007 19.975 5.64007 18.235 5.81007C18.54 2.34007 14.12 0.630073 12 3.34007C9.87996 0.630073 5.46496 2.34507 5.76496 5.81007C4.02496 5.64007 2.48996 7.05007 2.49996 8.79507C2.46496 10.7651 4.48496 12.2601 6.35496 11.6701C6.30996 11.9101 6.26996 12.1551 6.25996 12.4101C5.08996 13.3101 2.78496 14.9751 2.74996 17.0001C2.74996 20.6351 6.84496 22.7151 9.74496 20.7101C11.135 19.7751 12.87 19.7801 14.255 20.7101C17.15 22.7151 21.255 20.6351 21.25 17.0001C21.25 15.0851 19 13.3701 17.915 12.5451ZM20 8.80007C19.95 10.7801 17.05 10.7801 17 8.80007C17.05 6.82007 19.95 6.82507 20 8.80007ZM14.75 3.50007C17.395 3.58507 17.395 7.41507 14.75 7.50007C12.105 7.41507 12.11 3.58507 14.75 3.50007ZM9.24996 3.50007C11.895 3.58507 11.895 7.41507 9.24996 7.50007C6.60496 7.41507 6.60996 3.58507 9.24996 3.50007ZM3.99996 8.80007C4.04996 6.82007 6.94996 6.82007 6.99996 8.80007C6.94996 10.7801 4.04996 10.7751 3.99996 8.80007ZM16.75 20.0001C16.065 20.0001 15.59 19.7351 14.985 19.4001C14.23 18.9801 13.375 18.5001 12 18.5001C10.625 18.5001 9.76996 18.9801 9.01496 19.4001C8.41496 19.7351 7.93996 20.0001 7.24996 20.0001C5.59496 20.0001 4.24996 18.6551 4.24996 17.0001C4.24996 15.8301 6.24496 14.3101 6.99496 13.7351C7.51496 13.3401 7.74996 13.1601 7.74996 12.7501C7.98496 7.11507 16.015 7.11007 16.25 12.7501C16.25 13.1601 16.485 13.3401 17.005 13.7351C17.755 14.3101 19.75 15.8301 19.75 17.0001C19.75 18.6551 18.405 20.0001 16.75 20.0001Z" fill="black"/>
</g>
<defs>
<clipPath id="clip0_4711_24183">
<rect width="24" height="24" fill="white"/>
</clipPath>
</defs>
</svg>
