<svg width="24" height="24" viewBox="0 0 24 24" fill="none" xmlns="http://www.w3.org/2000/svg">
<g clip-path="url(#clip0_4711_22947)">
<path d="M8.5 12.25C10.845 12.25 12.75 10.345 12.75 8C12.75 5.655 10.845 3.75 8.5 3.75C6.155 3.75 4.25 5.655 4.25 8C4.25 10.345 6.155 12.25 8.5 12.25ZM8.5 5.25C10.015 5.25 11.25 6.485 11.25 8C11.25 9.515 10.015 10.75 8.5 10.75C6.985 10.75 5.75 9.515 5.75 8C5.75 6.485 6.985 5.25 8.5 5.25Z" fill="black"/>
<path d="M2.03 16.0249L1.75 16.2499V20.7499H15.25V16.2499L14.97 16.0249C11.22 13.0099 5.78 13.0099 2.03 16.0249ZM13.75 19.2499H3.25V16.9749C6.345 14.6849 10.655 14.6849 13.75 16.9749V19.2499Z" fill="black"/>
<path d="M18.25 7C15.905 7 14 8.905 14 11.25C14 13.595 15.905 15.5 18.25 15.5C20.595 15.5 22.5 13.595 22.5 11.25C22.5 8.905 20.595 7 18.25 7ZM18.25 8.5C18.735 8.5 19.19 8.63 19.59 8.85L15.85 12.59C15.63 12.195 15.5 11.735 15.5 11.25C15.5 9.735 16.735 8.5 18.25 8.5ZM18.25 14C17.765 14 17.31 13.87 16.91 13.65L20.65 9.91C20.87 10.305 21 10.765 21 11.25C21 12.765 19.765 14 18.25 14Z" fill="black"/>
</g>
<defs>
<clipPath id="clip0_4711_22947">
<rect width="24" height="24" fill="white"/>
</clipPath>
</defs>
</svg>
