<svg width="24" height="24" viewBox="0 0 24 24" fill="none" xmlns="http://www.w3.org/2000/svg">
<g clip-path="url(#clip0_4711_21455)">
<path d="M21 12C21 16.965 16.965 21 12 21C9.32 21 6.785 19.795 5.08 17.75H8V16.25H2.75V21.5H4.25V19.08C6.225 21.24 9.035 22.5 12 22.5C17.79 22.5 22.5 17.79 22.5 12H21Z" fill="black"/>
<path d="M12 3C15.135 3 18.005 4.615 19.645 7.25H17V8.75H22.25V3.5H20.75V6.205C18.815 3.28 15.555 1.5 12 1.5C6.21 1.5 1.5 6.21 1.5 12H3C3 7.035 7.035 3 12 3Z" fill="black"/>
<path d="M12 6.75C10.62 6.75 9.5 7.87 9.5 9.25V10.25H8.5V15.75H15.5V10.25H14.5V9.25C14.5 7.87 13.38 6.75 12 6.75ZM11 9.25C11 8.7 11.45 8.25 12 8.25C12.55 8.25 13 8.7 13 9.25V10.25H11V9.25ZM14 14.25H10V11.75H14V14.25Z" fill="black"/>
</g>
<defs>
<clipPath id="clip0_4711_21455">
<rect width="24" height="24" fill="white"/>
</clipPath>
</defs>
</svg>
