<svg width="24" height="24" viewBox="0 0 24 24" fill="none" xmlns="http://www.w3.org/2000/svg">
<g clip-path="url(#clip0_4711_24204)">
<path d="M20.25 4.99992C17.055 4.99992 12.51 1.44492 12.465 1.40992L12 1.04492L11.535 1.40992C11.49 1.44492 6.945 4.99992 3.75 4.99992H3V12.4049C3 14.4399 3.9 16.3399 5.475 17.6299L12 22.9699L18.525 17.6299C20.1 16.3449 21 14.4399 21 12.4049V4.99992H20.25ZM19.5 12.4049C19.5 13.9849 18.8 15.4649 17.575 16.4699L12 21.0299L6.425 16.4699C5.2 15.4699 4.5 13.9899 4.5 12.4049V6.44992C7.435 6.09492 10.785 3.82492 12 2.93492C13.215 3.82492 16.565 6.09492 19.5 6.44992V12.4049Z" fill="black"/>
<path d="M11.25 6V7.5H11.125C9.815 7.5 8.75 8.565 8.75 9.875V10.04C8.75 11.095 9.43 12.01 10.445 12.315L13.13 13.12C13.505 13.23 13.755 13.57 13.755 13.96V14.125C13.755 14.605 13.36 15 12.88 15H11.13C10.65 15 10.255 14.605 10.255 14.125V14H8.755V14.125C8.755 15.435 9.82 16.5 11.13 16.5H11.255V18H12.755V16.5H12.88C14.19 16.5 15.255 15.435 15.255 14.125V13.96C15.255 12.905 14.575 11.99 13.56 11.685L10.875 10.88C10.5 10.77 10.25 10.43 10.25 10.04V9.875C10.25 9.395 10.645 9 11.125 9H12.875C13.355 9 13.75 9.395 13.75 9.875V10.25H15.25V9.875C15.25 8.565 14.185 7.5 12.875 7.5H12.75V6H11.25Z" fill="black"/>
</g>
<defs>
<clipPath id="clip0_4711_24204">
<rect width="24" height="24" fill="white"/>
</clipPath>
</defs>
</svg>
