<svg width="24" height="24" viewBox="0 0 24 24" fill="none" xmlns="http://www.w3.org/2000/svg">
<g clip-path="url(#clip0_2459_6172)">
<path d="M18 13.75C16.385 13.75 15.01 14.78 14.48 16.215L9.05 13.2C9.175 12.825 9.25 12.42 9.25 12C9.25 11.58 9.18 11.18 9.05 10.8L14.875 7.565C15.545 8.58 16.695 9.25 18 9.25C20.07 9.25 21.75 7.57 21.75 5.5C21.75 3.43 20.07 1.75 18 1.75C15.93 1.75 14.25 3.43 14.25 5.5C14.25 5.725 14.275 5.945 14.31 6.165L8.29 9.51C7.605 8.74 6.605 8.255 5.495 8.255C3.425 8.255 1.745 9.935 1.745 12.005C1.745 14.075 3.425 15.755 5.495 15.755C6.605 15.755 7.6 15.265 8.29 14.5L14.26 17.82C14.42 19.745 16.03 21.26 17.995 21.26C20.065 21.26 21.745 19.58 21.745 17.51C21.745 15.44 20.065 13.76 17.995 13.76L18 13.75ZM18 3.25C19.24 3.25 20.25 4.26 20.25 5.5C20.25 6.74 19.24 7.75 18 7.75C16.76 7.75 15.75 6.74 15.75 5.5C15.75 4.26 16.76 3.25 18 3.25ZM5.5 14.25C4.26 14.25 3.25 13.24 3.25 12C3.25 10.76 4.26 9.75 5.5 9.75C6.74 9.75 7.75 10.76 7.75 12C7.75 13.24 6.74 14.25 5.5 14.25ZM18 19.75C16.76 19.75 15.75 18.74 15.75 17.5C15.75 16.26 16.76 15.25 18 15.25C19.24 15.25 20.25 16.26 20.25 17.5C20.25 18.74 19.24 19.75 18 19.75Z" fill="black"/>
</g>
<defs>
<clipPath id="clip0_2459_6172">
<rect width="24" height="24" fill="white"/>
</clipPath>
</defs>
</svg>
