<svg width="24" height="24" viewBox="0 0 24 24" fill="none" xmlns="http://www.w3.org/2000/svg">
<g clip-path="url(#clip0_4711_22921)">
<path d="M8.5 12.5C10.845 12.5 12.75 10.595 12.75 8.25C12.75 5.905 10.845 4 8.5 4C6.155 4 4.25 5.905 4.25 8.25C4.25 10.595 6.155 12.5 8.5 12.5ZM8.5 5.5C10.015 5.5 11.25 6.735 11.25 8.25C11.25 9.765 10.015 11 8.5 11C6.985 11 5.75 9.765 5.75 8.25C5.75 6.735 6.985 5.5 8.5 5.5Z" fill="black"/>
<path d="M2.03 16.2749L1.75 16.4999V20.9999H15.25V16.4999L14.97 16.2749C11.22 13.2599 5.78 13.2599 2.03 16.2749ZM13.75 19.4999H3.25V17.2249C6.345 14.9349 10.655 14.9349 13.75 17.2249V19.4999Z" fill="black"/>
<path d="M18.25 9.75V8.25C18.25 7.7 18.7 7.25 19.25 7.25C19.59 7.25 19.905 7.42 20.09 7.71L21.35 6.895C20.885 6.18 20.1 5.75 19.25 5.75C17.87 5.75 16.75 6.87 16.75 8.25V9.75H15.75V15.25H22.75V9.75H18.25ZM21.25 13.75H17.25V11.25H21.25V13.75Z" fill="black"/>
</g>
<defs>
<clipPath id="clip0_4711_22921">
<rect width="24" height="24" fill="white"/>
</clipPath>
</defs>
</svg>
