<svg width="24" height="24" viewBox="0 0 24 24" fill="none" xmlns="http://www.w3.org/2000/svg">
<g clip-path="url(#clip0_4711_23563)">
<path d="M13 12.75V21.25H21.5V12.75H13ZM20 19.75H14.5V14.25H20V19.75Z" fill="black"/>
<path d="M12 2L6.95001 10.745H17.05L12 2ZM12 5L14.45 9.245H9.55001L12 5Z" fill="black"/>
<path d="M6.75 12.75C4.405 12.75 2.5 14.655 2.5 17C2.5 19.345 4.405 21.25 6.75 21.25C9.095 21.25 11 19.345 11 17C11 14.655 9.095 12.75 6.75 12.75ZM6.75 19.75C5.235 19.75 4 18.515 4 17C4 15.485 5.235 14.25 6.75 14.25C8.265 14.25 9.5 15.485 9.5 17C9.5 18.515 8.265 19.75 6.75 19.75Z" fill="black"/>
</g>
<defs>
<clipPath id="clip0_4711_23563">
<rect width="24" height="24" fill="white"/>
</clipPath>
</defs>
</svg>
