<svg width="24" height="24" viewBox="0 0 24 24" fill="none" xmlns="http://www.w3.org/2000/svg">
<g clip-path="url(#clip0_2459_6159)">
<path d="M17.5 12.75H3V14.25H17.5C18.605 14.25 19.5 15.145 19.5 16.25C19.5 17.355 18.605 18.25 17.5 18.25H14.81L16.53 16.53L15.47 15.47L11.94 19L15.47 22.53L16.53 21.47L14.81 19.75H17.5C19.43 19.75 21 18.18 21 16.25C21 14.32 19.43 12.75 17.5 12.75Z" fill="black"/>
<path d="M21 7.25H3V8.75H21V7.25Z" fill="black"/>
<path d="M9.5 18.25H3V19.75H9.5V18.25Z" fill="black"/>
<path d="M21 1.75H3V3.25H21V1.75Z" fill="black"/>
</g>
<defs>
<clipPath id="clip0_2459_6159">
<rect width="24" height="24" fill="white"/>
</clipPath>
</defs>
</svg>
