<svg width="24" height="24" viewBox="0 0 24 24" fill="none" xmlns="http://www.w3.org/2000/svg">
<g clip-path="url(#clip0_4711_19205)">
<path d="M3.5 15.06L6.505 12.055C6.935 12.335 7.45 12.5 8 12.5C8.55 12.5 9.065 12.335 9.495 12.055L11.015 13.575C10.845 13.93 10.75 14.33 10.75 14.75C10.75 16.265 11.985 17.5 13.5 17.5C15.015 17.5 16.25 16.265 16.25 14.75C16.25 14.275 16.13 13.83 15.92 13.445L18.335 10.74C18.69 10.905 19.085 11.005 19.5 11.005C21.015 11.005 22.25 9.77 22.25 8.255C22.25 6.74 21.015 5.505 19.5 5.505C17.985 5.505 16.75 6.74 16.75 8.255C16.75 8.81 16.915 9.325 17.2 9.76L14.865 12.375C14.46 12.14 13.995 12.005 13.495 12.005C12.945 12.005 12.43 12.17 12 12.45L10.48 10.93C10.65 10.575 10.745 10.175 10.745 9.755C10.745 8.24 9.50999 7.005 7.995 7.005C6.48 7.005 5.245 8.24 5.245 9.755C5.245 10.175 5.34 10.57 5.51 10.93L3.49499 12.945V2H1.995V22H21.995V20.5H3.5V15.06ZM19.5 7C20.19 7 20.75 7.56 20.75 8.25C20.75 8.94 20.19 9.5 19.5 9.5C18.81 9.5 18.25 8.94 18.25 8.25C18.25 7.56 18.81 7 19.5 7ZM13.5 13.5C14.19 13.5 14.75 14.06 14.75 14.75C14.75 15.44 14.19 16 13.5 16C12.81 16 12.25 15.44 12.25 14.75C12.25 14.06 12.81 13.5 13.5 13.5ZM8 8.5C8.69 8.5 9.25 9.06 9.25 9.75C9.25 10.44 8.69 11 8 11C7.31 11 6.75 10.44 6.75 9.75C6.75 9.06 7.31 8.5 8 8.5Z" fill="black"/>
</g>
<defs>
<clipPath id="clip0_4711_19205">
<rect width="24" height="24" fill="white"/>
</clipPath>
</defs>
</svg>
