<svg width="24" height="24" viewBox="0 0 24 24" fill="none" xmlns="http://www.w3.org/2000/svg">
<g clip-path="url(#clip0_4711_21752)">
<path d="M11 5.75H9.5V9.5H5.75V11H11V5.75Z" fill="black"/>
<path d="M19.475 10.725C19.485 10.565 19.5 10.41 19.5 10.25C19.5 5.15 15.35 1 10.25 1C5.15 1 1 5.15 1 10.25C1 15.35 5.15 19.5 10.25 19.5C10.41 19.5 10.57 19.495 10.73 19.485C11.81 21.57 13.985 23 16.5 23C20.09 23 23 20.09 23 16.5C23 13.985 21.57 11.805 19.475 10.725ZM2.5 10.25C2.5 5.975 5.975 2.5 10.25 2.5C14.525 2.5 17.96 5.94 17.995 10.18C17.515 10.065 17.015 10 16.5 10C12.91 10 10 12.91 10 16.5C10 17.015 10.065 17.515 10.18 17.995C5.94 17.955 2.5 14.5 2.5 10.25ZM16.5 21.5C13.745 21.5 11.5 19.255 11.5 16.5C11.5 13.745 13.745 11.5 16.5 11.5C19.255 11.5 21.5 13.745 21.5 16.5C21.5 19.255 19.255 21.5 16.5 21.5Z" fill="black"/>
<path d="M17.25 13H15.75V17.5H17.25V13Z" fill="black"/>
<path d="M16.5 20C16.9142 20 17.25 19.6642 17.25 19.25C17.25 18.8358 16.9142 18.5 16.5 18.5C16.0858 18.5 15.75 18.8358 15.75 19.25C15.75 19.6642 16.0858 20 16.5 20Z" fill="black"/>
</g>
<defs>
<clipPath id="clip0_4711_21752">
<rect width="24" height="24" fill="white"/>
</clipPath>
</defs>
</svg>
