<svg width="24" height="24" viewBox="0 0 24 24" fill="none" xmlns="http://www.w3.org/2000/svg">
<g clip-path="url(#clip0_4711_22952)">
<path d="M20.255 11.0199L11.435 11.0049C11.075 8.73988 9.115 7.00488 6.75 7.00488C4.13 7.00488 2 9.13488 2 11.7549C2 14.3749 4.13 16.5049 6.75 16.5049C9.115 16.5049 11.07 14.7699 11.435 12.5049L16.5 12.5149V16.7549H18V12.5199H20.25C20.385 12.5199 20.5 12.6349 20.5 12.7749V16.7549H22V12.7749C22 11.8099 21.215 11.0249 20.255 11.0249V11.0199ZM6.75 14.9999C4.96 14.9999 3.5 13.5399 3.5 11.7499C3.5 9.95988 4.96 8.49988 6.75 8.49988C8.54 8.49988 10 9.95988 10 11.7499C10 13.5399 8.54 14.9999 6.75 14.9999Z" fill="black"/>
</g>
<defs>
<clipPath id="clip0_4711_22952">
<rect width="24" height="24" fill="white"/>
</clipPath>
</defs>
</svg>
