<svg width="24" height="24" viewBox="0 0 24 24" fill="none" xmlns="http://www.w3.org/2000/svg">
<g clip-path="url(#clip0_4711_22583)">
<path d="M12.75 19.25H11.25C10.835 19.25 10.5 19.585 10.5 20C10.5 20.415 10.835 20.75 11.25 20.75H12.75C13.165 20.75 13.5 20.415 13.5 20C13.5 19.585 13.165 19.25 12.75 19.25Z" fill="black"/>
<path d="M12 11.75C10.895 11.75 10 12.645 10 13.75C10 14.855 10.895 15.75 12 15.75C13.105 15.75 14 14.855 14 13.75C14 12.645 13.105 11.75 12 11.75ZM12 14.25C11.725 14.25 11.5 14.025 11.5 13.75C11.5 13.475 11.725 13.25 12 13.25C12.275 13.25 12.5 13.475 12.5 13.75C12.5 14.025 12.275 14.25 12 14.25Z" fill="black"/>
<path d="M8.47 10.1899L9.53 11.2499C10.175 10.6049 11.03 10.2499 11.94 10.2499C12.85 10.2499 13.705 10.6049 14.35 11.2499L15.41 10.1899C13.495 8.27491 10.38 8.27491 8.465 10.1899H8.47Z" fill="black"/>
<path d="M6.47 8.04L7.53 9.1C9.995 6.635 14.005 6.635 16.47 9.1L17.53 8.04C16.055 6.565 14.09 5.75 12 5.75C9.91 5.75 7.945 6.565 6.47 8.04Z" fill="black"/>
<path d="M19.25 1H4.75C3.785 1 3 1.785 3 2.75V21.25C3 22.215 3.785 23 4.75 23H19.25C20.215 23 21 22.215 21 21.25V2.75C21 1.785 20.215 1 19.25 1ZM19.5 21.25C19.5 21.39 19.39 21.5 19.25 21.5H4.75C4.61 21.5 4.5 21.39 4.5 21.25V2.75C4.5 2.61 4.61 2.5 4.75 2.5H19.25C19.39 2.5 19.5 2.61 19.5 2.75V21.25Z" fill="black"/>
</g>
<defs>
<clipPath id="clip0_4711_22583">
<rect width="24" height="24" fill="white"/>
</clipPath>
</defs>
</svg>
