<svg width="24" height="24" viewBox="0 0 24 24" fill="none" xmlns="http://www.w3.org/2000/svg">
<g clip-path="url(#clip0_4711_19916)">
<path d="M18.32 9C18.435 8.52 18.5 8.015 18.5 7.5C18.5 3.91 15.59 1 12 1C8.41 1 5.5 3.91 5.5 7.5C5.5 8.015 5.565 8.52 5.68 9H1V23H23V9H18.32ZM12 2.5C14.755 2.5 17 4.745 17 7.5C17 10.255 14.755 12.5 12 12.5C9.245 12.5 7 10.255 7 7.5C7 4.745 9.245 2.5 12 2.5ZM12 14C14.56 14 16.765 12.52 17.825 10.37V10.5H20.69L12 16.585L3.31 10.5H6.24C7.325 12.58 9.495 14 12.005 14H12ZM2.5 21.5V11.765L12 18.415L21.5 11.765V21.5H2.5Z" fill="black"/>
<path d="M12.75 4H11.25V8.5H12.75V4Z" fill="black"/>
<path d="M12 11C12.4142 11 12.75 10.6642 12.75 10.25C12.75 9.83579 12.4142 9.5 12 9.5C11.5858 9.5 11.25 9.83579 11.25 10.25C11.25 10.6642 11.5858 11 12 11Z" fill="black"/>
</g>
<defs>
<clipPath id="clip0_4711_19916">
<rect width="24" height="24" fill="white"/>
</clipPath>
</defs>
</svg>
