<svg width="24" height="24" viewBox="0 0 24 24" fill="none" xmlns="http://www.w3.org/2000/svg">
<g clip-path="url(#clip0_2459_6165)">
<path d="M2 2.25V21.75H22V2.25H2ZM20.5 6.75H17.25V3.75H20.5V6.75ZM12.75 6.75V3.75H15.75V6.75H12.75ZM15.75 8.25V11.25H12.75V8.25H15.75ZM11.25 6.75H8.25V3.75H11.25V6.75ZM11.25 8.25V11.25H8.25V8.25H11.25ZM6.75 11.25H3.5V8.25H6.75V11.25ZM6.75 12.75V15.75H3.5V12.75H6.75ZM8.25 12.75H11.25V15.75H8.25V12.75ZM11.25 17.25V20.25H8.25V17.25H11.25ZM12.75 17.25H15.75V20.25H12.75V17.25ZM12.75 15.75V12.75H15.75V15.75H12.75ZM17.25 12.75H20.5V15.75H17.25V12.75ZM17.25 11.25V8.25H20.5V11.25H17.25ZM6.75 3.75V6.75H3.5V3.75H6.75ZM3.5 17.25H6.75V20.25H3.5V17.25ZM17.25 20.25V17.25H20.5V20.25H17.25Z" fill="black"/>
</g>
<defs>
<clipPath id="clip0_2459_6165">
<rect width="24" height="24" fill="white"/>
</clipPath>
</defs>
</svg>
