<svg width="24" height="24" viewBox="0 0 24 24" fill="none" xmlns="http://www.w3.org/2000/svg">
<g clip-path="url(#clip0_2930_8770)">
<path d="M16.5 1H7.5C6.26 1 5.25 2.01 5.25 3.25V20.75C5.25 21.99 6.26 23 7.5 23H16.5C17.74 23 18.75 21.99 18.75 20.75V3.25C18.75 2.01 17.74 1 16.5 1ZM9.5 2.5H14.5V3.75H9.5V2.5ZM17.25 20.75C17.25 21.165 16.915 21.5 16.5 21.5H7.5C7.085 21.5 6.75 21.165 6.75 20.75V3.25C6.75 2.835 7.085 2.5 7.5 2.5H8V4C8 4.69 8.56 5.25 9.25 5.25H14.75C15.44 5.25 16 4.69 16 4V2.5H16.5C16.915 2.5 17.25 2.835 17.25 3.25V20.75Z" fill="black"/>
<path d="M10.5 13.69L9.28 12.47L8.22 13.53L10.5 15.81L15.78 10.53L14.72 9.46997L10.5 13.69Z" fill="black"/>
</g>
<defs>
<clipPath id="clip0_2930_8770">
<rect width="24" height="24" fill="white"/>
</clipPath>
</defs>
</svg>
