<svg width="24" height="24" viewBox="0 0 24 24" fill="none" xmlns="http://www.w3.org/2000/svg">
<g clip-path="url(#clip0_2459_7588)">
<path d="M17.03 9.22L15.97 10.28L19.5 13.81L23.03 10.28L21.97 9.22L20.25 10.94V10.25C20.25 5.7 16.55 2 12 2C7.45 2 3.75 5.7 3.75 10.25V13.75H5.25V10.25C5.25 6.53 8.28 3.5 12 3.5C15.72 3.5 18.75 6.53 18.75 10.25V10.94L17.03 9.22Z" fill="black"/>
<path d="M19.5 15.5C17.845 15.5 16.5 16.845 16.5 18.5C16.5 20.155 17.845 21.5 19.5 21.5C21.155 21.5 22.5 20.155 22.5 18.5C22.5 16.845 21.155 15.5 19.5 15.5ZM18 18.5C18 17.945 18.305 17.47 18.75 17.21V19.795C18.305 19.535 18 19.055 18 18.505V18.5ZM20.25 19.79V17.205C20.695 17.465 21 17.945 21 18.495C21 19.045 20.695 19.525 20.25 19.785V19.79Z" fill="black"/>
<path d="M12 15.5C10.345 15.5 9 16.845 9 18.5C9 20.155 10.345 21.5 12 21.5C13.655 21.5 15 20.155 15 18.5C15 16.845 13.655 15.5 12 15.5ZM12 20C11.175 20 10.5 19.325 10.5 18.5C10.5 17.675 11.175 17 12 17C12.825 17 13.5 17.675 13.5 18.5C13.5 19.325 12.825 20 12 20Z" fill="black"/>
<path d="M4.5 15.5C2.845 15.5 1.5 16.845 1.5 18.5C1.5 20.155 2.845 21.5 4.5 21.5C6.155 21.5 7.5 20.155 7.5 18.5C7.5 16.845 6.155 15.5 4.5 15.5ZM3 18.5C3 17.945 3.305 17.47 3.75 17.21V19.795C3.305 19.535 3 19.055 3 18.505V18.5ZM5.25 19.79V17.205C5.695 17.465 6 17.945 6 18.495C6 19.045 5.695 19.525 5.25 19.785V19.79Z" fill="black"/>
</g>
<defs>
<clipPath id="clip0_2459_7588">
<rect width="24" height="24" fill="white"/>
</clipPath>
</defs>
</svg>
