<svg width="24" height="24" viewBox="0 0 24 24" fill="none" xmlns="http://www.w3.org/2000/svg">
<g clip-path="url(#clip0_4711_24229)">
<path d="M19.235 8C19.1 4.12 15.91 1 12 1C8.09 1 4.895 4.12 4.765 8H3.5L4.84 20.095C5.015 21.75 6.39 23 8.04 23H15.965C17.61 23 18.99 21.75 19.165 20.1L20.505 8H19.24H19.235ZM18.62 11.5H5.38L5.16 9.5H18.84L18.62 11.5ZM12 2.5C15.085 2.5 17.605 4.945 17.735 8H6.265C6.395 4.945 8.915 2.5 12 2.5ZM17.685 19.935C17.59 20.825 16.85 21.5 15.965 21.5H8.04C7.155 21.5 6.41 20.83 6.315 19.935L5.545 13H18.45L17.68 19.935H17.685Z" fill="black"/>
</g>
<defs>
<clipPath id="clip0_4711_24229">
<rect width="24" height="24" fill="white"/>
</clipPath>
</defs>
</svg>
