<svg width="24" height="24" viewBox="0 0 24 24" fill="none" xmlns="http://www.w3.org/2000/svg">
<g clip-path="url(#clip0_4711_24235)">
<path d="M20.795 21.01L22.2 20.49L17.02 6.5H14.96L12.375 14.25H10.75C9.85 14.25 8.97 13.895 8.15 13.33C8.525 12.945 8.845 12.565 9.095 12.24C10.555 10.345 11.505 8.095 11.505 6.5V6H13V4.5H7.75V2H6.25V4.5H1V6H2.5V6.5C2.5 8.09 3.445 10.345 4.91 12.24C5.16 12.565 5.48 12.94 5.855 13.33C5.04 13.895 4.155 14.25 3.255 14.25H2V15.75H3.255C4.705 15.75 5.975 15.125 7.005 14.345C8.03 15.125 9.305 15.75 10.755 15.75H11.88L10.29 20.515L11.715 20.99L13.46 15.755H18.85L20.8 21.015L20.795 21.01ZM4 6.5V6H10.005V6.5C10.005 7.99 8.765 10.58 7.005 12.355C5.24 10.58 4.005 7.99 4.005 6.5H4ZM13.955 14.25L16.01 8.09L18.29 14.25H13.955Z" fill="black"/>
</g>
<defs>
<clipPath id="clip0_4711_24235">
<rect width="24" height="24" fill="white"/>
</clipPath>
</defs>
</svg>
