<svg width="24" height="24" viewBox="0 0 24 24" fill="none" xmlns="http://www.w3.org/2000/svg">
<g clip-path="url(#clip0_4711_24242)">
<path d="M19.815 4.49999H22V2.99999H19.255V2.98999L19.245 2.99999H4.755V2.98999L4.745 2.99999H2V4.49999H4.185L1 12.99V13.875C1 15.945 2.68 17.625 4.75 17.625C6.82 17.625 8.5 15.945 8.5 13.875V12.99L5.315 4.49999H11.25V19.5H7.5V21H16.5V19.5H12.75V4.49999H18.685L15.5 12.99V13.875C15.5 15.945 17.18 17.625 19.25 17.625C21.32 17.625 23 15.945 23 13.875V12.99L19.815 4.49999ZM4.75 7.25999L6.67 12.375H2.835L4.755 7.25999H4.75ZM4.75 16.125C3.51 16.125 2.5 15.115 2.5 13.875H7C7 15.115 5.99 16.125 4.75 16.125ZM19.25 7.25999L21.17 12.375H17.335L19.255 7.25999H19.25ZM19.25 16.125C18.01 16.125 17 15.115 17 13.875H21.5C21.5 15.115 20.49 16.125 19.25 16.125Z" fill="black"/>
</g>
<defs>
<clipPath id="clip0_4711_24242">
<rect width="24" height="24" fill="white"/>
</clipPath>
</defs>
</svg>
