<svg width="24" height="24" viewBox="0 0 24 24" fill="none" xmlns="http://www.w3.org/2000/svg">
<g clip-path="url(#clip0_2459_6186)">
<path d="M23 14.75V9.25H20.3C20.165 8.845 20.005 8.455 19.815 8.075L21.725 6.165L17.835 2.275L15.925 4.185C15.545 3.995 15.155 3.835 14.75 3.7V1H9.25V3.7C8.845 3.835 8.455 3.995 8.075 4.185L6.165 2.275L2.275 6.165L4.185 8.075C3.995 8.455 3.835 8.845 3.7 9.25H1V14.75H3.7C3.835 15.155 3.995 15.545 4.185 15.925L2.275 17.835L6.165 21.725L8.075 19.815C8.455 20.005 8.845 20.17 9.25 20.3V23H14.75V20.3C15.155 20.165 15.545 20.005 15.925 19.815L17.835 21.725L21.725 17.835L19.815 15.925C20.005 15.545 20.165 15.155 20.3 14.75H23ZM19.6 17.835L17.83 19.605L16.175 17.95L15.675 18.245C15.095 18.59 14.47 18.845 13.81 19.015L13.245 19.16V21.505H10.745V19.16L10.18 19.015C9.525 18.845 8.895 18.585 8.315 18.245L7.815 17.95L6.16 19.605L4.39 17.835L6.045 16.18L5.75 15.68C5.41 15.1 5.15 14.475 4.98 13.815L4.835 13.255H2.49V10.755H4.835L4.98 10.195C5.15 9.54 5.41 8.91 5.75 8.33L6.045 7.83L4.39 6.175L6.16 4.405L7.815 6.06L8.315 5.765C8.895 5.42 9.52 5.165 10.18 4.995L10.745 4.85V2.505H13.245V4.85L13.81 4.995C14.465 5.165 15.095 5.425 15.675 5.765L16.175 6.06L17.83 4.405L19.6 6.175L17.945 7.83L18.24 8.33C18.58 8.91 18.84 9.535 19.01 10.195L19.155 10.755H21.5V13.255H19.155L19.01 13.815C18.84 14.47 18.58 15.1 18.24 15.68L17.945 16.18L19.6 17.835Z" fill="black"/>
<path d="M12 7.25C9.38 7.25 7.25 9.38 7.25 12C7.25 14.62 9.38 16.75 12 16.75C14.62 16.75 16.75 14.62 16.75 12C16.75 9.38 14.62 7.25 12 7.25ZM12 15.25C10.21 15.25 8.75 13.79 8.75 12C8.75 10.21 10.21 8.75 12 8.75C13.79 8.75 15.25 10.21 15.25 12C15.25 13.79 13.79 15.25 12 15.25Z" fill="black"/>
</g>
<defs>
<clipPath id="clip0_2459_6186">
<rect width="24" height="24" fill="white"/>
</clipPath>
</defs>
</svg>
