<svg width="24" height="24" viewBox="0 0 24 24" fill="none" xmlns="http://www.w3.org/2000/svg">
<g clip-path="url(#clip0_4711_19173)">
<path d="M20.5 11.38V11.35C20.5 9.29 18.83 7.61 16.77 7.6C16.04 4.9 13.6 3 10.75 3C7.305 3 4.5 5.805 4.5 9.25V9.3C2.44 10.03 1 12.02 1 14.25C1 17.145 3.355 19.5 6.25 19.5H18.75C21.095 19.5 23 17.595 23 15.25C23 13.57 22 12.06 20.5 11.38ZM18.75 18H6.25C4.18 18 2.5 16.32 2.5 14.25C2.5 12.5 3.74 10.96 5.445 10.59L6.105 10.445L6.03 9.775C6.01 9.6 6 9.43 6 9.25C6 6.63 8.13 4.5 10.75 4.5C13.08 4.5 15.045 6.17 15.43 8.47L15.535 9.1H16.755C17.995 9.1 19.005 10.11 19.005 11.35C19.005 11.475 18.99 11.605 18.965 11.75L18.845 12.42L19.5 12.605C20.68 12.935 21.505 14.025 21.505 15.25C21.505 16.765 20.27 18 18.755 18H18.75Z" fill="black"/>
<path d="M14.4 11.66L15.36 10.7L14.3 9.64L13.34 10.6C13.155 10.495 12.96 10.415 12.75 10.355V9H11.25V10.355C11.045 10.415 10.845 10.495 10.66 10.6L9.7 9.64L8.64 10.7L9.6 11.66C9.495 11.845 9.415 12.04 9.355 12.25H8V13.75H9.355C9.415 13.955 9.495 14.155 9.6 14.34L8.64 15.3L9.7 16.36L10.66 15.4C10.845 15.505 11.04 15.585 11.25 15.645V17H12.75V15.645C12.955 15.585 13.155 15.505 13.34 15.4L14.3 16.36L15.36 15.3L14.4 14.34C14.505 14.155 14.585 13.96 14.645 13.75H16V12.25H14.645C14.585 12.045 14.505 11.845 14.4 11.66ZM12 14.25C11.31 14.25 10.75 13.69 10.75 13C10.75 12.31 11.31 11.75 12 11.75C12.69 11.75 13.25 12.31 13.25 13C13.25 13.69 12.69 14.25 12 14.25Z" fill="black"/>
</g>
<defs>
<clipPath id="clip0_4711_19173">
<rect width="24" height="24" fill="white"/>
</clipPath>
</defs>
</svg>
