<svg width="24" height="24" viewBox="0 0 24 24" fill="none" xmlns="http://www.w3.org/2000/svg">
<g clip-path="url(#clip0_2930_8707)">
<path d="M23 5.75H18V3.75H1V20.25H18V18.25H23V5.75ZM16.5 18.75H2.5V5.25H16.5V18.75ZM21.5 16.75H18V14.5H20V13H18V11H20V9.5H18V7.25H21.5V16.75Z" fill="black"/>
<path d="M10.5 7.75C8.155 7.75 6.25 9.655 6.25 12C6.25 14.345 8.155 16.25 10.5 16.25C12.845 16.25 14.75 14.345 14.75 12C14.75 9.655 12.845 7.75 10.5 7.75ZM10.5 14.75C8.985 14.75 7.75 13.515 7.75 12C7.75 10.485 8.985 9.25 10.5 9.25C12.015 9.25 13.25 10.485 13.25 12C13.25 13.515 12.015 14.75 10.5 14.75Z" fill="black"/>
</g>
<defs>
<clipPath id="clip0_2930_8707">
<rect width="24" height="24" fill="white"/>
</clipPath>
</defs>
</svg>
