<svg width="24" height="24" viewBox="0 0 24 24" fill="none" xmlns="http://www.w3.org/2000/svg">
<g clip-path="url(#clip0_4711_24198)">
<path d="M19.625 6.00012H17.91L21.06 2.50012L19.945 1.49512L17.695 3.99512H1V17.4951H4.09C4.185 17.8851 4.345 18.2551 4.565 18.5751L1.94 21.4901L3.055 22.4951L5.675 19.5851C6.14 19.8451 6.68 19.9951 7.25 19.9951C8.785 19.9951 10.07 18.9251 10.41 17.4951H13.59C13.93 18.9251 15.215 19.9951 16.75 19.9951C18.285 19.9951 19.57 18.9251 19.91 17.4951H23V10.4951L19.625 5.99512V6.00012ZM21.125 10.5001H17.5V7.50012H18.875L21.125 10.5001ZM2.5 5.50012H16V5.88012L8.79 13.8901C8.33 13.6401 7.805 13.5001 7.25 13.5001C5.715 13.5001 4.43 14.5701 4.09 16.0001H2.5V5.50012ZM5.5 16.7501C5.5 15.7851 6.285 15.0001 7.25 15.0001C7.415 15.0001 7.575 15.0301 7.725 15.0751L5.63 17.4051C5.55 17.2051 5.5 16.9851 5.5 16.7551V16.7501ZM7.25 18.5001C7.07 18.5001 6.9 18.4651 6.735 18.4151L8.855 16.0601C8.945 16.2701 9 16.5051 9 16.7501C9 17.7151 8.215 18.5001 7.25 18.5001ZM13.59 16.0001H10.41C10.315 15.5951 10.145 15.2201 9.91 14.8901L16 8.12512V13.5951C14.81 13.8801 13.875 14.8151 13.59 16.0051V16.0001ZM16.75 18.5001C15.785 18.5001 15 17.7151 15 16.7501C15 15.7851 15.785 15.0001 16.75 15.0001C17.715 15.0001 18.5 15.7851 18.5 16.7501C18.5 17.7151 17.715 18.5001 16.75 18.5001ZM21.5 16.0001H19.91C19.625 14.8101 18.69 13.8751 17.5 13.5901V12.0001H21.5V16.0001Z" fill="black"/>
</g>
<defs>
<clipPath id="clip0_4711_24198">
<rect width="24" height="24" fill="white"/>
</clipPath>
</defs>
</svg>
