<svg width="24" height="24" viewBox="0 0 24 24" fill="none" xmlns="http://www.w3.org/2000/svg">
<g clip-path="url(#clip0_2459_4861)">
<path d="M1 3V21H23V3H1ZM21.5 19.5H2.5V4.5H21.5V19.5Z" fill="black"/>
<path d="M4.25 7C4.66421 7 5 6.66421 5 6.25C5 5.83579 4.66421 5.5 4.25 5.5C3.83579 5.5 3.5 5.83579 3.5 6.25C3.5 6.66421 3.83579 7 4.25 7Z" fill="black"/>
<path d="M6.25 7C6.66421 7 7 6.66421 7 6.25C7 5.83579 6.66421 5.5 6.25 5.5C5.83579 5.5 5.5 5.83579 5.5 6.25C5.5 6.66421 5.83579 7 6.25 7Z" fill="black"/>
<path d="M8.25 7C8.66421 7 9 6.66421 9 6.25C9 5.83579 8.66421 5.5 8.25 5.5C7.83579 5.5 7.5 5.83579 7.5 6.25C7.5 6.66421 7.83579 7 8.25 7Z" fill="black"/>
<path d="M10.76 13.53L12.96 13.945C13.2 13.99 13.375 14.175 13.375 14.4C13.375 14.87 12.95 15.25 12.425 15.25H11.695C11.25 15.25 10.84 15.015 10.645 14.655L9.32 15.36C9.71 16.09 10.425 16.58 11.25 16.715V18.005H12.75V16.725C13.945 16.57 14.875 15.595 14.875 14.39C14.875 13.46 14.185 12.655 13.24 12.475L11.04 12.06C10.8 12.015 10.625 11.83 10.625 11.605C10.625 11.135 11.05 10.755 11.575 10.755H12.305C12.75 10.755 13.16 10.99 13.355 11.35L14.68 10.645C14.29 9.915 13.575 9.425 12.75 9.29V8H11.25V9.28C10.055 9.435 9.125 10.41 9.125 11.615C9.125 12.545 9.815 13.35 10.76 13.53Z" fill="black"/>
</g>
<defs>
<clipPath id="clip0_2459_4861">
<rect width="24" height="24" fill="white"/>
</clipPath>
</defs>
</svg>
