<svg width="24" height="24" viewBox="0 0 24 24" fill="none" xmlns="http://www.w3.org/2000/svg">
<g clip-path="url(#clip0_4711_19160)">
<path d="M18 13C18.5523 13 19 12.5523 19 12C19 11.4477 18.5523 11 18 11C17.4477 11 17 11.4477 17 12C17 12.5523 17.4477 13 18 13Z" fill="black"/>
<path d="M15 13C15.5523 13 16 12.5523 16 12C16 11.4477 15.5523 11 15 11C14.4477 11 14 11.4477 14 12C14 12.5523 14.4477 13 15 13Z" fill="black"/>
<path d="M2 7.5V16.5H22V7.5H2ZM20.5 15H3.5V9H20.5V15Z" fill="black"/>
</g>
<defs>
<clipPath id="clip0_4711_19160">
<rect width="24" height="24" fill="white"/>
</clipPath>
</defs>
</svg>
