<svg width="24" height="24" viewBox="0 0 24 24" fill="none" xmlns="http://www.w3.org/2000/svg">
<g clip-path="url(#clip0_4711_24228)">
<path d="M22.75 16.3001V11.9401L15.7 9.35509L22.03 3.02509L20.97 1.96509L14.75 8.18509V4.16009C14.765 3.19009 14.31 2.36009 13.505 1.89009C12.605 1.36509 11.4 1.36509 10.5 1.89009C9.695 2.36009 9.24 3.19009 9.255 4.15009V9.00509L1.25 11.9451V16.3051L7.845 15.0951L1.97 20.9701L3.03 22.0301L9.25 15.8101V18.3051L6.75 19.2851V22.5051H17.25V19.2851L14.75 18.3051V14.8351L22.75 16.3001ZM2.75 14.5001V12.9901L10.75 10.0551V4.14009C10.745 3.70509 10.915 3.38509 11.255 3.18509C11.69 2.93509 12.315 2.93009 12.75 3.18509C13.09 3.38509 13.26 3.70509 13.255 4.15009V9.68509L9.72 13.2201L2.755 14.4951L2.75 14.5001ZM15.75 20.3051V21.0001H8.25V20.3051L10.75 19.3251V14.3101L14.53 10.5251L21.25 12.9901V14.5001L13.25 13.0351V19.3251L15.75 20.3051Z" fill="black"/>
</g>
<defs>
<clipPath id="clip0_4711_24228">
<rect width="24" height="24" fill="white"/>
</clipPath>
</defs>
</svg>
