<svg width="24" height="24" viewBox="0 0 24 24" fill="none" xmlns="http://www.w3.org/2000/svg">
<g clip-path="url(#clip0_4711_22538)">
<path d="M3.5 4.75C3.5 4.06 4.06 3.5 4.75 3.5H8.5V2H4.75C3.235 2 2 3.235 2 4.75V8H3.5V4.75Z" fill="black"/>
<path d="M19.25 2H15.5V3.5H19.25C19.94 3.5 20.5 4.06 20.5 4.75V8.5H22V4.75C22 3.235 20.765 2 19.25 2Z" fill="black"/>
<path d="M3.5 19.25V15.5H2V19.25C2 20.765 3.235 22 4.75 22H8.5V20.5H4.75C4.06 20.5 3.5 19.94 3.5 19.25Z" fill="black"/>
<path d="M20.5 19.25C20.5 19.94 19.94 20.5 19.25 20.5H15.5V22H19.25C20.765 22 22 20.765 22 19.25V15.5H20.5V19.25Z" fill="black"/>
<path d="M8.25 7.25H6.75V10.75H8.25V7.25Z" fill="black"/>
<path d="M16.75 7.25H15.25V10.75H16.75V7.25Z" fill="black"/>
<path d="M12.75 12.25V7.25H11.25V12.25C11.25 12.39 11.14 12.5 11 12.5H10.5V14H11C11.965 14 12.75 13.215 12.75 12.25Z" fill="black"/>
<path d="M15.97 14.4701C14.715 15.7251 13.575 16.5001 11.75 16.5001C10.23 16.5001 9.215 15.9201 7.97 14.9151L7.03 16.0801C8.455 17.2301 9.805 17.9951 11.75 17.9951C14.22 17.9951 15.75 16.8101 17.03 15.5251L15.97 14.4651V14.4701Z" fill="black"/>
</g>
<defs>
<clipPath id="clip0_4711_22538">
<rect width="24" height="24" fill="white"/>
</clipPath>
</defs>
</svg>
