<svg width="24" height="24" viewBox="0 0 24 24" fill="none" xmlns="http://www.w3.org/2000/svg">
<g clip-path="url(#clip0_4711_24188)">
<path d="M14.405 2.5H12.905V7H14.405V2.5Z" fill="black"/>
<path d="M8.53075 4.31288L7.47009 5.37354L10.6521 8.55552L11.7127 7.49486L8.53075 4.31288Z" fill="black"/>
<path d="M10.155 9.75H5.65503V11.25H10.155V9.75Z" fill="black"/>
<path d="M10.6505 12.4474L2.46924 20.6287L3.5299 21.6893L11.7111 13.5081L10.6505 12.4474Z" fill="black"/>
<path d="M14.405 14H12.905V18.5H14.405V14Z" fill="black"/>
<path d="M16.6619 12.4442L15.6012 13.5049L18.7832 16.6869L19.8438 15.6262L16.6619 12.4442Z" fill="black"/>
<path d="M21.655 9.75H17.155V11.25H21.655V9.75Z" fill="black"/>
<path d="M18.7844 4.31045L15.6024 7.49243L16.6631 8.55309L19.8451 5.37111L18.7844 4.31045Z" fill="black"/>
</g>
<defs>
<clipPath id="clip0_4711_24188">
<rect width="24" height="24" fill="white"/>
</clipPath>
</defs>
</svg>
