<svg width="24" height="24" viewBox="0 0 24 24" fill="none" xmlns="http://www.w3.org/2000/svg">
<g clip-path="url(#clip0_2459_6153)">
<path d="M12 1C5.935 1 1 5.935 1 12C1 18.065 5.935 23 12 23H12.75V16.965C14.58 16.72 16 15.15 16 13.25V10H14.5V6.5H13V10H11V6.5H9.5V10H8V13.25C8 15.15 9.42 16.715 11.25 16.965V21.475C6.36 21.09 2.5 16.99 2.5 12.005C2.5 6.76 6.76 2.5 12 2.5C17.24 2.5 21.5 6.76 21.5 12C21.5 14.535 20.51 16.925 18.72 18.72L19.78 19.78C21.86 17.7 23 14.94 23 12C23 5.935 18.065 1 12 1ZM9.5 13.25V11.5H14.5V13.25C14.5 14.49 13.49 15.5 12.25 15.5H11.75C10.51 15.5 9.5 14.49 9.5 13.25Z" fill="black"/>
</g>
<defs>
<clipPath id="clip0_2459_6153">
<rect width="24" height="24" fill="white"/>
</clipPath>
</defs>
</svg>
