<svg width="24" height="24" viewBox="0 0 24 24" fill="none" xmlns="http://www.w3.org/2000/svg">
<g clip-path="url(#clip0_4711_23533)">
<path d="M18.83 4L17.605 2.5H13.5V10.5H23V4H18.83ZM21.5 9H15V4H16.895L18.12 5.5H21.5V9Z" fill="black"/>
<path d="M5.105 13H1V21H10.5V14.5H6.33L5.105 13ZM9 19.5H2.5V14.5H4.395L5.62 16H9V19.5Z" fill="black"/>
<path d="M6.5 7.49997C6.5 7.35997 6.61 7.24997 6.75 7.24997H9.19L7.97 8.46997L9.03 9.52997L12.06 6.49997L9.03 3.46997L7.97 4.52997L9.19 5.74997H6.75C5.785 5.74997 5 6.53497 5 7.49997V11.5H6.5V7.49997Z" fill="black"/>
<path d="M17.75 16.5C17.75 16.64 17.64 16.75 17.5 16.75H14.81L16.03 15.53L14.97 14.47L11.94 17.5L14.97 20.53L16.03 19.47L14.81 18.25H17.5C18.465 18.25 19.25 17.465 19.25 16.5V12H17.75V16.5Z" fill="black"/>
</g>
<defs>
<clipPath id="clip0_4711_23533">
<rect width="24" height="24" fill="white"/>
</clipPath>
</defs>
</svg>
